<?xml version="1.0" encoding="UTF-8"?>
<svg width="282px" height="175px" viewBox="0 0 282 175" version="1.1" xmlns="http://www.w3.org/2000/svg" xmlns:xlink="http://www.w3.org/1999/xlink">
    <title>Img/SideAB</title>
    <defs>
        <rect id="path-1" x="0" y="0" width="262" height="155" rx="10"></rect>
        <polygon id="path-3" points="0.543397953 0.20972048 158.624323 0.20972048 158.624323 57.6116829 0.543397953 57.6116829"></polygon>
        <path d="M0.279398844,3.55073449 C0.50732948,2.93254412 0.638859345,2.27865279 0.657649326,1.60597148 L0.657649326,1.60597148 C0.582489403,0.952080154 0.438705202,0.495483622 0.279398844,0.172295954 L0.279398844,0.172295954 L0.279398844,3.55073449 Z" id="path-5"></path>
        <polygon id="path-7" points="0.116643558 0.129281822 46.1031309 0.129281822 46.1031309 43.2055557 0.116643558 43.2055557"></polygon>
        <polygon id="path-9" points="0.237879436 0.175734315 17.5837127 0.175734315 17.5837127 26.4985616 0.237879436 26.4985616"></polygon>
        <polygon id="path-11" points="0.0463087344 0.0499722408 27.2134627 0.0499722408 27.2134627 58.6718617 0.0463087344 58.6718617"></polygon>
        <polygon id="path-13" points="0.197537988 0.0507815079 27.3687179 0.0507815079 27.3687179 58.6718617 0.197537988 58.6718617"></polygon>
        <polygon id="path-15" points="0.0405679227 0.0374500857 27.5629387 0.0374500857 27.5629387 10.2878005 0.0405679227 10.2878005"></polygon>
        <path d="M0.139699422,0.832203396 C0.25366474,0.687315029 0.319429672,0.534059249 0.328824663,0.376399566 L0.328824663,0.376399566 C0.291244701,0.223143786 0.219352601,0.116128974 0.139699422,0.0403818642 L0.139699422,0.0403818642 L0.139699422,0.832203396 Z" id="path-17"></path>
        <polygon id="path-19" points="0.0216006589 0.0230372623 8.53761683 0.0230372623 8.53761683 7.69897658 0.0216006589 7.69897658"></polygon>
        <polygon id="path-21" points="0.0440517473 0.0313148241 3.25624309 0.0313148241 3.25624309 4.72188823 0.0440517473 4.72188823"></polygon>
        <polygon id="path-23" points="0.00857569156 0.00890476017 5.03953013 0.00890476017 5.03953013 10.4549816 0.00857569156 10.4549816"></polygon>
        <polygon id="path-25" points="0.0365811088 0.00904896681 5.0682811 0.00904896681 5.0682811 10.4549816 0.0365811088 10.4549816"></polygon>
    </defs>
    <g id="Img/SideAB" stroke="none" stroke-width="1" fill="none" fill-rule="evenodd">
        <g id="Group">
            <path d="M280.262695,148 C281.091122,148 281.762695,148.671573 281.762695,149.5 L281.762695,149.5 L281.762695,169.99707 L281.758328,170.218277 C281.642234,173.15329 279.226174,175.49707 276.262695,175.49707 L276.262695,175.49707 L255.5,175.49707 L255.35554,175.490204 C254.594888,175.417519 254,174.776766 254,173.99707 C254,173.168643 254.671573,172.49707 255.5,172.49707 L255.5,172.49707 L276.262695,172.49707 L276.427071,172.491753 C277.731159,172.407109 278.762695,171.322554 278.762695,169.99707 L278.762695,169.99707 L278.762695,149.5 L278.769562,149.35554 C278.842247,148.594888 279.482999,148 280.262695,148 Z M1.5,148 C2.27969612,148 2.92044868,148.594888 2.99313342,149.35554 L3,149.5 L3,169.99707 C3,171.322554 4.03153594,172.407109 5.33562431,172.491753 L5.5,172.49707 L26.2626953,172.49707 C27.0911224,172.49707 27.7626953,173.168643 27.7626953,173.99707 C27.7626953,174.776766 27.1678072,175.417519 26.4071553,175.490204 L26.2626953,175.49707 L5.5,175.49707 C2.53652085,175.49707 0.120460863,173.15329 0.00436720397,170.218277 L0,169.99707 L0,149.5 C0,148.671573 0.671572875,148 1.5,148 Z M276.262695,0 C279.226174,0 281.642234,2.34378001 281.758328,5.27879286 L281.762695,5.5 L281.762695,25.9970703 C281.762695,26.8254974 281.091122,27.4970703 280.262695,27.4970703 C279.482999,27.4970703 278.842247,26.9021822 278.769562,26.1415303 L278.762695,25.9970703 L278.762695,5.5 C278.762695,4.1745166 277.731159,3.08996133 276.427071,3.00531768 L276.262695,3 L255.5,3 C254.671573,3 254,2.32842712 254,1.5 C254,0.720303883 254.594888,0.0795513218 255.35554,0.00686657806 L255.5,0 L276.262695,0 Z M26.2626953,0 L26.4071553,0.00686657806 C27.1678072,0.0795513218 27.7626953,0.720303883 27.7626953,1.5 C27.7626953,2.32842712 27.0911224,3 26.2626953,3 L26.2626953,3 L5.5,3 L5.33562431,3.00531768 C4.03153594,3.08996133 3,4.1745166 3,5.5 L3,5.5 L3,25.9970703 L2.99313342,26.1415303 C2.92044868,26.9021822 2.27969612,27.4970703 1.5,27.4970703 C0.671572875,27.4970703 0,26.8254974 0,25.9970703 L0,25.9970703 L0,5.5 L0.00436720397,5.27879286 C0.120460863,2.34378001 2.53652085,0 5.5,0 L5.5,0 L26.2626953,0 Z" id="Combined-Shape" fill="#CCCCCC" fill-rule="nonzero"></path>
            <rect id="Rectangle" fill-opacity="0.1" fill="#F0C856" x="10" y="10" width="262" height="155" rx="10"></rect>
        </g>
        <g id="Group-3" transform="translate(10.000000, 10.000000)">
            <mask id="mask-2" fill="white">
                <use xlink:href="#path-1"></use>
            </mask>
            <use id="Mask" fill-opacity="0.1" fill="#F0C856" xlink:href="#path-1"></use>
            <g opacity="0.6" mask="url(#mask-2)">
                <g transform="translate(52.000000, 7.000000)">
                    <g id="Group-35-Copy-2">
                        <g id="Group-6" transform="translate(0.000000, 71.687861)">
                            <path d="M101.60883,21.4119022 C101.60883,47.5581572 57.8074412,52.6299588 57.8074412,21.4743182 C57.8074412,10.2897775 56.8637593,0.0837582169 56.8637593,0.0837582169 L101.845255,0.0455032621 C101.845255,0.0455032621 101.60883,10.2897775 101.60883,21.4119022" id="Fill-1" fill="#F9CEA6"></path>
                            <g id="Group-5" transform="translate(0.000000, 18.898227)">
                                <mask id="mask-4" fill="white">
                                    <use xlink:href="#path-3"></use>
                                </mask>
                                <g id="Clip-4"></g>
                                <path d="M158.624323,57.6122869 C155.209408,41.1304416 148.987299,18.7492796 139.877976,13.6915719 C139.291883,13.4539885 138.554399,13.2586869 137.648225,13.1036537 C121.458198,10.296948 113.791401,9.07480291 107.23191,4.39561791 C106.883714,2.12448164 105.97754,0.888242574 105.103806,0.20972048 L105.103806,30.0083169 L49.4919515,30.0083169 L49.4919515,5.99628575 C43.4060932,9.40500357 35.7652485,10.6452695 21.5973532,13.1036537 C20.6933415,13.2586869 19.9558584,13.4539885 19.3654393,13.6915719 C9.93819831,18.44324 3.85450278,41.0317841 0.543397953,57.6122869 L158.624323,57.6122869 Z" id="Fill-3" fill="#273566" mask="url(#mask-4)"></path>
                            </g>
                        </g>
                        <g id="Group-9" transform="translate(102.936416, 90.988439)">
                            <mask id="mask-6" fill="white">
                                <use xlink:href="#path-5"></use>
                            </mask>
                            <g id="Clip-8"></g>
                            <path d="M0.279398844,3.55073449 C0.50732948,2.93254412 0.638859345,2.27865279 0.657649326,1.60597148 L0.657649326,1.60597148 C0.582489403,0.952080154 0.438705202,0.495483622 0.279398844,0.172295954 L0.279398844,0.172295954 L0.279398844,3.55073449 Z" id="Fill-7" mask="url(#mask-6)"></path>
                        </g>
                        <g id="Group-34" transform="translate(44.115607, 0.000000)">
                            <g id="Group-12" transform="translate(13.312951, 104.943891)">
                                <mask id="mask-8" fill="white">
                                    <use xlink:href="#path-7"></use>
                                </mask>
                                <g id="Clip-11"></g>
                                <polygon id="Fill-10" fill="#FEFEFE" mask="url(#mask-8)" points="25.8404922 1.92383152 23.0062188 5.61813564 19.5418833 1.08017062 14.4993729 1.39578477 0.116643558 8.88555139 11.8482806 43.2065673 34.9451926 43.2065673 46.1031309 10.787329 34.7660376 0.129281822"></polygon>
                            </g>
                            <path d="M20.6336408,117.131859 C25.0923876,119.828741 43.7506826,120.919229 51.3416235,116.223457 C58.9345773,111.529708 47.0781356,107.55823 47.0781356,107.55823 C47.0781356,107.55823 32.0311235,116.338777 29.1666555,108.683111 C26.6725755,102.006658 20.6336408,117.131859 20.6336408,117.131859" id="Fill-13" fill="#172248"></path>
                            <path d="M30.439059,103.937771 C26.9485548,102.600457 15.9677586,97.3867544 14.8545817,92.0152443 L14.828413,89.0958133 C14.6532838,89.0695122 13.5743275,89.1140219 12.8254996,90.105374 C10.4260296,93.279724 6.81474668,96.4196802 6.81474668,96.4196802 L20.1507273,123.012196 L20.8532567,123.012196 C21.7228633,121.082094 25.8353778,112.25906 29.0742598,108.872277 C33.0096322,104.759177 33.8269013,108.135844 37.2912368,113.596374 C35.056831,108.661868 35.4010503,105.839549 30.439059,103.937771" id="Fill-15" fill="#FEFEFE"></path>
                            <path d="M42.8589333,103.937771 C46.3514505,102.600457 57.3262077,97.3867544 58.4454236,92.0152443 L58.4715923,89.0958133 C58.6447084,89.0695122 59.7216518,89.1140219 60.4704797,90.105374 C62.8719627,93.279724 66.4832456,96.4196802 66.4832456,96.4196802 L53.1492779,123.012196 L52.4467485,123.012196 C51.573116,121.082094 47.4606015,112.25906 44.2237325,108.872277 C40.2883601,104.759177 39.4710909,108.135844 36.0047425,113.596374 C38.2371353,108.661868 37.9009679,105.839549 42.8589333,103.937771" id="Fill-17" fill="#FEFEFE"></path>
                            <path d="M28.8880593,108.428596 C31.8189556,107.576843 39.913141,107.194464 43.3915673,108.804906 C44.8489635,113.201249 42.0931964,121.828036 42.0931964,121.828036 C40.0480105,122.263017 31.4626584,121.828036 31.4626584,121.828036 C29.4174726,120.007185 27.8835832,111.653526 28.8880593,108.428596" id="Fill-19" fill="#172248"></path>
                            <g id="Group-23" transform="translate(28.898179, 121.650885)">
                                <mask id="mask-10" fill="white">
                                    <use xlink:href="#path-9"></use>
                                </mask>
                                <g id="Clip-22"></g>
                                <polygon id="Fill-21" fill="#172248" mask="url(#mask-10)" points="17.5837127 26.8289135 13.1934072 -0.743340829 2.56488225 -0.743340829 0.237879436 26.8289135"></polygon>
                            </g>
                            <g id="Group-26" transform="translate(0.000000, 89.477585)">
                                <mask id="mask-12" fill="white">
                                    <use xlink:href="#path-11"></use>
                                </mask>
                                <g id="Clip-25"></g>
                                <path d="M0.678383894,33.7721305 C4.30174468,34.609722 6.66095515,34.4074052 9.93405772,34.2738761 C7.02127825,35.9308504 2.88058206,37.5473614 0.0463087344,38.2837944 C1.63656152,45.0047573 4.38628976,51.9320833 7.65134043,58.6732779 L27.2134627,58.6732779 C15.918642,26.6263024 10.1756151,5.61368326 13.2735886,0.0499722408 C9.29594363,2.60320981 7.99757268,3.9546858 2.45383068,7.71980078 C1.84591126,14.3335358 0.501241811,26.7497157 0.678383894,33.7721305 Z" id="Fill-24" fill="#172248" mask="url(#mask-12)"></path>
                            </g>
                            <g id="Group-29" transform="translate(45.779901, 89.477585)">
                                <mask id="mask-14" fill="white">
                                    <use xlink:href="#path-13"></use>
                                </mask>
                                <g id="Clip-28"></g>
                                <path d="M26.2474891,32.2231934 C26.4206052,25.1967322 25.5348948,14.5305923 24.959183,7.72061005 C19.415441,3.95347189 18.11707,2.60199591 14.1374121,0.0507815079 C17.2313596,5.60842303 11.4742419,26.6574592 0.197537988,58.672064 L19.7656992,58.672064 C23.0267239,51.9409853 25.7744392,45.0177056 27.3687179,38.2846037 C24.5304186,37.5461475 20.3897225,35.9316597 17.4809689,34.2746854 C21.4425101,33.03853 22.6261412,33.0587616 26.2474891,32.2231934" id="Fill-27" fill="#172248" mask="url(#mask-14)"></path>
                            </g>
                            <path d="M70.7831684,42.6094904 C70.354404,42.5953282 67.9992195,42.7369499 65.8392939,47.33561 C65.4507891,40.033998 65.7869564,34.2335763 62.316582,30.838701 C58.8522465,27.4438257 56.9157614,32.7101311 45.8343164,32.0121382 C33.1827483,31.212987 24.9194727,24.7975224 21.9161092,21.1962589 C21.9161092,21.1962589 7.69844412,21.0324074 7.85545642,47.1636407 C6.00552944,42.3930114 3.82547403,42.4638223 3.82547403,42.4638223 L3.82547403,42.4557296 C1.68165224,43.4794525 1.04353814,48.2055721 2.43249311,53.4172519 C3.77716256,58.4711247 6.55909845,62.2200543 8.89616615,62.3050274 C11.3902462,71.8159385 16.2797702,81.3126874 20.9156591,86.0428534 C26.3265445,91.5640779 28.9937406,93.9352303 37.0597443,94.0303192 L37.0597443,94.0323424 C37.1000039,94.0323424 37.1322116,94.0323424 37.1744841,94.0303192 C37.2087047,94.0323424 37.2509773,94.0323424 37.2892239,94.0323424 L37.2892239,94.0303192 C45.3512016,93.9352303 48.0224237,91.5640779 53.4333091,86.0428534 C58.0732239,81.3126874 62.9546961,71.8159385 65.4528021,62.3050274 C67.7898698,62.2200543 70.5718057,58.4711247 71.9164751,53.4172519 C73.2470537,48.4200278 72.7156274,43.8820628 70.7831684,42.6094904" id="Fill-30" fill="#F9CEA6"></path>
                            <path d="M21.9153041,21.1952724 C24.9186675,24.798534 33.1839561,31.2180449 45.8355242,32.0131498 C56.9169692,32.7111427 58.8534543,27.4448373 62.3157768,30.8397126 C65.7861512,34.2345879 65.4499839,40.0350095 65.8384887,47.3366216 C68.2218549,42.2625171 70.8548304,42.6105019 70.8548304,42.6105019 C72.3021617,32.5108491 70.8246357,15.5870517 63.219604,8.6536562 C54.3323052,0.552892946 30.4261759,-4.80243181 17.7564911,6.39782427 C10.9969102,7.34871307 2.57460937,14.6098617 3.03558138,27.972884 C3.49856637,41.3379295 3.82668182,42.4628107 3.82668182,42.4628107 C3.82668182,42.4628107 6.00673723,42.3919998 7.8566642,47.1646523 C7.6996519,21.0313958 21.9153041,21.1952724 21.9153041,21.1952724" id="Fill-32" fill="#454444"></path>
                        </g>
                    </g>
                    <g id="card" transform="translate(4.595376, 93.745665)">
                        <g id="Group-2">
                            <rect id="Rectangle" stroke="#6B6E75" fill="#CFD2DC" x="0" y="0" width="66.1734104" height="36.7630058" rx="4"></rect>
                            <g id="Group-4" transform="translate(12.867052, 6.433526)" fill="#283562" fill-opacity="0.8">
                                <rect id="Rectangle" x="0" y="5.22433734e-14" width="22.9768786" height="2.75722543"></rect>
                                <rect id="Rectangle-Copy" x="0" y="5.51445087" width="36.7630058" height="2.75722543"></rect>
                                <rect id="Rectangle-Copy-2" x="0" y="11.0289017" width="45.0346821" height="2.75722543"></rect>
                                <rect id="Rectangle" x="0" y="16.5433526" width="22.9768786" height="2.75722543"></rect>
                                <rect id="Rectangle-Copy" x="0" y="22.0578035" width="36.7630058" height="2.75722543"></rect>
                            </g>
                        </g>
                        <g id="Group-15" transform="translate(84.554913, 0.000000)">
                            <rect id="Rectangle" stroke="#6B6E75" fill="#CFD2DC" x="0" y="0" width="66.1734104" height="36.7630058" rx="4"></rect>
                            <g id="Group-35-Copy" transform="translate(35.843931, 4.595376)">
                                <g id="Group-6" transform="translate(0.000000, 12.924494)">
                                    <path d="M17.9057849,3.82355397 C17.9057849,8.49252807 9.74403547,9.39820693 9.74403547,3.83469968 C9.74403547,1.83746026 9.56819413,0.0149568244 9.56819413,0.0149568244 L17.9498393,0.00812558251 C17.9498393,0.00812558251 17.9057849,1.83746026 17.9057849,3.82355397" id="Fill-1" fill="#F9CEA6"></path>
                                    <g id="Group-5" transform="translate(0.000000, 3.374683)">
                                        <mask id="mask-16" fill="white">
                                            <use xlink:href="#path-15"></use>
                                        </mask>
                                        <g id="Clip-4"></g>
                                        <path d="M27.5629387,10.2879084 C26.9683917,7.34472172 25.8851036,3.34808565 24.2991427,2.44492356 C24.197102,2.40249795 24.0687039,2.36762266 23.9109362,2.33993816 C21.0922032,1.83874072 19.7573904,1.62050052 18.615363,0.784931769 C18.5547411,0.379371722 18.3969734,0.158614745 18.2448537,0.0374500857 L18.2448537,5.35862801 L8.56266028,5.35862801 L8.56266028,1.07076531 C7.50309381,1.67946492 6.17279945,1.90094098 3.70612569,2.33993816 C3.54873451,2.36762266 3.42033644,2.40249795 3.31754268,2.44492356 C1.6762313,3.29343572 0.617041364,7.32710431 0.0405679227,10.2879084 L27.5629387,10.2879084 Z" id="Fill-3" fill="#273566" mask="url(#mask-16)"></path>
                                    </g>
                                </g>
                                <g id="Group-9" transform="translate(18.256174, 16.371026)">
                                    <mask id="mask-18" fill="white">
                                        <use xlink:href="#path-17"></use>
                                    </mask>
                                    <g id="Clip-8"></g>
                                    <path d="M0.139699422,0.832203396 C0.25366474,0.687315029 0.319429672,0.534059249 0.328824663,0.376399566 L0.328824663,0.376399566 C0.291244701,0.223143786 0.219352601,0.116128974 0.139699422,0.0403818642 L0.139699422,0.0403818642 L0.139699422,0.832203396 Z" id="Fill-7" mask="url(#mask-18)"></path>
                                </g>
                                <g id="Group-34" transform="translate(7.352601, 0.000000)">
                                    <g id="Group-12" transform="translate(2.465361, 18.700386)">
                                        <mask id="mask-20" fill="white">
                                            <use xlink:href="#path-19"></use>
                                        </mask>
                                        <g id="Clip-11"></g>
                                        <polygon id="Fill-10" fill="#FEFEFE" mask="url(#mask-20)" points="4.78527632 0.342815492 4.26041089 1.00111881 3.61886728 0.192480067 2.68506905 0.248720658 0.0216006589 1.58335313 2.19412603 7.69915683 6.47133197 7.69915683 8.53761683 1.92223874 6.4381551 0.0230372623"></polygon>
                                    </g>
                                    <path d="M3.8210446,20.8722101 C4.64673844,21.3527788 8.10197826,21.5470972 9.50770805,20.7103382 C10.9138106,19.8739397 8.71817326,19.1662456 8.71817326,19.1662456 C8.71817326,19.1662456 5.93168953,20.7308876 5.40123249,19.3666928 C4.93936583,18.176988 3.8210446,20.8722101 3.8210446,20.8722101" id="Fill-13" fill="#172248"></path>
                                    <path d="M5.63686278,18.5211011 C4.99047311,18.2827996 2.95699234,17.3537483 2.75084846,16.3965767 L2.7460024,15.8763513 C2.71357108,15.8716646 2.51376436,15.8795959 2.37509252,16.0562491 C1.93074622,16.6218996 1.26199013,17.1814214 1.26199013,17.1814214 L3.73161618,21.9200517 L3.86171421,21.9200517 C4.02275247,21.5761188 4.78432923,20.0039059 5.38412218,19.4004011 C6.11289485,18.6674708 6.26424099,19.2691731 6.9057846,20.2422074 C6.49200574,19.3629074 6.55575005,18.8599867 5.63686278,18.5211011" id="Fill-15" fill="#FEFEFE"></path>
                                    <path d="M7.9368395,18.5211011 C8.58360194,18.2827996 10.6159644,17.3537483 10.8232266,16.3965767 L10.8280726,15.8763513 C10.8601312,15.8716646 11.0595651,15.8795959 11.198237,16.0562491 C11.6429561,16.6218996 12.3117121,17.1814214 12.3117121,17.1814214 L9.84245887,21.9200517 L9.71236084,21.9200517 C9.55057703,21.5761188 8.78900027,20.0039059 8.18958009,19.4004011 C7.46080743,18.6674708 7.30946129,19.2691731 6.6675449,20.2422074 C7.08095098,19.3629074 7.01869777,18.8599867 7.9368395,18.5211011" id="Fill-17" fill="#FEFEFE"></path>
                                    <path d="M5.34964061,19.3213398 C5.89239918,19.1695623 7.3913224,19.1014247 8.03547543,19.3883959 C8.30536362,20.1717985 7.79503636,21.7090413 7.79503636,21.7090413 C7.41629824,21.7865524 5.82641823,21.7090413 5.82641823,21.7090413 C5.4476801,21.3845763 5.16362651,19.8960033 5.34964061,19.3213398" id="Fill-19" fill="#172248"></path>
                                    <g id="Group-23" transform="translate(5.351515, 21.677474)">
                                        <mask id="mask-22" fill="white">
                                            <use xlink:href="#path-21"></use>
                                        </mask>
                                        <g id="Clip-22"></g>
                                        <polygon id="Fill-21" fill="#172248" mask="url(#mask-22)" points="3.25624309 4.72199638 2.44322356 0.0313148241 0.474978195 0.0313148241 0.0440517473 4.72199638"></polygon>
                                    </g>
                                    <g id="Group-26" transform="translate(0.000000, 15.944381)">
                                        <mask id="mask-24" fill="white">
                                            <use xlink:href="#path-23"></use>
                                        </mask>
                                        <g id="Clip-25"></g>
                                        <path d="M0.125626647,6.01799555 C0.796619385,6.16724942 1.23351021,6.13119776 1.83964032,6.10740367 C1.30023671,6.40266677 0.533441122,6.69071953 0.00857569156,6.82194758 C0.303066949,8.01958374 0.812275882,9.2539926 1.41691489,10.4552339 L5.03953013,10.4552339 C2.94789666,4.7446509 1.88437317,1.00032543 2.45807196,0.00890476017 C1.72147104,0.463876717 1.48103198,0.70470181 0.454413089,1.37562321 C0.341835418,2.554152 0.0928225575,4.76664241 0.125626647,6.01799555 Z" id="Fill-24" fill="#172248" mask="url(#mask-24)"></path>
                                    </g>
                                    <g id="Group-29" transform="translate(8.477759, 15.944381)">
                                        <mask id="mask-26" fill="white">
                                            <use xlink:href="#path-25"></use>
                                        </mask>
                                        <g id="Clip-28"></g>
                                        <path d="M4.86064612,5.74198403 C4.89270466,4.48990986 4.72868422,2.58926632 4.62207093,1.37576742 C3.59545204,0.7044855 3.35501297,0.463660407 2.61803928,0.00904896681 C3.19099252,0.999388083 2.12485962,4.75020285 0.0365811088,10.4550176 L3.66031467,10.4550176 C4.26420813,9.25557887 4.77304429,8.02189105 5.0682811,6.82209178 C4.54267012,6.69050322 3.77587453,6.40281097 3.23721647,6.10754787 C3.9708352,5.88727223 4.19002616,5.89087739 4.86064612,5.74198403" id="Fill-27" fill="#172248" mask="url(#mask-26)"></path>
                                    </g>
                                    <path d="M13.1079941,7.59276122 C13.0285933,7.59023761 12.5924481,7.61547377 12.1924618,8.43492802 C12.1205165,7.13382359 12.1827697,6.10022248 11.5401078,5.49527561 C10.8985642,4.89032875 10.5399558,5.82875347 8.48783637,5.70437524 C6.14495339,5.56197118 4.61471717,4.41877303 4.05853875,3.77704899 C4.05853875,3.77704899 1.4256378,3.74785162 1.45471415,8.4042841 C1.11213508,7.55418595 0.708421117,7.56680403 0.708421117,7.56680403 L0.708421117,7.56536196 C0.311417081,7.74778336 0.193247804,8.58995016 0.450461687,9.51864093 C0.699474547,10.4192114 1.21464786,11.0872487 1.64743818,11.1023904 C2.10930484,12.7971789 3.01477227,14.4894439 3.8732702,15.3323317 C4.87528602,16.3161815 5.36921123,16.738707 6.86291562,16.7556513 L6.86291562,16.7560118 C6.87037109,16.7560118 6.87633547,16.7560118 6.88416372,16.7556513 C6.89050088,16.7560118 6.89832913,16.7560118 6.90541183,16.7560118 L6.90541183,16.7556513 C8.39837067,16.738707 8.89304143,16.3161815 9.89505725,15.3323317 C10.7543007,14.4894439 11.6582771,12.7971789 12.1208893,11.1023904 C12.5536796,11.0872487 13.0688529,10.4192114 13.3178658,9.51864093 C13.5642692,8.62816492 13.4658569,7.81952617 13.1079941,7.59276122" id="Fill-30" fill="#F9CEA6"></path>
                                    <path d="M4.05838964,3.77687321 C4.61456806,4.41895328 6.14517705,5.56287247 8.48806003,5.7045555 C10.5401795,5.82893373 10.8987878,4.890509 11.5399587,5.49545587 C12.1826206,6.10040273 12.1203674,7.13400384 12.1923127,8.43510827 C12.6336768,7.53093263 13.1212649,7.59294148 13.1212649,7.59294148 C13.3892892,5.79324259 13.1156733,2.77752118 11.7073341,1.54203077 C10.061538,0.0985222795 5.63447703,-0.855765176 3.28823909,1.14005475 C2.03646486,1.30949756 0.476779513,2.60339166 0.5621447,4.98460384 C0.647882661,7.36617654 0.708644782,7.56662377 0.708644782,7.56662377 C0.708644782,7.56662377 1.11235875,7.55400569 1.45493782,8.40446436 C1.42586146,3.74767136 4.05838964,3.77687321 4.05838964,3.77687321" id="Fill-32" fill="#454444"></path>
                                </g>
                            </g>
                        </g>
                    </g>
                    <g id="positive-vote" transform="translate(129.589595, 142.456647) scale(-1, 1) translate(-129.589595, -142.456647) translate(100.179191, 119.479769)">
                        <path d="M44.8927498,25.2857857 C44.6203188,25.4688711 42.4755421,27.8451146 41.004753,28.8242956 C37.4645351,31.1812034 35.0698073,32.6287383 33.5879781,32.9336756 C32.106149,33.2386129 29.8997735,33.1277881 28.9692843,33.7527361 L27.2258212,34.9248555 L17.4624277,20.3259305 C17.9377557,14.9668815 18.4817781,12.0754641 19.0944949,11.6516784 C20.01357,11.0159997 23.6522732,11.5521252 25.2682837,11.3686185 L28.6876332,8.02981564 L40.215035,1.47924875 C42.2850857,0.057186314 45.1474759,0.33235632 45.2039795,2.17402057 C45.2604831,4.01568481 41.341597,6.41057897 39.9988414,7.31223937 C39.982659,7.3231828 41.5822393,6.87344173 41.5899454,6.88790276 C41.5976514,6.9023638 40.5770883,7.32005611 40.5951973,7.31223937 C40.9377251,7.17857325 48.0520368,2.3435743 48.4072795,2.3435743 C48.9744348,2.3435743 50.2315949,1.85861529 50.7124439,2.17402057 C51.0437982,2.3913258 51.2414489,2.35060652 51.6887772,3.03613422 C52.1361055,3.72166193 52.1210542,4.25927878 51.9746418,5.00655863 C51.7450056,6.18375891 43.4791357,12.4763653 43.3134586,12.5904896 C43.2853319,12.6104223 43.277626,12.6498968 43.2972761,12.6796004 C43.7584828,12.1633851 44.0886736,11.8451285 44.1156442,11.8279317 C44.3518306,11.769697 52.4335593,5.73125122 53.5347168,5.56201884 C54.6358742,5.39278645 55.1661908,5.69109696 55.6489791,5.90628069 C56.1317673,6.12146443 56.2903339,6.52862032 56.5094826,6.88790276 C58.1512973,9.57956917 47.1567833,17.1996274 45.7951483,18.1137945 C45.7616275,18.1368539 45.7281068,18.1599133 45.694586,18.1818001 C45.6753213,18.1974336 45.6695418,18.2224471 45.6795595,18.2400348 C45.681486,18.244334 45.6861095,18.249024 45.6903478,18.2509782 C45.7053744,18.2630942 45.7292627,18.2642666 45.7489128,18.249024 C46.5946368,17.9566782 54.4655801,11.4884393 55.6489791,11.3686185 C56.8323781,11.2487976 57.547525,11.5880474 57.7867936,11.9546523 C58.6880003,13.3354785 57.2921482,15.830917 55.9320544,16.7450841 L44.8927498,25.2857857 Z" id="Path" fill="#F9CEA6" fill-rule="nonzero"></path>
                        <path d="M22.2437243,40.7783497 L14.1509889,45.9537572 C6.6591271,42.9563701 1.14083483,36.2898591 0,28.2738029 L9.39155022,22.2676432 L15.1086927,18.6110433 C15.7669423,18.1897848 16.6550878,18.3647399 17.0913009,19.0015613 L28.2536405,35.2777002 C28.6898535,35.9145216 28.5086876,36.7707011 27.8492592,37.1934777 L22.2437243,40.7783497 Z" id="Path" fill="#273566" fill-rule="nonzero"></path>
                        <path d="M27.8734052,36.9087021 L22.4786751,40.4393064 L10.1098266,22.2088148 L15.6119672,18.6075685 C16.2454623,18.192687 17.1002077,18.3649936 17.5200164,18.9921749 L28.2625791,35.0215519 C28.6823877,35.6491069 28.5080348,36.4923255 27.8734052,36.9087021 L27.8734052,36.9087021 Z" id="Path" fill="#172248" fill-rule="nonzero"></path>
                        <g id="Group" transform="translate(37.682081, 1.838150)" fill="#E6BC96" fill-rule="nonzero">
                            <path d="M5.47153751,5.23212023 C4.30433177,5.98836826 3.06599323,6.7193116 1.7565219,7.42495025 C1.15337884,7.75742818 0.405496534,7.58377473 0,7.0167672 L2.91496709,5.15526885 C2.92252537,5.16970752 4.19532044,4.37834802 4.2130822,4.37054338 C4.66140059,4.08888589 10.4313098,0.612515393 10.7251986,0.505424014 C11.2970962,0.297027764 12.4603804,-0.0174995303 12.9320111,0.297027764 C9.12556777,2.83084137 6.63874325,4.47587219 5.47153751,5.23212023 Z" id="Path"></path>
                            <path d="M17.6907941,3.96934553 C8.82782977,10.2011198 4.19529986,13.4282231 3.79320442,13.6506556 C3.39110898,13.873088 2.78108482,13.6731062 1.96313194,13.05071 C3.76444593,11.8990613 4.78213766,11.2576608 5.01620713,11.1265086 C5.2502766,10.9953564 5.52755861,10.7873715 5.84805315,10.502554 C6.08477783,10.2946626 7.17208457,9.49112626 9.10997336,8.09194505 C13.149177,5.28277482 15.3225937,3.84473785 15.6302236,3.77783415 C16.0916685,3.67747859 16.9651937,3.54772879 17.6907941,3.96934553 Z" id="Path"></path>
                            <path d="M19.300578,9.65028902 C19.2663034,9.65028902 6.72404665,18.8773345 6.32772915,19.0135353 C5.93141165,19.1497362 4.77996367,19.2292143 4.3729555,18.6622067 C6.23651821,17.4301295 7.17333836,16.8181233 7.18341594,16.8261881 C7.1985323,16.8382853 11.8633282,13.592989 12.6630313,13.07528 C13.4627343,12.557571 16.5989436,9.68147833 17.9668981,9.53046819 C19.3348526,9.37945804 19.3348526,9.65028902 19.300578,9.65028902 Z" id="Path"></path>
                        </g>
                    </g>
                    <g id="positive-vote" transform="translate(1.838150, 119.479769)">
                        <path d="M44.8927498,25.2857857 C44.6203188,25.4688711 42.4755421,27.8451146 41.004753,28.8242956 C37.4645351,31.1812034 35.0698073,32.6287383 33.5879781,32.9336756 C32.106149,33.2386129 29.8997735,33.1277881 28.9692843,33.7527361 L27.2258212,34.9248555 L17.4624277,20.3259305 C17.9377557,14.9668815 18.4817781,12.0754641 19.0944949,11.6516784 C20.01357,11.0159997 23.6522732,11.5521252 25.2682837,11.3686185 L28.6876332,8.02981564 L40.215035,1.47924875 C42.2850857,0.057186314 45.1474759,0.33235632 45.2039795,2.17402057 C45.2604831,4.01568481 41.341597,6.41057897 39.9988414,7.31223937 C39.982659,7.3231828 41.5822393,6.87344173 41.5899454,6.88790276 C41.5976514,6.9023638 40.5770883,7.32005611 40.5951973,7.31223937 C40.9377251,7.17857325 48.0520368,2.3435743 48.4072795,2.3435743 C48.9744348,2.3435743 50.2315949,1.85861529 50.7124439,2.17402057 C51.0437982,2.3913258 51.2414489,2.35060652 51.6887772,3.03613422 C52.1361055,3.72166193 52.1210542,4.25927878 51.9746418,5.00655863 C51.7450056,6.18375891 43.4791357,12.4763653 43.3134586,12.5904896 C43.2853319,12.6104223 43.277626,12.6498968 43.2972761,12.6796004 C43.7584828,12.1633851 44.0886736,11.8451285 44.1156442,11.8279317 C44.3518306,11.769697 52.4335593,5.73125122 53.5347168,5.56201884 C54.6358742,5.39278645 55.1661908,5.69109696 55.6489791,5.90628069 C56.1317673,6.12146443 56.2903339,6.52862032 56.5094826,6.88790276 C58.1512973,9.57956917 47.1567833,17.1996274 45.7951483,18.1137945 C45.7616275,18.1368539 45.7281068,18.1599133 45.694586,18.1818001 C45.6753213,18.1974336 45.6695418,18.2224471 45.6795595,18.2400348 C45.681486,18.244334 45.6861095,18.249024 45.6903478,18.2509782 C45.7053744,18.2630942 45.7292627,18.2642666 45.7489128,18.249024 C46.5946368,17.9566782 54.4655801,11.4884393 55.6489791,11.3686185 C56.8323781,11.2487976 57.547525,11.5880474 57.7867936,11.9546523 C58.6880003,13.3354785 57.2921482,15.830917 55.9320544,16.7450841 L44.8927498,25.2857857 Z" id="Path" fill="#F9CEA6" fill-rule="nonzero"></path>
                        <path d="M22.2437243,40.7783497 L14.1509889,45.9537572 C6.6591271,42.9563701 1.14083483,36.2898591 0,28.2738029 L9.39155022,22.2676432 L15.1086927,18.6110433 C15.7669423,18.1897848 16.6550878,18.3647399 17.0913009,19.0015613 L28.2536405,35.2777002 C28.6898535,35.9145216 28.5086876,36.7707011 27.8492592,37.1934777 L22.2437243,40.7783497 Z" id="Path" fill="#273566" fill-rule="nonzero"></path>
                        <path d="M27.8734052,36.9087021 L22.4786751,40.4393064 L10.1098266,22.2088148 L15.6119672,18.6075685 C16.2454623,18.192687 17.1002077,18.3649936 17.5200164,18.9921749 L28.2625791,35.0215519 C28.6823877,35.6491069 28.5080348,36.4923255 27.8734052,36.9087021 L27.8734052,36.9087021 Z" id="Path" fill="#172248" fill-rule="nonzero"></path>
                        <g id="Group" transform="translate(37.682081, 1.838150)" fill="#E6BC96" fill-rule="nonzero">
                            <path d="M5.47153751,5.23212023 C4.30433177,5.98836826 3.06599323,6.7193116 1.7565219,7.42495025 C1.15337884,7.75742818 0.405496534,7.58377473 0,7.0167672 L2.91496709,5.15526885 C2.92252537,5.16970752 4.19532044,4.37834802 4.2130822,4.37054338 C4.66140059,4.08888589 10.4313098,0.612515393 10.7251986,0.505424014 C11.2970962,0.297027764 12.4603804,-0.0174995303 12.9320111,0.297027764 C9.12556777,2.83084137 6.63874325,4.47587219 5.47153751,5.23212023 Z" id="Path"></path>
                            <path d="M17.6907941,3.96934553 C8.82782977,10.2011198 4.19529986,13.4282231 3.79320442,13.6506556 C3.39110898,13.873088 2.78108482,13.6731062 1.96313194,13.05071 C3.76444593,11.8990613 4.78213766,11.2576608 5.01620713,11.1265086 C5.2502766,10.9953564 5.52755861,10.7873715 5.84805315,10.502554 C6.08477783,10.2946626 7.17208457,9.49112626 9.10997336,8.09194505 C13.149177,5.28277482 15.3225937,3.84473785 15.6302236,3.77783415 C16.0916685,3.67747859 16.9651937,3.54772879 17.6907941,3.96934553 Z" id="Path"></path>
                            <path d="M19.300578,9.65028902 C19.2663034,9.65028902 6.72404665,18.8773345 6.32772915,19.0135353 C5.93141165,19.1497362 4.77996367,19.2292143 4.3729555,18.6622067 C6.23651821,17.4301295 7.17333836,16.8181233 7.18341594,16.8261881 C7.1985323,16.8382853 11.8633282,13.592989 12.6630313,13.07528 C13.4627343,12.557571 16.5989436,9.68147833 17.9668981,9.53046819 C19.3348526,9.37945804 19.3348526,9.65028902 19.300578,9.65028902 Z" id="Path"></path>
                        </g>
                    </g>
                </g>
            </g>
        </g>
    </g>
</svg>