<?xml version="1.0" encoding="UTF-8"?>
<svg width="282px" height="175px" viewBox="0 0 282 175" version="1.1" xmlns="http://www.w3.org/2000/svg" xmlns:xlink="http://www.w3.org/1999/xlink">
    <title>Img/SideB</title>
    <g id="Img/SideB" stroke="none" stroke-width="1" fill="none" fill-rule="evenodd">
        <g id="Group">
            <path d="M280.262695,148 C281.091122,148 281.762695,148.671573 281.762695,149.5 L281.762695,149.5 L281.762695,169.99707 L281.758328,170.218277 C281.642234,173.15329 279.226174,175.49707 276.262695,175.49707 L276.262695,175.49707 L255.5,175.49707 L255.35554,175.490204 C254.594888,175.417519 254,174.776766 254,173.99707 C254,173.168643 254.671573,172.49707 255.5,172.49707 L255.5,172.49707 L276.262695,172.49707 L276.427071,172.491753 C277.731159,172.407109 278.762695,171.322554 278.762695,169.99707 L278.762695,169.99707 L278.762695,149.5 L278.769562,149.35554 C278.842247,148.594888 279.482999,148 280.262695,148 Z M1.5,148 C2.27969612,148 2.92044868,148.594888 2.99313342,149.35554 L3,149.5 L3,169.99707 C3,171.322554 4.03153594,172.407109 5.33562431,172.491753 L5.5,172.49707 L26.2626953,172.49707 C27.0911224,172.49707 27.7626953,173.168643 27.7626953,173.99707 C27.7626953,174.776766 27.1678072,175.417519 26.4071553,175.490204 L26.2626953,175.49707 L5.5,175.49707 C2.53652085,175.49707 0.120460863,173.15329 0.00436720397,170.218277 L0,169.99707 L0,149.5 C0,148.671573 0.671572875,148 1.5,148 Z M276.262695,0 C279.226174,0 281.642234,2.34378001 281.758328,5.27879286 L281.762695,5.5 L281.762695,25.9970703 C281.762695,26.8254974 281.091122,27.4970703 280.262695,27.4970703 C279.482999,27.4970703 278.842247,26.9021822 278.769562,26.1415303 L278.762695,25.9970703 L278.762695,5.5 C278.762695,4.1745166 277.731159,3.08996133 276.427071,3.00531768 L276.262695,3 L255.5,3 C254.671573,3 254,2.32842712 254,1.5 C254,0.720303883 254.594888,0.0795513218 255.35554,0.00686657806 L255.5,0 L276.262695,0 Z M26.2626953,0 L26.4071553,0.00686657806 C27.1678072,0.0795513218 27.7626953,0.720303883 27.7626953,1.5 C27.7626953,2.32842712 27.0911224,3 26.2626953,3 L26.2626953,3 L5.5,3 L5.33562431,3.00531768 C4.03153594,3.08996133 3,4.1745166 3,5.5 L3,5.5 L3,25.9970703 L2.99313342,26.1415303 C2.92044868,26.9021822 2.27969612,27.4970703 1.5,27.4970703 C0.671572875,27.4970703 0,26.8254974 0,25.9970703 L0,25.9970703 L0,5.5 L0.00436720397,5.27879286 C0.120460863,2.34378001 2.53652085,0 5.5,0 L5.5,0 L26.2626953,0 Z" id="Combined-Shape" fill="#CCCCCC" fill-rule="nonzero"></path>
            <rect id="Rectangle" fill-opacity="0.1" fill="#F0C856" x="10" y="10" width="262" height="155" rx="10"></rect>
        </g>
        <g id="Group" transform="translate(43.000000, 30.000000)" fill="#6A7584">
            <rect id="Rectangle" x="0" y="0.282226562" width="108" height="7"></rect>
            <rect id="Rectangle-Copy-3" x="0" y="64.2822266" width="108" height="7"></rect>
            <rect id="Rectangle-Copy" x="0" y="21.2822266" width="166" height="7"></rect>
            <rect id="Rectangle-Copy-4" x="0" y="85.2822266" width="166" height="7"></rect>
            <rect id="Rectangle-Copy-2" x="0" y="43.2822266" width="196" height="7"></rect>
            <rect id="Rectangle-Copy-5" x="0" y="107.282227" width="196" height="7"></rect>
        </g>
    </g>
</svg>