<?xml version="1.0" encoding="UTF-8"?>
<svg width="315px" height="35px" viewBox="0 0 315 35" version="1.1" xmlns="http://www.w3.org/2000/svg" xmlns:xlink="http://www.w3.org/1999/xlink">
    <!-- Generator: Sketch 58 (84663) - https://sketch.com -->
    <title>Artboard</title>
    <desc>Created with Sketch.</desc>
    <g id="Artboard" stroke="none" stroke-width="1" fill="none" fill-rule="evenodd">
        <path d="M140.306,2.238 L140.306,4.958 L153.498,4.958 L153.498,8.29 L140.306,8.29 L140.306,10.398 L151.084,10.398 L151.084,23.828 L143.434,23.828 C145.882,26.208 149.486,28.146 154.246,29.574 L154.246,29.574 L152.648,32.872 C146.936,30.56 142.822,27.534 140.306,23.828 L140.306,23.828 L140.306,33.994 L136.838,33.994 L136.838,23.862 C134.662,27.398 130.718,30.424 124.972,33.008 L124.972,33.008 L123,29.812 C128.066,28.01 131.67,26.004 133.778,23.828 L133.778,23.828 L125.992,23.828 L125.992,10.398 L136.838,10.398 L136.838,8.29 L123.646,8.29 L123.646,4.958 L136.838,4.958 L136.838,2.238 L140.306,2.238 Z M263.684,8.358 L266.846,9.48 C266.472,10.636 266.064,11.69 265.588,12.676 L265.588,12.676 L268.92,12.676 L268.92,15.906 L262.664,15.906 L262.664,18.66 L268.342,18.66 L268.342,21.89 L262.664,21.89 L262.664,33.96 L259.128,33.96 L259.128,21.89 L253.314,21.89 L253.314,18.66 L259.128,18.66 L259.128,15.906 L252.77,15.906 L252.77,12.676 L256.238,12.676 C255.83,11.554 255.388,10.5 254.844,9.548 L254.844,9.548 L257.938,8.358 C258.448,9.582 258.924,11.01 259.4,12.676 L259.4,12.676 L262.392,12.676 C262.868,11.282 263.31,9.854 263.684,8.358 L263.684,8.358 Z M281.5,2.612 L283.234,5.774 C280.344,6.726 277.148,7.304 273.68,7.508 L273.68,7.508 L273.68,12.778 L283.948,12.778 L283.948,16.144 L280.82,16.144 L280.82,33.858 L277.318,33.858 L277.318,16.144 L273.68,16.144 L273.68,19.34 C273.51,25.392 272.184,30.186 269.668,33.79 L269.668,33.79 L267.118,31.104 C269.056,28.282 270.11,24.372 270.246,19.34 L270.246,19.34 L270.246,4.618 C274.428,4.55 278.168,3.87 281.5,2.612 L281.5,2.612 Z M299.45,3.394 L299.45,13.832 L289.454,13.832 L289.454,33.79 L285.918,33.79 L285.918,3.394 L299.45,3.394 Z M315.226,3.394 L315.226,30.458 C315.226,32.634 314.07,33.722 311.792,33.722 C310.704,33.722 309.616,33.654 308.562,33.586 L308.562,33.586 L307.746,30.424 C308.766,30.56 309.684,30.628 310.534,30.628 C311.282,30.628 311.69,30.186 311.69,29.37 L311.69,29.37 L311.69,13.866 L301.83,13.866 L301.83,3.394 L315.226,3.394 Z M165.226,15.396 L165.226,18.354 L170.054,18.354 L170.054,21.72 L165.226,21.72 L165.226,22.57 C166.654,23.42 168.116,24.372 169.612,25.426 L169.612,25.426 L167.606,28.384 C166.722,27.228 165.906,26.242 165.226,25.46 L165.226,25.46 L165.226,33.722 L161.724,33.722 L161.724,25.154 C160.398,27.602 158.868,29.676 157.168,31.41 L157.168,31.41 L155.128,28.384 C157.576,26.48 159.514,24.236 161.01,21.72 L161.01,21.72 L156.046,21.72 L156.046,18.354 L161.724,18.354 L161.724,15.396 L165.226,15.396 Z M179.744,15.396 L179.744,18.354 L186,18.354 L186,21.72 L180.968,21.72 C182.226,24.202 184.198,26.446 186.884,28.452 L186.884,28.452 L184.572,31.376 C182.464,29.098 180.866,26.65 179.744,24.032 L179.744,24.032 L179.744,33.722 L176.276,33.722 L176.276,24.236 C174.746,27.092 172.978,29.506 170.938,31.478 L170.938,31.478 L168.898,28.52 C171.482,26.548 173.556,24.304 175.12,21.72 L175.12,21.72 L171.482,21.72 L171.482,18.354 L176.276,18.354 L176.276,15.396 L179.744,15.396 Z M215.204,2.578 L215.204,8.596 L218.944,8.596 L218.944,11.826 L215.204,11.826 L215.204,29.676 C215.204,32.226 213.98,33.518 211.532,33.518 L211.532,33.518 L207.588,33.518 L206.874,30.254 C208.098,30.39 209.254,30.492 210.376,30.492 C211.328,30.492 211.804,29.914 211.804,28.826 L211.804,28.826 L211.804,14.614 C209.9,20.394 207.01,25.256 203.202,29.2 L203.202,29.2 L201.298,26.004 C205.242,22.332 208.132,17.606 209.968,11.826 L209.968,11.826 L202.93,11.826 L202.93,8.596 L211.804,8.596 L211.804,2.578 L215.204,2.578 Z M191.71,25.8 L194.566,27.16 C193.614,29.336 192.424,31.444 190.962,33.484 L190.962,33.484 L188.038,31.954 C189.568,29.846 190.792,27.806 191.71,25.8 L191.71,25.8 Z M221.118,25.086 L224.144,25.494 C223.974,28.418 223.6,31.036 223.056,33.314 L223.056,33.314 L219.894,32.294 C220.574,30.186 220.982,27.806 221.118,25.086 L221.118,25.086 Z M250.324,20.734 L250.324,23.93 L243.966,23.93 L243.966,30.05 L251.548,30.05 L251.548,33.28 L232.916,33.28 L232.916,30.05 L240.6,30.05 L240.6,23.93 L234.208,23.93 L234.208,20.734 L250.324,20.734 Z M308.936,15.328 L308.936,18.32 L306.692,18.32 L306.692,27.058 L309.412,27.058 L309.412,30.05 L306.692,30.05 L306.692,33.212 L303.564,33.212 L303.564,30.05 L291.358,30.05 L291.358,27.058 L293.84,27.058 L293.84,18.32 L291.664,18.32 L291.664,15.328 L308.936,15.328 Z M199.156,25.426 C200.72,27.602 201.91,29.472 202.76,31.07 L202.76,31.07 L200.074,32.94 C199.19,31.172 198.034,29.2 196.572,27.058 L196.572,27.058 Z M255.15,23.216 L258.346,23.896 C257.564,27.364 256.476,30.356 255.048,32.906 L255.048,32.906 L252.124,31.036 C253.552,28.588 254.572,25.97 255.15,23.216 L255.15,23.216 Z M227.85,24.644 C228.258,26.718 228.632,28.962 228.972,31.41 L228.972,31.41 L225.878,32.124 C225.655455,30.0098182 225.410149,28.1004793 225.142083,26.3959835 L225.142083,26.3959835 L224.96,25.29 Z M231.726,23.828 C232.236,25.46 232.712,27.364 233.12,29.506 L233.12,29.506 L230.196,30.254 C229.856,28.316 229.482,26.48 229.04,24.712 L229.04,24.712 Z M266.234,23.012 C267.05,25.12 267.696,27.058 268.172,28.826 L268.172,28.826 L265.214,29.982 C264.704,27.874 264.058,25.8 263.31,23.794 L263.31,23.794 Z M303.564,25.766 L296.968,25.766 L296.968,27.058 L303.564,27.058 L303.564,25.766 Z M201.672,3.428 L201.672,24.916 L189.398,24.916 L189.398,3.428 L201.672,3.428 Z M224.892,2.17 L228.122,3.462 C226.694,6.998 225.266,9.956 223.77,12.268 C224.824,12.132 225.844,11.962 226.864,11.758 C227.398286,10.7622857 227.949918,9.69718367 228.518898,8.57508455 L228.518898,8.57508455 L229.21,7.202 L232.372,8.392 C229.618,13.3935172 227.276609,17.127736 225.375266,19.5946564 L225.375266,19.5946564 L224.96,20.122 C226.32,19.85 227.646,19.476 229.006,19.068 C228.734,18.252 228.496,17.436 228.224,16.688 L228.224,16.688 L230.91,15.804 C231.658,17.776 232.338,20.088 232.916,22.706 L232.916,22.706 L230.094,23.42 C229.958,22.842 229.856,22.298 229.72,21.754 C226.626,22.74 223.702,23.42 220.982,23.794 L220.982,23.794 L220.132,20.734 C220.71,20.462 221.22,20.156 221.628,19.782 C222.58,18.83 223.736,17.198 225.096,14.886 C224.552,14.9676 223.99712,15.05464 223.43136,15.144944 L223.43136,15.144944 L220.812,15.566 L219.962,12.472 C220.506,12.234 220.982,11.826 221.39,11.214 C222.716,8.46 223.872,5.434 224.892,2.17 L224.892,2.17 Z M303.564,22.06 L296.968,22.06 L296.968,23.42 L303.564,23.42 L303.564,22.06 Z M198.238,18.592 L192.832,18.592 L192.832,21.788 L198.238,21.788 L198.238,18.592 Z M136.838,18.49 L129.426,18.49 L129.426,20.768 L136.838,20.768 L136.838,18.49 Z M147.65,18.49 L140.306,18.49 L140.306,20.768 L147.65,20.768 L147.65,18.49 Z M235.67,7.1 L238.662,8.358 C237.778,10.432 236.826,12.132 235.84,13.492 C236.86,14.682 237.88,16.348 238.934,18.456 L238.934,18.456 L236.078,20.122 C234.99,17.674 233.732,15.464 232.372,13.56 C233.732,11.486 234.854,9.344 235.67,7.1 L235.67,7.1 Z M248.114,7.202 L251.106,8.46 C250.188,10.5 249.236,12.166 248.284,13.492 C249.27,14.648 250.29,16.28 251.378,18.354 L251.378,18.354 L248.522,20.02 C247.434,17.572 246.21,15.43 244.85,13.56 C246.21,11.52 247.298,9.378 248.114,7.202 L248.114,7.202 Z M241.824,7.168 L244.816,8.426 C243.932,10.466 242.98,12.166 242.028,13.492 C243.014,14.648 244.034,16.28 245.122,18.354 L245.122,18.354 L242.266,20.02 C241.178,17.572 239.954,15.43 238.594,13.56 C239.954,11.52 241.008,9.378 241.824,7.168 L241.824,7.168 Z M303.564,18.32 L296.968,18.32 L296.968,19.714 L303.564,19.714 L303.564,18.32 Z M172.808,2.34 L172.808,5.298 L185.184,5.298 L185.184,8.698 L172.808,8.698 L172.808,9.208 C175.46,9.854 177.466,10.398 178.758,10.84 L178.758,10.84 L179.05583,10.9388267 C180.470996,11.4169422 182.2396,12.132 184.334,13.084 L184.334,13.084 L183.008,16.144 C181.036,15.09 179.03,14.172 176.922,13.356 C175.562,12.812 174.202,12.404 172.808,12.064 L172.808,12.064 L172.808,16.518 L169.272,16.518 L169.272,8.8 C166.722,11.792 162.812,14.24 157.508,16.212 L157.508,16.212 L155.638,13.152 C160.126,11.928 163.594,10.466 166.008,8.698 L166.008,8.698 L156.896,8.698 L156.896,5.298 L169.272,5.298 L169.272,2.34 L172.808,2.34 Z M136.838,13.458 L129.426,13.458 L129.426,15.77 L136.838,15.77 L136.838,13.458 Z M147.65,13.458 L140.306,13.458 L140.306,15.77 L147.65,15.77 L147.65,13.458 Z M198.238,12.608 L192.832,12.608 L192.832,15.668 L198.238,15.668 L198.238,12.608 Z M311.69,9.718 L305.298,9.718 L305.298,11.282 L311.69,11.282 L311.69,9.718 Z M295.982,9.718 L289.454,9.718 L289.454,11.248 L295.982,11.248 L295.982,9.718 Z M198.238,6.556 L192.832,6.556 L192.832,9.684 L198.238,9.684 L198.238,6.556 Z M261.338,2 C261.61,2.58933333 261.866889,3.224 262.128815,3.904 L262.128815,3.904 L262.528,4.958 L268.716,4.958 L268.716,8.222 L253.11,8.222 L253.11,4.958 L258.992,4.958 C258.584,4.108 258.142,3.326 257.666,2.612 L257.666,2.612 Z M311.69,6.046 L305.298,6.046 L305.298,7.338 L311.69,7.338 L311.69,6.046 Z M295.982,5.978 L289.454,5.978 L289.454,7.338 L295.982,7.338 L295.982,5.978 Z M250.97,3.326 L250.97,6.59 L233.494,6.59 L233.494,3.326 L250.97,3.326 Z" id="Combined-Shape-Copy" fill="#FFFFFF" fill-rule="nonzero"></path>
        <g id="1280px-Eastern_Broadcasting_Co_Limited_logo-01-Copy" fill-rule="nonzero">
            <path d="M0.470668779,0.314213736 C9.71094478,0.311869255 18.9544049,0.311576195 28.2010491,0.313334556 C28.3582281,0.313334556 28.5188808,0.280804876 28.6725863,0.346743416 C28.9539455,0.434661469 28.9930231,0.665006768 28.9938915,0.905902232 L28.9938915,6.97224788 C28.9938915,7.27820271 28.8506067,7.38722109 28.565774,7.38106683 L25.7611232,7.33254909 C25.2937672,7.32274785 24.8264755,7.31043933 24.3592803,7.29314878 C23.7826676,7.27292762 23.270316,6.99774412 22.7961737,6.67772241 C18.3890813,3.71664238 12.170522,4.43053697 8.27751809,8.26024736 C6.35923888,10.1452104 4.963732,12.3422826 4.59119158,15.0220248 C3.99721105,19.3001173 4.85170935,23.2133498 8.11339189,26.2693813 C10.562259,28.5640425 13.4270861,29.9680938 16.8442109,29.8854508 C19.2183962,29.8283041 21.3841673,29.0546252 23.3311035,27.675191 C24.0657636,27.1547161 24.8551325,26.8724992 25.7626027,26.9085456 C26.6587839,26.9437128 27.5567018,26.9278875 28.4546197,26.9085456 C28.8341073,26.9015121 29.0025754,27.013168 29,27.4298996 C28.986076,29.4660817 29,31.5022638 28.9938915,33.5384459 C28.9938915,34.1538723 28.8427912,34.3042122 28.2557578,34.3042122 L0.216229753,34.3042122 C0.144153169,34.3042122 0.0720765843,34.2962995 0,34.2910245 L0,0.355535221 C0.152837094,0.273771432 0.315226507,0.314213736 0.470668779,0.314213736 Z M98.2918365,0.304212168 C99.0605268,0.391982052 99.8353666,0.391982052 100.605814,0.428845404 C102.714221,0.533291566 104.749713,0.906313573 106.626196,1.90425715 C109.025388,3.18043127 110.657647,5.15174286 111.67144,7.64528527 C111.859439,8.10958795 111.906879,8.61075399 111.94729,9.10402074 C111.987701,9.59728749 111.876131,9.70612214 111.385048,9.82461149 C109.790565,10.2072882 108.162698,10.4135474 106.55328,10.6970441 C105.60274,10.8646846 104.677676,11.1516921 103.716594,11.2763254 C102.755511,11.4009586 102.420801,11.2903685 101.944653,10.4416338 C100.890449,8.55896976 99.2028443,7.76201921 97.1330908,7.63826368 C95.8469622,7.56102618 94.5907027,7.71374578 93.4056019,8.26318525 C91.6029134,9.09875455 90.5592516,10.5846987 89.8643556,12.3725712 C89.4655152,13.3977235 89.3767863,14.4790484 89.3082631,15.5568626 C89.1879082,17.4377712 89.1949362,19.3213129 89.5586365,21.1837899 C90.1296636,24.1082824 91.7944271,26.0778386 94.6539549,26.9994224 C94.9196413,27.0829422 95.1968408,27.1241138 95.4753554,27.1214225 C96.0463824,27.1214225 96.6174095,27.1117678 97.187558,27.1214225 C99.1861527,27.1617967 100.656767,26.2507453 101.728541,24.6182254 C101.816391,24.4839375 101.898971,24.3452611 101.979793,24.205707 C102.440128,23.415778 102.492839,23.3727708 103.375734,23.5272458 C106.011244,23.9889154 108.646753,24.4532181 111.282263,24.9377078 C111.582711,24.9930028 111.903365,25.0316216 112,25.4046436 L111.996486,25.8452484 C111.57744,26.7132926 111.269085,27.6322433 110.794694,28.4783449 C109.062285,31.5573125 106.378458,33.2644367 102.958445,33.9156892 C101.966275,34.1011886 100.96051,34.204814 99.951329,34.2255169 C96.6630916,34.3042122 93.3564057,34.508136 90.1331776,33.645358 C87.5661913,32.9581198 85.2451859,31.789025 83.4038433,29.7966486 C81.7601638,28.0184307 80.6804834,25.9347737 79.9776809,23.6404689 C78.5588983,19.0228953 78.6783747,14.4009332 80.3747643,9.91413677 C82.2152285,5.046419 85.8575026,2.13158115 90.940522,1.02743601 C92.3677913,0.706227493 93.8168796,0.490896798 95.2759351,0.383205064 C95.3758161,0.366569213 95.4738064,0.340109594 95.5684767,0.304212168 L98.2918365,0.304212168 Z M58.759901,0.304212168 C59.4759271,0.479428534 60.2144372,0.454022161 60.9382463,0.567036717 C62.5934082,0.825480856 64.2477054,1.10232271 65.7645048,1.86977039 C68.9710568,3.48876961 70.3641947,6.8354022 69.3394471,10.3458621 C68.7920503,12.2119164 67.6609365,13.6127712 66.0533366,14.638663 C65.806645,14.7897932 65.5415096,14.9076023 65.2646701,14.9890958 C64.9127104,15.0994821 64.6377148,15.2676898 64.6731702,15.6785722 C64.7086256,16.0894545 65.0476139,16.1516564 65.3719011,16.1937083 C66.9379922,16.3978353 68.2654078,17.1153464 69.4760801,18.1105753 C70.7887947,19.1899081 71.5878384,20.5758696 71.8472682,22.2561945 C72.2701387,24.9676678 71.851592,27.5021725 70.1298431,29.6993857 C68.8586372,31.3236414 67.1533189,32.3267551 65.2715883,33.0810616 C63.407153,33.8283594 61.4692126,34.1490053 59.4863043,34.1849247 C57.2534788,34.2243484 55.0223827,34.3513802 52.7886924,34.2856741 C52.7121606,34.2541352 52.6336831,34.2460314 52.5547732,34.2458124 L52.3182597,34.2532591 L52.3182597,34.2532591 L39.4842689,34.2532591 C39,34.2532591 39,34.2532591 39,33.7565207 L39.0001932,0.73556338 C39.0026472,0.346264096 39.0362584,0.346264096 39.4963756,0.346264096 L57.3857879,0.346264096 C57.5552821,0.346264096 57.7308295,0.391820351 57.8951351,0.304212168 L57.8951351,0.304212168 Z M48.8903277,19.5052976 C48.0091312,19.4965368 47.7938045,19.7278224 47.7868864,20.6249302 C47.780833,21.7480671 47.7868864,22.8720801 47.7868864,23.996093 L47.7868864,23.996093 L47.7868864,26.0110812 C47.7877511,26.5367303 47.7721854,27.0623794 47.7972636,27.5880285 C47.8249361,28.16011 48.0670705,28.4299432 48.5859301,28.4229345 C51.3358857,28.3817587 54.0858412,28.5963987 56.8340673,28.4141737 C57.795687,28.3467154 58.7564419,28.2591072 59.6929834,27.9962827 C61.8808411,27.3830254 62.9704462,25.836741 62.8087349,23.5440348 C62.6686429,21.5124011 61.7070232,20.3428318 59.7509227,19.8303239 C59.1625625,19.6874074 58.5619114,19.6026149 57.9573982,19.5771363 C56.7778575,19.5044215 55.5965873,19.5718798 54.4196409,19.5394648 C52.57596,19.4895281 50.7331438,19.5219431 48.8903277,19.5052976 Z M16.9892388,8.30587817 C21.9952573,8.30587817 26.0231476,12.3195889 26,17.3160025 C25.9757911,22.4022238 21.7989428,26.3572142 16.9539366,26.303675 C11.9737489,26.2484088 8.02421216,22.2916913 8,17.2771435 C7.97599457,12.2625956 12.1726465,8.21002578 16.9892388,8.30587817 Z M52.6019029,6.25105562 C51.2658396,6.25105562 49.997228,6.24492304 48.7294812,6.25105562 C48.054099,6.25368386 47.8007226,6.48496946 47.7946693,7.16743721 C47.7802565,9.10941859 47.7791035,11.0514 47.7912102,12.9933814 C47.795534,13.6066386 48.0835011,13.8808523 48.67846,13.8808523 C51.3730706,13.8712154 54.0676812,13.9377976 56.7605622,13.7932441 C59.2683833,13.6592036 60.747133,12.0980257 60.5655322,9.69756153 C60.4859737,8.6480155 60.1106653,7.70184712 59.1715295,7.10260715 C58.5094439,6.68229998 57.7603244,6.42292912 56.982807,6.34479637 C55.5023278,6.18622556 54.01666,6.31238134 52.6019029,6.25105562 Z" id="Combined-Shape" fill="#FFFFFF"></path>
            <path d="M58,0.312974323 C57.786575,0.443530426 57.5497253,0.400595869 57.3215514,0.400595869 C51.4838858,0.400595869 45.6453527,0.400595869 39.805952,0.400595869 C39.0884622,0.400595869 39.0875947,0.400595869 39.0875947,1.12610227 L39.0875947,33.4847391 C39.0875947,34.22076 39.0875947,34.2216363 39.8380525,34.2216363 C43.9717883,34.2216363 48.105235,34.2216363 52.2383924,34.2216363 C52.4535526,34.2216363 52.6721831,34.1909687 52.8769323,34.297867 L40.5572774,34.3042122 C40.1668658,34.3042122 39.7764542,34.297867 39.3860426,34.3042122 C39.1084166,34.310134 38.9886904,34.1830828 39.0008365,33.9070749 C39.0077772,33.7467275 39.0008365,33.5863801 39.0008365,33.4251564 L39.0008365,0.304212168 L58,0.312974323 Z" id="Path" fill="#C1C1C1"></path>
            <path d="M29,0.350442441 C27.9178252,0.350442441 26.8356505,0.359324011 25.7499621,0.359324011 C17.1681054,0.360508221 8.58478469,0.360508221 0,0.359324011 C0.0975011358,0.17369919 0.263516583,0.276725407 0.395274875,0.276725407 C7.48094301,0.270212255 14.5666111,0.268139889 21.6522793,0.270508307 L28.9868242,0.270508307 C28.9868242,0.298041176 28.9947297,0.32379773 29,0.350442441 Z" id="Path" fill="#C7C7C7"></path>
        </g>
    </g>
</svg>