<?xml version="1.0" encoding="UTF-8"?>
<svg width="269px" height="29px" viewBox="0 0 269 29" version="1.1" xmlns="http://www.w3.org/2000/svg" xmlns:xlink="http://www.w3.org/1999/xlink">
    <!-- Generator: Sketch 58 (84663) - https://sketch.com -->
    <title>text</title>
    <desc>Created with Sketch.</desc>
    <g id="text" stroke="none" stroke-width="1" fill="none" fill-rule="evenodd">
        <g id="Group" fill-rule="nonzero">
            <path d="M154.380426,0.517016485 L155.594343,1.75833157 C156.676825,2.88594647 157.560116,3.9199395 158.253976,4.86978526 L158.47826,5.18329695 L158.612796,5.37549047 L161.458694,5.37549047 C162.037583,4.46582284 162.569271,3.50815171 163.058772,2.49668579 L163.34745,1.88330454 L163.91969,0.632855726 L169.449701,2.60394903 L168.673555,4.12519598 C168.527242,4.41197026 168.378263,4.69279348 168.226608,4.96765968 L167.997116,5.37549047 L172.347412,5.37549047 L172.347412,10.9754905 L169.210683,10.9754849 C170.16164,11.5615281 171.084702,12.1827938 171.978119,12.8378531 L172.561695,13.2737474 L173.677454,14.1226943 L172.192269,16.3734905 L172.568781,16.6434905 L172.014269,16.6434905 L170.4091,19.0796969 L169.955412,18.6908214 L169.955412,21.8334905 L172.867412,21.8334905 L172.867412,27.4334905 L146.649412,27.4334905 L146.649412,21.8334905 L149.743412,21.8334905 L149.743412,18.1573463 L148.34293,18.7576484 L146.847269,15.5674905 L143.80006,18.3179702 L142.794101,17.39006 C139.951464,14.7679718 137.912751,11.5673469 136.689745,7.80360547 L136.534849,7.30949047 L132.145127,7.30949047 L132.145248,6.94087285 C130.430321,11.1998114 128.282135,14.6033128 125.676072,17.1603442 L125.337987,17.4849063 L124.351002,18.4118138 L119.90237,14.5538511 C119.543273,16.7169322 118.996082,18.6777307 118.258183,20.4358621 C118.945544,21.4812127 119.764492,22.4046807 120.717785,23.2096833 L121.081573,23.506013 L122.234843,24.4121538 L118.861925,28.9093785 L117.652335,27.9324022 C116.72147,27.1805497 115.888851,26.3768058 115.149606,25.5115367 C114.464552,26.2902518 113.710253,26.9954262 112.890302,27.6244064 L112.474873,27.9325346 L111.291177,28.7812222 L108.657269,25.3264905 L106.600841,25.3274905 L106.600841,26.8094905 L102.778269,26.8094905 L102.778841,28.2394905 L97.1528408,28.2394905 L97.1528408,17.4645789 L96.0998344,18.6795863 L94.1507537,12.442528 L94.6423385,11.8209841 C96.6729881,9.25349608 98.2072684,6.27341312 99.2417372,2.8628641 L99.4191014,2.25653037 L99.8984765,0.555890443 L103.730269,2.34949047 L103.730841,1.44949047 L109.304841,1.44949047 L109.304841,5.99949047 L110.557581,6.00135008 C110.735575,5.14331988 110.886392,4.2334654 111.009369,3.27250165 L111.072727,2.75155431 L111.25505,1.17142774 L116.785347,2.14065514 L116.52683,3.86242157 L116.374891,4.82949047 L121.420841,4.82949047 L121.420841,10.3514905 L120.351124,10.3514905 C120.272086,11.8210841 120.123744,13.2155938 119.905505,14.5349327 L121.145047,13.408736 C123.916517,10.8934522 126.007368,7.5549048 127.390999,3.41145468 L127.560267,2.88933254 L128.046728,1.34308317 L132.144269,2.99049047 L132.145127,1.76149047 L140.993087,1.76149047 L141.227897,2.976978 C142.021175,7.08336034 143.806059,10.382945 146.612885,12.9506534 L146.804269,13.1214905 L147.39632,12.9041728 C148.915439,12.3438421 150.282538,11.7012486 151.499255,10.9762412 L147.169412,10.9754905 L147.169412,5.37549047 L151.310367,5.37549047 L150.833205,4.86797323 L149.567562,3.53904744 L154.380426,0.517016485 Z M246.376843,0.336767709 L251.259269,2.67149047 L254.894841,2.67149047 L254.894841,1.18949047 L260.520841,1.18949047 L260.520841,2.67149047 L266.760841,2.67149047 L266.760841,8.03749047 L266.292841,8.03749047 L266.292841,16.1494905 L265.980269,16.1494905 L265.983138,19.1786408 C266.550192,20.3703721 267.05602,21.5741807 267.498178,22.7940414 L267.773852,23.5811488 L268.208506,24.8670006 L263.208736,27.1343381 L263.134684,26.9059796 C263.045808,26.9975235 262.951031,27.0817272 262.849866,27.1589423 C262.175568,27.6349172 261.31367,27.8840654 260.311579,27.9222847 L260.034841,27.9274905 L255.926841,27.9274905 C254.152683,27.9274905 252.888,27.1658061 252.265446,25.8279575 L252.138046,26.100681 L251.930046,26.5169242 L251.181835,27.9679989 L249.496269,26.9094905 L249.496841,28.1614905 L243.844841,28.1614905 L243.844841,19.6673296 L242.318587,20.8374574 L241.083431,16.8949704 L241.042436,18.6871169 C240.996741,20.364754 240.936914,21.6991843 240.86265,22.6932977 L240.847327,22.8910372 L240.801373,23.4039155 L240.740687,23.9120143 C240.255452,26.599472 238.073977,27.9534905 234.740555,27.9534905 L234.475256,27.9498186 L234.150899,27.938713 L233.757196,27.9200384 L231.035488,27.7541767 L230.452454,25.4686852 C229.86515,26.2605689 229.216106,26.9916753 228.50494,27.661576 L228.144178,27.9914239 L227.157184,28.8672994 L222.601563,24.894374 L223.951464,23.767838 C224.560262,23.259776 225.11404,22.6912573 225.612319,22.0616687 C223.237572,22.842653 220.822191,23.5180374 218.35262,24.0856243 L217.246389,24.3318631 L216.241269,24.5474905 L214.516559,28.6887962 L213.09576,28.0178634 C211.579059,27.3016434 209.942455,26.7262214 208.186891,26.2816692 L207.52298,26.1210773 L206.124232,25.7982893 C204.627034,26.6551958 202.855874,27.3935408 200.82799,28.0142063 L200.268579,28.1805617 L199.045379,28.5339307 L198.024269,26.3894905 L198.024269,28.0574905 L192.424269,28.0574905 L192.424269,22.8008318 L191.201604,24.7706819 L188.570282,18.0524143 L189.115933,17.3747518 C190.078657,16.1791109 190.87427,14.8675079 191.506502,13.4338904 L191.7112,12.9514905 L189.590269,12.9514905 L189.590269,7.45549047 L190.105985,7.45549047 L189.179286,2.96832061 L190.842701,2.80837692 C193.159748,2.58558388 195.286138,2.14085987 197.206332,1.48954737 L197.724897,1.30680619 L199.115666,0.797988251 L199.689269,2.30749047 L204.020269,2.30749047 L204.020269,1.05949047 L209.568269,1.05949047 L209.568269,2.30749047 L215.210269,2.30749047 L215.210269,3.68549047 L227.686555,3.68549047 L227.686269,6.10249047 L228.924555,6.10349047 L228.924555,1.13749047 L234.680555,1.13749047 L234.680555,6.10349047 L241.154555,6.10349047 L241.154269,7.49449047 L241.190487,7.46686708 C243.106481,5.95189513 244.559074,4.17553595 245.553094,2.14385011 L245.745785,1.73411038 L246.376843,0.336767709 Z M47.9192128,0 L51.7848949,4.36990153 L50.9723362,5.35814857 C50.4417961,6.0034001 49.8815465,6.62064297 49.2917348,7.20980608 L52.5732694,10.9744905 L52.5739837,9.53549047 L54.0039837,9.53549047 L54.0039837,5.01149047 L56.6919688,5.01149047 C56.5674294,4.79276658 56.4424906,4.58405942 56.3168747,4.38498229 L56.1279083,4.09354076 L55.0385461,2.45949751 L60.3545167,0.687507295 L60.9827466,1.67817743 C61.5133527,2.51490251 61.9937755,3.40968702 62.4448496,4.39285613 C62.585873,3.82338344 62.7096615,3.24784754 62.8153564,2.66829244 L62.9149881,2.08747332 L63.1448179,0.657421417 L68.8461429,1.37008704 L68.5780095,2.91930262 C68.4956912,3.39491926 68.4038793,3.86296221 68.3024061,4.32433084 L68.1429295,5.01149047 L68.2349222,5.01149047 C68.8536466,4.18166771 69.3610764,3.28441702 69.7631849,2.29329295 L69.9290863,1.86270104 L70.4449803,0.450780566 L75.5864773,2.34190588 L74.9845991,3.78641354 C74.8660651,4.07089511 74.7440943,4.34697938 74.6182937,4.61513795 L74.4266716,5.01149047 L76.7119837,5.01149047 L76.7119837,9.53549047 L78.1419837,9.53549047 L78.1419837,14.9794905 L76.0668339,14.9794905 C76.5650986,15.2620269 77.1048524,15.5378228 77.6862412,15.8064235 L78.1300916,16.0065179 L79.9164876,16.7925322 L76.1205016,21.5375147 L75.0021772,20.8851588 C74.5949234,20.6475941 74.19986,20.4052575 73.8175163,20.1586961 L73.7608337,20.9095674 C73.7415786,21.1465606 73.7218751,21.3711823 73.7014609,21.5862098 L73.670274,21.9019026 L73.6039154,22.4984466 C73.3857254,24.0803237 72.9982209,25.3228485 72.4158482,26.196452 L72.2779837,26.3914905 L72.2132182,26.4719203 C71.4747701,27.3269654 70.4032208,27.8135144 69.0567093,27.9334099 L68.7639837,27.9534905 L63.3573608,27.9534905 L62.5126276,24.8874221 C61.4104249,25.9496439 60.0109136,26.9137345 58.2992356,27.807216 L57.8648041,28.0291313 L56.7621402,28.5804632 L53.1353435,23.8935259 L54.908617,23.1267049 C56.688915,22.3568463 58.0156398,21.5386019 58.8274008,20.7500131 C58.9298057,20.6402936 59.0296486,20.5229454 59.1267232,20.3981785 L59.2702328,20.2054905 L57.0979837,20.2054905 L57.0979837,20.1495289 C56.7107628,20.377027 56.3189412,20.5931963 55.922007,20.7980937 L55.3227071,21.096993 L54.1411918,21.6658707 L52.7602694,19.5714905 L52.5061873,19.8951312 C50.0984729,22.8971933 47.2288202,25.4328454 43.8957201,27.509632 L43.3027148,27.871362 L41.8806745,28.720494 L40.1462694,25.0294905 L39.8515257,25.4719123 L38.558864,24.2354533 L38.001698,23.7070312 L38.001698,28.1354905 L32.297698,28.1354905 L32.297698,24.0008369 C31.7314951,24.6056205 31.1409935,25.1716666 30.5264312,25.6982398 L30.0610019,26.0857571 L28.7949288,27.1097868 L26.8232694,24.2154905 L24.954865,28.7524146 L23.581781,28.2139503 C21.3013584,27.3196669 18.9163722,26.6146956 16.4173665,26.0922708 L15.5801286,25.924881 L13.5948409,25.5458715 L14.2403738,24.3134905 L13.6056673,24.3134905 L13.8684567,24.6596034 L12.4052188,25.5131588 C10.475201,26.6390025 7.80911215,27.5394106 4.41679175,28.2340543 L3.87512848,28.3420278 L2.82166134,28.5464319 L0,23.6235334 L2.63116216,23.1676802 L3.13475159,23.0742347 L3.62341228,22.9789385 L3.62326942,11.5214905 L2.14141228,11.5214905 L2.14141228,1.89149047 L25.2654123,1.89149047 L25.2654123,11.5214905 L23.8612694,11.5214905 L23.8614123,22.6762781 C24.1380738,22.7563499 24.4133207,22.8384741 24.6871183,22.9226451 L25.5041283,23.1812931 L26.2932694,23.4384905 L25.4234789,22.1613683 L26.6581899,21.3158596 C27.8662327,20.488613 28.928677,19.5915484 29.8476861,18.6223329 L30.1855952,18.2554905 L26.915698,18.2554905 L26.915698,12.6554905 L28.5867595,12.6554023 C28.1859157,11.4910453 27.7187362,10.3647437 27.1811206,9.26367909 L26.8500662,8.60596621 L26.0390109,7.04178818 L26.8982694,6.75849047 L25.4953974,2.59349047 L27.583698,2.59349047 C32.1512449,2.59349047 36.0868277,2.19425295 39.3869931,1.41393457 L39.9027908,1.28756217 L40.9938704,1.01072109 L43.3167201,4.95873611 C44.5188903,4.07084867 45.5722799,3.05808407 46.4819492,1.91622922 L46.8163482,1.48197431 L47.9192128,0 Z M131.549354,9.4803752 L137.106868,11.4228074 L136.373047,12.9374893 C135.923727,13.8649327 135.47206,14.7630873 135.018013,15.6318863 L134.563171,16.4908976 L139.593314,14.7785085 L140.230374,15.7523004 C141.952289,18.38437 143.462694,21.1856548 144.746554,24.1318689 L145.09107,24.9389568 L145.654725,26.2873093 L140.354763,28.6668841 L139.769427,27.226056 C139.585851,26.7741764 139.402327,26.3301899 139.218859,25.8940995 C135.35595,26.4384911 131.044157,26.8703642 126.193344,27.2079624 L123.873722,27.3628693 L122.922891,21.9748288 L124.321418,21.6617258 C124.664618,21.5848899 125.472452,20.7961138 126.489002,19.2768951 C127.48018,17.7955951 128.618275,15.7196507 129.89161,13.0641521 L130.131942,12.5594581 L130.59449,11.5691649 L131.549354,9.4803752 Z M218.498555,9.31149047 L215.756269,9.31149047 L215.756269,13.3414905 L214.326269,13.3414905 L214.326269,22.7412868 L214.769235,22.9114811 L215.465269,23.1904905 L214.372124,18.898205 L215.981957,18.6298996 C216.557136,18.5340363 217.12257,18.4351448 217.676502,18.333348 L218.498555,18.1784892 L218.498555,9.31149047 Z M235.486867,11.7554905 L234.642002,11.7554905 C234.467979,15.6549063 233.762871,19.0334485 232.516592,21.8798601 L232.315312,22.3248698 L232.611113,22.3439073 C232.898543,22.3616445 233.161313,22.3754896 233.403533,22.3855208 L233.861791,22.4005212 L234.272555,22.4054905 C235.015917,22.4054905 235.192653,22.2904714 235.229713,22.1212449 L235.261349,21.8216262 C235.298943,21.3870863 235.332608,20.7012502 235.362422,19.7562089 L235.414355,17.6516828 L235.443428,15.9303068 L235.486867,11.7554905 Z M134.392147,16.8080669 L133.958617,17.5978963 C133.234866,18.8995794 132.505099,20.127749 131.769183,21.2821415 C133.458784,21.1283315 135.107824,20.9426403 136.722362,20.7237613 C136.333699,20.0074639 135.943513,19.3251851 135.551827,18.6775495 L135.257781,18.1983281 L134.392147,16.8080669 Z M225.102269,9.31049047 L224.228555,9.31149047 L224.228555,16.6632317 C224.610081,16.535162 224.991672,16.402068 225.373331,16.2639475 L225.94587,16.0529967 L227.972555,15.2929898 L227.97225,17.4167323 C228.433108,15.9039382 228.72799,14.2079735 228.854492,12.3257488 L228.887389,11.7554905 L225.102555,11.7554905 L225.102269,9.31049047 Z M52.5732694,11.7404905 L52.0878887,12.3291175 C51.4793162,13.0654151 50.8340181,13.7685756 50.1527365,14.4380191 L51.8872694,16.3684905 L52.5785445,16.0764543 C53.2035936,15.8114878 53.7984782,15.5244674 54.363458,15.2154127 L54.7815898,14.9794905 L52.5739837,14.9794905 L52.5732694,11.7404905 Z" id="買彩券做公益積功德" fill="#CE111E"></path>
            <path d="M3.274,3.066 L3.274,9.696 L23.398,9.696 L23.398,3.066 L3.274,3.066 Z M20.798,7.564 L17.522,7.564 L17.522,5.25 L20.798,5.25 L20.798,7.564 Z M15.078,7.564 L11.62,7.564 L11.62,5.25 L15.078,5.25 L15.078,7.564 Z M9.176,7.564 L5.874,7.564 L5.874,5.25 L9.176,5.25 L9.176,7.564 Z M4.756,10.71 L4.756,22.488 L9.176,22.488 C7.408,23.268 5.016,23.892 2,24.412 L3.222,26.544 C6.706,25.868 9.41,24.984 11.282,23.892 L10.216,22.488 L16.352,22.488 L15.494,24.126 C18.354,24.672 21.11,25.452 23.762,26.492 L24.672,24.282 C22.358,23.528 19.94,22.93 17.444,22.488 L21.994,22.488 L21.994,10.71 L4.756,10.71 Z M19.368,20.304 L7.356,20.304 L7.356,19.03 L19.368,19.03 L19.368,20.304 Z M7.356,17.132 L7.356,15.91 L19.368,15.91 L19.368,17.132 L7.356,17.132 Z M7.356,14.038 L7.356,12.79 L19.368,12.79 L19.368,14.038 L7.356,14.038 Z M39.9042857,2.416 C36.4202857,3.3 32.2082857,3.768 27.2162857,3.768 L28.0222857,6.16 C33.5082857,6.16 37.9022857,5.64 41.2042857,4.626 L39.9042857,2.416 Z M38.5782857,6.004 C38.0582857,8.084 37.4342857,9.8 36.7582857,11.152 L38.8902857,11.932 C39.6702857,10.398 40.3202857,8.63 40.8142857,6.602 L38.5782857,6.004 Z M47.6522857,2.052 C45.9882857,4.288 43.8562857,6.082 41.2562857,7.46 L42.4262857,9.93 C45.1822857,8.37 47.5222857,6.42 49.4462857,4.08 L47.6522857,2.052 Z M48.7962857,9.02 C46.9762857,11.464 44.6102857,13.44 41.6982857,14.948 L42.8682857,17.418 C45.8842857,15.728 48.4582857,13.596 50.5642857,11.048 L48.7962857,9.02 Z M49.5242857,16.066 C47.3142857,19.186 44.4542857,21.734 40.9442857,23.658 L42.1662857,26.258 C45.7802857,24.1 48.8482857,21.396 51.3702857,18.12 L49.5242857,16.066 Z M28.0482857,13.83 L28.0482857,16.43 L32.8062857,16.43 C31.4282857,18.666 29.5302857,20.59 27.1382857,22.228 L28.7502857,24.594 C30.5182857,23.164 32.0782857,21.396 33.4302857,19.316 L33.4302857,26.31 L36.1342857,26.31 L36.1342857,20.044 C36.9922857,20.746 38.0322857,21.682 39.2282857,22.826 L40.8402857,20.408 C39.2542857,19.316 37.6942857,18.354 36.1342857,17.496 L36.1342857,16.43 L40.9702857,16.43 L40.9702857,13.83 L36.1342857,13.83 L36.1342857,11.62 L33.4302857,11.62 L33.4302857,13.83 L28.0482857,13.83 Z M34.6522857,6.368 L32.3642857,7.018 C32.9362857,8.292 33.4042857,9.592 33.7942857,10.918 L36.0562857,10.06 C35.7182857,8.942 35.2502857,7.72 34.6522857,6.368 Z M29.9462857,6.888 L27.8142857,7.59 C28.5422857,8.994 29.1662857,10.45 29.6862857,11.984 L31.8442857,11.438 C31.2982857,9.722 30.6742857,8.188 29.9462857,6.888 Z M61.3245714,18.38 C60.8825714,19.628 60.2845714,20.668 59.5565714,21.448 C58.5425714,22.436 57.0605714,23.346 55.1365714,24.178 L56.8265714,26.362 C59.0105714,25.27 60.6745714,24.074 61.8185714,22.722 C62.6505714,21.63 63.3265714,20.174 63.8465714,18.38 L69.5145714,18.38 L69.4790759,19.0528007 C69.3708152,20.8878837 69.1957293,22.1171579 68.9165714,22.722 C68.6305714,23.372 68.0325714,23.71 67.0965714,23.71 C65.9525714,23.71 64.7305714,23.658 63.4305714,23.58 L64.1325714,26.128 L68.3965714,26.128 C69.4365714,26.076 70.2165714,25.738 70.7105714,25.166 C71.1785714,24.542 71.5425714,23.476 71.7505714,21.968 C71.9065714,20.668 72.0105714,19.004 72.1145714,17.028 C73.0505714,17.782 74.1425714,18.536 75.3905714,19.264 L77.1585714,17.054 C74.5585714,15.91 72.6345714,14.61 71.3865714,13.154 L76.2745714,13.154 L76.2745714,10.71 L63.8465714,10.71 C64.2365714,10.034 64.6005714,9.306 64.9125714,8.578 L74.8445714,8.578 L74.8445714,6.186 L71.3865714,6.186 C72.1145714,5.224 72.7125714,4.132 73.2325714,2.884 L70.9705714,2.052 C70.4765714,3.404 69.8265714,4.574 69.0465714,5.614 L70.0605714,6.186 L65.7965714,6.186 C66.1865714,4.964 66.4985714,3.69 66.7325714,2.338 L64.0285714,2 C63.7945714,3.456 63.4565714,4.86 63.0405714,6.186 L59.8425714,6.186 L61.1165714,5.614 C60.5965714,4.366 60.0245714,3.222 59.3485714,2.156 L57.0085714,2.936 C57.6325714,3.872 58.2045714,4.964 58.7505714,6.186 L55.1365714,6.186 L55.1365714,8.578 L62.0525714,8.578 C61.6885714,9.306 61.2725714,10.034 60.8305714,10.71 L53.7065714,10.71 L53.7065714,13.154 L58.8025714,13.154 C57.1905714,14.792 55.1885714,16.118 52.7965714,17.132 L54.3045714,19.42 C55.7085714,18.744 57.0085714,17.938 58.2305714,17.028 L58.2305714,18.38 L61.3245714,18.38 Z M62.2085714,13.154 L68.5525714,13.154 C69.1245714,14.09 69.8785714,15 70.8145714,15.884 L59.6605714,15.884 C60.5705714,15.052 61.4285714,14.142 62.2085714,13.154 Z M100.495429,2.338 C99.4034286,6.212 97.7134286,9.566 95.4514286,12.426 L96.3614286,15.338 C97.0374286,14.558 97.6614286,13.752 98.2854286,12.92 L98.2854286,26.414 L100.911429,26.414 L100.911429,8.63 C101.743429,7.018 102.419429,5.302 102.939429,3.482 L100.495429,2.338 Z M113.573429,8.526 L116.173429,8.526 C116.121429,11.906 115.653429,14.818 114.821429,17.288 C114.197429,15.624 113.807429,13.804 113.625429,11.776 L112.169429,12.218 C112.689429,11.126 113.157429,9.904 113.573429,8.526 Z M113.443429,20.304 C112.455429,21.968 111.181429,23.294 109.647429,24.308 L111.233429,26.388 C112.611429,25.4 113.807429,24.178 114.795429,22.722 C115.731429,24.126 116.875429,25.348 118.227429,26.44 L119.787429,24.36 C118.331429,23.216 117.135429,21.838 116.199429,20.226 C117.655429,17.106 118.435429,13.206 118.539429,8.526 L119.553429,8.526 L119.553429,6.004 L114.197429,6.004 C114.405429,5.068 114.561429,4.08 114.717429,3.04 L112.195429,2.598 C111.727429,6.654 110.791429,9.904 109.413429,12.322 L110.999429,14.272 C111.155429,14.012 111.337429,13.752 111.519429,13.466 C111.857429,15.988 112.507429,18.276 113.443429,20.304 Z M110.141429,14.012 L107.437429,14.012 L107.437429,9.644 L110.531429,9.644 L110.531429,7.174 L107.437429,7.174 L107.437429,2.624 L104.863429,2.624 L104.863429,7.174 L101.795429,7.174 L101.795429,9.644 L104.863429,9.644 L104.863429,14.012 L102.185429,14.012 L102.185429,24.984 L104.733429,24.984 L104.733429,23.502 L110.141429,23.502 L110.141429,14.012 Z M104.733429,21.136 L104.733429,16.404 L107.593429,16.404 L107.593429,21.136 L104.733429,21.136 Z M128.623714,3.014 C127.167714,7.642 124.879714,11.386 121.785714,14.194 L123.943714,16.066 C126.933714,13.258 129.325714,9.254 131.145714,4.028 L128.623714,3.014 Z M138.607714,16.248 L136.163714,17.08 C137.021714,18.458 137.853714,19.966 138.659714,21.578 C135.331714,22.098 131.925714,22.462 128.415714,22.696 C130.547714,19.732 132.627714,16.144 134.655714,11.958 L131.977714,11.022 L131.591293,11.8673077 C128.400945,18.7807692 125.956714,22.425 124.281714,22.8 L124.749714,25.452 C130.261714,25.088 135.279714,24.594 139.777714,23.918 C140.115714,24.698 140.453714,25.504 140.791714,26.336 L143.339714,25.192 C142.013714,22.02 140.427714,19.03 138.607714,16.248 Z M133.277714,2.936 L133.277714,5.484 L137.307714,5.484 C138.373714,9.696 140.427714,13.18 143.443714,15.962 L145.575714,14.038 C142.325714,11.204 140.271714,7.512 139.387714,2.936 L133.277714,2.936 Z M167.542,14.818 L152.176,14.818 C153.97,13.804 155.582,12.634 157.038,11.334 L155.322,9.358 C153.32,11.282 150.72,12.816 147.548,13.986 L148.718,16.482 C149.446,16.17 150.148,15.832 150.876,15.494 L150.876,23.008 L147.782,23.008 L147.782,25.608 L171,25.608 L171,23.008 L168.088,23.008 L168.088,15.234 C168.634,15.624 169.18,16.04 169.726,16.508 L171.286,14.142 C168.894,12.322 166.242,10.736 163.356,9.436 L161.952,11.542 C163.824,12.4 165.696,13.492 167.542,14.818 Z M153.502,23.008 L153.502,17.366 L155.764,17.366 L155.764,23.008 L153.502,23.008 Z M158.26,23.008 L158.26,17.366 L160.652,17.366 L160.652,23.008 L158.26,23.008 Z M163.148,23.008 L163.148,17.366 L165.436,17.366 L165.436,23.008 L163.148,23.008 Z M148.302,6.55 L148.302,9.15 L170.48,9.15 L170.48,6.55 L164.864,6.55 C165.618,5.536 166.32,4.392 166.97,3.118 L164.344,2.182 C163.642,3.716 162.836,5.172 161.9,6.55 L155.686,6.55 L156.882,5.718 C156.154,4.678 155.14,3.482 153.788,2.104 L151.552,3.508 C152.592,4.6 153.476,5.614 154.204,6.55 L148.302,6.55 Z M190.722857,8.63 L190.722857,11.126 L193.452857,11.126 C192.698857,13.7 191.528857,15.988 189.916857,17.99 L191.138857,21.11 C192.074857,19.602 192.880857,17.938 193.556857,16.17 L193.556857,26.232 L196.156857,26.232 L196.156857,15.546 L196.502576,16.1643125 C196.862107,16.815125 197.261857,17.561 197.690857,18.38 L199.224857,16.092 C198.210857,14.792 197.196857,13.622 196.156857,12.53 L196.156857,11.126 L198.704857,11.126 L198.704857,8.63 L196.156857,8.63 L196.156857,5.51 C197.066857,5.302 197.950857,5.042 198.782857,4.782 L197.872857,2.39 C195.740857,3.17 193.322857,3.716 190.618857,3.976 L191.112857,6.368 C191.944857,6.264 192.750857,6.134 193.556857,6.03 L193.556857,8.63 L190.722857,8.63 Z M200.316857,12.218 L200.316857,22.618 L203.410857,22.618 C202.084857,23.242 200.420857,23.788 198.444857,24.23 L199.484857,26.414 C201.824857,25.738 203.826857,24.906 205.438857,23.918 L204.294857,22.618 L208.376857,22.618 L207.492857,24.334 C209.520857,24.802 211.496857,25.452 213.368857,26.336 L214.278857,24.152 C212.744857,23.528 211.158857,23.008 209.520857,22.618 L212.458857,22.618 L212.458857,12.218 L200.316857,12.218 Z M210.040857,20.59 L202.734857,20.59 L202.734857,19.706 L210.040857,19.706 L210.040857,20.59 Z M202.734857,17.886 L202.734857,16.95 L210.040857,16.95 L210.040857,17.886 L202.734857,17.886 Z M202.734857,15.13 L202.734857,14.246 L210.040857,14.246 L210.040857,15.13 L202.734857,15.13 Z M205.152857,2.234 L205.152857,3.482 L199.640857,3.482 L199.640857,5.562 L205.152857,5.562 L205.152857,6.42 L200.472857,6.42 L200.472857,8.5 L205.152857,8.5 L205.152857,9.41 L199.224857,9.41 L199.224857,11.516 L213.888857,11.516 L213.888857,9.41 L207.700857,9.41 L207.700857,8.5 L212.510857,8.5 L212.510857,6.42 L207.700857,6.42 L207.700857,5.562 L213.342857,5.562 L213.342857,3.482 L207.700857,3.482 L207.700857,2.234 L205.152857,2.234 Z M219.631143,7.486 L219.631143,19.082 C218.383143,19.342 217.109143,19.576 215.861143,19.784 L216.563143,22.54 C219.943143,21.812 223.115143,20.902 226.105143,19.862 L226.105143,17.132 C224.857143,17.6 223.609143,18.016 222.361143,18.38 L222.361143,7.486 L225.819143,7.486 L225.819143,4.86 L216.173143,4.86 L216.173143,7.486 L219.631143,7.486 Z M230.057143,2.312 L230.057143,7.278 L226.235143,7.278 L226.235143,9.93 L230.057143,9.93 L230.057143,10.086 C230.005143,16.742 228.159143,21.578 224.545143,24.594 L226.781143,26.544 C230.707143,23.06 232.709143,17.574 232.813143,10.086 L232.813143,9.93 L236.635143,9.93 L236.575935,15.6204228 C236.52561,19.069 236.455506,21.1962727 236.349143,21.994 C236.141143,23.034 235.309143,23.58 233.905143,23.58 C233.151143,23.58 232.241143,23.528 231.201143,23.45 L231.851143,25.998 L233.481025,26.0973254 C233.795226,26.1136568 234.055285,26.124071 234.258243,26.1270888 L234.373143,26.128 C237.051143,26.128 238.559143,25.192 238.897143,23.32 L238.943436,22.9100918 C239.172574,20.6237859 239.287143,15.4059184 239.287143,7.278 L232.813143,7.278 L232.813143,2.312 L230.057143,2.312 Z M250.255429,7.512 L250.255429,14.324 L264.425429,14.324 L264.425429,7.512 L258.653429,7.512 L258.653429,6.212 L264.893429,6.212 L264.893429,3.846 L258.653429,3.846 L258.653429,2.364 L256.027429,2.364 L256.027429,3.846 L249.787429,3.846 L249.787429,6.212 L256.027429,6.212 L256.027429,7.512 L250.255429,7.512 Z M262.085429,12.088 L260.291429,12.088 L260.291429,9.748 L262.085429,9.748 L262.085429,12.088 Z M258.211429,12.088 L256.469429,12.088 L256.469429,9.748 L258.211429,9.748 L258.211429,12.088 Z M254.389429,12.088 L252.595429,12.088 L252.595429,9.748 L254.389429,9.748 L254.389429,12.088 Z M263.775429,18.51 L261.539429,19.264 C262.345429,20.85 263.073429,22.67 263.749429,24.75 L265.985429,23.736 C265.361429,21.89 264.607429,20.148 263.775429,18.51 Z M246.745429,2.026 C245.653429,4.444 243.989429,6.55 241.753429,8.318 L242.585429,10.944 C245.679429,8.604 247.863429,6.03 249.137429,3.17 L246.745429,2.026 Z M247.395429,8.734 C246.199429,11.308 244.379429,13.544 241.935429,15.442 L242.741429,18.016 C243.521429,17.418 244.275429,16.82 244.977429,16.196 L244.977429,26.336 L247.629429,26.336 L247.629429,13.336 C248.487429,12.218 249.189429,11.048 249.735429,9.826 L247.395429,8.734 Z M249.787429,19.134 C249.423429,20.876 248.825429,22.54 247.993429,24.1 L250.229429,25.504 C251.087429,23.84 251.737429,21.89 252.205429,19.628 L249.787429,19.134 Z M259.667429,26.102 C260.525429,26.102 261.175429,25.92 261.617429,25.608 C262.059429,25.27 262.371429,24.178 262.553429,22.358 L260.187429,21.604 C260.135429,22.618 260.005429,23.216 259.849429,23.424 C259.719429,23.606 259.511429,23.71 259.199429,23.71 L256.365429,23.71 C255.741429,23.71 255.429429,23.372 255.429429,22.748 L255.429429,18.926 L252.959429,18.926 L252.959429,23.294 C252.959429,25.166 253.817429,26.102 255.559429,26.102 L259.667429,26.102 Z M258.237429,18.146 L256.287429,19.368 C257.223429,20.46 257.951429,21.474 258.523429,22.358 L260.499429,20.98 C259.953429,20.174 259.199429,19.238 258.237429,18.146 Z M250.567429,15.442 L264.113429,15.442 L264.113429,17.886 L250.567429,17.886 L250.567429,15.442 Z" id="買彩券做公益積功德-copy" fill="#F8D500"></path>
        </g>
    </g>
</svg>