<?xml version="1.0" encoding="UTF-8"?>
<svg width="100px" height="107px" viewBox="0 0 100 107" version="1.1" xmlns="http://www.w3.org/2000/svg" xmlns:xlink="http://www.w3.org/1999/xlink">
    <!-- Generator: Sketch 55.2 (78181) - https://sketchapp.com -->
    <title>Path</title>
    <desc>Created with Sketch.</desc>
    <g id="Page-1" stroke="none" stroke-width="1" fill="none" fill-rule="evenodd">
        <g id="喜錢" transform="translate(-1510.000000, -373.000000)" fill="#D0021B" fill-rule="nonzero">
            <path d="M1608.28108,469.610682 C1607.08108,466.810682 1605.98108,463.910682 1604.38108,461.210682 C1601.38108,456.010682 1597.68108,451.210682 1594.08108,446.410682 C1587.08108,437.110682 1579.48108,428.310682 1571.38108,419.910682 C1561.38108,410.210682 1571.38108,419.910682 1561.38108,410.210682 C1555.08108,404.510682 1548.48108,399.010682 1541.68108,394.010682 C1536.48108,390.210682 1531.28108,386.610682 1525.98108,383.110682 C1520.98108,379.710682 1515.98108,376.210682 1510.78108,373.110682 C1510.38108,372.910682 1509.78108,373.410682 1510.08108,373.810682 C1513.38108,378.310682 1517.68108,382.110682 1521.88108,385.910682 C1526.68108,390.110682 1531.58108,394.110682 1536.48108,398.210682 C1543.68108,404.210682 1550.58108,410.610682 1557.08108,417.310682 C1565.88108,426.410682 1557.08108,417.310682 1565.88108,426.410682 C1572.98108,434.110682 1579.58108,442.210682 1585.68108,450.810682 C1588.98108,455.510682 1591.98108,460.410682 1595.18108,465.210682 C1596.88108,467.810682 1598.98108,470.110682 1600.78108,472.610682 C1602.38108,474.910682 1604.88108,477.510682 1607.38108,478.910682 C1608.58108,479.510682 1609.88108,478.810682 1609.98108,477.410682 C1610.18108,475.210682 1609.38108,472.010682 1608.28108,469.610682 Z" id="Path" transform="translate(1560.005910, 426.095779) scale(-1, 1) translate(-1560.005910, -426.095779) "></path>
        </g>
    </g>
</svg>