<?xml version="1.0" encoding="UTF-8"?>
<svg width="91px" height="120px" viewBox="0 0 91 120" version="1.1" xmlns="http://www.w3.org/2000/svg" xmlns:xlink="http://www.w3.org/1999/xlink">
    <!-- Generator: Sketch 55.2 (78181) - https://sketchapp.com -->
    <title>Path</title>
    <desc>Created with Sketch.</desc>
    <g id="Page-1" stroke="none" stroke-width="1" fill="none" fill-rule="evenodd">
        <g id="喜錢" transform="translate(-1518.000000, -357.000000)" fill="#D0021B" fill-rule="nonzero">
            <path d="M1578.91171,419.910682 C1585.11171,411.810682 1590.91171,403.410682 1596.11171,394.710682 C1599.21171,389.610682 1602.31171,384.310682 1604.81171,378.910682 C1606.11171,376.110682 1606.91171,373.110682 1607.81171,370.110682 C1608.61171,367.610682 1609.01171,364.310682 1608.61171,361.810682 C1608.41171,360.510682 1606.91171,359.910682 1605.91171,360.610682 C1605.71171,360.710682 1605.51171,360.910682 1605.31171,361.010682 C1605.11171,360.710682 1604.81171,360.410682 1604.31171,360.410682 C1603.51171,360.410682 1602.71171,360.510682 1601.91171,360.510682 C1601.71171,360.410682 1601.51171,360.310682 1601.31171,360.110682 C1599.91171,359.210682 1598.61171,358.210682 1597.11171,357.410682 C1595.21171,356.410682 1593.11171,357.310682 1592.51171,359.310682 C1586.61171,377.210682 1578.61171,394.110682 1568.91171,410.210682 C1564.61171,417.310682 1568.91171,410.210682 1564.61171,417.310682 C1555.71171,431.310682 1545.61171,444.610682 1534.91171,457.310682 C1533.41171,458.910682 1531.91171,460.410682 1530.41171,462.010682 C1527.71171,465.010682 1524.91171,468.010682 1522.51171,471.310682 C1521.31171,472.610682 1520.21171,473.910682 1519.01171,475.110682 C1518.31171,475.810682 1519.31171,476.710682 1520.01171,476.110682 C1520.11171,476.010682 1520.21171,475.910682 1520.31171,475.810682 C1520.41171,475.810682 1520.61171,475.810682 1520.71171,475.710682 C1525.61171,472.210682 1530.21171,468.110682 1534.81171,464.210682 C1539.71171,460.110682 1544.61171,456.010682 1549.31171,451.710682 C1558.01171,443.910682 1566.01171,435.410682 1573.41171,426.410682 C1578.91171,419.910682 1573.41171,426.410682 1578.91171,419.910682 Z" id="Path" transform="translate(1563.771223, 416.653658) scale(-1, 1) translate(-1563.771223, -416.653658) "></path>
        </g>
    </g>
</svg>