<?xml version="1.0" encoding="UTF-8"?>
<svg width="100px" height="123px" viewBox="0 0 100 123" version="1.1" xmlns="http://www.w3.org/2000/svg" xmlns:xlink="http://www.w3.org/1999/xlink">
    <!-- Generator: Sketch 55.2 (78181) - https://sketchapp.com -->
    <title>Combined Shape</title>
    <desc>Created with Sketch.</desc>
    <g id="Page-1" stroke="none" stroke-width="1" fill="none" fill-rule="evenodd">
        <path d="M38.6307396,62.9106823 C32.4307396,54.8106823 26.6307396,46.4106823 21.4307396,37.7106823 C18.3307396,32.6106823 15.2307396,27.3106823 12.7307396,21.9106823 C11.4307396,19.1106823 10.6307396,16.1106823 9.73073955,13.1106823 C8.93073955,10.6106823 8.53073955,7.31068233 8.93073955,4.81068233 C9.13073955,3.51068233 10.6307396,2.91068233 11.6307396,3.61068233 C11.8307396,3.71068233 12.0307396,3.91068233 12.2307396,4.01068233 C12.4307396,3.71068233 12.7307396,3.41068233 13.2307396,3.41068233 C14.0307396,3.41068233 14.8307396,3.51068233 15.6307396,3.51068233 C15.8307396,3.41068233 16.0307396,3.31068233 16.2307396,3.11068233 C17.6307396,2.21068233 18.9307396,1.21068233 20.4307396,0.410682333 C22.3307396,-0.589317667 24.4307396,0.310682333 25.0307396,2.31068233 C30.9307396,20.2106823 38.9307396,37.1106823 48.6307396,53.2106823 C54.9307396,47.5106823 61.5307396,42.0106823 68.3307396,37.0106823 C73.5307396,33.2106823 78.7307396,29.6106823 84.0307396,26.1106823 C89.0307396,22.7106823 94.0307396,19.2106823 99.2307396,16.1106823 C99.6307396,15.9106823 100.23074,16.4106823 99.9307396,16.8106823 C96.6307396,21.3106823 92.3307396,25.1106823 88.1307396,28.9106823 C83.3307396,33.1106823 78.4307396,37.1106823 73.5307396,41.2106823 C66.3307396,47.2106823 59.4307396,53.6106823 52.9307396,60.3106823 C61.8307396,74.3106823 71.9307396,87.6106823 82.6307396,100.310682 C84.1307396,101.910682 85.6307396,103.410682 87.1307396,105.010682 C89.8307396,108.010682 92.6307396,111.010682 95.0307396,114.310682 C96.2307396,115.610682 97.3307396,116.910682 98.5307396,118.110682 C99.2307396,118.810682 98.2307396,119.710682 97.5307396,119.110682 C97.4307396,119.010682 97.3307396,118.910682 97.2307396,118.810682 C97.1307396,118.810682 96.9307396,118.810682 96.8307396,118.710682 C91.9307396,115.210682 87.3307396,111.110682 82.7307396,107.210682 C77.8307396,103.110682 72.9307396,99.0106823 68.2307396,94.7106823 C59.5307396,86.9106823 51.5307396,78.4106823 44.1307396,69.4106823 C37.0307396,77.1106823 30.4307396,85.2106823 24.3307396,93.8106823 C21.0307396,98.5106823 18.0307396,103.410682 14.8307396,108.210682 C13.1307396,110.810682 11.0307396,113.110682 9.23073955,115.610682 C7.63073955,117.910682 5.13073955,120.510682 2.63073955,121.910682 C1.43073955,122.510682 0.130739554,121.810682 0.0307395535,120.410682 C-0.169260446,118.210682 0.630739554,115.010682 1.73073955,112.610682 C2.93073955,109.810682 4.03073955,106.910682 5.63073955,104.210682 C8.63073955,99.0106823 12.3307396,94.2106823 15.9307396,89.4106823 C22.9307396,80.1106823 30.5307396,71.3106823 38.6307396,62.9106823 Z" id="Combined-Shape" fill="#D0021B" fill-rule="nonzero"></path>
    </g>
</svg>