<?xml version="1.0" encoding="UTF-8"?>
<svg width="60px" height="60px" viewBox="0 0 60 60" version="1.1" xmlns="http://www.w3.org/2000/svg" xmlns:xlink="http://www.w3.org/1999/xlink">
    <!-- Generator: Sketch 55.2 (78181) - https://sketchapp.com -->
    <title>Icon/All/Info</title>
    <desc>Created with Sketch.</desc>
    <g id="Icon/All/Info" stroke="none" stroke-width="1" fill="none" fill-rule="evenodd">
        <path d="M30,-3.55271368e-15 C37.9564947,-3.55271368e-15 45.5871121,3.16070521 51.2132034,8.78679656 C56.8392948,14.4128879 60,22.0435053 60,30 C60,46.5685425 46.5685425,60 30,60 C13.4314575,60 2.48689958e-14,46.5685425 2.48689958e-14,30 C2.48689958e-14,13.4314575 13.4314575,-3.55271368e-15 30,-3.55271368e-15 Z M31.9870981,40.4437937 L31.9870981,26.7806798 C31.9870981,23.4036705 25.603773,22.3483761 20.9543275,27.9645609 C19.4200019,29.8406049 18.4051488,32.0421313 18,34.3733994 C21.3660062,30.3197777 25.0129581,27.664738 25.0129581,31.5562053 L25.0129581,45.2193521 C25.0129581,48.5963285 31.3962832,49.6516164 36.0456795,44.0354316 C37.5801363,42.159475 38.5950024,39.9579287 39,37.6266325 C35.6339938,41.6802607 31.9870981,44.3352545 31.9870981,40.4437937 Z M29.25,19.5 C31.3210678,19.5 33,17.8210678 33,15.75 C33,13.6789322 31.3210678,12 29.25,12 C27.1789322,12 25.5,13.6789322 25.5,15.75 C25.5,17.8210678 27.1789322,19.5 29.25,19.5 Z" id="Combined-Shape" fill="#FFFFFF" fill-rule="nonzero"></path>
    </g>
</svg>