<?xml version="1.0" encoding="UTF-8"?>
<svg width="394px" height="119px" viewBox="0 0 394 119" version="1.1" xmlns="http://www.w3.org/2000/svg" xmlns:xlink="http://www.w3.org/1999/xlink">
    <!-- Generator: Sketch 55.2 (78181) - https://sketchapp.com -->
    <title>Combined Shape</title>
    <desc>Created with Sketch.</desc>
    <g id="Page-1" stroke="none" stroke-width="1" fill="none" fill-rule="evenodd" fill-opacity="0.3">
        <g id="Flower" transform="translate(-759.000000, -235.000000)" fill="#000000">
            <g id="Table" transform="translate(0.000000, 185.000000)">
                <path d="M1028.75585,121.862547 C1029.64638,113.648291 1035.50538,103.047047 1050.36552,103.047047 C1061.04825,103.047047 1065.80475,109.788476 1065.80475,117.34368 C1065.80475,119.714292 1064.41439,138.380619 1044.0723,138.380619 C1034.52476,138.380619 1029.22888,133.347831 1028.68048,125.47328 L1023.57998,136.751833 L984.72633,136.751833 L985.312854,134.455302 C987.800871,134.307139 988.971703,132.232853 989.703473,129.34367 L999.21537,90.6034655 C999.361724,90.00969 999.434901,89.4911186 999.434901,89.1218328 C999.434901,87.4179553 998.410424,86.677139 996.654176,86.5289757 L997.312769,84.1583635 L1018.53298,84.1583635 L1017.94646,86.5289757 C1015.97068,86.4548941 1014.36189,88.3810165 1013.70219,91.0479553 L1005.06842,126.0852 L1018.23917,126.0852 C1022.55661,126.0852 1024.4581,124.307241 1026.87294,121.862547 L1028.75585,121.862547 Z M908.841366,94.3064247 L900.719831,126.603772 L904.523925,126.603772 C910.158552,126.603772 913.669938,123.492343 913.669938,118.010302 C913.669938,113.344282 911.109852,112.677547 906.938765,112.455302 L909.135183,103.937037 C914.988232,104.011119 917.476249,100.973772 917.476249,97.862343 C917.476249,94.9731594 915.793178,94.3064247 913.158807,94.3064247 L908.841366,94.3064247 Z M894.20708,84.1583635 L918.281196,84.1583635 C925.817315,84.1583635 930.646995,88.1587716 930.646995,93.7878533 C930.646995,100.4552 925.890492,105.491629 918.353264,107.788159 C924.134245,108.454894 928.231046,112.010812 928.231046,118.010302 C928.231046,126.751935 922.158466,136.751833 908.257059,136.751833 L881.62175,136.751833 L882.135097,134.307139 C884.914714,134.010812 885.792837,131.936527 886.597784,128.89918 L896.036505,90.9727512 C896.256036,90.2330573 896.329213,89.5652002 896.329213,89.0466288 C896.329213,87.4920369 895.524266,86.7512206 893.621665,86.677139 L894.20708,84.1583635 Z M950.333042,113.862629 C950.333042,112.677323 949.308564,111.64018 947.771848,111.64018 C945.065409,111.64018 942.137221,114.3812 940.746859,119.122425 C944.845878,118.529772 950.333042,117.122221 950.333042,113.862629 Z M959.260633,132.677119 C952.674705,136.973853 945.724001,138.529568 941.699268,138.529568 C932.625323,138.529568 927.650398,132.973445 927.650398,124.825588 C927.650398,114.603445 936.284172,102.89967 949.674449,102.89967 C957.064215,102.89967 961.747541,106.454465 961.747541,112.232833 C961.747541,119.639874 954.430952,124.01069 940.821144,126.529465 C940.967498,128.454465 942.577392,130.306506 945.504471,130.306506 C948.649972,130.306506 952.235643,128.454465 955.309076,126.603547 L959.260633,132.677119 Z M970.677016,99.5662206 C974.848104,97.9364247 979.164436,94.9731594 982.018338,91.5665267 L985.60401,91.5665267 L982.529468,104.602649 L991.237528,104.602649 L989.115396,113.713568 L980.262091,113.713568 L977.408189,125.714792 C977.335012,126.0852 977.188658,126.751935 977.188658,127.417547 C977.188658,128.380608 977.481366,129.418874 978.652198,129.418874 C980.04256,129.418874 982.163584,127.789078 983.553946,126.900098 L987.140726,131.789486 C983.774586,134.529384 978.286313,138.45571 972.139447,138.45571 C966.432752,138.45571 963.652027,135.492445 963.652027,130.826425 C963.652027,129.714078 963.798381,128.529894 964.164266,127.196425 L967.23659,113.713568 L962.627549,113.713568 L964.822859,104.602649 L969.359831,104.602649 L970.677016,99.5662206 Z M1040.85251,123.344292 C1040.85251,127.122455 1042.90258,129.2697 1045.90172,129.2697 C1051.17047,129.2697 1053.43895,122.158986 1053.43895,118.603068 C1053.43895,114.676741 1051.09618,112.381333 1048.24339,112.381333 C1042.97465,112.381333 1040.85251,119.269802 1040.85251,123.344292 Z M1075.61113,99.5662206 C1079.78222,97.9364247 1084.09855,94.9731594 1086.95245,91.5665267 L1090.53813,91.5665267 L1087.46358,104.602649 L1096.17164,104.602649 L1094.04951,113.713568 L1085.19621,113.713568 L1082.3423,125.714792 C1082.26913,126.0852 1082.12277,126.751935 1082.12277,127.417547 C1082.12277,128.380608 1082.41548,129.418874 1083.58631,129.418874 C1084.97668,129.418874 1087.0977,127.789078 1088.48806,126.900098 L1092.07484,131.789486 C1088.7087,134.529384 1083.22043,138.45571 1077.07356,138.45571 C1071.36687,138.45571 1068.58614,135.492445 1068.58614,130.826425 C1068.58614,129.714078 1068.7325,128.529894 1069.09838,127.196425 L1072.17071,113.713568 L1067.56166,113.713568 L1069.75697,104.602649 L1074.29395,104.602649 L1075.61113,99.5662206 Z M1102.46675,99.5662206 C1106.63784,97.9364247 1110.95417,94.9731594 1113.80807,91.5665267 L1117.39374,91.5665267 L1114.3192,104.602649 L1123.02726,104.602649 L1120.90513,113.713568 L1112.05182,113.713568 L1109.19792,125.714792 C1109.12474,126.0852 1108.97839,126.751935 1108.97839,127.417547 C1108.97839,128.380608 1109.2711,129.418874 1110.44193,129.418874 C1111.83229,129.418874 1113.95331,127.789078 1115.34368,126.900098 L1118.93046,131.789486 C1115.56432,134.529384 1110.07604,138.45571 1103.92918,138.45571 C1098.22248,138.45571 1095.44176,135.492445 1095.44176,130.826425 C1095.44176,129.714078 1095.58811,128.529894 1095.954,127.196425 L1099.02632,113.713568 L1094.41728,113.713568 L1096.61259,104.602649 L1101.14956,104.602649 L1102.46675,99.5662206 Z M1141.17526,113.862629 C1141.17526,112.677323 1140.15078,111.64018 1138.61407,111.64018 C1135.90763,111.64018 1132.97944,114.3812 1131.58908,119.122425 C1135.6881,118.529772 1141.17526,117.122221 1141.17526,113.862629 Z M1150.10285,132.677119 C1143.51692,136.973853 1136.56622,138.529568 1132.54149,138.529568 C1123.46754,138.529568 1118.49262,132.973445 1118.49262,124.825588 C1118.49262,114.603445 1127.12639,102.89967 1140.51667,102.89967 C1147.90643,102.89967 1152.58976,106.454465 1152.58976,112.232833 C1152.58976,119.639874 1145.27317,124.01069 1131.66336,126.529465 C1131.80972,128.454465 1133.41961,130.306506 1136.34669,130.306506 C1139.49219,130.306506 1143.07786,128.454465 1146.15129,126.603547 L1150.10285,132.677119 Z M847.07706,130.113444 C861.936863,103.762657 857.291762,72.5361759 836.700921,60.3651204 C831.124862,57.0694815 824.95256,55.5092593 818.618821,55.5092593 C801.564541,55.5092593 783.34791,66.8252778 772.512211,86.0393704 C757.652408,112.390157 762.298585,143.617741 782.888351,155.788796 C788.464409,159.084435 794.636711,160.643556 800.97045,160.643556 C818.02473,160.643556 836.241361,149.327537 847.07706,130.113444 Z M863.719136,90.0280741 C865.898545,104.6805 862.739747,120.482157 854.821765,134.520852 C843.230538,155.075898 822.936741,168.356519 803.122953,168.356519 C795.427756,168.356519 788.257769,166.426074 781.812099,162.61587 C770.12078,155.705056 762.436345,143.528491 760.175141,128.328444 C757.994656,113.67712 761.155606,97.875463 769.072512,83.8356667 C780.663739,63.2828241 800.956459,50 820.771324,50 L820.773476,50 C828.466521,50 835.636508,51.9315463 842.082178,55.74175 C853.774573,62.6525648 861.457931,74.8291296 863.719136,90.0280741 Z M783.411624,84.512975 L805.885906,84.512975 L805.265985,87.0516417 C803.172676,86.9723083 801.467894,89.034975 800.770483,91.8920769 L791.625575,129.418947 L823.872219,129.418947 C828.444135,129.418947 830.458878,127.514947 833.016051,124.896947 L836.659162,124.896947 L829.528996,140.845151 L770.081174,140.845151 L770.701095,138.384716 C773.336835,138.227151 774.576676,136.004716 775.351577,132.910716 L785.426367,91.4160769 C785.581347,90.7803083 785.658837,90.2260769 785.658837,89.8294102 C785.658837,88.0036417 784.573976,87.2103083 782.714213,87.0516417 L783.411624,84.512975 Z M817.803883,81.7707963 L809.201406,116.363435 L813.230891,116.363435 C819.198705,116.363435 822.91823,113.031435 822.91823,107.159667 C822.91823,102.161667 820.206076,101.447667 815.788064,101.209667 L818.113844,92.0852315 C824.313052,92.1645648 826.948791,88.9118981 826.948791,85.5798981 C826.948791,82.4847963 825.165443,81.7707963 822.375799,81.7707963 L817.803883,81.7707963 Z M807.582724,83.1569259 C807.174825,82.6214259 806.548446,82.3096019 805.885475,82.3096019 L803.230363,82.3096019 L804.242039,78.2007963 C804.47451,77.407463 804.552,76.693463 804.552,76.1381296 C804.552,74.4710278 803.699609,73.6787963 801.68379,73.5983611 L802.304787,70.9010278 L827.801183,70.9010278 C835.782663,70.9010278 840.898086,75.1850278 840.898086,81.215463 C840.898086,88.3565648 835.860153,93.7512315 827.878673,96.2105648 C834.000391,96.9245648 838.340912,100.732565 838.340912,107.159667 C838.340912,116.36013 832.122332,126.855269 817.93411,127.215574 L794.381424,127.215574 L802.859056,92.4257037 C803.307853,90.5878148 804.271098,89.2534722 805.149319,89.2534722 C805.176226,89.2545741 805.203132,89.2545741 805.230038,89.2545741 C806.215885,89.2545741 807.113478,88.5703241 807.354558,87.5863704 L807.974479,85.0477037 C808.134841,84.3887963 807.990623,83.6924259 807.582724,83.1569259 Z" id="Combined-Shape" style="mix-blend-mode: overlay;"></path>
            </g>
        </g>
    </g>
</svg>