<?xml version="1.0" encoding="UTF-8"?>
<svg width="150px" height="45px" viewBox="0 0 150 45" version="1.1" xmlns="http://www.w3.org/2000/svg" xmlns:xlink="http://www.w3.org/1999/xlink">
    <!-- Generator: Sketch 52.6 (67491) - http://www.bohemiancoding.com/sketch -->
    <title>LOGO</title>
    <desc>Created with Sketch.</desc>
    <g id="Symbols" stroke="none" stroke-width="1" fill="none" fill-rule="evenodd">
        <g id="Menu" transform="translate(-474.000000, -7.000000)" fill="#FFFFFF">
            <g id="LOGO" transform="translate(474.000000, 7.000000)">
                <g id="Group-17" transform="translate(46.657418, 13.076000)">
                    <path d="M10.4510564,3.94950039 L7.3613241,16.0865594 L8.80854205,16.0865594 C10.9521625,16.0865594 12.2880235,14.9173119 12.2880235,12.8572091 C12.2880235,11.1037597 11.3140724,10.8532067 9.72723651,10.769689 L10.5628351,7.56859979 C12.7895514,7.59643902 13.7360851,6.45503075 13.7360851,5.28578325 C13.7360851,4.20005343 13.0957829,3.94950039 12.0935707,3.94950039 L10.4510564,3.94950039 Z M4.88363297,0.135948221 L14.0423166,0.135948221 C16.909335,0.135948221 18.746724,1.63926643 18.746724,3.75462581 C18.746724,6.26015616 16.9371743,8.15280173 14.069734,9.01581774 C16.2690328,9.26637078 17.8276077,10.6026536 17.8276077,12.8572091 C17.8276077,16.1422378 15.5173737,19.9001115 10.2287644,19.9001115 L0.095707885,19.9001115 L0.291004274,18.9814171 C1.34847306,18.8700602 1.68254377,18.0905618 1.98877526,16.9491536 L5.57961363,2.69673522 C5.6631313,2.41876476 5.69097053,2.16778992 5.69097053,1.97291534 C5.69097053,1.3887134 5.38473904,1.11032114 4.66091916,1.08248191 L4.88363297,0.135948221 Z" id="Fill-1"></path>
                    <path d="M26.2360241,11.2985499 C26.2360241,10.8531223 25.846275,10.4633731 25.2616512,10.4633731 C24.2320217,10.4633731 23.1180308,11.4934245 22.5890855,13.275135 C24.148504,13.0524212 26.2360241,12.5234759 26.2360241,11.2985499 Z M29.6324097,18.3688697 C27.1268794,19.9835449 24.4825747,20.5681686 22.9514173,20.5681686 C19.4993532,20.5681686 17.6067077,18.4802267 17.6067077,15.4183336 C17.6067077,11.5769422 20.8913145,7.17876626 25.9854711,7.17876626 C28.7968111,7.17876626 30.5785216,8.51462731 30.5785216,10.6860869 C30.5785216,13.4695878 27.7950208,15.1121021 22.6173466,16.0586358 C22.673025,16.7820339 23.285488,17.4780145 24.399057,17.4780145 C25.5957219,17.4780145 26.959844,16.7820339 28.1290915,16.086475 L29.6324097,18.3688697 Z" id="Fill-3"></path>
                    <path d="M33.9756243,5.92608545 C35.5624602,5.31362247 37.2045527,4.20005343 38.2902825,2.91987083 L39.6544046,2.91987083 L38.4847353,7.81873102 L41.7976032,7.81873102 L40.9902656,11.242534 L37.6221411,11.242534 L36.5364113,15.7524887 C36.508572,15.8916848 36.4528936,16.1422378 36.4528936,16.3923691 C36.4528936,16.754279 36.5642505,17.14445 37.0096781,17.14445 C37.5386234,17.14445 38.3455392,16.531987 38.8744845,16.1979163 L40.2390283,18.0353052 C38.9584239,19.0649348 36.870482,20.5404137 34.531987,20.5404137 C32.3609492,20.5404137 31.3030586,19.4268447 31.3030586,17.6733953 C31.3030586,17.2553851 31.358737,16.8103793 31.4979331,16.3092732 L32.6667588,11.242534 L30.9133094,11.242534 L31.7484862,7.81873102 L33.4745182,7.81873102 L33.9756243,5.92608545 Z" id="Fill-5"></path>
                    <path d="M44.1088495,0.135948221 L52.1818033,0.135948221 L51.9586677,1.02680346 C51.2070085,0.998964231 50.5949674,1.72278411 50.3439925,2.72499625 L47.0593857,15.8916848 L52.0700246,15.8916848 C53.7125389,15.8916848 54.435937,15.2235434 55.3546314,14.3048489 L56.6634969,14.3048489 L54.1018663,19.9001115 L39.3205026,19.9001115 L39.5436382,19.0370955 C40.4901719,18.9814171 40.9355995,18.2019188 41.2139918,17.1161889 L44.8326694,2.55796089 C44.8883478,2.33482528 44.9161871,2.1399507 44.9161871,2.00117637 C44.9161871,1.36087417 44.5264379,1.08248191 43.8582965,1.02680346 L44.1088495,0.135948221 Z" id="Fill-7"></path>
                    <path d="M60.6729781,14.8616756 C60.6729781,16.2814761 61.4528983,17.0883919 62.5938847,17.0883919 C64.598309,17.0883919 65.461325,14.416248 65.461325,13.0799651 C65.461325,11.6044861 64.570048,10.7418919 63.48474,10.7418919 C61.4803157,10.7418919 60.6729781,13.3305182 60.6729781,14.8616756 M70.1657324,12.6066983 C70.1657324,13.4975535 69.6367871,20.5121949 61.8979041,20.5121949 C58.0565127,20.5121949 56.0242492,18.3968355 56.0242492,15.1400679 C56.0242492,11.9946571 58.1121911,7.23414945 64.2920775,7.23414945 C68.3561827,7.23414945 70.1657324,9.76751903 70.1657324,12.6066983" id="Fill-9"></path>
                    <path d="M73.8964418,5.92608545 C75.4832777,5.31362247 77.1253703,4.20005343 78.2111001,2.91987083 L79.5752222,2.91987083 L78.4055528,7.81873102 L81.7184208,7.81873102 L80.9110832,11.242534 L77.5429586,11.242534 L76.4572288,15.7524887 C76.4293896,15.8916848 76.3737111,16.1422378 76.3737111,16.3923691 C76.3737111,16.754279 76.4850681,17.14445 76.9304957,17.14445 C77.459441,17.14445 78.2663567,16.531987 78.795302,16.1979163 L80.1598459,18.0353052 C78.8792415,19.0649348 76.7912995,20.5404137 74.4528045,20.5404137 C72.2817667,20.5404137 71.2238761,19.4268447 71.2238761,17.6733953 C71.2238761,17.2553851 71.2795546,16.8103793 71.4187507,16.3092732 L72.5875764,11.242534 L70.834127,11.242534 L71.6693037,7.81873102 L73.3953358,7.81873102 L73.8964418,5.92608545 Z" id="Fill-11"></path>
                    <path d="M84.1133113,5.92608545 C85.7001472,5.31362247 87.3422397,4.20005343 88.4279695,2.91987083 L89.7920916,2.91987083 L88.6224223,7.81873102 L91.9352902,7.81873102 L91.1279526,11.242534 L87.7598281,11.242534 L86.6740983,15.7524887 C86.646259,15.8916848 86.5905806,16.1422378 86.5905806,16.3923691 C86.5905806,16.754279 86.7019375,17.14445 87.1473651,17.14445 C87.6763104,17.14445 88.4832262,16.531987 89.0121715,16.1979163 L90.3767153,18.0353052 C89.0961109,19.0649348 87.008169,20.5404137 84.669674,20.5404137 C82.4986362,20.5404137 81.4407456,19.4268447 81.4407456,17.6733953 C81.4407456,17.2553851 81.496424,16.8103793 81.6356201,16.3092732 L82.8044458,11.242534 L81.0509964,11.242534 L81.8861732,7.81873102 L83.6122052,7.81873102 L84.1133113,5.92608545 Z" id="Fill-13"></path>
                    <path d="M98.8394605,11.2985499 C98.8394605,10.8531223 98.4497113,10.4633731 97.8650875,10.4633731 C96.835458,10.4633731 95.7214671,11.4934245 95.1925218,13.275135 C96.7519403,13.0524212 98.8394605,12.5234759 98.8394605,11.2985499 Z M102.235846,18.3688697 C99.7303157,19.9835449 97.086011,20.5681686 95.5548536,20.5681686 C92.1027895,20.5681686 90.210144,18.4802267 90.210144,15.4183336 C90.210144,11.5769422 93.4947509,7.17876626 98.5889074,7.17876626 C101.400247,7.17876626 103.181958,8.51462731 103.181958,10.6860869 C103.181958,13.4695878 100.398457,15.1121021 95.2207829,16.0586358 C95.2764613,16.7820339 95.8889243,17.4780145 97.0024933,17.4780145 C98.1991583,17.4780145 99.5632803,16.7820339 100.732528,16.086475 L102.235846,18.3688697 Z" id="Fill-15"></path>
                </g>
                <g id="Group-28">
                    <path d="M33.4095918,30.3719167 C29.3002041,37.63775 22.3916327,41.9169167 15.9238776,41.9169167 C13.5218367,41.9169167 11.1810204,41.3273333 9.06632653,40.0810833 C1.2577551,35.4785833 -0.504285714,23.6698333 5.13122449,13.70525 C9.24061224,6.43941667 16.1491837,2.16025 22.6169388,2.16025 C25.0189796,2.16025 27.3597959,2.75025 29.4744898,3.9965 C37.2834694,8.599 39.045102,20.4073333 33.4095918,30.3719167 M39.7210204,15.2135833 C38.8634694,9.46608333 35.9495918,4.8615 31.5153061,2.24816667 C29.0708163,0.807333333 26.3516327,0.0769166667 23.4340816,0.0769166667 L23.4332653,0.0769166667 C15.9185714,0.0769166667 8.22265306,5.09983333 3.82673469,12.8719167 C0.824285714,18.1810833 -0.374489796,24.1565 0.45244898,29.6969167 C1.31,35.4448333 4.22428571,40.0494167 8.65816327,42.66275 C11.1026531,44.1035833 13.8218367,44.8335833 16.7402041,44.8335833 C24.2544898,44.8335833 31.9508163,39.8115 36.3467347,32.0385833 C39.3495918,26.7298333 40.547551,20.7544167 39.7210204,15.2135833" id="Fill-18"></path>
                    <path d="M9.26477551,13.1280417 L17.7880408,13.1280417 L17.5529388,14.0880417 C16.7590612,14.0580417 16.1125306,14.8380417 15.8480408,15.9184583 L12.3798776,30.1092917 L24.6092653,30.1092917 C26.3431429,30.1092917 27.1072245,29.3892917 28.0770204,28.3992917 L29.4586531,28.3992917 L26.7545714,34.430125 L4.20926531,34.430125 L4.44436735,33.4997083 C5.44395918,33.440125 5.91416327,32.5997083 6.20804082,31.4297083 L10.0288571,15.7384583 C10.0876327,15.4980417 10.1170204,15.2884583 10.1170204,15.1384583 C10.1170204,14.4480417 9.70559184,14.1480417 9.00028571,14.0880417 L9.26477551,13.1280417 Z" id="Fill-20"></path>
                    <path d="M22.3078776,12.0910833 L24.0417551,12.0910833 C25.0997143,12.0910833 25.7760408,12.3610833 25.7760408,13.5315 C25.7760408,14.7915 24.776449,16.0215 22.4254286,15.9915 L21.5433878,19.4419167 C23.218898,19.5319167 24.2474694,19.8019167 24.2474694,21.6919167 C24.2474694,23.9123333 22.8368571,25.1723333 20.5735918,25.1723333 L19.0454286,25.1723333 L22.3078776,12.0910833 Z M18.431551,12.61525 C18.5862449,12.81775 18.6409388,13.0810833 18.5801224,13.33025 L18.3450204,14.29025 C18.2535918,14.6623333 17.9131837,14.9210833 17.5393061,14.9210833 C17.529102,14.9210833 17.518898,14.9210833 17.5086939,14.9206667 C17.1756327,14.9206667 16.8103265,15.42525 16.6401224,16.12025 L13.4250204,29.2760833 L22.3572653,29.2760833 C27.7380816,29.1398333 30.096449,25.1710833 30.096449,21.6919167 C30.096449,19.2615 28.4503265,17.8215 26.1286939,17.5515 C29.1556327,16.6215 31.0662449,14.5815 31.0662449,11.8810833 C31.0662449,9.60066667 29.1262449,7.98066667 26.0993061,7.98066667 L16.4299184,7.98066667 L16.1944082,9.00066667 C16.958898,9.03108333 17.2821633,9.33066667 17.2821633,9.96108333 C17.2821633,10.1710833 17.2527755,10.4410833 17.1646122,10.7410833 L16.7809388,12.2948333 L17.7878776,12.2948333 C18.0393061,12.2948333 18.2768571,12.41275 18.431551,12.61525 Z" id="Fill-22"></path>
                </g>
            </g>
        </g>
    </g>
</svg>