<?xml version="1.0" encoding="UTF-8"?>
<svg width="30px" height="30px" viewBox="0 0 30 30" version="1.1" xmlns="http://www.w3.org/2000/svg" xmlns:xlink="http://www.w3.org/1999/xlink">
    <!-- Generator: Sketch 58 (84663) - https://sketch.com -->
    <title>Icon/Minus</title>
    <desc>Created with Sketch.</desc>
    <defs>
        <radialGradient cx="156.629167%" cy="30.6616667%" fx="156.629167%" fy="30.6616667%" r="45.5933333%" id="radialGradient-1">
            <stop stop-color="#5BB431" offset="0%"></stop>
            <stop stop-color="#57B331" offset="22%"></stop>
            <stop stop-color="#4CAE32" offset="43%"></stop>
            <stop stop-color="#39A734" offset="63%"></stop>
            <stop stop-color="#1F9D37" offset="82%"></stop>
            <stop stop-color="#00913A" offset="100%"></stop>
        </radialGradient>
    </defs>
    <g id="Icon/Minus" stroke="none" stroke-width="1" fill="none" fill-rule="evenodd">
        <g id="糖果消消樂_Minus" fill-rule="nonzero">
            <g id="Minus">
                <circle id="Oval" fill="url(#radialGradient-1)" cx="15" cy="15" r="15"></circle>
                <g id="Group" opacity="0.88" transform="translate(18.750000, 2.500000)">
                    <path d="M0.8625,0.85625 C2.23125,0.6 3.4125,1.7625 4.31875,2.81875 C5.3125,3.98125 6.35625,5.26875 6.4125,6.79375" id="Path" fill="#C3E0B4"></path>
                    <path d="M2.4625,2.5 L3.15625,2.55 L2.5625,2.3 L3.5,2.88125 L2.1875,1.9125 L3.61875,3.225 L2.5,2.03125 L5.625,6.8125 L5,5.20625 L5.84375,7.825 L5.3625,5.6875 L5.6875,8.425 C5.6875,8.5625 5.7375,9.10625 5.93125,9.13125 C6.125,9.15625 6.14375,9.05625 6.15625,8.85 C6.2444267,7.90147855 6.15109634,6.94484238 5.88125,6.03125 C5.44094748,4.84293473 4.7306108,3.77315057 3.80625,2.90625 L4.7625,4.3375 C3.9625,2.98125 3.65625,2.375 2.5,1.54375 C1.90020433,1.12256261 1.16414507,0.941893517 0.4375,1.0375 C-0.06875,1.0375 0.875,1.7125 0.8125,1.6625 C1.29050305,2.06525279 1.85524126,2.35190022 2.4625,2.5 Z" id="Path" fill="#FFFFFF" opacity="0.11"></path>
                    <path d="M2.79375,1.65 L3.4875,1.725 L3.03125,1.4875 L3.8625,2.075 L2.9625,1.19375 C4.5774641,2.92629001 5.63556519,5.10345276 6,7.44375 C6,7.6375 5.93125,8.23125 6.19375,8.3375 C6.45625,8.44375 6.475,8.00625 6.48125,7.86875 C6.55857709,7.16133906 6.52271094,6.44612585 6.375,5.75 C6.0026492,4.62380735 5.44499187,3.56763816 4.725,2.625 C4.42404606,2.13284353 4.07437078,1.67219346 3.68125,1.25 C3.08793739,0.614983305 2.2626596,0.247441555 1.39375,0.23125 C0.95625,0.19375 1.58125,0.85625 1.56875,0.825 C1.891115,1.21001622 2.31578858,1.49602088 2.79375,1.65 Z" id="Path" fill="#FFFFFF" opacity="0.11"></path>
                    <path d="M3,2.35 L3.69375,2.40625 L3.025,2.03125 L4,2.69375 L2.575,1.4125 L4.45,3.2875 L3.19375,1.875 C4.60413328,3.55738199 5.683527,5.49138409 6.375,7.575 L6.1125,5.80625 C6.1125,5.95 6.275,8.93125 6.4625,8.8875 C6.65,8.84375 6.5375,8.8875 6.675,8.74375 C6.8125,8.6 6.775,7.7875 6.775,7.49375 C6.79192071,6.74465883 6.64026707,6.00134237 6.33125,5.31875 C6.17661448,4.7239419 5.89518296,4.16960709 5.50625,3.69375 C4.8724384,2.92139561 4.17635559,2.20231908 3.425,1.54375 C2.72493333,0.765637926 1.70699719,0.351093799 0.6625,0.41875 C0.11875,0.41875 1.15,1.19375 1.0875,1.15 C1.55,1.5125 2.36875,2.30625 3,2.35 Z" id="Path" fill="#FFFFFF" opacity="0.11"></path>
                    <path d="M3.625,3.1875 L4.5125,3.2875 L3.64375,2.8375 L4.89375,3.675 L3.9125,2.8875 C5.42242794,4.54628903 6.49629787,6.55442578 7.0375,8.73125 L6.975,7.725 L6.975,9.5375 C6.975,9.79375 6.975,10.08125 7.30625,9.90625 C7.6375,9.73125 7.5625,8.88125 7.54375,8.65625 C7.30672401,6.70587687 6.48783466,4.87208743 5.19375,3.39375 C4.92603765,3.07586507 4.62186467,2.79057179 4.2875,2.54375 C3.72156013,2.12244905 3.02217138,1.92040341 2.31875,1.975 C1.96875,1.975 2.39375,2.39375 2.425,2.43125 C2.7562348,2.77877723 3.16856789,3.03863297 3.625,3.1875 Z" id="Path" fill="#FFFFFF" opacity="0.11"></path>
                    <path d="M3.75,2.5 L4.45625,2.575 L3.93125,2.26875 C5.725,3.5625 7.01875,6.875 7,8.9875 C7,9.3375 7.275,9.1375 7.3875,9.04375 C7.60625,8.85 7.63125,7.925 7.6,7.64375 C7.57938053,6.82674213 7.37878064,6.02434258 7.0125,5.29375 C6.55727906,4.41013447 6.01723938,3.57286364 5.4,2.79375 C4.48125,1.60625 3.525,0.83125 2.03125,0.7375 C1.55,0.7375 2.31875,1.43125 2.2875,1.4 C2.6375,1.74375 3.25,2.425 3.75,2.5 Z" id="Path" fill="#FFFFFF" opacity="0.11"></path>
                    <path d="M2.6875,1.9875 C4.44375,2.3375 5.2625,8.05625 5.1875,8.45 C5.1125,8.84375 5.65,8.9625 5.7,8.60625 C5.85326823,7.88724385 5.85326823,7.14400615 5.7,6.425 C5.48499561,5.73588568 5.21539144,5.06501018 4.89375,4.41875 C4.79542002,4.03000625 4.67225038,3.6479716 4.525,3.275 C4.125,2.21875 3.6625,1.65 2.58125,1.4 C2.275,1.3625 2.35625,1.925 2.6875,1.9875 Z" id="Path" fill="#FFFFFF" opacity="0.11"></path>
                    <path d="M2.11875,2.5 L3.05,2.8125 L2.2375,2.15 C3.63389312,3.72528232 4.60421882,5.63150974 5.05625,7.6875 C5.05625,7.975 5.05625,8.775 5.33125,8.9875 C5.475,9.1125 5.6375,9.125 5.6625,8.85625 C5.77683929,8.03521061 5.71071924,7.19911193 5.46875,6.40625 C5.17465716,5.71054471 4.84077187,5.03234022 4.46875,4.375 C3.80625,2.89375 2.925,1.60625 1.175,1.54375 C0.4,1.4875 1.80625,2.5 2.11875,2.5 Z" id="Path" fill="#FFFFFF" opacity="0.11"></path>
                    <path d="M2.5,3.3875 L3.475,3.525 L2.45,3.04375 L3.75,3.79375 L2.7875,3.125 C4.24216392,4.68302257 5.33296643,6.54443115 5.98125,8.575 L5.7625,7.35625 L5.86875,9.13125 C5.86875,9.19375 5.86875,9.9875 6.05625,10.06875 C6.24375,10.15 6.33125,10.06875 6.35625,9.89375 C6.50691114,8.96723058 6.4143035,8.01746391 6.0875,7.1375 C5.72305886,6.26376383 5.23471543,5.44705155 4.6375,4.7125 L5.30625,5.73125 C5.07249777,4.84991101 4.61376073,4.04442907 3.975,3.39375 C3.21875,2.76875 2.64375,2.725 1.6375,2.525 C1.4,2.48125 1.35625,2.65625 1.43125,2.81875 C1.55625,3.125 2.225,3.29375 2.5,3.3875 Z" id="Path" fill="#FFFFFF" opacity="0.11"></path>
                    <path d="M3.70625,1.675 L4.40625,1.7875 L4.0625,1.59375 C5.80382027,3.42864245 6.7708537,5.86413406 6.7625,8.39375 C6.7625,8.85625 7.2375,8.625 7.2625,8.24375 C7.38245652,7.35332558 7.30999275,6.44752848 7.05,5.5875 C6.77553011,4.81471904 6.43684743,4.06627212 6.0375,3.35 C5.70207803,2.6744938 5.28203574,2.04443036 4.7875,1.475 C4.26915451,0.886664384 3.55318539,0.508668268 2.775,0.4125 C2.40625,0.3375 2.775,0.925 2.775,0.9375 C3,1.1875 3.3625,1.61875 3.70625,1.675 Z" id="Path" fill="#FFFFFF" opacity="0.11"></path>
                    <path d="M1.9875,3.08125 L2.925,3.2125 L1.95625,2.75 L3.20625,3.48125 L2.3125,2.85625 C3.6941596,4.42738513 4.75569354,6.2532235 5.4375,8.23125 L5.10625,6.98125 L5.20625,8.28125 C5.20625,8.59375 5.20625,9.4625 5.5,9.69375 C5.65625,9.83125 5.80625,9.84375 5.83125,9.55625 C5.97497399,8.72095472 5.90400151,7.86283302 5.625,7.0625 C5.35972978,6.44961508 5.05492117,5.85461197 4.7125,5.28125 C4.3375,4.5 4.15625,3.6625 3.4625,3.0875 C2.80447813,2.60545151 2.02556238,2.31552176 1.2125,2.25 C0.94375,2.19375 0.9875,2.4 1.00625,2.5375 C1.025,2.675 1.81875,3.025 1.9875,3.08125 Z" id="Path" fill="#FFFFFF" opacity="0.11"></path>
                    <path d="M3.43125,1.5 C5.3683816,3.16913788 6.42504709,5.64007399 6.29375,8.19375 C6.29375,8.48125 6.74375,8.575 6.775,8.31875 C6.97034523,7.49262799 6.94012501,6.62919305 6.6875,5.81875 C6.38288517,4.93265083 6.02814628,4.06458391 5.625,3.21875 C5.13125,1.96875 4.54375,1.04375 3.20625,0.71875 C2.71875,0.625 3.125,1.43125 3.43125,1.5 Z" id="Path" fill="#FFFFFF" opacity="0.11"></path>
                    <path d="M2.31875,2.39375 C3.74375,2.68125 3.6875,3.99375 4.06875,4.925 C4.6,6.23125 5.1,6.8875 4.9125,8.4875 C4.9125,8.625 4.9125,8.96875 5.04375,9.05625 C5.175,9.14375 5.4,9.11875 5.425,8.9625 C5.59384752,8.23044327 5.59384752,7.46955673 5.425,6.7375 C5.09724148,5.54514323 4.64910382,4.38919935 4.0875,3.2875 C3.82526945,2.53127977 3.16144834,1.98573951 2.36875,1.875 C2.04375,1.80625 1.9625,2.325 2.31875,2.39375 Z" id="Path" fill="#FFFFFF" opacity="0.11"></path>
                </g>
                <rect id="Rectangle" fill="#FFFFFF" transform="translate(15.000000, 15.000000) rotate(180.000000) translate(-15.000000, -15.000000) " x="4.9375" y="12.18125" width="20.125" height="5.6375" rx="2.52"></rect>
            </g>
        </g>
    </g>
</svg>