<?xml version="1.0" encoding="UTF-8"?>
<svg width="14px" height="14px" viewBox="0 0 14 14" version="1.1" xmlns="http://www.w3.org/2000/svg" xmlns:xlink="http://www.w3.org/1999/xlink">
    <title>Icon/FA/AngleDown</title>
    <g id="Icon/FA/AngleDown" stroke="none" stroke-width="1" fill="none" fill-rule="evenodd">
        <path d="M6.25625,10.70625 L0.30625,4.75625 C0.102082313,4.55208275 0,4.30416725 0,4.0125 C0,3.72083275 0.102082313,3.47291725 0.30625,3.26875 L1.3125,2.30625 C1.51666777,2.10208275 1.76458275,2 2.05625,2 C2.34791725,2 2.59583275,2.10208275 2.8,2.30625 L7,6.50625 L11.2,2.30625 C11.4041673,2.10208275 11.6520828,2 11.94375,2 C12.2354173,2 12.4833328,2.10208275 12.6875,2.30625 L13.69375,3.26875 C13.8979173,3.47291725 14,3.72083275 14,4.0125 C14,4.30416725 13.8979173,4.55208275 13.69375,4.75625 L7.74375,10.70625 C7.53958275,10.9104177 7.29166725,11.0125 7,11.0125 C6.70833275,11.0125 6.46041725,10.9104177 6.25625,10.70625 Z" id="Fill-1" fill="#999999"></path>
    </g>
</svg>