<?xml version="1.0" encoding="UTF-8"?>
<svg width="14px" height="14px" viewBox="0 0 14 14" version="1.1" xmlns="http://www.w3.org/2000/svg" xmlns:xlink="http://www.w3.org/1999/xlink">
    <title>Icon/FA/Edit</title>
    <g id="Icon/FA/Edit" stroke="none" stroke-width="1" fill="none" fill-rule="evenodd">
        <path d="M9.79513889,2.71736111 L11.9826389,4.90486111 C12.0960681,5.01828736 12.0960681,5.13171264 11.9826389,5.24513889 L6.65972222,10.5680556 L4.42361111,10.8111111 C4.32638792,10.8273151 4.23321792,10.8111111 4.14409722,10.7625 C4.05497653,10.7138889 3.98611111,10.6450235 3.9375,10.5559028 C3.88888889,10.4667821 3.87268486,10.3736121 3.88888889,10.2763889 L4.13194444,8.04027778 L9.45486111,2.71736111 C9.56828736,2.60393194 9.68171264,2.60393194 9.79513889,2.71736111 Z M13.7326389,2.15833333 C13.9108764,2.35277778 14,2.57962639 14,2.83888889 C14,3.09815139 13.9108764,3.325 13.7326389,3.51944444 L12.8576389,4.37013889 C12.7442097,4.48356514 12.6307903,4.48356514 12.5173611,4.37013889 L10.3298611,2.18263889 C10.2164319,2.06920972 10.2164319,1.95579028 10.3298611,1.84236111 L11.2048611,0.991666667 C11.3830986,0.797222222 11.6018486,0.7 11.8611111,0.7 C12.1203736,0.7 12.3472222,0.797222222 12.5416667,0.991666667 L13.7326389,2.15833333 Z M9.33333333,9.10972222 C9.33333333,9.02870306 9.36574042,8.96388889 9.43055556,8.91527778 L10.4027778,7.94305556 C10.4837931,7.84583236 10.5850694,7.82152778 10.7065972,7.87013889 C10.828125,7.91875 10.8888889,8.00786972 10.8888889,8.1375 L10.8888889,11.9777778 C10.8888889,12.3018535 10.7754597,12.5773137 10.5486111,12.8041667 C10.3217625,13.0310197 10.0462931,13.1444444 9.72222222,13.1444444 L1.16666667,13.1444444 C0.842590972,13.1444444 0.567130764,13.0310197 0.340277778,12.8041667 C0.113424792,12.5773137 0,12.3018535 0,11.9777778 L0,3.42222222 C0,3.09815139 0.113424792,2.82268194 0.340277778,2.59583333 C0.567130764,2.36898472 0.842590972,2.25555556 1.16666667,2.25555556 L8.11805556,2.25555556 C8.24768583,2.25555556 8.33680556,2.31631944 8.38541667,2.43784722 C8.43402778,2.559375 8.40972319,2.66065139 8.3125,2.74166667 L7.34027778,3.71388889 C7.29166667,3.77870403 7.2268525,3.81111111 7.14583333,3.81111111 L1.55555556,3.81111111 L1.55555556,11.5888889 L9.33333333,11.5888889 L9.33333333,9.10972222 Z" id="Fill-1" fill="#777777"></path>
    </g>
</svg>