<?xml version="1.0" encoding="UTF-8"?>
<svg width="24px" height="24px" viewBox="0 0 24 24" version="1.1" xmlns="http://www.w3.org/2000/svg" xmlns:xlink="http://www.w3.org/1999/xlink">
    <title>Icon/FA/Envelope</title>
    <g id="Icon/FA/Envelope" stroke="none" stroke-width="1" fill="none" fill-rule="evenodd">
        <path d="M18.7265625,10.4726562 C18.78125,10.4179688 18.8404984,10.4088534 18.9042969,10.4453125 C18.9680953,10.4817716 19,10.536458 19,10.609375 L19,16.1875 C19,16.5520852 18.8723922,16.8619779 18.6171875,17.1171875 C18.3619828,17.3723971 18.0520797,17.5 17.6875,17.5 L6.3125,17.5 C5.94791484,17.5 5.63802211,17.3723971 5.3828125,17.1171875 C5.12760289,16.8619779 5,16.5520852 5,16.1875 L5,10.609375 C5,10.536458 5.03190072,10.4863281 5.09570312,10.4589844 C5.1595055,10.4316406 5.21874978,10.4361972 5.2734375,10.4726562 C5.87500295,10.928388 7.27863453,11.9583253 9.484375,13.5625 C9.52083297,13.598958 9.64387875,13.6992177 9.85351562,13.8632812 C10.0631525,14.0273448 10.2317705,14.1503906 10.359375,14.2324219 C10.4869795,14.3144531 10.6510409,14.4147128 10.8515625,14.5332031 C11.0520841,14.6516934 11.2480458,14.7382812 11.4394531,14.7929688 C11.6308605,14.8476562 11.817708,14.875 12,14.875 C12.1640636,14.875 12.3281239,14.8522139 12.4921875,14.8066406 C12.6562511,14.7610673 12.8111972,14.7063809 12.9570312,14.6425781 C13.1028653,14.5787753 13.2578114,14.4921886 13.421875,14.3828125 C13.5859386,14.2734364 13.7226552,14.1777344 13.8320312,14.0957031 C13.9414073,14.0136719 14.0690097,13.9179698 14.2148438,13.8085938 C14.3606778,13.6992177 14.4609375,13.6171875 14.515625,13.5625 C16.6666813,12.0130128 18.0703125,10.9830755 18.7265625,10.4726562 Z M12,14 C11.8541659,14 11.6764338,13.9498702 11.4667969,13.8496094 C11.25716,13.7493486 11.088542,13.6582031 10.9609375,13.5761719 C10.833333,13.4941406 10.6464855,13.357423 10.4003906,13.1660156 C10.1542958,12.9746083 10.0221358,12.8789062 10.0039062,12.8789062 C7.77993625,11.256502 6.19401516,10.0807328 5.24609375,9.3515625 C5.08203043,9.22395797 5,9.05078234 5,8.83203125 L5,8.3125 C5,7.94791484 5.12760289,7.63802156 5.3828125,7.3828125 C5.63802211,7.12760234 5.94791484,7 6.3125,7 L17.6875,7 C18.0520797,7 18.3619828,7.12760234 18.6171875,7.3828125 C18.8723922,7.63802156 19,7.94791484 19,8.3125 L19,8.83203125 C19,9.05078234 18.9179688,9.22395797 18.7539062,9.3515625 C17.8606734,10.0442748 16.2747469,11.2200441 13.9960938,12.8789062 C13.9778642,12.8789062 13.8457042,12.9746083 13.5996094,13.1660156 C13.3535145,13.357423 13.166667,13.4941406 13.0390625,13.5761719 C12.911458,13.6582031 12.74284,13.7493486 12.5332031,13.8496094 C12.3235662,13.9498702 12.1458341,14 12,14 Z" id="Envelope" fill="#777777"></path>
    </g>
</svg>