<?xml version="1.0" encoding="UTF-8"?>
<svg width="14px" height="14px" viewBox="0 0 14 14" version="1.1" xmlns="http://www.w3.org/2000/svg" xmlns:xlink="http://www.w3.org/1999/xlink">
    <title>Icon/FA/Link</title>
    <g id="Icon/FA/Link" stroke="none" stroke-width="1" fill="none" fill-rule="evenodd">
        <path d="M8.6640625,5.3359375 C9.35156594,6.03906625 9.6953125,6.88280781 9.6953125,7.8671875 C9.6953125,8.85156719 9.35156594,9.68749656 8.6640625,10.375 L7.0703125,11.96875 C6.38280906,12.6562534 5.54687969,13 4.5625,13 C3.57812031,13 2.73828438,12.6523472 2.04296875,11.9570312 C1.34765275,11.2617156 1,10.4218797 1,9.4375 C1,8.45312031 1.34374656,7.61719094 2.03125,6.9296875 L2.921875,6.0390625 C3.03125031,5.92968719 3.16015562,5.90624969 3.30859375,5.96875 C3.45703188,6.03125031 3.53906219,6.14062469 3.5546875,6.296875 C3.57031281,6.71875187 3.64843656,7.13281 3.7890625,7.5390625 C3.8359375,7.67968844 3.80468781,7.80468719 3.6953125,7.9140625 L3.390625,8.2421875 C3.06249812,8.57031438 2.89453094,8.96484156 2.88671875,9.42578125 C2.87890656,9.88672094 3.03906063,10.2812481 3.3671875,10.609375 C3.69531438,10.9531272 4.09374719,11.125 4.5625,11.125 C5.03125281,11.125 5.42968563,10.9609394 5.7578125,10.6328125 L7.328125,9.0625 C7.65625188,8.73437312 7.8203125,8.33594031 7.8203125,7.8671875 C7.8203125,7.39843469 7.65625188,7.00000187 7.328125,6.671875 C7.24999938,6.59374937 7.17187563,6.52343781 7.09375,6.4609375 C6.98437469,6.39843719 6.9296875,6.30468812 6.9296875,6.1796875 C6.91406219,5.89843656 7,5.66406344 7.1875,5.4765625 L7.703125,4.984375 C7.84375094,4.82812469 8,4.81249937 8.171875,4.9375 C8.34375063,5.06250062 8.50781219,5.19531156 8.6640625,5.3359375 Z M9.4375,1 C10.4218844,1 11.2617156,1.34765312 11.9570312,2.04296875 C12.6523469,2.73828437 13,3.57811562 13,4.5625 C13,5.54687969 12.6562563,6.38280906 11.96875,7.0703125 L11.078125,7.9609375 C10.9687469,8.07031281 10.8398406,8.09375031 10.6914062,8.03125 C10.5429719,7.96874969 10.4609406,7.85937531 10.4453125,7.703125 C10.4296844,7.28124812 10.3515625,6.86718906 10.2109375,6.4609375 C10.1640625,6.32031156 10.1953122,6.19531281 10.3046875,6.0859375 L10.609375,5.7578125 C10.9375,5.42968562 11.1054719,5.03515844 11.1132812,4.57421875 C11.1210906,4.11327906 10.9609375,3.71875187 10.6328125,3.390625 C10.3046875,3.04687187 9.90625188,2.875 9.4375,2.875 C8.96874813,2.875 8.57031438,3.0390625 8.2421875,3.3671875 L6.671875,4.9375 C6.34374813,5.26562687 6.1796875,5.66406062 6.1796875,6.1328125 C6.1796875,6.60156437 6.34374813,7 6.671875,7.328125 C6.75000063,7.40625062 6.82812438,7.47656219 6.90625,7.5390625 C7.01562531,7.60156281 7.0703125,7.69531187 7.0703125,7.8203125 C7.08593781,8.10156344 7.00000094,8.33593656 6.8125,8.5234375 L6.296875,9.015625 C6.15624906,9.17187531 6.00000063,9.18750063 5.828125,9.0625 C5.65624938,8.93749937 5.49218781,8.80468844 5.3359375,8.6640625 C4.64843406,7.96093375 4.3046875,7.11719219 4.3046875,6.1328125 C4.3046875,5.14843281 4.64843406,4.31250344 5.3359375,3.625 L6.9296875,2.03125 C7.61719094,1.34374375 8.45312031,1 9.4375,1 Z" id="Fill-1" fill="#999999"></path>
    </g>
</svg>