<?xml version="1.0" encoding="UTF-8"?>
<svg width="24px" height="24px" viewBox="0 0 24 24" version="1.1" xmlns="http://www.w3.org/2000/svg" xmlns:xlink="http://www.w3.org/1999/xlink">
    <title>Icon/FA/Lock</title>
    <g id="Icon/FA/Lock" stroke="none" stroke-width="1" fill="none" fill-rule="evenodd">
        <path d="M16.9375,11.125 C17.3020797,11.125 17.6119828,11.2526023 17.8671875,11.5078125 C18.1223922,11.7630227 18.25,12.0729148 18.25,12.4375 L18.25,17.6875 C18.25,18.0520852 18.1223922,18.3619779 17.8671875,18.6171875 C17.6119828,18.8723971 17.3020797,19 16.9375,19 L7.3125,19 C6.94791484,19 6.63802211,18.8723971 6.3828125,18.6171875 C6.12760289,18.3619779 6,18.0520852 6,17.6875 L6,12.4375 C6,12.0729148 6.12760289,11.7630227 6.3828125,11.5078125 C6.63802211,11.2526023 6.94791484,11.125 7.3125,11.125 L7.96875,11.125 L7.96875,9.15625 C7.96875,8.00780156 8.37434531,7.02799844 9.18554688,6.21679688 C9.99674844,5.40559531 10.976557,5 12.125,5 C13.273443,5 14.2532516,5.40559531 15.0644531,6.21679688 C15.8756547,7.02799844 16.28125,8.00780156 16.28125,9.15625 L16.28125,11.125 L16.9375,11.125 Z M14.09375,11.125 L14.09375,9.15625 C14.09375,8.60937281 13.9023459,8.14453344 13.5195312,7.76171875 C13.1367166,7.37890625 12.6718783,7.1875 12.125,7.1875 C11.5781217,7.1875 11.1132834,7.37890625 10.7304688,7.76171875 C10.3476541,8.14453344 10.15625,8.60937281 10.15625,9.15625 L10.15625,11.125 L14.09375,11.125 Z" id="Lock" fill="#777777"></path>
    </g>
</svg>