<?xml version="1.0" encoding="UTF-8"?>
<svg width="14px" height="14px" viewBox="0 0 14 14" version="1.1" xmlns="http://www.w3.org/2000/svg" xmlns:xlink="http://www.w3.org/1999/xlink">
    <title>Icon/FA/AngleRight</title>
    <g id="Icon/FA/AngleRight" stroke="none" stroke-width="1" fill="none" fill-rule="evenodd">
        <path d="M10.70625,7.74375 L4.75625,13.69375 C4.55208275,13.8979177 4.304169,14 4.0125,14 C3.720831,14 3.4729176,13.8979177 3.26875,13.69375 L2.30625,12.6875 C2.10208231,12.4833322 2,12.2354172 2,11.94375 C2,11.652081 2.10208231,11.4041673 2.30625,11.2 L6.50625,7 L2.30625,2.8 C2.10208231,2.59583275 2,2.34791725 2,2.05625 C2,1.76458275 2.10208231,1.51666725 2.30625,1.3125 L3.26875,0.30625 C3.4729176,0.10208275 3.720831,0 4.0125,0 C4.304169,0 4.55208275,0.10208275 4.75625,0.30625 L10.70625,6.25625 C10.9104173,6.46041725 11.0125,6.70833275 11.0125,7 C11.0125,7.29166725 10.9104173,7.53958275 10.70625,7.74375 Z" id="Fill-1" fill="#999999"></path>
    </g>
</svg>