<?xml version="1.0" encoding="UTF-8"?>
<svg width="14px" height="14px" viewBox="0 0 14 14" version="1.1" xmlns="http://www.w3.org/2000/svg" xmlns:xlink="http://www.w3.org/1999/xlink">
    <title>Icon/FA/CheckCircle</title>
    <g id="Icon/FA/CheckCircle" stroke="none" stroke-width="1" fill="none" fill-rule="evenodd">
        <path d="M11.86,2.13777778 C13.2118556,3.47111778 13.8877778,5.09147222 13.8877778,6.99888889 C13.8877778,8.90630556 13.2164889,10.53129 11.8738889,11.8738889 C10.53129,13.2164882 8.90630556,13.8877778 6.99888889,13.8877778 C5.09147222,13.8877778 3.46648778,13.2164882 2.12388889,11.8738889 C0.781289556,10.53129 0.11,8.90630556 0.11,6.99888889 C0.11,5.09147222 0.781289556,3.46648778 2.12388889,2.12388889 C3.46648778,0.781288889 5.09147222,0.11 6.99888889,0.11 C8.90630556,0.11 10.52666,0.785922222 11.86,2.13777778 Z M6.19333333,10.6377778 L11.3044444,5.52666667 C11.5266658,5.32296222 11.5266658,5.11926 11.3044444,4.91555556 L10.6933333,4.27666667 C10.47111,4.07296222 10.2581489,4.07296222 10.0544444,4.27666667 L5.88777778,8.44333333 L3.94333333,6.49888889 C3.73962889,6.29518444 3.52666583,6.29518444 3.30444444,6.49888889 L2.69333333,7.13777778 C2.47111,7.34148222 2.47111,7.54518444 2.69333333,7.74888889 L5.58222222,10.6377778 C5.78592667,10.8600011 5.98962889,10.8600011 6.19333333,10.6377778 Z" id="Fill-1" fill="#00FF38"></path>
    </g>
</svg>