<?xml version="1.0" encoding="UTF-8"?>
<svg width="14px" height="14px" viewBox="0 0 14 14" version="1.1" xmlns="http://www.w3.org/2000/svg" xmlns:xlink="http://www.w3.org/1999/xlink">
    <title>Icon/FA/Coins</title>
    <g id="Icon/FA/Coins" stroke="none" stroke-width="1" fill="none" fill-rule="evenodd">
        <path d="M0,11.0742188 C1.111985,11.8580766 2.8619675,12.25 5.25,12.25 C7.6380325,12.25 9.388015,11.8580766 10.5,11.0742188 L10.5,12.25 C10.5,12.7239613 9.98503078,13.1341128 8.95507812,13.4804688 C7.92512547,13.8268247 6.69011109,14 5.25,14 C3.80988891,14 2.57487453,13.8268247 1.54492188,13.4804688 C0.514968781,13.1341128 0,12.7239613 0,12.25 L0,11.0742188 Z M12.4414062,2.98046875 C11.4205656,3.32682437 10.1901111,3.5 8.75,3.5 C7.30988891,3.5 6.07487453,3.32682437 5.04492188,2.98046875 C4.01496922,2.63411094 3.5,2.22396562 3.5,1.75 C3.5,1.27603437 4.01496922,0.865889062 5.04492188,0.51953125 C6.07487453,0.173173437 7.30988891,0 8.75,0 C10.1901111,0 11.4251266,0.173173437 12.4550781,0.51953125 C13.4850297,0.865889062 14,1.27603437 14,1.75 C14,2.22396562 13.4804688,2.63411094 12.4414062,2.98046875 Z M0,8.203125 C0.546877734,8.65885672 1.29426609,9.00976453 2.2421875,9.25585938 C3.19010891,9.50195422 4.19270359,9.625 5.25,9.625 C5.94271234,9.625 6.61718422,9.57487016 7.2734375,9.47460938 C7.92969078,9.37434859 8.54036203,9.21484484 9.10546875,8.99609375 C9.67057547,8.77734266 10.1354148,8.51302266 10.5,8.203125 L10.5,9.625 C10.5,10.0989602 9.98503078,10.5091131 8.95507812,10.8554688 C7.92512547,11.2018244 6.69011109,11.375 5.25,11.375 C3.80988891,11.375 2.57487453,11.2018244 1.54492188,10.8554688 C0.514968781,10.5091131 0,10.0989602 0,9.625 L0,8.203125 Z M11.375,8.50390625 L11.375,6.78125 C12.5234484,6.58072844 13.3984375,6.26172094 14,5.82421875 L14,7 C14,7.16406359 13.9362016,7.31900969 13.8085938,7.46484375 C13.6809859,7.61067781 13.5032516,7.75195203 13.2753906,7.88867188 C13.0475297,8.02539172 12.7740922,8.14387984 12.4550781,8.24414062 C12.1360641,8.34440141 11.7760453,8.43098922 11.375,8.50390625 Z M1.53125,5.03125 C2.55208844,4.59374781 3.79165938,4.375 5.25,4.375 C6.70834062,4.375 7.94791156,4.58919016 8.96875,5.01757812 C9.98958844,5.44596609 10.5,5.96093422 10.5,6.5625 C10.5,7.16406578 9.98958844,7.67903391 8.96875,8.10742188 C7.94791156,8.53580984 6.70834062,8.75 5.25,8.75 C3.79165938,8.75 2.55208844,8.53580984 1.53125,8.10742188 C0.510411562,7.67903391 0,7.16406578 0,6.5625 C0,5.96093422 0.510411562,5.45052266 1.53125,5.03125 Z M11.2382812,5.90625 C11.0195312,5.28645469 10.4726606,4.76692891 9.59765625,4.34765625 C11.6028719,4.25650969 13.0703125,3.87370156 14,3.19921875 L14,4.375 C14,4.70312609 13.7493563,5.00390516 13.2480469,5.27734375 C12.7467375,5.55078234 12.0768266,5.76041594 11.2382812,5.90625 Z" id="Fill-1" fill="#029688"></path>
    </g>
</svg>