<?xml version="1.0" encoding="UTF-8"?>
<svg width="14px" height="14px" viewBox="0 0 14 14" version="1.1" xmlns="http://www.w3.org/2000/svg" xmlns:xlink="http://www.w3.org/1999/xlink">
    <title>Icon/FA/TimesCircle</title>
    <g id="Icon/FA/TimesCircle" stroke="none" stroke-width="1" fill="none" fill-rule="evenodd">
        <path d="M2,2.13777778 C3.35185889,0.785922222 4.98147222,0.11 6.88888889,0.11 C8.79630556,0.11 10.42129,0.781288889 11.7638889,2.12388889 C13.1064889,3.46648778 13.7777778,5.09147222 13.7777778,6.99888889 C13.7777778,8.90630556 13.1064889,10.53129 11.7638889,11.8738889 C10.42129,13.2164882 8.79630556,13.8877778 6.88888889,13.8877778 C4.98147222,13.8877778 3.35648778,13.2164882 2.01388889,11.8738889 C0.671289556,10.53129 0,8.90630556 0,6.99888889 C0,5.09147222 0.66666,3.47111778 2,2.13777778 Z M10.2777778,8.80444444 L8.44444444,6.99888833 L10.2777778,5.19333333 C10.4259267,5.02666556 10.4259267,4.86926 10.2777778,4.72111111 L9.16666667,3.61 C9.01851778,3.46185111 8.86111222,3.46185111 8.69444444,3.61 L6.88888833,5.44333333 L5.08333333,3.61 C4.91666556,3.46185111 4.75926,3.46185111 4.61111111,3.61 L3.5,4.72111111 C3.35185111,4.86926 3.35185111,5.02666556 3.5,5.19333333 L5.33333333,6.99888833 L3.5,8.80444444 C3.35185111,8.97111222 3.35185111,9.12851778 3.5,9.27666667 L4.61111111,10.3877778 C4.75926,10.5359267 4.91666556,10.5359267 5.08333333,10.3877778 L6.88888833,8.55444444 L8.69444444,10.3877778 C8.86111222,10.5359267 9.01851778,10.5359267 9.16666667,10.3877778 L10.2777778,9.27666667 C10.4259267,9.12851778 10.4259267,8.97111222 10.2777778,8.80444444 Z" id="Fill-1" fill="#FF0000"></path>
    </g>
</svg>