<?xml version="1.0" encoding="UTF-8"?>
<svg width="20px" height="20px" viewBox="0 0 20 20" version="1.1" xmlns="http://www.w3.org/2000/svg" xmlns:xlink="http://www.w3.org/1999/xlink">
    <title>Icon/Cryptocurrency/BTC</title>
    <g id="Icon/Cryptocurrency/BTC" stroke="none" stroke-width="1" fill="none" fill-rule="evenodd">
        <path d="M15.9594595,11.4348894 C15.8611794,10.7272727 15.507371,10.1769042 14.8980344,9.82309582 C14.6228501,9.66584767 14.2886978,9.54791155 13.9742015,9.41031941 C14.0135135,9.39066339 14.0331695,9.35135135 14.0528256,9.35135135 C15.6056511,8.54545455 15.468059,6.14742015 14.3476658,5.32186732 C13.8955774,4.98771499 13.3845209,4.77149877 12.8341523,4.65356265 C12.4410319,4.57493857 12.0675676,4.51597052 11.6547912,4.43734644 C11.6547912,3.74938575 11.6744472,2.76658477 11.6744472,2 L10.2002457,2 C10.2002457,2.74692875 10.1805897,3.71007371 10.1805897,4.37837838 C9.76781327,4.37837838 9.39434889,4.37837838 9.02088452,4.37837838 C9.02088452,3.69041769 9.02088452,2.74692875 9.04054054,2 L7.58599509,2 C7.58599509,2.78624079 7.56633907,3.72972973 7.56633907,4.41769042 C6.56388206,4.41769042 5.6007371,4.3980344 4.61793612,4.3980344 C4.61793612,4.92874693 4.61793612,5.43980344 4.5982801,5.95085995 C4.81449631,5.95085995 4.99140049,5.95085995 5.18796069,5.95085995 C5.36486486,5.95085995 5.56142506,5.95085995 5.73832924,5.97051597 C6.24938575,6.00982801 6.504914,6.28501229 6.504914,6.7960688 C6.48525799,8.87960688 6.46560197,10.982801 6.44594595,13.0663391 C6.44594595,13.5184275 6.24938575,13.7149877 5.7972973,13.7149877 C5.48280098,13.7149877 5.14864865,13.7149877 4.81449631,13.7149877 C4.71621622,14.3046683 4.61793612,14.8746929 4.5,15.4643735 C5.48280098,15.4840295 6.46560197,15.4840295 7.44840295,15.5036855 C7.44840295,16.2506143 7.44840295,17.2137592 7.42874693,18 L8.88329238,18 C8.88329238,17.2137592 8.9029484,16.2899263 8.9029484,15.5429975 C9.31572482,15.5626536 9.68918919,15.5626536 10.0626536,15.5823096 C10.0626536,16.3292383 10.0429975,17.2334152 10.0429975,18 L11.497543,18 C11.497543,17.2137592 11.517199,16.2899263 11.517199,15.5626536 C11.5761671,15.5626536 11.6154791,15.5429975 11.6351351,15.5429975 C12.3230958,15.4250614 13.0503686,15.3660934 13.7186732,15.2088452 C14.6031941,14.992629 15.3108108,14.4815725 15.6646192,13.5970516 C15.9987715,12.8894349 16.0577396,12.1818182 15.9594595,11.4348894 Z M9.02088452,6.10810811 C9.92506143,6.10810811 10.8095823,6.02948403 11.6547912,6.4029484 C12.2051597,6.63882064 12.480344,7.09090909 12.4410319,7.64127764 C12.4017199,8.21130221 12.0675676,8.62407862 11.497543,8.82063882 C10.6916462,9.07616708 9.86609337,9.07616708 9.0012285,9.03685504 C9.0012285,8.05405405 9.02088452,7.11056511 9.02088452,6.10810811 Z M12.2051597,13.4004914 C11.3992629,13.7542998 10.534398,13.7542998 9.68918919,13.7739558 C9.45331695,13.7739558 9.21744472,13.7542998 8.94226044,13.7542998 C8.96191646,12.6732187 8.96191646,11.6117936 8.98157248,10.5307125 C10.0823096,10.5307125 11.1830467,10.4520885 12.2248157,10.9041769 C12.7555283,11.1400491 13.0700246,11.5528256 13.0700246,12.1621622 C13.0700246,12.7714988 12.7555283,13.1646192 12.2051597,13.4004914 Z" id="Shape" fill="#FFFFFF" fill-rule="nonzero"></path>
    </g>
</svg>