<?xml version="1.0" encoding="UTF-8"?>
<svg width="20px" height="20px" viewBox="0 0 20 20" version="1.1" xmlns="http://www.w3.org/2000/svg" xmlns:xlink="http://www.w3.org/1999/xlink">
    <title>Icon/Cryptocurrency/TXS</title>
    <g id="Icon/Cryptocurrency/TXS" stroke="none" stroke-width="1" fill="none" fill-rule="evenodd">
        <g id="TXS" transform="translate(3.000000, 3.000000)" fill="#FFFFFF" fill-rule="nonzero">
            <path d="M3.35157235,0.123490194 L3.36604743,0.142790305 L6.93415538,5.08361863 C7.01618085,5.19700678 7.02100588,5.34899515 6.94621795,5.46720833 L6.93174287,5.48892095 L0.755707467,13.8603439 C0.642319317,14.0123323 0.427605587,14.0461075 0.275617215,13.9327194 C0.130866386,13.8241562 0.0946786781,13.6239176 0.188766717,13.4743417 L0.2032418,13.4550416 L6.22970134,5.28385727 L2.81116925,0.545680114 C2.70501864,0.398516771 2.73155629,0.195865609 2.86906958,0.0800649454 L2.88836969,0.0655898624 C3.03553304,-0.040560746 3.2381842,-0.0140230939 3.35157235,0.123490194 Z M10.4829632,9.31275537 L10.4974383,9.33205548 L13.5179056,13.3127033 C13.6312938,13.4646917 13.6023436,13.6794054 13.4527677,13.7927935 C13.3080169,13.9013567 13.1053658,13.879644 12.9871526,13.7469558 L12.9726775,13.7276557 L9.95221018,9.74700786 C9.83882203,9.59501949 9.8677722,9.38030576 10.0173481,9.26691761 C10.1620989,9.15594197 10.36475,9.17765459 10.4829632,9.31275537 Z M5.63381043,10.2295106 C5.77614875,10.3404863 5.80509891,10.5431374 5.70618584,10.6903008 L5.69171076,10.7096009 L4.1814771,12.6299619 C4.06326393,12.7795377 3.8485502,12.8036629 3.69897434,12.6878622 C3.55663602,12.5768866 3.52768586,12.3742354 3.62659892,12.2270721 L3.64107401,12.207772 L5.15130766,10.287411 C5.26952084,10.1378351 5.48423457,10.11371 5.63381043,10.2295106 Z M12.890652,0.0631773486 C13.0402279,0.166915443 13.0812406,0.367154091 12.9895651,0.521554976 L12.9775025,0.540855087 L7.48420854,8.44425039 L9.95944772,12.0919713 C10.0607733,12.2415472 10.0269981,12.4441983 9.88707231,12.555174 L9.8677722,12.569649 C9.71819634,12.6709746 9.51554518,12.6371994 9.40456954,12.4972736 L9.39009446,12.4779735 L6.78457953,8.63483898 C6.7097916,8.52386335 6.70496657,8.38152503 6.77251696,8.26813688 L6.78699204,8.24642426 L12.4129743,0.150027846 C12.5215374,-0.00678555243 12.7362511,-0.0453857737 12.890652,0.0631773486 Z M0.603719096,0.12107768 L0.618194179,0.140377791 L3.77376227,4.39605219 C3.88715042,4.54804056 3.85578774,4.76275429 3.70379937,4.87614244 C3.55904854,4.98470556 3.35639737,4.96058042 3.2381842,4.82306713 L3.22370911,4.80376702 L0.068141026,0.548092628 C-0.045247124,0.396104257 -0.0138844442,0.181390526 0.138103927,0.0680023763 C0.285267271,-0.040560746 0.487918432,-0.0164356077 0.603719096,0.12107768 Z M10.5625762,0.0655898624 C10.7097395,0.171740471 10.7483397,0.371979119 10.6542517,0.52396749 L10.6421891,0.543267601 L8.58431484,3.42622163 C8.47333921,3.58062251 8.26103799,3.61681022 8.1066371,3.50583458 C7.95947376,3.39968397 7.92087354,3.19944533 8.01496158,3.04745695 L8.02702415,3.02815684 L10.0848984,0.145202819 C10.1934616,-0.00919806626 10.4081753,-0.0453857737 10.5625762,0.0655898624 Z" id="Combined-Shape_1_"></path>
        </g>
    </g>
</svg>