<?xml version="1.0" encoding="UTF-8"?>
<svg width="282px" height="175px" viewBox="0 0 282 175" version="1.1" xmlns="http://www.w3.org/2000/svg" xmlns:xlink="http://www.w3.org/1999/xlink">
    <title>Img/CreditCard/BSide</title>
    <defs>
        <linearGradient x1="51.7918117%" y1="1.9402895%" x2="51.7918117%" y2="98.3028503%" id="linearGradient-1">
            <stop stop-color="#5D92AB" offset="0%"></stop>
            <stop stop-color="#5791A9" offset="50%"></stop>
            <stop stop-color="#3D6F81" stop-opacity="0.63545" offset="100%"></stop>
        </linearGradient>
        <linearGradient x1="-16.7360375%" y1="6.95263746%" x2="108.118435%" y2="83.6555945%" id="linearGradient-2">
            <stop stop-color="#66A1BC" stop-opacity="0" offset="0%"></stop>
            <stop stop-color="#7BCCEE" stop-opacity="0.74247" offset="40.493%"></stop>
            <stop stop-color="#84DBFF" offset="54.576%"></stop>
            <stop stop-color="#7BCCEE" stop-opacity="0.70569" offset="81.319%"></stop>
            <stop stop-color="#488297" stop-opacity="0" offset="100%"></stop>
        </linearGradient>
        <rect id="path-3" x="0" y="0" width="282" height="175" rx="10"></rect>
        <linearGradient x1="81.3032093%" y1="58.8968795%" x2="43.1798882%" y2="34.062143%" id="linearGradient-4">
            <stop stop-color="#FFFFFF" stop-opacity="0.11616" offset="0%"></stop>
            <stop stop-color="#FFFFFF" stop-opacity="0.59596" offset="100%"></stop>
        </linearGradient>
    </defs>
    <g id="Img/CreditCard/BSide" stroke="none" stroke-width="1" fill="none" fill-rule="evenodd">
        <g id="credit-card-1369111" fill-rule="nonzero">
            <rect id="Rectangle" fill="url(#linearGradient-1)" x="0" y="0" width="282" height="175" rx="10"></rect>
            <g id="Rectangle" opacity="0.85771">
                <use fill="#518197" xlink:href="#path-3"></use>
                <use fill="url(#linearGradient-2)" xlink:href="#path-3"></use>
            </g>
            <g id="Group" transform="translate(0.000000, 26.000000)">
                <rect id="Rectangle" fill="#424242" x="0" y="6.10803078e-14" width="282" height="30"></rect>
                <path d="M11.5611774,-3.85770365e-14 L32.4151684,29.9992481 L41.9231857,29.9992481 L21.0675329,-3.85770365e-14 L11.5611774,-3.85770365e-14 Z M43.8134889,-3.85770365e-14 L64.6691417,29.9992481 L69.4224856,29.9992481 L48.5668328,-3.85770365e-14 L43.8134889,-3.85770365e-14 Z M71.4069301,-3.85770365e-14 L92.2625829,29.9992481 L106.522532,29.9992481 L85.6668788,-3.85770365e-14 L71.4069301,-3.85770365e-14 Z" id="Shape" fill="url(#linearGradient-4)"></path>
            </g>
            <g id="Chip" transform="translate(17.000000, 61.000000)" fill="#FFFFFF">
                <rect id="Rectangle" x="0" y="0" width="183" height="30"></rect>
            </g>
        </g>
        <path d="M171.046875,83 L171.046875,81.6796875 L168.625,81.6796875 L168.625,71.375 L167.046875,71.375 L164.125,72.765625 L164.125,74.28125 L167.0625,72.8671875 L167.0625,81.6796875 L164.609375,81.6796875 L164.609375,83 L171.046875,83 Z M180.40625,83 L180.40625,81.671875 L175.046875,81.671875 C176.182292,80.4791667 177.027344,79.5833333 177.582031,78.984375 C178.136719,78.3854167 178.559896,77.9166667 178.851562,77.578125 C179.372396,76.9739583 179.748698,76.421875 179.980469,75.921875 C180.21224,75.421875 180.328125,74.921875 180.328125,74.421875 C180.328125,73.4375 179.980469,72.6419271 179.285156,72.0351562 C178.589844,71.4283854 177.671875,71.125 176.53125,71.125 C176.026042,71.125 175.514323,71.1901042 174.996094,71.3203125 C174.477865,71.4505208 173.950521,71.6432292 173.414062,71.8984375 L173.414062,71.8984375 L173.414062,73.4921875 C173.997396,73.1432292 174.549479,72.8828125 175.070312,72.7109375 C175.591146,72.5390625 176.088542,72.453125 176.5625,72.453125 C177.229167,72.453125 177.753906,72.6380208 178.136719,73.0078125 C178.519531,73.3776042 178.710938,73.8880208 178.710938,74.5390625 C178.710938,74.9505208 178.619792,75.3528646 178.4375,75.7460938 C178.255208,76.1393229 177.903646,76.6536458 177.382812,77.2890625 C177.106771,77.6119792 176.604167,78.1666667 175.875,78.953125 C175.145833,79.7395833 174.294271,80.6458333 173.320312,81.671875 L173.320312,81.671875 L173.320312,83 L180.40625,83 Z M186.117188,83.2265625 C187.393229,83.2265625 188.391927,82.9205729 189.113281,82.3085938 C189.834635,81.6966146 190.195312,80.8541667 190.195312,79.78125 C190.195312,79.0052083 189.992188,78.3580729 189.585938,77.8398438 C189.179688,77.3216146 188.59375,76.9609375 187.828125,76.7578125 C188.510417,76.5807292 189.029948,76.2786458 189.386719,75.8515625 C189.74349,75.4244792 189.921875,74.890625 189.921875,74.25 C189.921875,73.3072917 189.582031,72.5507812 188.902344,71.9804688 C188.222656,71.4101562 187.315104,71.125 186.179688,71.125 C185.799479,71.125 185.363281,71.1666667 184.871094,71.25 C184.378906,71.3333333 183.817708,71.4583333 183.1875,71.625 L183.1875,71.625 L183.1875,73.078125 C183.729167,72.8697917 184.247396,72.7135417 184.742188,72.609375 C185.236979,72.5052083 185.716146,72.453125 186.179688,72.453125 C186.877604,72.453125 187.415365,72.6132812 187.792969,72.9335938 C188.170573,73.2539062 188.359375,73.7135417 188.359375,74.3125 C188.359375,74.8802083 188.15625,75.3229167 187.75,75.640625 C187.34375,75.9583333 186.778646,76.1171875 186.054688,76.1171875 L186.054688,76.1171875 L184.851562,76.1171875 L184.851562,77.4140625 L186.054688,77.4140625 C186.846354,77.4140625 187.473958,77.6132812 187.9375,78.0117188 C188.401042,78.4101562 188.632812,78.9479167 188.632812,79.625 C188.632812,80.359375 188.401042,80.921875 187.9375,81.3125 C187.473958,81.703125 186.809896,81.8984375 185.945312,81.8984375 C185.434896,81.8984375 184.921875,81.8307292 184.40625,81.6953125 C183.890625,81.5598958 183.367188,81.3541667 182.835938,81.078125 L182.835938,81.078125 L182.835938,82.6484375 C183.372396,82.8359375 183.919271,82.9791667 184.476562,83.078125 C185.033854,83.1770833 185.580729,83.2265625 186.117188,83.2265625 Z" id="123" fill="#548BA2" fill-rule="nonzero"></path>
    </g>
</svg>