<?xml version="1.0" encoding="UTF-8"?>
<svg width="14px" height="14px" viewBox="0 0 14 14" version="1.1" xmlns="http://www.w3.org/2000/svg" xmlns:xlink="http://www.w3.org/1999/xlink">
    <title>Icon/FA/Bullseye</title>
    <g id="Icon/FA/Bullseye" stroke="none" stroke-width="1" fill="none" fill-rule="evenodd">
        <path d="M3.4516129,3.47177419 C4.43280081,2.49058871 5.61558468,2 7,2 C8.38441532,2 9.56383952,2.48722581 10.5383065,3.46169355 C11.5127742,4.43616048 12,5.61558468 12,7 C12,8.38441532 11.5127742,9.56383952 10.5383065,10.5383065 C9.56383952,11.5127737 8.38441532,12 7,12 C5.61558468,12 4.43616048,11.5127737 3.46169355,10.5383065 C2.48722629,9.56383952 2,8.38441532 2,7 C2,5.61558468 2.48386613,4.43952097 3.4516129,3.47177419 Z M4.37903226,9.62096774 C5.10484274,10.3467782 5.97848952,10.7096774 7,10.7096774 C8.02151048,10.7096774 8.89515726,10.3467782 9.62096774,9.62096774 C10.3467742,8.89515726 10.7096774,8.02151048 10.7096774,7 C10.7096774,5.97848952 10.3467742,5.10484274 9.62096774,4.37903226 C8.89515726,3.65322581 8.02151048,3.29032258 7,3.29032258 C5.97848952,3.29032258 5.10484274,3.65322581 4.37903226,4.37903226 C3.65322177,5.10484274 3.29032258,5.97848952 3.29032258,7 C3.29032258,8.02151048 3.65322177,8.89515726 4.37903226,9.62096774 Z M5.16532258,5.18548387 C5.67607823,4.67472823 6.28763065,4.41935484 7,4.41935484 C7.71236935,4.41935484 8.3205621,4.67136855 8.82459677,5.17540323 C9.32863145,5.6794379 9.58064516,6.28763065 9.58064516,7 C9.58064516,7.71236935 9.32863145,8.3205621 8.82459677,8.82459677 C8.3205621,9.32863145 7.71236935,9.58064516 7,9.58064516 C6.28763065,9.58064516 5.6794379,9.32863145 5.17540323,8.82459677 C4.67136855,8.3205621 4.41935484,7.71236935 4.41935484,7 C4.41935484,6.28763065 4.66800806,5.68279839 5.16532258,5.18548387 Z M6.09274194,7.90725806 C6.34811935,8.16263548 6.65053629,8.29032258 7,8.29032258 C7.34946371,8.29032258 7.65188065,8.16263548 7.90725806,7.90725806 C8.16263548,7.65188065 8.29032258,7.34946371 8.29032258,7 C8.29032258,6.65053629 8.16263548,6.34811935 7.90725806,6.09274194 C7.65188065,5.83736452 7.34946371,5.70967742 7,5.70967742 C6.65053629,5.70967742 6.34811935,5.83736452 6.09274194,6.09274194 C5.83736452,6.34811935 5.70967742,6.65053629 5.70967742,7 C5.70967742,7.34946371 5.83736452,7.65188065 6.09274194,7.90725806 Z" id="Bullseye" fill="#999999"></path>
    </g>
</svg>