<?xml version="1.0" encoding="UTF-8"?>
<svg width="20px" height="20px" viewBox="0 0 20 20" version="1.1" xmlns="http://www.w3.org/2000/svg" xmlns:xlink="http://www.w3.org/1999/xlink">
    <title>Icon/Cryptocurrency/EOS</title>
    <g id="Icon/Cryptocurrency/EOS" stroke="none" stroke-width="1" fill="none" fill-rule="evenodd">
        <path d="M10.3697084,18 C10.3697084,18 10.3697084,18 10.3697084,18 C10.3095014,18 10.2492944,17.9849483 10.2041392,17.9548448 L5.13170273,14.7789276 C5.08654751,14.7488241 5.04139229,14.7036689 5.02634055,14.6585136 C5.01128881,14.6434619 5.01128881,14.6133584 5.01128881,14.5983067 C4.99623706,14.5531515 4.99623706,14.523048 5.01128881,14.4778928 C5.01128881,14.4778928 5.01128881,14.462841 5.01128881,14.462841 L6.66698024,6.90686736 C6.66698024,6.87676388 6.68203198,6.86171214 6.69708373,6.83160865 C6.69708373,6.83160865 6.69708373,6.83160865 6.69708373,6.83160865 C6.69708373,6.83160865 6.69708373,6.83160865 6.69708373,6.83160865 C6.69708373,6.83160865 6.69708373,6.83160865 6.69708373,6.83160865 C6.69708373,6.83160865 6.69708373,6.83160865 6.69708373,6.83160865 L6.69708373,6.83160865 C6.69708373,6.83160865 6.69708373,6.83160865 6.69708373,6.83160865 L6.69708373,6.83160865 C6.69708373,6.83160865 6.69708373,6.83160865 6.69708373,6.83160865 C6.69708373,6.83160865 6.69708373,6.83160865 6.69708373,6.83160865 C6.69708373,6.83160865 6.69708373,6.83160865 6.69708373,6.83160865 C6.69708373,6.83160865 6.69708373,6.83160865 6.69708373,6.83160865 C6.69708373,6.83160865 6.69708373,6.83160865 6.69708373,6.83160865 C6.69708373,6.83160865 6.69708373,6.83160865 6.69708373,6.83160865 C6.69708373,6.81655691 6.71213547,6.80150517 6.72718721,6.78645343 L10.1439323,2.12041392 C10.2041392,2.04515522 10.2944497,2 10.3847601,2 C10.3847601,2 10.3847601,2 10.3847601,2 C10.4750706,2 10.565381,2.04515522 10.625588,2.12041392 L14.042333,6.78645343 C14.0724365,6.81655691 14.0874882,6.86171214 14.10254,6.90686736 L15.7582314,14.462841 C15.7582314,14.462841 15.7582314,14.4778928 15.7582314,14.4778928 C15.7582314,14.4778928 15.7582314,14.4778928 15.7582314,14.4778928 C15.7582314,14.4778928 15.7582314,14.4778928 15.7582314,14.4778928 C15.7582314,14.523048 15.7582314,14.5682032 15.7582314,14.5983067 L15.7582314,14.5983067 C15.7582314,14.5983067 15.7582314,14.5983067 15.7582314,14.5983067 L15.7582314,14.5983067 C15.7582314,14.6133584 15.7431797,14.6284102 15.7431797,14.6585136 C15.7431797,14.6585136 15.7431797,14.6585136 15.7431797,14.6585136 L15.7431797,14.6585136 C15.7130762,14.7036689 15.6829727,14.7488241 15.6378175,14.7789276 L10.565381,17.9548448 C10.4901223,17.9849483 10.4299153,18 10.3697084,18 Z M6.33584196,14.8240828 L9.82784572,17.0216369 L9.13546566,14.8240828 L6.33584196,14.8240828 Z M11.6039511,14.8240828 L10.911571,17.0216369 L14.4035748,14.8240828 L11.6039511,14.8240828 Z M9.76763876,14.8240828 L10.3697084,16.7206021 L10.971778,14.8240828 L9.76763876,14.8240828 Z M11.7996237,14.2220132 L14.9303857,14.2220132 L12.9285042,10.6698024 L11.7996237,14.2220132 Z M9.57196613,14.2220132 L11.1674506,14.2220132 L12.5221072,9.96237065 L10.3697084,6.16933208 L8.2173095,9.96237065 L9.57196613,14.2220132 Z M5.80903104,14.2220132 L8.93979304,14.2220132 L7.81091251,10.6698024 L5.80903104,14.2220132 Z M13.1693321,9.90216369 L14.7347131,12.6415804 L13.7412982,8.11100659 L13.1693321,9.90216369 Z M6.99811853,8.11100659 L6.00470367,12.6415804 L7.55503293,9.90216369 L6.99811853,8.11100659 Z M10.6707432,5.47695202 L12.7779868,9.17968015 L13.4703669,7.01222954 L10.6707432,3.20413923 L10.6707432,5.47695202 Z M7.2841016,7.01222954 L7.96142992,9.17968015 L10.0686736,5.47695202 L10.0686736,3.20413923 L7.2841016,7.01222954 Z" id="Shape" fill="#FFFFFF" fill-rule="nonzero"></path>
    </g>
</svg>