<?xml version="1.0" encoding="UTF-8"?>
<svg width="24px" height="24px" viewBox="0 0 24 24" version="1.1" xmlns="http://www.w3.org/2000/svg" xmlns:xlink="http://www.w3.org/1999/xlink">
    <title>Icon/Footer/IG</title>
    <g id="Icon/Footer/IG" stroke="none" stroke-width="1" fill="none" fill-rule="evenodd">
        <path d="M12.2566071,1.99980139 L13.2457831,2.00139051 C13.9033768,2.00337716 14.3713231,2.00715253 14.6496327,2.01271923 C15.0825586,2.02137853 15.5587614,2.04302188 16.0782705,2.0776591 C16.493868,2.0776591 16.9051408,2.11662106 17.3120888,2.19454497 C17.7190368,2.27246888 18.1216404,2.38069544 18.5199291,2.5192345 C19.1779675,2.77898415 19.7624066,3.16427898 20.2732565,3.67512883 C20.7840965,4.18597867 21.1693913,4.77906731 21.4291508,5.45442429 C21.5849986,5.83539439 21.7018845,6.2336831 21.7798084,6.64928057 C21.8577422,7.0648879 21.8967041,7.48048537 21.8967041,7.8960927 C21.924406,8.32554703 21.9410303,8.7189818 21.946572,9.07640205 L21.9486501,9.3377146 L21.9480543,12.8306422 C21.9465976,13.7359304 21.9424698,14.3552427 21.9356661,14.6885919 C21.9270068,15.1128546 21.9140129,15.59339 21.8967041,16.1302128 C21.8967041,16.5458172 21.8577422,16.957086 21.7798084,17.3640321 C21.7018845,17.7709781 21.5849986,18.1649303 21.4291508,18.5459014 C21.1693913,19.2212583 20.7884311,19.8143519 20.2862405,20.3251988 C19.78405,20.8360467 19.1952861,21.2213406 18.5199291,21.4810933 C18.1216404,21.6196282 17.7190368,21.7278569 17.3120888,21.8057827 C16.9051408,21.8837086 16.5025273,21.9226709 16.1042386,21.9226709 C15.5674207,21.9573046 15.0825586,21.9789504 14.6496327,21.9876088 C14.3434922,21.9937315 13.8078911,21.9976894 13.0428156,21.9994825 L11.1696891,22 C10.2644009,21.9985422 9.64508865,21.9944118 9.31173939,21.9876088 C8.8874767,21.9789504 8.40694132,21.9573046 7.87011847,21.9226709 C7.4545141,21.9226709 7.0432453,21.8793795 6.63629925,21.7927952 C6.2293532,21.7062109 5.83540104,21.5849948 5.45442996,21.4291431 C4.77907298,21.1693903 4.18597942,20.7884254 3.67513252,20.2862368 C3.16428464,19.7840473 2.77899071,19.1952834 2.519238,18.5199264 C2.38070308,18.1216387 2.27247445,17.7233568 2.19454857,17.3250691 C2.11662269,16.9267814 2.06900211,16.5198422 2.05168525,16.1042369 C2.03436839,15.567415 2.02138095,15.08255 2.01272252,14.649629 C2.00715639,14.3713226 2.0033794,13.9033753 2.00139152,13.2457817 L1.99980121,12.2566066 L1.99980121,11.6918445 L1.99980121,11.6918445 L2.00139152,10.7042575 C2.0033794,10.0486505 2.00715639,9.58447951 2.01272252,9.31173668 C2.02138095,8.88747005 2.03436839,8.4069327 2.05168525,7.87011478 C2.06900211,7.45450745 2.11662269,7.04324456 2.19454857,6.63629654 C2.27247445,6.22934852 2.38070308,5.83539439 2.519238,5.45442429 C2.77899071,4.77906731 3.16428464,4.18597867 3.67513252,3.67512883 C4.18597942,3.16427898 4.77907298,2.77898415 5.45442996,2.5192345 C5.83540104,2.38069544 6.2293532,2.27246888 6.63629925,2.19454497 C7.0432453,2.11662106 7.4545141,2.0776591 7.87011847,2.0776591 C8.38962468,2.04302188 8.8658304,2.02137853 9.2987524,2.01271923 C9.57705877,2.00715253 10.0450056,2.00337716 10.7026003,2.00139051 L11.6917778,1.99980139 L12.2566071,1.99980139 L12.2566071,1.99980139 Z M14.5846928,3.76603677 L11.1443091,3.76663378 C10.2404803,3.76809303 9.62529869,3.77222692 9.2987524,3.77903066 C8.88314803,3.78768996 8.41559964,3.800674 7.89609443,3.81799261 C7.56707426,3.81799261 7.25104601,3.84829526 6.9480008,3.90890056 C6.6449556,3.96951571 6.33758666,4.05176434 6.02588313,4.15566618 C5.59296212,4.32883261 5.21199695,4.57992296 4.88297678,4.90894706 C4.55395661,5.23797117 4.30286627,5.61893142 4.12969688,6.05185736 C4.02579603,6.363553 3.94354247,6.67525849 3.88293323,6.98696399 C3.82232399,7.29865963 3.79202036,7.61036512 3.79202036,7.92206077 C3.76431373,8.35152298 3.74768975,8.73941737 3.74214843,9.08575403 L3.74007043,9.3377146 L3.74007043,14.623654 C3.74007043,15.0392584 3.75738707,15.5068058 3.79202036,16.026312 C3.79202036,16.3380155 3.82232399,16.6497141 3.88293323,16.9614176 C3.94354247,17.2731202 4.02579603,17.5761614 4.12969688,17.8705473 C4.30286627,18.320786 4.55395661,18.7104095 4.88297678,19.0394296 C5.21199695,19.3684498 5.59296212,19.6108818 6.02588313,19.7667336 C6.33758666,19.8879511 6.6449556,19.9788639 6.9480008,20.0394722 C7.25104601,20.1000814 7.56707426,20.1303851 7.89609443,20.1303851 C8.43291628,20.1477027 8.90479334,20.1606897 9.31173939,20.169348 C9.66055029,20.1767694 10.356042,20.1810106 11.3982295,20.1820709 L12.4982004,20.1820709 C13.540389,20.1810106 14.2358802,20.1767694 14.5846928,20.169348 C14.9916408,20.1606897 15.4635189,20.1477027 16.0003368,20.1303851 C16.3120423,20.1130684 16.6237379,20.0784351 16.9354434,20.0264852 C17.2471489,19.9745343 17.5501852,19.8879511 17.8445721,19.7667336 C18.2774981,19.6108818 18.6584583,19.3684498 18.9874824,19.0394296 C19.3165065,18.7104095 19.5675969,18.320786 19.7407633,17.8705473 C19.8446651,17.5761614 19.9269138,17.2731202 19.9875289,16.9614176 C20.0329829,16.72764 20.0613916,16.4889948 20.0727551,16.2454779 L20.0784369,16.000337 L20.1044148,16.000337 C20.1182697,15.5847321 20.1265826,15.2051511 20.1293536,14.8615865 L20.1303927,14.610666 L20.1297957,11.1702857 C20.1283365,10.2664545 20.1242026,9.65126933 20.1173988,9.32472071 C20.1087395,8.90912324 20.0957555,8.44156992 20.0784369,7.92206077 C20.0784369,7.59304651 20.0481342,7.27701629 19.9875289,6.9739701 C19.9269138,6.67092391 19.8446651,6.363553 19.7407633,6.05185736 C19.5675969,5.61893142 19.3165065,5.23797117 18.9874824,4.90894706 C18.6584583,4.57992296 18.2774981,4.32883261 17.8445721,4.15566618 C17.5501852,4.05176434 17.2471489,3.96951571 16.9354434,3.90890056 C16.6237379,3.84829526 16.3120423,3.81799261 16.0003368,3.81799261 C15.4635189,3.78335538 14.9916408,3.76603677 14.5846928,3.76603677 Z M11.9741925,6.85708424 C12.6841867,6.85708424 13.3508746,6.98695414 13.9742757,7.24671364 C14.5976867,7.52378191 15.1388293,7.89175812 15.5977233,8.35065213 C16.0566272,8.80955599 16.4246034,9.35069863 16.7016717,9.97409977 C16.9614213,10.5975108 17.0913011,11.2641986 17.0913011,11.9741928 C17.0913011,12.6841791 16.9614213,13.3508679 16.7016717,13.974275 C16.4246034,14.597682 16.0566272,15.1388256 15.5977233,15.5977216 C15.1388293,16.0566186 14.5976867,16.4245958 13.9742757,16.701666 C13.3508746,16.9614186 12.6841867,17.0912934 11.9741925,17.0912934 C11.2642013,17.0912934 10.5975125,16.9614186 9.97410642,16.701666 C9.35069938,16.4245958 8.80955574,16.0566186 8.35065878,15.5977216 C7.8917628,15.1388256 7.52378462,14.597682 7.24671537,13.974275 C6.98696276,13.3508679 6.85708793,12.6841791 6.85708793,11.9741928 C6.85708793,11.2641986 6.98696276,10.5975108 7.24671537,9.97409977 C7.52378462,9.35069863 7.8917628,8.80955599 8.35065878,8.35065213 C8.80955574,7.89175812 9.35069938,7.52378191 9.97410642,7.24671364 C10.5975125,6.98695414 11.2642013,6.85708424 11.9741925,6.85708424 Z M11.9741925,8.64937359 C11.0563996,8.64937359 10.2728239,8.97405326 9.62344193,9.62344217 C8.97405992,10.2728212 8.64937334,11.0563949 8.64937334,11.9741928 C8.64937334,12.8919818 8.97405992,13.6755574 9.62344193,14.3249395 C10.2728239,14.9743215 11.0563996,15.299008 11.9741925,15.299008 C12.8919904,15.299008 13.6755641,14.9743215 14.3249432,14.3249395 C14.9743222,13.6755574 15.2990117,12.8919818 15.2990117,11.9741928 C15.2990117,11.0563949 14.9743222,10.2728212 14.3249432,9.62344217 C13.6755641,8.97405326 12.8919904,8.64937359 11.9741925,8.64937359 Z M17.2990949,5.48040221 C17.628119,5.48040221 17.909512,5.59296335 18.1432936,5.81807577 C18.3770653,6.04319805 18.4939512,6.32026632 18.4939512,6.64928057 C18.4939512,6.99562329 18.3770653,7.28134102 18.1432936,7.50646329 C17.909512,7.73158557 17.628119,7.84413686 17.2990949,7.84413686 C16.9700806,7.84413686 16.6886876,7.73158557 16.4549061,7.50646329 C16.2211245,7.28134102 16.1042386,6.99562329 16.1042386,6.64928057 C16.1042386,6.32026632 16.2211245,6.04319805 16.4549061,5.81807577 C16.6886876,5.59296335 16.9700806,5.48040221 17.2990949,5.48040221 Z" id="Combined-Shape" fill="#3D8DBC"></path>
    </g>
</svg>