<?xml version="1.0" encoding="UTF-8"?>
<svg width="20px" height="20px" viewBox="0 0 20 20" version="1.1" xmlns="http://www.w3.org/2000/svg" xmlns:xlink="http://www.w3.org/1999/xlink">
    <title>Icon/Cryptocurrency/LTC</title>
    <g id="Icon/Cryptocurrency/LTC" stroke="none" stroke-width="1" fill="none" fill-rule="evenodd">
        <path d="M9.74509563,16.9959602 C11.209509,16.9959602 12.6719026,16.9959602 14.136316,16.9959602 C14.1746937,16.9959602 14.2130714,16.9959602 14.253469,16.9959602 C14.2857871,16.9959602 14.3181052,16.9919205 14.3484034,16.9818211 C14.4837354,16.9373837 14.5766499,16.8505288 14.6190674,16.713177 C14.6534054,16.6020835 14.6837036,16.4889702 14.7160217,16.3778768 C14.8533735,15.9072446 14.9907254,15.4345926 15.1280773,14.9639604 C15.1381767,14.9296224 15.1442363,14.8952845 15.1462562,14.8589266 C15.1603954,14.6953163 15.0250634,14.5680638 14.9079103,14.5498849 C14.8553934,14.5418054 14.8048964,14.5418054 14.7543994,14.5418054 C13.5727693,14.5418054 12.3891193,14.5418054 11.2074891,14.5418054 C10.4843719,14.5418054 9.75923479,14.5418054 9.03611755,14.5418054 C8.9997597,14.5418054 8.96542173,14.5418054 8.92906388,14.5377656 C8.90886508,14.5357457 8.89472591,14.5175668 8.89876567,14.497368 C8.90886508,14.4509107 8.92098436,14.4024336 8.93512352,14.3559764 C9.10075373,13.7944496 9.26840382,13.2349426 9.43403402,12.6734159 C9.60976363,12.079571 9.78549324,11.4837062 9.96122285,10.8898613 C9.96930237,10.861583 9.97940177,10.8353245 9.98748129,10.8070462 C9.99556082,10.7807878 10.0137397,10.7626088 10.0399982,10.7545293 C10.0561572,10.7484697 10.0702964,10.7444299 10.0864554,10.7403902 C10.5853659,10.5949588 11.0842764,10.4515472 11.5852068,10.3061158 C11.615505,10.2980363 11.6478231,10.2879369 11.6781213,10.2758176 C11.7043798,10.2657182 11.7225587,10.2495592 11.7306382,10.2212809 C11.7366979,10.2031019 11.7427575,10.184923 11.7467973,10.1647242 C11.8437515,9.83952343 11.9407058,9.51432267 12.0356402,9.1891219 C12.0457396,9.15478393 12.0538191,9.12044596 12.0618986,9.08610799 C12.0659384,9.07196882 12.055839,9.05984954 12.0396799,9.0638893 C12.0174613,9.06792906 11.9952426,9.0739887 11.9750438,9.08206823 C11.6175249,9.19114178 11.2579862,9.30021533 10.9004673,9.40928888 C10.7550359,9.45372625 10.6096045,9.49816362 10.4641731,9.54058111 C10.3954972,9.56077992 10.3833779,9.54664075 10.4015568,9.47594493 C10.4035767,9.46988529 10.4055966,9.46382565 10.4076164,9.45776601 C10.4904316,9.17902249 10.5712268,8.90027898 10.6540419,8.62153546 C10.7610955,8.25593708 10.8701691,7.8903387 10.9772228,7.52474032 C11.0761969,7.18742027 11.1751711,6.84808033 11.2741452,6.51076028 C11.3832188,6.14112214 11.4922923,5.77350388 11.599346,5.40386574 C11.6882207,5.10088365 11.7791153,4.79588169 11.8679901,4.49289961 C11.9750438,4.12932111 12.0800775,3.76776249 12.1871312,3.40418399 C12.1992505,3.36378638 12.2032903,3.32136889 12.2032903,3.27895139 C12.2053101,3.11938083 12.0598787,2.998188 11.9346461,3.00020788 C11.8982883,3.00020788 11.8639503,3.00020788 11.8275925,3.00020788 C11.2398072,3.00020788 10.652022,3.00020788 10.0642368,3.00020788 C9.90870595,3.00020788 9.75317515,3.00424764 9.59966423,3.00020788 C9.44211354,2.99414824 9.2704237,3.12140071 9.2280062,3.27289175 C9.2078074,3.34762733 9.18356883,3.42236291 9.16135015,3.49507861 C9.06035612,3.83239867 8.96138197,4.16971872 8.86038794,4.50703877 C8.7715132,4.80800097 8.68263846,5.10896318 8.59376371,5.4079055 C8.49882932,5.72906651 8.40389494,6.0522474 8.30694067,6.3734084 C8.21604605,6.68245013 8.12313154,6.99351173 8.03223692,7.30255346 C7.93528265,7.62775423 7.84034826,7.952955 7.743394,8.27815577 C7.65249937,8.58517761 7.56160475,8.89219945 7.47071012,9.1992213 C7.37375586,9.52846183 7.27680159,9.85568248 7.17984732,10.184923 C7.14550935,10.3000562 7.11117138,10.4131695 7.07885329,10.5283027 C7.06471413,10.5767798 7.04047556,10.6090979 6.98997855,10.6191973 C6.97987915,10.6212172 6.97179963,10.6232371 6.96170022,10.6272769 C6.78597061,10.6818136 6.61024101,10.7343305 6.4345114,10.7888673 C6.11335039,10.8858216 5.79218938,10.9847957 5.47102837,11.08175 C5.3437759,11.1201277 5.3538753,11.1160879 5.31751745,11.2292013 C5.21652342,11.5523821 5.11754928,11.8775829 5.01857513,12.2027837 C5.01049561,12.2290421 4.98625704,12.2613602 5.01049561,12.2855988 C5.03877393,12.315897 5.07109202,12.2876187 5.09937035,12.2795391 C5.5821218,12.1341077 6.06285338,11.9846366 6.54560483,11.8392052 C6.58196268,11.8291058 6.62640005,11.7967877 6.65467838,11.8230461 C6.68901635,11.8553642 6.65467838,11.9018215 6.6425591,11.9401992 C6.54762471,12.2633801 6.45067044,12.5845411 6.35573606,12.9057021 C6.23050346,13.3278572 6.10729075,13.7479923 5.98407803,14.1701473 C5.85076592,14.6185608 5.7174538,15.0689942 5.58414168,15.5174077 C5.45082957,15.9658212 5.31751745,16.4162545 5.18622522,16.864668 C5.17814569,16.8929463 5.17006617,16.9212247 5.16400653,16.949503 C5.15794689,16.9777813 5.17006617,16.9959602 5.19632462,16.9979801 C5.23470235,17 5.27308008,17 5.31347769,17 C6.78597061,16.9959602 8.26452318,16.9959602 9.74509563,16.9959602 Z" id="Path" fill="#FFFFFF" fill-rule="nonzero"></path>
    </g>
</svg>