<?xml version="1.0" encoding="UTF-8"?>
<svg width="32px" height="32px" viewBox="0 0 32 32" version="1.1" xmlns="http://www.w3.org/2000/svg" xmlns:xlink="http://www.w3.org/1999/xlink">
    <title>Icon/FA/Plus</title>
    <g id="Icon/FA/Plus" stroke="none" stroke-width="1" fill="none" fill-rule="evenodd">
        <path d="M26.2857143,13.4285714 C26.7500071,13.4285714 27.1517929,13.5982129 27.4910714,13.9375 C27.83035,14.2767871 28,14.6785686 28,15.1428571 L28,16.8571429 C28,17.3214314 27.83035,17.7232129 27.4910714,18.0625 C27.1517929,18.4017871 26.7500071,18.5714286 26.2857143,18.5714286 L18.5714286,18.5714286 L18.5714286,26.2857143 C18.5714286,26.7500024 18.4017871,27.1517841 18.0625,27.4910714 C17.7232129,27.8303588 17.3214314,28 16.8571429,28 L15.1428571,28 C14.6785686,28 14.2767871,27.8303588 13.9375,27.4910714 C13.5982129,27.1517841 13.4285714,26.7500024 13.4285714,26.2857143 L13.4285714,18.5714286 L5.71428571,18.5714286 C5.24999757,18.5714286 4.84821593,18.4017871 4.50892857,18.0625 C4.16964117,17.7232129 4,17.3214314 4,16.8571429 L4,15.1428571 C4,14.6785686 4.16964117,14.2767871 4.50892857,13.9375 C4.84821593,13.5982129 5.24999757,13.4285714 5.71428571,13.4285714 L13.4285714,13.4285714 L13.4285714,5.71428571 C13.4285714,5.24999286 13.5982129,4.84820714 13.9375,4.50892857 C14.2767871,4.16965 14.6785686,4 15.1428571,4 L16.8571429,4 C17.3214314,4 17.7232129,4.16965 18.0625,4.50892857 C18.4017871,4.84820714 18.5714286,5.24999286 18.5714286,5.71428571 L18.5714286,13.4285714 L26.2857143,13.4285714 Z" id="Fill-1" fill="#FFFFFF"></path>
    </g>
</svg>