<?xml version="1.0" encoding="UTF-8"?>
<svg width="282px" height="175px" viewBox="0 0 282 175" version="1.1" xmlns="http://www.w3.org/2000/svg" xmlns:xlink="http://www.w3.org/1999/xlink">
    <title>Img/SideA</title>
    <defs>
        <polygon id="path-1" points="0.160375119 0.154840795 108.963173 0.154840795 108.963173 42.5358494 0.160375119 42.5358494"></polygon>
        <path d="M0.304,2.89753333 C0.552,2.39306667 0.695111111,1.85946667 0.715555556,1.31053333 L0.715555556,1.31053333 C0.633777778,0.776933333 0.477333333,0.404333333 0.304,0.1406 L0.304,0.1406 L0.304,2.89753333 Z" id="path-3"></path>
        <polygon id="path-5" points="0.0861762135 0.0957348046 34.0609745 0.0957348046 34.0609745 31.9942538 0.0861762135 31.9942538"></polygon>
        <polygon id="path-7" points="0.175745231 0.130133456 12.9908398 0.130133456 12.9908398 19.6225159 0.175745231 19.6225159"></polygon>
        <polygon id="path-9" points="0.0342128743 0.0370050687 20.1052953 0.0370050687 20.1052953 43.4472466 0.0342128743 43.4472466"></polygon>
        <polygon id="path-11" points="0.145940985 0.037604341 20.2199977 0.037604341 20.2199977 43.4472466 0.145940985 43.4472466"></polygon>
    </defs>
    <g id="Img/SideA" stroke="none" stroke-width="1" fill="none" fill-rule="evenodd">
        <g id="Group-35-Copy" opacity="0.8" transform="translate(155.000000, 38.282227)">
            <g id="Group-6" transform="translate(0.942857, 53.000000)">
                <path d="M70.7860346,15.8088326 C70.7860346,35.1131318 38.5206031,38.8577436 38.5206031,15.8549155 C38.5206031,7.59714703 37.8254584,0.0618403547 37.8254584,0.0618403547 L70.9601929,0.0335959619 C70.9601929,0.0335959619 70.7860346,7.59714703 70.7860346,15.8088326" id="Fill-1" fill="#F9CEA6"></path>
                <g id="Group-5" transform="translate(0.000000, 13.952936)">
                    <mask id="mask-2" fill="white">
                        <use xlink:href="#path-1"></use>
                    </mask>
                    <g id="Clip-4"></g>
                    <path d="M108.963173,42.5362954 C106.61278,30.3674218 102.330272,13.8429655 96.060573,10.1087594 C95.6571806,9.93334688 95.149591,9.78915182 94.5258959,9.6746877 C83.3827413,7.6024412 78.1058934,6.70010718 73.5911742,3.24537198 C73.3515204,1.56854698 72.7278253,0.655807129 72.1264582,0.154840795 L72.1264582,22.1557362 L33.8503322,22.1557362 L33.8503322,4.42717684 C29.6616017,6.94390088 24.4026162,7.85961383 14.6512395,9.6746877 C14.0290329,9.78915182 13.5214433,9.93334688 13.1150739,10.1087594 C6.6265605,13.6170103 2.43931845,30.294581 0.160375119,42.5362954 L108.963173,42.5362954 Z" id="Fill-3" fill="#273566" mask="url(#mask-2)"></path>
                </g>
            </g>
            <g id="Group-9" transform="translate(72.942857, 67.000000)">
                <mask id="mask-4" fill="white">
                    <use xlink:href="#path-3"></use>
                </mask>
                <g id="Clip-8"></g>
                <path d="M0.304,2.89753333 C0.552,2.39306667 0.695111111,1.85946667 0.715555556,1.31053333 L0.715555556,1.31053333 C0.633777778,0.776933333 0.477333333,0.404333333 0.304,0.1406 L0.304,0.1406 L0.304,2.89753333 Z" id="Fill-7" mask="url(#mask-4)"></path>
            </g>
            <g id="Group-34" transform="translate(28.942857, 0.000000)">
                <g id="Group-12" transform="translate(9.835603, 77.712262)">
                    <mask id="mask-6" fill="white">
                        <use xlink:href="#path-5"></use>
                    </mask>
                    <g id="Clip-11"></g>
                    <polygon id="Fill-10" fill="#FEFEFE" mask="url(#mask-6)" points="19.0909452 1.42462128 16.9969852 4.16029963 14.4375355 0.799879836 10.7121308 1.03359606 0.0861762135 6.57986181 8.75350492 31.9950029 25.8174942 31.9950029 34.0609745 7.98815188 25.6851345 0.0957348046"></polygon>
                </g>
                <path d="M15.2441255,86.737605 C18.5382458,88.7346801 32.3229867,89.5421996 37.9311707,86.0649217 C43.5408419,82.589142 34.7813076,79.6482129 34.7813076,79.6482129 C34.7813076,79.6482129 23.6645811,86.150318 21.5483133,80.4812014 C19.705688,75.5372044 15.2441255,86.737605 15.2441255,86.737605" id="Fill-13" fill="#172248"></path>
                <path d="M22.4883645,76.9672181 C19.9095814,75.9769205 11.7969736,72.1161083 10.9745589,68.138438 L10.9552255,65.9765629 C10.8258402,65.9570865 10.0287077,65.9900465 9.47547395,66.7241552 C7.70274646,69.074801 5.0347321,71.3999778 5.0347321,71.3999778 L14.8873492,91.0920678 L15.4063777,91.0920678 C16.0488427,89.6628032 19.0871667,83.1292362 21.4800514,80.6212814 C24.3875029,77.5754796 24.991301,80.0759435 27.5507507,84.1195338 C25.8999726,80.4654705 26.1542817,78.3755082 22.4883645,76.9672181" id="Fill-15" fill="#FEFEFE"></path>
                <path d="M31.6641626,76.9672181 C34.2444329,75.9769205 42.3525791,72.1161083 43.1794554,68.138438 L43.1987888,65.9765629 C43.3266869,65.9570865 44.1223322,65.9900465 44.675566,66.7241552 C46.4497806,69.074801 49.117795,71.3999778 49.117795,71.3999778 L39.2666651,91.0920678 L38.7476366,91.0920678 C38.1021973,89.6628032 35.0638732,83.1292362 32.6724757,80.6212814 C29.7650242,77.5754796 29.1612261,80.0759435 26.6002892,84.1195338 C28.2495801,80.4654705 28.0012198,78.3755082 31.6641626,76.9672181" id="Fill-17" fill="#FEFEFE"></path>
                <path d="M21.3424865,80.2927303 C23.5078315,79.6619961 29.4878124,79.3788399 32.0576724,80.5713919 C33.1343962,83.8269391 31.0984365,90.2151825 31.0984365,90.2151825 C29.587454,90.5372914 23.2445993,90.2151825 23.2445993,90.2151825 C21.7336168,88.8668197 20.60038,82.6808307 21.3424865,80.2927303" id="Fill-19" fill="#172248"></path>
                <g id="Group-23" transform="translate(21.349963, 90.084000)">
                    <mask id="mask-8" fill="white">
                        <use xlink:href="#path-7"></use>
                    </mask>
                    <g id="Clip-22"></g>
                    <polygon id="Fill-21" fill="#172248" mask="url(#mask-8)" points="12.9908398 19.6229654 9.74728393 0.130133456 1.89493397 0.130133456 0.175745231 19.6229654"></polygon>
                </g>
                <g id="Group-26" transform="translate(0.000000, 66.259270)">
                    <mask id="mask-10" fill="white">
                        <use xlink:href="#path-9"></use>
                    </mask>
                    <g id="Clip-25"></g>
                    <path d="M0.501189747,25.0086846 C3.17812723,25.6289315 4.92111097,25.4791134 7.33927783,25.3802335 C5.18731753,26.6072436 2.12817286,27.8042902 0.0342128743,28.349628 C1.20909099,33.3265851 3.24058911,38.4563565 5.65280722,43.4482953 L20.1052953,43.4482953 C11.7606862,19.7171096 7.51774033,4.15700259 9.80652188,0.0370050687 C6.8678394,1.92770939 5.90860347,2.92849424 1.81288911,5.71660893 C1.36375849,10.6141623 0.370317247,19.8084986 0.501189747,25.0086846 Z" id="Fill-24" fill="#172248" mask="url(#mask-10)"></path>
                </g>
                <g id="Group-29" transform="translate(33.822172, 66.259270)">
                    <mask id="mask-12" fill="white">
                        <use xlink:href="#path-11"></use>
                    </mask>
                    <g id="Clip-28"></g>
                    <path d="M19.3916343,23.8616773 C19.5195324,18.658495 18.8651699,10.7600852 18.4398343,5.7172082 C14.34412,2.92759533 13.384884,1.92681048 10.4447144,0.037604341 C12.7305215,4.15310732 8.47716531,19.7401816 0.145940985,43.4473964 L14.6028906,43.4473964 C17.0121343,38.4629485 19.0421453,33.3361734 20.2199977,28.3502273 C18.1230634,27.8033913 15.0639187,26.6078429 12.9149328,25.3808327 C15.8417178,24.4654442 16.716184,24.480426 19.3916343,23.8616773" id="Fill-27" fill="#172248" mask="url(#mask-12)"></path>
                </g>
                <path d="M52.2945762,31.55286 C51.9778053,31.5423727 50.2377959,31.6472454 48.6420437,35.0526106 C48.3550165,29.6456756 48.6033769,25.350391 46.0394656,22.8364434 C43.4800159,20.3224958 42.0493416,24.2222607 33.8623744,23.7053883 C24.5154011,23.1136068 18.4104964,18.3628752 16.1916127,15.6960945 C16.1916127,15.6960945 5.68760741,15.5747605 5.80360803,34.9252652 C4.43688272,31.3925546 2.82625867,31.4449909 2.82625867,31.4449909 L2.82625867,31.4389982 C1.24240399,32.1970777 0.770965558,35.6968284 1.79712493,39.5561424 C2.79056617,43.2985983 4.84585928,46.0747276 6.57248396,46.1376512 C8.41510926,53.1805997 12.0274877,60.2130609 15.4524805,63.7158079 C19.4500405,67.8043436 21.4205639,69.5602116 27.3797242,69.6306261 L27.3797242,69.6321243 C27.4094679,69.6321243 27.4332629,69.6321243 27.4644938,69.6306261 C27.489776,69.6321243 27.521007,69.6321243 27.5492635,69.6321243 L27.5492635,69.6306261 C33.5054494,69.5602116 35.4789472,67.8043436 39.4765072,63.7158079 C42.9044744,60.2130609 46.5109041,53.1805997 48.3565037,46.1376512 C50.0831284,46.0747276 52.1384215,43.2985983 53.1318628,39.5561424 C54.1148937,35.8556355 53.7222762,32.4952158 52.2945762,31.55286" id="Fill-30" fill="#F9CEA6"></path>
                <path d="M16.1910178,15.695364 C18.4099015,18.3636242 24.5162934,23.1173523 33.8632667,23.7061374 C42.0502339,24.2230098 43.4809083,20.3232449 46.0388707,22.8371925 C48.602782,25.35114 48.3544217,29.6464247 48.6414489,35.0533597 C50.4022788,31.2959219 52.3475201,31.553609 52.3475201,31.553609 C53.4168079,24.0746899 52.3252123,11.5424065 46.7066179,6.40814053 C40.1406852,0.409424134 22.4788465,-3.55626075 13.1184884,4.7376688 C8.12451283,5.44181384 1.90212036,10.8187851 2.2426863,20.7142701 C2.58473942,30.6112532 2.82715098,31.4442418 2.82715098,31.4442418 C2.82715098,31.4442418 4.43777504,31.3918055 5.80450034,34.9260143 C5.68849972,15.5740114 16.1910178,15.695364 16.1910178,15.695364" id="Fill-32" fill="#454444"></path>
            </g>
        </g>
        <g id="Group">
            <path d="M280.262695,148 C281.091122,148 281.762695,148.671573 281.762695,149.5 L281.762695,149.5 L281.762695,169.99707 L281.758328,170.218277 C281.642234,173.15329 279.226174,175.49707 276.262695,175.49707 L276.262695,175.49707 L255.5,175.49707 L255.35554,175.490204 C254.594888,175.417519 254,174.776766 254,173.99707 C254,173.168643 254.671573,172.49707 255.5,172.49707 L255.5,172.49707 L276.262695,172.49707 L276.427071,172.491753 C277.731159,172.407109 278.762695,171.322554 278.762695,169.99707 L278.762695,169.99707 L278.762695,149.5 L278.769562,149.35554 C278.842247,148.594888 279.482999,148 280.262695,148 Z M1.5,148 C2.27969612,148 2.92044868,148.594888 2.99313342,149.35554 L3,149.5 L3,169.99707 C3,171.322554 4.03153594,172.407109 5.33562431,172.491753 L5.5,172.49707 L26.2626953,172.49707 C27.0911224,172.49707 27.7626953,173.168643 27.7626953,173.99707 C27.7626953,174.776766 27.1678072,175.417519 26.4071553,175.490204 L26.2626953,175.49707 L5.5,175.49707 C2.53652085,175.49707 0.120460863,173.15329 0.00436720397,170.218277 L0,169.99707 L0,149.5 C0,148.671573 0.671572875,148 1.5,148 Z M276.262695,0 C279.226174,0 281.642234,2.34378001 281.758328,5.27879286 L281.762695,5.5 L281.762695,25.9970703 C281.762695,26.8254974 281.091122,27.4970703 280.262695,27.4970703 C279.482999,27.4970703 278.842247,26.9021822 278.769562,26.1415303 L278.762695,25.9970703 L278.762695,5.5 C278.762695,4.1745166 277.731159,3.08996133 276.427071,3.00531768 L276.262695,3 L255.5,3 C254.671573,3 254,2.32842712 254,1.5 C254,0.720303883 254.594888,0.0795513218 255.35554,0.00686657806 L255.5,0 L276.262695,0 Z M26.2626953,0 L26.4071553,0.00686657806 C27.1678072,0.0795513218 27.7626953,0.720303883 27.7626953,1.5 C27.7626953,2.32842712 27.0911224,3 26.2626953,3 L26.2626953,3 L5.5,3 L5.33562431,3.00531768 C4.03153594,3.08996133 3,4.1745166 3,5.5 L3,5.5 L3,25.9970703 L2.99313342,26.1415303 C2.92044868,26.9021822 2.27969612,27.4970703 1.5,27.4970703 C0.671572875,27.4970703 0,26.8254974 0,25.9970703 L0,25.9970703 L0,5.5 L0.00436720397,5.27879286 C0.120460863,2.34378001 2.53652085,0 5.5,0 L5.5,0 L26.2626953,0 Z" id="Combined-Shape" fill="#CCCCCC" fill-rule="nonzero"></path>
            <rect id="Rectangle" fill-opacity="0.1" fill="#F0C856" x="10" y="10" width="262" height="155" rx="10"></rect>
        </g>
    </g>
</svg>