<?xml version="1.0" encoding="UTF-8"?>
<svg width="32px" height="32px" viewBox="0 0 32 32" version="1.1" xmlns="http://www.w3.org/2000/svg" xmlns:xlink="http://www.w3.org/1999/xlink">
    <title>Icon/FA/SignInAlt</title>
    <g id="Icon/FA/SignInAlt" stroke="none" stroke-width="1" fill="none" fill-rule="evenodd">
        <path d="M23.5,25 L19.5624978,25 C19.1875022,25 19,24.8124996 19,24.4374978 L19,22.5624978 C19,22.187496 19.1875022,22 19.5624978,22 L23.5,22 C23.9062489,22 24.2578133,21.8515618 24.5546844,21.5546853 C24.8515644,21.2578089 25,20.9062498 25,20.5 L25,11.5 C25,11.0937422 24.8515644,10.7421867 24.5546844,10.4453067 C24.2578133,10.1484356 23.9062489,10 23.5,10 L19.5624978,10 C19.1875022,10 19,9.81249778 19,9.43750222 L19,7.56249778 C19,7.18749333 19.1875022,7 19.5624978,7 L23.5,7 C24.7500089,7 25.8124978,7.43749333 26.6875022,8.31249778 C27.5625067,9.18750222 28,10.2499911 28,11.5 L28,20.5 C28,21.7500044 27.5625067,22.8124933 26.6875022,23.6874978 C25.8124978,24.5625022 24.7500089,25 23.5,25 Z M21.2968711,15.5781244 C21.5156267,15.7968711 21.6249956,16.0624978 21.6249956,16.3749956 C21.6249956,16.6874996 21.5156267,16.9531218 21.2968711,17.1718729 L13.4218756,25.0468728 C13.0781244,25.3906245 12.6718773,25.4687487 12.2031253,25.2812478 C11.7343724,25.0937468 11.5,24.7500003 11.5,24.2499982 L11.5,19.7499982 L5.125,19.7499982 C4.8124984,19.7499982 4.54687609,19.640624 4.32812498,19.4218729 C4.10937387,19.2031218 4,18.9374996 4,18.6249973 L4,14.1249956 C4,13.8124978 4.10937387,13.5468711 4.32812498,13.3281244 C4.54687609,13.1093689 4.8124984,13 5.125,13 L11.5,13 L11.5,8.5 C11.5,7.99999111 11.7343724,7.65624889 12.2031253,7.46874667 C12.6718773,7.28124444 13.0781244,7.35936889 13.4218756,7.70312 L21.2968711,15.5781244 Z" id="Fill-1" fill="#03C0EF"></path>
    </g>
</svg>