<?xml version="1.0" encoding="UTF-8"?>
<svg width="24px" height="24px" viewBox="0 0 24 24" version="1.1" xmlns="http://www.w3.org/2000/svg" xmlns:xlink="http://www.w3.org/1999/xlink">
    <title>Icon/Footer/Twitter</title>
    <g id="Icon/Footer/Twitter" stroke="none" stroke-width="1" fill="none" fill-rule="evenodd">
        <path d="M19.9499387,8.05244175 C19.9499387,8.14779449 19.9499387,8.2391693 19.9499387,8.32657523 C19.9499387,8.41398115 19.9499387,8.505365 19.9499387,8.60071774 C19.9499387,9.95153166 19.6956768,11.3182275 19.1871258,12.7008331 C18.6785839,14.0834379 17.9316737,15.3349158 16.946368,16.4553028 C15.9610624,17.5756898 14.7453353,18.4854934 13.2991687,19.1847427 C11.852993,19.8998829 10.1843562,20.2574479 8.29320674,20.2574479 C7.13308926,20.2574479 6.02066534,20.0945572 4.9558997,19.7687709 C3.89113496,19.4429846 2.90584471,18.9860958 2,18.3980911 C2.17481212,18.4298757 2.3416758,18.4457675 2.50059592,18.4457675 C2.65951613,18.4457675 2.82637972,18.4457675 3.00119202,18.4457675 C3.9547131,18.4457675 4.86451675,18.2947952 5.7306319,17.992847 C6.59674615,17.6908987 7.37941612,17.2618213 8.07866533,16.7056003 C7.18871245,16.6897085 6.39412315,16.415575 5.69487485,15.8831927 C4.99562654,15.3508103 4.51092687,14.6793831 4.24076318,13.8688902 C4.36789866,13.884782 4.49900574,13.9006739 4.63408804,13.9165657 C4.76917034,13.9324575 4.90027742,13.9404034 5.0274138,13.9404034 C5.21811747,13.9404034 5.40087343,13.9245116 5.57568528,13.8927279 C5.75049713,13.8609443 5.92530717,13.8291607 6.10011902,13.7973761 C5.16249067,13.6066724 4.37982069,13.1378646 3.75208559,12.3909399 C3.12435138,11.6440152 2.81048871,10.7699632 2.81048871,9.76877299 L2.81048871,9.7210921 C3.09654476,9.86412574 3.39451597,9.98330988 3.70441012,10.0786626 C4.01430427,10.1740154 4.33611321,10.229634 4.66984509,10.2455277 C4.11362499,9.88001032 3.66865488,9.39530885 3.33492209,8.79141419 C3.00119021,8.18751952 2.83432662,7.53595301 2.83432662,6.83670561 C2.83432662,6.45530369 2.88597487,6.08978635 2.9892727,5.74016265 C3.09257136,5.39053895 3.23162435,5.06475569 3.4064362,4.76281288 C3.91498083,5.38260118 4.47913871,5.94676176 5.098927,6.45530369 C5.7187162,6.96384561 6.38617091,7.40086619 7.10131104,7.76638353 C7.81645208,8.13190086 8.57925682,8.42589685 9.38974969,8.64838959 C10.1843507,8.8708733 11.0027769,9.00596011 11.8450552,9.05363196 C11.8132679,8.89471374 11.7894365,8.73579552 11.7735429,8.5768773 C11.7576493,8.41795908 11.7497024,8.25904086 11.7497024,8.1001136 C11.7497024,6.97178338 12.146998,6.00635836 12.9415981,5.2038114 C13.7361983,4.40126444 14.7055922,4 15.8498251,4 C16.4378261,4 16.990062,4.11918415 17.5065597,4.35757052 C18.0230485,4.59594785 18.464047,4.91378429 18.8295553,5.31107984 C19.306319,5.2157271 19.7632111,5.08462725 20.2002408,4.91775318 C20.6372704,4.75088814 21.0464816,4.54826696 21.4278926,4.30988963 C21.284859,4.78665333 21.0584064,5.21970503 20.7485077,5.60905376 C20.4386181,5.99841154 20.0691319,6.32021687 19.6400491,6.57448783 C20.0532382,6.52681598 20.4584806,6.44735687 20.8557852,6.3361105 C21.2530807,6.22487317 21.6344827,6.08978635 22,5.93086813 C21.7139418,6.34405731 21.4000833,6.72943716 21.0584064,7.08700768 C20.7167205,7.4445782 20.3472433,7.76638353 19.9499387,8.05244175 Z" id="Fill-1" fill="#3D8DBC"></path>
    </g>
</svg>