<?xml version="1.0" encoding="UTF-8"?>
<svg width="20px" height="20px" viewBox="0 0 20 20" version="1.1" xmlns="http://www.w3.org/2000/svg" xmlns:xlink="http://www.w3.org/1999/xlink">
    <title>Icon/Cryptocurrency/USDT</title>
    <g id="Icon/Cryptocurrency/USDT" stroke="none" stroke-width="1" fill="none" fill-rule="evenodd">
        <path d="M11.1433094,10.523741 L11.1433094,10.5217266 C11.0566906,10.5277698 10.6094964,10.5539568 9.61438849,10.5539568 C8.81870504,10.5539568 8.26071942,10.5317986 8.06330935,10.5217266 L8.06330935,10.523741 C5.00345324,10.388777 2.72115108,9.85697842 2.72115108,9.21841727 C2.72115108,8.5818705 5.00546763,8.04805755 8.06330935,7.91309353 L8.06330935,9.99395683 C8.26273381,10.0080576 8.83683453,10.0423022 9.62848921,10.0423022 C10.5792806,10.0423022 11.0546763,10.0020144 11.1433094,9.99395683 L11.1433094,7.91510791 C14.1971223,8.05208633 16.4733813,8.58388489 16.4733813,9.22043165 C16.4733813,9.85697842 14.1951079,10.388777 11.1433094,10.5257554 M11.1433094,7.69956835 L11.1433094,5.83827338 L15.403741,5.83827338 L15.403741,3 L3.80489209,3 L3.80489209,5.83827338 L8.06532374,5.83827338 L8.06532374,7.69956835 C4.60258993,7.85870504 2,8.54359712 2,9.36546763 C2,10.1873381 4.60460432,10.8722302 8.06532374,11.0333813 L8.06532374,17 L11.1453237,17 L11.1453237,11.0333813 C14.6020144,10.8742446 17.2005755,10.1893525 17.2005755,9.36748201 C17.2005755,8.5476259 14.6020144,7.86071942 11.1453237,7.70158273" id="Shape" fill="#FFFFFF" fill-rule="nonzero"></path>
    </g>
</svg>