<?xml version="1.0" encoding="UTF-8"?>
<svg width="24px" height="24px" viewBox="0 0 24 24" version="1.1" xmlns="http://www.w3.org/2000/svg" xmlns:xlink="http://www.w3.org/1999/xlink">
    <title>Icon/Footer/WeChat</title>
    <g id="Icon/Footer/WeChat" stroke="none" stroke-width="1" fill="none" fill-rule="evenodd">
        <path d="M15.9999952,9.30908419 C17.600007,9.30908419 18.9999907,9.81817417 20.1999944,10.836361 C21.400005,11.8545479 22,13.0545309 22,14.4363591 C22,15.9151542 21.1757663,17.2848371 19.5272713,18.5454499 L20.0727219,20.290904 L18.1090901,19.2363588 C17.1393864,19.4787841 16.4363639,19.5999946 15.9999952,19.5999946 C14.3030171,19.5999946 12.8727341,19.09697 11.7090909,18.0909043 C10.5454478,17.0848386 9.96363663,15.8727296 9.96363663,14.4545408 C9.96363663,13.0363541 10.5454478,11.8242416 11.7090909,10.8181773 C12.8727341,9.81211292 14.3030171,9.30908419 15.9999952,9.30908419 Z M9.09090602,4 C10.8121291,4 12.357569,4.47272247 13.727274,5.4181812 C15.0969721,6.36363994 15.927267,7.55150737 16.2181795,8.98181797 C16,8.95757296 15.7696952,8.94545046 15.5272727,8.94545046 C13.8545327,8.94545046 12.4363653,9.49090105 11.2727291,10.581816 C10.109086,11.672731 9.52727477,12.9939253 9.52727477,14.5454499 C9.52727477,15.0303011 9.599996,15.5151447 9.74545225,16 C9.50302976,16.0242381 9.28484539,16.0363592 9.09090602,16.0363592 C8.63029985,16.0363592 7.80606546,15.9272691 6.61818148,15.7090861 L4.14545418,16.9454498 L4.8363631,14.7999956 C2.94544494,13.466656 2,11.8666704 2,10 C2,8.32725795 2.69090202,6.90909053 4.07272675,5.74545432 C5.45455216,4.58181121 7.1272625,4 9.09090602,4 Z M14.0363634,12.1454535 C13.8666621,12.1454535 13.7090903,12.2181747 13.563634,12.363631 C13.4181778,12.5090872 13.3454496,12.6666591 13.3454496,12.8363603 C13.3454496,12.9333266 13.3636334,13.0242385 13.4000009,13.1090891 C13.4363615,13.1939328 13.4848446,13.2727222 13.5454503,13.3454503 C13.6060628,13.4181784 13.678784,13.4727228 13.7636346,13.5090869 C13.8484853,13.5454503 13.9393902,13.5636319 14.0363634,13.5636319 C14.2060577,13.5636319 14.3575752,13.5272686 14.490909,13.4545411 C14.6242427,13.3818109 14.7272702,13.290906 14.7999983,13.1818172 C14.8727265,13.0727216 14.9090871,12.9575716 14.9090871,12.8363603 C14.9090871,12.7636322 14.8909102,12.6848428 14.8545427,12.5999991 C14.8181821,12.5151485 14.7636377,12.4363591 14.6909096,12.363631 C14.6181815,12.2909028 14.5212083,12.2363585 14.3999971,12.1999979 C14.2787859,12.1636304 14.1575746,12.1454535 14.0363634,12.1454535 Z M17.9272733,12.1454535 C17.757572,12.1454535 17.6000001,12.2181747 17.4545439,12.363631 C17.3090876,12.5090872 17.2363595,12.6727203 17.2363595,12.8545441 C17.2363595,13.036361 17.3090876,13.1999941 17.4545439,13.3454503 C17.6000001,13.4909059 17.757572,13.5636319 17.9272733,13.5636319 C18.0969676,13.5636319 18.2484851,13.5272686 18.3818189,13.4545411 C18.5151526,13.3818109 18.6181801,13.290906 18.6909082,13.1818172 C18.7636364,13.0727216 18.799997,12.9575716 18.799997,12.8363603 C18.799997,12.6666591 18.7151532,12.5090872 18.545452,12.363631 C18.3757576,12.2181747 18.1696957,12.1454535 17.9272733,12.1454535 Z M11.7454516,7.01817927 C11.454546,7.01817927 11.200001,7.09696865 10.9818166,7.25454051 C10.7636322,7.41211926 10.6545435,7.62423549 10.6545435,7.89090299 C10.6545435,8.15757048 10.7636322,8.3696936 10.9818166,8.52727236 C11.200001,8.68484422 11.454546,8.76363359 11.7454516,8.76363359 C12.0121191,8.76363359 12.2242422,8.68484422 12.381814,8.52727236 C12.5393928,8.3696936 12.6181822,8.15757048 12.6181822,7.89090299 C12.6181822,7.62423549 12.5393928,7.41211926 12.381814,7.25454051 C12.2242422,7.09696865 12.0121191,7.01817927 11.7454516,7.01817927 Z M6.76363566,7.01817927 C6.49696748,7.01817927 6.25454568,7.09696865 6.03636337,7.25454051 C5.81818038,7.41211926 5.70909026,7.62423549 5.70909026,7.89090299 C5.70909026,8.15757048 5.81818038,8.3696936 6.03636337,8.52727236 C6.25454568,8.68484422 6.49696748,8.76363359 6.76363566,8.76363359 C7.03030385,8.76363359 7.24848339,8.68484422 7.4181812,8.52727236 C7.58787901,8.3696936 7.67272619,8.15757048 7.67272619,7.89090299 C7.67272619,7.62423549 7.58787901,7.41211926 7.4181812,7.25454051 C7.24848339,7.09696865 7.03030385,7.01817927 6.76363566,7.01817927 Z" id="Combined-Shape" fill="#3D8DBC"></path>
    </g>
</svg>