<?xml version="1.0" encoding="UTF-8"?>
<svg width="24px" height="24px" viewBox="0 0 24 24" version="1.1" xmlns="http://www.w3.org/2000/svg" xmlns:xlink="http://www.w3.org/1999/xlink">
    <title>Icon/Footer/Weibo</title>
    <g id="Icon/Footer/Weibo" stroke="none" stroke-width="1" fill="none" fill-rule="evenodd">
        <path d="M9.53103869,16.425053 C9.68723988,16.172158 9.72814513,15.9155472 9.65376925,15.6552139 C9.57938597,15.3948798 9.41203285,15.2089305 9.15169803,15.0973585 C8.89880302,14.9932256 8.62731627,14.9895061 8.33723036,15.0862014 C8.04714446,15.1828967 7.82400424,15.3539708 7.66780454,15.5994283 C7.5041665,15.8523233 7.45581922,16.1070747 7.52276195,16.3636892 C7.58970542,16.6203038 7.7496217,16.8081125 8.00251745,16.927122 C8.25541246,17.0461323 8.53247814,17.0554293 8.83372117,16.9550152 C9.1349642,16.8546011 9.3674014,16.6779488 9.53103869,16.425053 Z M10.5798096,15.0750443 C10.6393088,14.978349 10.6523268,14.8797958 10.6188562,14.7793817 C10.5853856,14.6789668 10.520303,14.6101654 10.4236084,14.5729753 C10.3194718,14.5357851 10.213484,14.5376445 10.1056301,14.5785535 C9.99777619,14.6194632 9.91781694,14.6882645 9.86575234,14.7849598 C9.73930447,15.0155414 9.78765175,15.182896 10.0107942,15.2870296 C10.1149308,15.3242197 10.2227773,15.3223604 10.3343485,15.2814507 C10.4459197,15.240541 10.5277376,15.1717396 10.5798096,15.0750443 Z M12.5211429,16.2688541 C12.1864292,17.0275398 11.5988272,17.5853893 10.7583221,17.9424179 C9.91781694,18.2994465 9.08475974,18.344075 8.25913051,18.0763034 C7.46325385,17.8234076 6.91470215,17.352955 6.61345912,16.6649308 C6.31221609,15.9769066 6.33638899,15.279595 6.68598004,14.5729753 C7.03557109,13.8812322 7.59899871,13.3642918 8.37627992,13.0221391 C9.15356187,12.6799893 9.93641091,12.6093233 10.7248515,12.8101545 C11.55048,13.0258593 12.1399406,13.4702789 12.4932482,14.1434272 C12.8465559,14.8165755 12.8558565,15.5250435 12.5211429,16.2688541 Z M16.0021545,14.4837183 C15.9352133,13.769661 15.6042243,13.137432 15.0091729,12.587012 C14.4141215,12.0365906 13.6387137,11.6312258 12.68292,11.370888 C11.7271264,11.1105576 10.7062575,11.032457 9.62029863,11.1365936 C7.96159961,11.3076641 6.58743127,11.8339008 5.49774916,12.7153186 C4.4080678,13.5967342 3.91530097,14.5804077 4.0194346,15.666371 C4.08637733,16.3804283 4.41736775,17.0126573 5.01241548,17.5630765 C5.60746395,18.1134965 6.38287391,18.5188665 7.33866981,18.7792006 C8.29446571,19.0395339 9.31533014,19.1176323 10.4012897,19.0134994 C12.0599888,18.842423 13.4341578,18.3161848 14.5238414,17.43477 C15.6135176,16.5533551 16.1062911,15.5696809 16.0021545,14.4837183 Z M19.4385436,14.5283468 C19.4385436,15.0341375 19.3009364,15.5529374 19.0257293,16.0847619 C18.7505149,16.6165857 18.3451501,17.1260879 17.8096053,17.6132839 C17.2740605,18.1004792 16.6474119,18.5374612 15.9296299,18.9242424 C15.2118553,19.3110236 14.371365,19.6197002 13.4081293,19.8502814 C12.4448935,20.0808625 11.4389087,20.1961513 10.3901378,20.1961513 C9.34136318,20.1961513 8.3186401,20.071565 7.3219345,19.8223886 C6.32522891,19.5732123 5.43081088,19.2273456 4.63865301,18.7847788 C3.84649514,18.3422119 3.20868795,17.7806437 2.72521121,17.1000571 C2.24173463,16.4194712 2,15.6775318 2,14.8742168 C2,14.018835 2.25847009,13.1076817 2.77541811,12.1407272 C3.29236599,11.1737741 4.02686774,10.214278 4.97894411,9.2622016 C6.23598378,8.00515749 7.50601998,7.12747921 8.78909268,6.62912234 C10.0721669,6.13077287 10.9888991,6.15680147 11.5393132,6.70722293 C12.0227934,7.18326112 12.0971693,7.96053492 11.7624556,9.03905916 C11.7327023,9.14318835 11.728985,9.21757163 11.7513037,9.2622016 C11.773615,9.30682416 11.8108029,9.33286016 11.8628749,9.34029479 C11.9149395,9.34773682 11.9688628,9.34587816 12.0246521,9.33471882 C12.080434,9.32355947 12.1306399,9.31054888 12.1752699,9.29567222 L12.2422111,9.27335354 C13.2761128,8.8345107 14.190979,8.61508557 14.9868616,8.61508557 C15.7827368,8.61508557 16.3517448,8.84194532 16.6938931,9.29567222 C17.0286068,9.76426838 17.0286068,10.4262537 16.6938931,11.2816355 C16.6790164,11.37833 16.6622811,11.4527059 16.6436872,11.5047705 C16.6250932,11.5568425 16.6418285,11.6033311 16.6938931,11.6442364 C16.7459577,11.685149 16.7905877,11.7130363 16.827783,11.7279129 C16.8649709,11.7427896 16.9281949,11.7651083 17.0174474,11.7948616 C17.441421,11.9287441 17.8244819,12.1035392 18.1666302,12.3192396 C18.5087859,12.5349474 18.8063042,12.8380447 19.0592,13.2285454 C19.3120957,13.6190454 19.4385436,14.0523086 19.4385436,14.5283468 Z M17.486051,6.84110543 C17.9248938,6.97499534 18.3005127,7.21673174 18.6129151,7.56632205 C18.9253175,7.91591236 19.1279999,8.31941851 19.2209771,8.77686273 C19.3139544,9.23430694 19.289777,9.67129113 19.1484525,10.0878227 C19.0889533,10.2589005 18.9792407,10.3853484 18.8193222,10.4671663 C18.6594037,10.5489842 18.4939092,10.5638609 18.3228314,10.5117963 C18.1517536,10.4522897 18.0253057,10.3425771 17.9434878,10.1826586 C17.8616699,10.0227401 17.8467932,9.85724563 17.8988578,9.68616778 C18.0476244,9.21756423 17.9583644,8.80475738 17.6310928,8.44773245 C17.3038138,8.09070011 16.9058836,7.96053492 16.43728,8.05722948 C16.2587676,8.09442483 16.0914145,8.06467152 15.9352133,7.96797695 C15.7790121,7.87128239 15.6860348,7.73367517 15.6562815,7.55516271 C15.6190936,7.37665024 15.6488469,7.21115577 15.7455415,7.0586719 C15.842236,6.90618803 15.9798432,6.81135953 16.1583557,6.77416418 C16.6046406,6.67746962 17.0472007,6.6997809 17.486051,6.84110543 Z M20.6323489,5.74771194 C21.279465,6.46176922 21.6978478,7.28924896 21.8875196,8.23016598 C22.0771914,9.17108301 22.0269855,10.0692213 21.7369018,10.9246031 C21.6699605,11.1254343 21.5435127,11.2741934 21.3575582,11.370888 C21.1716111,11.4675826 20.9782219,11.4824592 20.7773908,11.415518 C20.5765596,11.3485767 20.4278005,11.2221288 20.3311059,11.0361743 C20.2344114,10.8502198 20.2158174,10.6568381 20.275324,10.456007 C20.4835898,9.84608628 20.5207777,9.20641229 20.3868952,8.53698498 C20.2530053,7.86755767 19.955487,7.27995568 19.4943255,6.77416418 C19.033164,6.26093806 18.4827499,5.90577178 17.8430759,5.70866535 C17.2034019,5.51155151 16.5600106,5.47993954 15.9128946,5.61382944 C15.7046288,5.65845941 15.5112397,5.62312272 15.3327272,5.50783419 C15.1542147,5.39254566 15.0426435,5.23076851 14.9980136,5.02250273 C14.953391,4.81423695 14.9887203,4.62270648 15.1040088,4.44791133 C15.2192973,4.27311617 15.3810745,4.16340361 15.5893403,4.11877364 C16.5042287,3.92538452 17.4116603,3.96815583 18.3116721,4.24708017 C19.2116838,4.52601192 19.9852329,5.02622004 20.6323489,5.74771194 Z" id="Fill-1" fill="#3D8DBC"></path>
    </g>
</svg>