<?xml version="1.0" encoding="UTF-8"?>
<svg width="24px" height="24px" viewBox="0 0 24 24" version="1.1" xmlns="http://www.w3.org/2000/svg" xmlns:xlink="http://www.w3.org/1999/xlink">
    <title>Icon/Footer/Youtube</title>
    <g id="Icon/Footer/Youtube" stroke="none" stroke-width="1" fill="none" fill-rule="evenodd">
        <path d="M12.0063656,4.99891525 C12.0576524,5.00010812 12.3910177,5.00786178 13.0064821,5.02217623 C13.6778889,5.02217623 14.4507803,5.037792 15.3251743,5.06901464 C16.1995682,5.10024617 17.0739444,5.13927669 17.9483383,5.18612398 C18.8071254,5.24857816 19.431676,5.33445597 19.8220345,5.44375744 C20.2592315,5.5530589 20.6339654,5.76774456 20.9462451,6.08784106 C21.2585338,6.40792869 21.4693199,6.7787631 21.5786214,7.2003443 C21.7972154,7.98105254 21.9221326,8.98034594 21.9533553,10.1982494 C21.9845868,11.4161546 22.0002026,12.0250983 22.0002026,12.0250983 C22.0002026,12.0250983 21.9806873,12.634042 21.9416479,13.8519481 C21.9026085,15.0698533 21.7816085,16.0691458 21.5786214,16.8498549 C21.4537042,17.271437 21.2351101,17.6422688 20.9228304,17.9623591 C20.6105417,18.2824498 20.2358078,18.4971415 19.7986109,18.6064407 C19.4082612,18.71574 18.7837017,18.7938096 17.9249235,18.8406522 C17.0661454,18.9031089 16.1956687,18.9460473 15.3134669,18.9694685 C14.4312651,18.9928898 13.6544652,19.0046002 12.9830584,19.0046002 L12.9830584,19.0046002 L10.9922618,19.0046002 C10.3208523,19.0046002 9.54405869,18.9889863 8.66185776,18.9577579 C7.77965683,18.9265296 6.90917927,18.8796878 6.05039932,18.8172311 C5.19162026,18.7547743 4.55925556,18.6767047 4.15328657,18.5830196 C3.73170448,18.4581062 3.36087273,18.239511 3.04078244,17.9272271 C2.72069171,17.6149438 2.50600001,17.240209 2.39670077,16.8030121 C2.19371645,16.0379178 2.0766119,15.0464323 2.04538355,13.8285271 C2.0141552,12.610621 1.99854126,12.0016773 1.99854126,12.0016773 C2.00055399,11.9236837 2.01610697,11.3210055 2.04538355,10.1865384 C2.0766119,8.97643755 2.20152344,7.97324466 2.42012193,7.17692066 C2.52942117,6.75533946 2.74411287,6.38450504 3.06420342,6.06441742 C3.38429371,5.7443298 3.75512546,5.52963525 4.17670755,5.42033379 C4.56706256,5.31103233 5.19162026,5.22516339 6.05039932,5.16270034 C6.92479326,5.11586193 7.79917476,5.0807309 8.6735678,5.05730726 C9.54796174,5.03388361 10.3208523,5.02217623 10.9922618,5.02217623 C11.6636685,5.00656047 11.9993719,4.99875259 11.9993719,4.99875259 Z M10.0085735,9.00376958 L9.98515249,14.9995841 L15.2080649,12.0016773 L10.0085735,9.00376958 Z" id="Combined-Shape" fill="#3D8DBC"></path>
    </g>
</svg>