<?xml version="1.0" encoding="UTF-8"?>
<svg width="32px" height="32px" viewBox="0 0 32 32" version="1.1" xmlns="http://www.w3.org/2000/svg" xmlns:xlink="http://www.w3.org/1999/xlink">
    <title>Icon/FA/Bars</title>
    <g id="Icon/FA/Bars" stroke="none" stroke-width="1" fill="none" fill-rule="evenodd">
        <path d="M4.85714286,9.85714286 C4.60714171,9.85714286 4.40178657,9.77678571 4.24107143,9.61607143 C4.08035635,9.45535714 4,9.25000071 4,9 L4,6.85714286 C4,6.60714214 4.08035635,6.40178571 4.24107143,6.24107143 C4.40178657,6.08035714 4.60714171,6 4.85714286,6 L27.1428571,6 C27.3928643,6 27.5982143,6.08035714 27.7589286,6.24107143 C27.9196429,6.40178571 28,6.60714214 28,6.85714286 L28,9 C28,9.25000071 27.9196429,9.45535714 27.7589286,9.61607143 C27.5982143,9.77678571 27.3928643,9.85714286 27.1428571,9.85714286 L4.85714286,9.85714286 Z M4.85714286,18.4285714 C4.60714171,18.4285714 4.40178657,18.3482143 4.24107143,18.1875 C4.08035635,18.0267857 4,17.8214293 4,17.5714286 L4,15.4285714 C4,15.1785707 4.08035635,14.9732143 4.24107143,14.8125 C4.40178657,14.6517857 4.60714171,14.5714286 4.85714286,14.5714286 L27.1428571,14.5714286 C27.3928643,14.5714286 27.5982143,14.6517857 27.7589286,14.8125 C27.9196429,14.9732143 28,15.1785707 28,15.4285714 L28,17.5714286 C28,17.8214293 27.9196429,18.0267857 27.7589286,18.1875 C27.5982143,18.3482143 27.3928643,18.4285714 27.1428571,18.4285714 L4.85714286,18.4285714 Z M4.85714286,27 C4.60714171,27 4.40178657,26.9196436 4.24107143,26.7589286 C4.08035635,26.5982134 4,26.3928583 4,26.1428571 L4,24 C4,23.7499993 4.08035635,23.5446429 4.24107143,23.3839286 C4.40178657,23.2232143 4.60714171,23.1428571 4.85714286,23.1428571 L27.1428571,23.1428571 C27.3928643,23.1428571 27.5982143,23.2232143 27.7589286,23.3839286 C27.9196429,23.5446429 28,23.7499993 28,24 L28,26.1428571 C28,26.3928583 27.9196429,26.5982134 27.7589286,26.7589286 C27.5982143,26.9196436 27.3928643,27 27.1428571,27 L4.85714286,27 Z" id="Bars" fill="#FFFFFF"></path>
    </g>
</svg>