<?xml version="1.0" encoding="UTF-8"?>
<svg width="24px" height="24px" viewBox="0 0 24 24" version="1.1" xmlns="http://www.w3.org/2000/svg" xmlns:xlink="http://www.w3.org/1999/xlink">
    <title>Flag/China</title>
    <g id="Flag/China" stroke="none" stroke-width="1" fill="none" fill-rule="evenodd">
        <g id="flag-196" transform="translate(2.000000, 2.000000)" fill-rule="nonzero">
            <path d="M20,10.091358 C20,4.63669383 15.5228475,0.214814815 10,0.214814815 C4.4771525,0.214814815 0,4.63669383 0,10.091358 L0,10.091358 C0,15.5460222 4.4771525,19.9679012 10,19.9679012 C15.5228475,19.9679012 20,15.5460222 20,10.091358 Z" id="Shape" fill="#FE0000"></path>
            <polygon id="Path" fill="#FFDE00" points="11.33 8.05185185 11.08 7.42469136 10.8875 8.09135802 10.2125 8.09135802 10.79 8.47160494 10.5975 9.1382716 11.1375 8.75802469 11.715 9.1382716 11.465 8.47160494 12.0425 7.99506173"></polygon>
            <polygon id="Path" fill="#FFDE00" points="5.01 5.54074074 4.335 3.56049383 3.7 5.54074074 1.58 5.54074074 3.275 6.75802469 2.66 8.75802469 4.335 7.52098765 6.0125 8.75802469 5.395 6.75802469 7.09 5.58024691"></polygon>
            <polygon id="Path" fill="#FFDE00" points="9.5375 9.38765432 9.095 9.90123457 8.44 9.71111111 8.825 10.2814815 8.3825 10.7950617 9.0575 10.6049383 9.4425 11.2345679 9.48 10.4716049 10.1725 10.2814815 9.48 10.091358"></polygon>
            <polygon id="Path" fill="#FFDE00" points="9.0575 3.9037037 9.4025 4.49382716 9.4425 3.80740741 10.115 3.63703704 9.48 3.37037037 9.5375 2.68395062 9.095 3.21728395 8.4775 2.95061728 8.825 3.54074074 8.325 4.05679012"></polygon>
            <polygon id="Path" fill="#FFDE00" points="10.8275 5.73333333 10.9825 6.41728395 11.2725 5.80740741 11.985 5.92345679 11.465 5.42716049 11.7925 4.81728395 11.175 5.12345679 10.6925 4.64691358 10.79 5.31358025 10.1725 5.61728395"></polygon>
        </g>
    </g>
</svg>