<?xml version="1.0" encoding="UTF-8"?>
<svg width="130px" height="130px" viewBox="0 0 130 130" version="1.1" xmlns="http://www.w3.org/2000/svg" xmlns:xlink="http://www.w3.org/1999/xlink">
    <!-- Generator: Sketch 58 (84663) - https://sketch.com -->
    <title>Chip/Coin/TXS</title>
    <desc>Created with Sketch.</desc>
    <g id="Chip/Coin/TXS" stroke="none" stroke-width="1" fill="none" fill-rule="evenodd">
        <path d="M130,65 C130,100.898 100.898,130 65,130 C29.102,130 0,100.898 0,65 C0,29.102 29.102,0 65,0 C100.898,0 130,29.102 130,65" id="Fill-1" fill="#417505"></path>
        <g id="Chip/Item/Blank">
            <path d="M39.2465038,109.195634 C41.3959695,110.449985 43.642687,111.554489 45.9737557,112.49029 C48.6283359,113.553115 51.3920763,114.398611 54.243145,115.007924 L51.7602443,126.550137 C45.1659695,125.138992 38.9597099,122.690824 33.3091756,119.391206 L39.2484885,109.197618 L39.2465038,109.195634 Z M79.0830687,116.737618 C80.5349008,116.737618 81.7118473,117.914565 81.7118473,119.365405 C81.7118473,120.816244 80.5349008,121.993191 79.0830687,121.993191 C77.6312366,121.993191 76.4532977,120.816244 76.4532977,119.365405 C76.4532977,117.914565 77.6312366,116.737618 79.0830687,116.737618 Z M107.773969,93.0407023 L117.644046,99.512916 C113.995115,105.067191 109.494733,110.005206 104.323511,114.147344 L96.9462595,104.92826 C98.4189313,103.748336 99.8320611,102.498947 101.164809,101.168183 C103.635802,98.6981832 105.847786,95.973145 107.773969,93.0407023 Z M73.5065649,105.393878 L74.1625191,108.511893 L74.1615267,108.511893 C71.2042748,109.134107 68.1408397,109.465557 65,109.465557 L65,106.283038 C67.8520611,106.283038 70.7041221,105.980366 73.5065649,105.393878 Z M49.6424351,103.336504 C52.0122061,104.281237 54.4514427,104.998718 56.9273969,105.487954 L56.3061756,108.606962 L56.3051832,108.606962 C53.5950305,108.068107 50.9771679,107.275206 48.4684656,106.267954 L49.6424351,103.336504 Z M25.0014809,101.149427 C26.453313,101.149427 27.6292672,102.328359 27.6292672,103.780191 C27.6292672,105.231031 26.453313,106.408969 25.0014809,106.408969 C23.5486565,106.408969 22.3717099,105.231031 22.3717099,103.780191 C22.3717099,102.328359 23.5486565,101.149427 25.0014809,101.149427 Z M87.9296183,99.3511603 L89.6761832,101.968031 C89.6761832,101.969023 89.6761832,101.969023 89.6751908,101.969023 C87.4185496,103.481389 85.0160305,104.791313 82.4914504,105.875969 L81.2450382,102.960397 L81.2460305,102.960397 C83.5562595,101.974977 85.7970229,100.777191 87.9296183,99.3511603 Z M35.794458,94.2060382 C37.8575878,96.2691679 40.0884275,98.0633664 42.4403359,99.5975649 L40.7245344,102.229321 L40.7245344,102.228328 C38.145374,100.539321 35.7448397,98.601229 33.573542,96.4279466 L35.794458,94.2060382 Z M99.5965725,87.5591679 L102.226344,89.2739771 L102.225351,89.2739771 C100.536344,91.8551221 98.5982519,94.2556565 96.4259618,96.4269542 L94.2040534,94.2060382 L94.2050458,94.2060382 C96.2681756,92.141916 98.062374,89.9120687 99.5965725,87.5591679 Z M14.248313,71.3624504 L14.2482977,71.3519389 C14.4229542,72.7660611 14.6531832,74.1662901 14.9429542,75.5436947 C15.6395954,78.8691145 16.6587557,82.074458 17.967687,85.1279695 C18.2098244,85.6956031 18.4698244,86.2513282 18.7328015,86.8070534 L8.047,91.8423206 C5.26440458,85.9496489 3.37990076,79.5538473 2.54631298,72.8315573 L14.248313,71.3624504 Z M27.0391069,81.2461298 L27.0391069,81.2471221 C27.9150356,83.2997769 28.9603282,85.2975453 30.1826514,87.2153363 L30.6493359,87.9307099 L28.0314733,89.6792595 C26.5191069,87.4196412 25.2091832,85.0181145 24.1245267,82.4935344 L27.0391069,81.2461298 Z M105.489542,73.0740916 L108.60458,73.6943206 L108.603588,73.695313 C108.064733,76.4044733 107.273817,79.0223359 106.26458,81.5310382 L103.335115,80.3580611 L103.336107,80.3570687 C104.28084,77.9902748 104.999313,75.5510382 105.489542,73.0740916 Z M119.645053,75.2355649 C121.096885,75.2355649 122.273832,76.4144962 122.273832,77.8663282 C122.273832,79.3171679 121.096885,80.4931221 119.645053,80.4931221 C118.193221,80.4931221 117.016275,79.3171679 117.016275,77.8663282 C117.016275,76.4144962 118.193221,75.2355649 119.645053,75.2355649 Z M23.7169618,65.0014885 C23.7169618,67.8535496 24.020626,70.7056107 24.6061221,73.5080534 L21.4881069,74.1659924 C20.8658931,71.2067557 20.5334504,68.1423282 20.5334504,65.0014885 L23.7169618,65.0014885 Z M108.509412,55.8376794 C109.132618,58.7959237 109.464069,61.8603511 109.464069,65.0011908 L106.282542,65.0011908 C106.282542,62.4066037 106.0324,59.8152972 105.547028,57.2593311 L105.394374,56.4936336 C105.394374,56.4936336 105.394374,56.4936336 105.393382,56.4926412 L108.509412,55.8376794 Z M121.952008,38.1597634 C124.733611,44.0524351 126.619107,50.4482366 127.452695,57.1725115 L115.749718,58.639229 C115.574069,57.2270916 115.342847,55.8318244 115.055061,54.4593817 C114.35842,51.1329695 113.338267,47.927626 112.030328,44.8731221 C111.86758,44.4953613 111.697775,44.122011 111.524736,43.7501309 L111.265214,43.1970153 L121.952008,38.1597634 Z M10.353458,52.514542 C11.8052901,52.514542 12.9822366,53.6904962 12.9822366,55.1423282 C12.9822366,56.596145 11.8052901,57.7720992 10.353458,57.7720992 C8.90162595,57.7720992 7.72467939,56.596145 7.72467939,55.1423282 C7.72467939,53.6904962 8.90162595,52.514542 10.353458,52.514542 Z M23.7334351,48.4699542 L26.6648855,49.6429313 C25.7181679,52.0127023 25.000687,54.4519389 24.5114504,56.9278931 L21.3934351,56.3056794 C21.8792977,53.8683282 22.568526,51.5033206 23.4372465,49.2258486 L23.7334351,48.4699542 Z M101.967534,40.3247099 C103.478908,42.5823435 104.789824,44.985855 105.874481,47.5084504 L102.961885,48.755855 C101.976466,46.4446336 100.776695,44.2048626 99.3516565,42.0702824 L101.967534,40.3247099 Z M33.571855,33.5728473 L35.7937634,35.7947557 C33.7326183,37.8578855 31.9384198,40.0887252 30.403229,42.441626 L27.7724656,40.7258244 C29.4604809,38.1476565 31.4005573,35.7451374 33.5708626,33.5738397 L33.571855,33.5728473 Z M25.6742061,15.8551374 L33.051458,25.073229 C31.5787863,26.2521603 30.1646641,27.502542 28.831916,28.8352901 C26.3639008,31.3052901 24.1489389,34.0293359 22.2237481,36.9597939 L12.3546641,30.4895649 C16.0026031,24.9362824 20.5029847,19.9982672 25.6742061,15.8551374 Z M89.2722901,27.7756412 C91.8534351,29.4626641 94.2549618,31.4017481 96.4262595,33.5740382 L94.2053435,35.7949542 C93.6952672,35.2848779 93.1762595,34.7916718 92.6443511,34.3153359 L92.6433588,34.3133511 L92.5123664,34.2022061 C92.0717557,33.8082366 91.6241985,33.4261756 91.1716794,33.0570153 C91.0099237,32.9250305 90.8481679,32.7950305 90.6854198,32.6670153 C90.3261832,32.3802214 89.9619847,32.1023588 89.5948092,31.829458 C89.4370229,31.7133511 89.2792366,31.5932748 89.120458,31.4791527 C88.6044275,31.1099924 88.0864122,30.7477786 87.5594656,30.4044198 L89.2722901,27.7756412 Z M47.5066641,24.1269084 L48.7535725,27.0404962 C46.4433435,28.0249237 44.2025802,29.225687 42.0689924,30.6487405 L42.0689924,30.6497328 L40.3224275,28.033855 C42.5800611,26.5214885 44.9835725,25.2115649 47.5061679,24.1269084 L47.5066641,24.1269084 Z M106.688122,25.0969466 C108.139954,25.0969466 109.316901,26.2748855 109.316901,27.7267176 C109.316901,29.1785496 108.139954,30.3545038 106.688122,30.3545038 C105.23629,30.3545038 104.059344,29.1785496 104.059344,27.7267176 C104.059344,26.2748855 105.23629,25.0969466 106.688122,25.0969466 Z M73.6927328,21.3945267 C76.4038779,21.9333817 79.0207481,22.7262824 81.5304427,23.7365115 L80.3574656,26.6639924 L80.3564733,26.6639924 C77.9876947,25.7192595 75.5474656,25.0017786 73.0715115,24.512542 L73.6927328,21.3945267 Z M65,20.5358321 L65,23.7173588 C62.1459542,23.7173588 59.2958779,24.0200305 56.4934351,24.6065191 L56.4914504,24.6065191 L55.8364885,21.4894962 C58.7947328,20.8682748 61.8571756,20.5358321 64.9990076,20.5358321 L65,20.5358321 Z M78.2370763,3.45145038 C84.8323435,4.86259542 91.0386031,7.31076336 96.6901298,10.6103817 L90.7488321,20.8049618 L90.7508168,20.8069466 C88.6023435,19.5516031 86.3566183,18.4470992 84.0225725,17.5132824 C81.3709695,16.4484733 78.6032595,15.6129008 75.7531832,15.0025954 L78.2370763,3.45145038 Z M52.4170916,8.00770229 C53.8689237,8.00770229 55.0468626,9.18564122 55.0468626,10.6374733 C55.0468626,12.0893053 53.8689237,13.2672443 52.4170916,13.2672443 C50.9652595,13.2672443 49.7873206,12.0893053 49.7873206,10.6374733 C49.7873206,9.18564122 50.9652595,8.00770229 52.4170916,8.00770229 Z" id="Combined-Shape" fill="#FFFFFF"></path>
            <path d="M92.2221985,34.5026947 L92.6469313,34.314145 L92.2221985,34.5026947 Z M64.9996031,20.6214733 C61.9639542,20.6214733 58.8886107,20.9420076 55.858916,21.5761298 C53.0157863,22.1695649 50.2163206,23.0497939 47.5399084,24.1920076 C45.0183053,25.2667405 42.598916,26.5726947 40.3502137,28.0731527 C37.9238779,29.6956718 35.6563206,31.5563588 33.6060916,33.6046031 C31.4397557,35.7729237 29.4897557,38.1754427 27.8096794,40.7486489 C26.2169313,43.1938397 24.8653282,45.7988015 23.7896031,48.4960534 C22.7813588,51.0206336 22.0023511,53.6553664 21.4744122,56.3278092 C20.907771,59.1907863 20.6209771,62.1093359 20.6209771,65.0010916 C20.6209771,68.0357481 20.9415115,71.1110916 21.5746412,74.1417786 C22.1700611,76.9868931 23.0492977,79.7853664 24.1905191,82.4617786 C25.268229,84.9863588 26.5741832,87.4037634 28.0736489,89.6504809 C28.388229,90.1208626 28.7425038,90.6249847 29.187084,91.232313 C29.268458,91.3444504 29.3557863,91.4595649 29.4441069,91.5756718 L29.5423511,91.7066641 C29.8261679,92.0837634 30.1179237,92.4598702 30.4106718,92.8230763 L30.4513588,92.8746794 C30.5704427,93.022542 30.6885344,93.1704046 30.8105954,93.3162824 C31.188687,93.7737634 31.5767023,94.2242977 31.9597557,94.653 C32.5383053,95.2960534 33.0741832,95.863687 33.6021221,96.3926183 C35.7714351,98.5619313 38.1759389,100.511931 40.749145,102.190023 C43.1814351,103.777809 45.7873893,105.130405 48.4935725,106.212084 C51.0231145,107.220328 53.6578473,107.998344 56.327313,108.52529 C59.1883053,109.092924 62.1058626,109.379718 65.0005954,109.379718 C68.0372366,109.379718 71.1135725,109.058191 74.1412824,108.425061 C76.9834198,107.831626 79.7828855,106.950405 82.4602901,105.809183 C84.9928092,104.728496 87.4112061,103.422542 89.6499847,101.925061 C92.0713588,100.309489 94.3409008,98.4488015 96.3941069,96.3955954 C98.5614351,94.2272748 100.511435,91.8237634 102.189527,89.2495649 C103.779298,86.8172748 105.131893,84.2103282 106.211588,81.5051374 C107.217847,78.9835344 107.996855,76.3488015 108.526779,73.6753664 C109.091435,70.814374 109.378229,67.8968168 109.378229,65.0010916 C109.378229,61.9664351 109.057695,58.8910916 108.424565,55.8604046 C107.830137,53.0133053 106.949908,50.2148321 105.809679,47.5413969 C104.732962,45.0168168 103.427008,42.5984198 101.925557,40.3507099 C101.589145,39.8485725 101.226931,39.3335344 100.813115,38.7678855 C100.730748,38.6567405 100.644412,38.541626 100.558076,38.4265115 L100.45884,38.2945267 C100.171053,37.913458 99.8822748,37.542313 99.5934962,37.1840687 L99.5240305,37.0967405 C99.4128855,36.9588015 99.3017405,36.8188779 99.1886107,36.6829237 C98.8194504,36.2383435 98.4731145,35.8344504 98.1327328,35.4533817 L98.0821221,35.3968168 L98.0553282,35.3660534 L97.9590687,35.2549084 L97.9312824,35.2211679 L97.9025038,35.1894122 C97.4083053,34.6446031 96.9002137,34.1117023 96.3941069,33.6055954 C96.0011298,33.2126183 95.6041832,32.8305573 95.2102137,32.464374 L95.1863969,32.412771 L94.6495267,31.9552901 L94.558229,31.8768931 L94.558229,31.8768931 C94.4063969,31.7409389 94.2535725,31.6069695 94.0997557,31.4739924 C94.097771,31.473 94.0967786,31.4710153 94.0957863,31.4700229 C93.7861679,31.202084 93.4616641,30.9291832 93.1302137,30.6592595 C92.957542,30.5173511 92.7818931,30.3774275 92.6072366,30.2404809 C92.2599084,29.9626183 91.8907481,29.6788015 91.4451756,29.3463588 L91.4352519,29.3394122 L91.4243359,29.3324656 C91.3697557,29.2917786 91.3141832,29.2500992 91.2586107,29.2094122 C91.1474656,29.1260534 91.0353282,29.0426947 90.9221985,28.962313 C90.2940305,28.5107863 89.7621221,28.1446031 89.2510534,27.8111679 C86.8207481,26.224374 84.2147939,24.8707863 81.5046412,23.7891069 C78.9760916,22.7808626 76.3413588,22.0028473 73.6718931,21.4749084 C70.8118931,20.9082672 67.8933435,20.6214733 64.9996031,20.6214733 L64.9996031,20.6214733 Z M92.0683817,33.8110153 C92.2122748,33.9360534 92.3571603,34.062084 92.5000611,34.1900992 C92.3571603,34.062084 92.2122748,33.9360534 92.0683817,33.8110153 L92.0683817,33.8110153 Z M34.257084,92.5769695 C33.9067786,92.1839924 33.5654046,91.7860534 33.2309771,91.3851374 C33.5654046,91.7860534 33.9057863,92.1839924 34.257084,92.5769695 L34.257084,92.5769695 Z M32.7467023,90.7847557 C32.5521985,90.5386489 32.3596794,90.2905573 32.1681527,90.043458 C32.3596794,90.2905573 32.5512061,90.5406336 32.7467023,90.7847557 L32.7467023,90.7847557 Z M31.5945649,89.2763588 C31.5201374,89.1721603 31.448687,89.0659771 31.3742595,88.962771 C31.448687,89.0679618 31.5201374,89.1721603 31.5945649,89.2763588 L31.5945649,89.2763588 Z M98.6219695,41.0354427 C98.5495267,40.9322366 98.4790687,40.8290305 98.4056336,40.7258244 C98.4790687,40.8290305 98.5495267,40.9322366 98.6219695,41.0354427 L98.6219695,41.0354427 Z M97.8290687,39.9577328 C97.6405191,39.7096412 97.4489924,39.4615496 97.2534962,39.2174275 C97.4489924,39.4615496 97.6405191,39.7096412 97.8290687,39.9577328 L97.8290687,39.9577328 Z M90.5857863,32.5904046 C90.3257863,32.3859771 90.0638015,32.1855191 89.8008244,31.9890305 C90.0638015,32.1855191 90.3257863,32.3859771 90.5857863,32.5904046 L90.5857863,32.5904046 Z M88.9841069,31.3846794 C88.878916,31.3102519 88.7717405,31.2407863 88.6665496,31.1663588 C88.7717405,31.2407863 88.878916,31.3102519 88.9841069,31.3846794 L88.9841069,31.3846794 Z M64.9996031,23.7176565 C67.7047939,23.7176565 70.4089924,23.9846031 73.0705191,24.512542 C75.5474656,25.0017786 77.9876947,25.7192595 80.3564733,26.6639924 C82.8492977,27.6593359 85.2627328,28.9037634 87.5580763,30.403229 C88.0850229,30.7475802 88.6040305,31.1097939 89.1200611,31.4789542 C89.2788397,31.5930763 89.436626,31.7131527 89.5954046,31.8292595 C89.9625802,32.1031527 90.3257863,32.3800229 90.6850229,32.6668168 C90.847771,32.7948321 91.0095267,32.9248321 91.1712824,33.0568168 C91.4719695,33.3029237 91.7716641,33.5539924 92.0683817,33.8110153 C91.7885344,33.5688779 91.5057099,33.3307099 91.2209008,33.0975038 C91.5057099,33.3307099 91.7885344,33.5688779 92.0683817,33.8110153 C92.2162443,33.9400229 92.3650992,34.0700229 92.5119695,34.2020076 L92.6439542,34.314145 L92.6449466,34.3161298 L92.6439542,34.314145 L92.6449466,34.3161298 C93.1758626,34.7914733 93.6948702,35.2856718 94.2049466,35.7947557 C94.688229,36.2790305 95.1556336,36.7702519 95.609145,37.2704046 L95.7341832,37.4162824 C95.7599847,37.4450611 95.7867786,37.4748321 95.8135725,37.5046031 C96.1390687,37.8707863 96.4576183,38.2429237 96.7672366,38.6170458 C96.4586107,38.2429237 96.1430382,37.8747557 95.8185344,37.5105573 C96.1569313,37.8886489 96.4854046,38.273687 96.8079237,38.6626947 C96.9339542,38.8145267 97.0570076,38.9693359 97.1800611,39.1231527 C97.4529618,39.4635344 97.7199084,39.8059008 97.9818931,40.1512443 C98.0930382,40.3010916 98.2061679,40.4489542 98.3163206,40.5988015 C98.6715878,41.0840687 99.018916,41.5733053 99.3513588,42.0694885 C100.776397,44.2040687 101.976168,46.4448321 102.961588,48.7550611 C104.030366,51.2637634 104.842122,53.8558244 105.393878,56.4935344 C105.979374,59.2969695 106.282046,62.1470458 106.282046,65.0010916 C106.282046,67.7052901 106.015099,70.4104809 105.489145,73.0739924 C104.998916,75.5509389 104.280443,77.9901756 103.33571,80.3579618 C102.341359,82.8497939 101.094947,85.263229 99.5964733,87.5585725 C98.0622748,89.9114733 96.2680763,92.142313 94.2049466,94.2064351 C92.2509771,96.1584198 90.1451756,97.8722366 87.9302137,99.3508626 C85.796626,100.777885 83.556855,101.975672 81.2456336,102.961092 C78.7369313,104.030863 76.1458626,104.842618 73.5081527,105.394374 C70.7047176,105.980863 67.8526565,106.283534 65.0005954,106.283534 C62.2944122,106.283534 59.5912061,106.015595 56.9276947,105.488649 C54.4507481,104.999412 52.0115115,104.280939 49.6417405,103.337198 C47.1499084,102.341855 44.7364733,101.096435 42.4401374,99.5969695 C40.088229,98.062771 37.8573893,96.2695649 35.7942595,94.2064351 C35.267313,93.6784962 34.7612061,93.1366641 34.268,92.5888779 C33.8998321,92.1780382 33.5415878,91.7612443 33.1912824,91.3375038 C33.0652519,91.1866641 32.9441832,91.0328473 32.8211298,90.8790305 C32.5462443,90.5386489 32.2792977,90.1952901 32.0192977,89.8489542 C31.9071603,89.6991069 31.7940305,89.5512443 31.6848702,89.4023893 C31.3286107,88.9171221 30.9802901,88.4278855 30.6488397,87.9307099 C29.2238015,85.7961298 28.0240305,83.5563588 27.0386107,81.2471221 C25.9688397,78.7374275 25.157084,76.1463588 24.6053282,73.5086489 C24.0198321,70.7052137 23.7171603,67.8531527 23.7171603,65.0010916 C23.7171603,62.2949084 23.9850992,59.5917023 24.5110534,56.9291832 C25.0012824,54.4522366 25.7187634,52.013 26.6644885,49.6422366 C27.6578473,47.1523893 28.9052519,44.7389542 30.4027328,42.441626 C31.9379237,40.0887252 33.7321221,37.8578855 35.7942595,35.7947557 C37.7492214,33.8417786 39.8540305,32.1299466 42.0689924,30.6493359 C44.2025802,29.2252901 46.4433435,28.0255191 48.7545649,27.0391069 C51.2622748,25.9693359 53.8553282,25.1575802 56.4930382,24.6068168 C59.2954809,24.0203282 62.1455573,23.7176565 64.9996031,23.7176565 L64.9996031,23.7176565 Z" id="Fill-59" fill-opacity="0.5" fill="#000000" style="mix-blend-mode: overlay;"></path>
        </g>
        <g id="Coin/TXS" transform="translate(23.000000, 23.000000)">
            <path d="M84,42 C84,65.1956308 65.1956308,84 42,84 C18.8043692,84 0,65.1956308 0,42 C0,18.8043692 18.8043692,0 42,0 C65.1956308,0 84,18.8043692 84,42" id="Fill-1" fill="#417505"></path>
            <g id="Group-2" stroke-width="1" transform="translate(14.318182, 14.318182)">
                <polygon id="Triangle" fill="#FFFFFF" points="27.6818182 7.10542736e-15 55.3636364 47.7272727 0 47.7272727"></polygon>
                <path d="M27.6818182,15.2727273 L32.4536364,23.6477273 L42,23.6480938 L37.1256364,31.8447273 L42,40.398827 L32.0386364,40.3987273 L27.6818182,47.7272727 L23.3246364,40.3987273 L13.3636364,40.398827 L18.2376364,31.8447273 L13.3636364,23.6480938 L22.9096364,23.6477273 L27.6818182,15.2727273 Z M29.6446364,40.3987273 L25.7186364,40.3987273 L27.6818182,43.7002433 L29.6446364,40.3987273 Z M21.7156364,25.7417273 L17.0032847,25.7419355 L19.4096364,29.7887273 L21.7156364,25.7417273 Z M38.3603516,25.7419355 L33.6476364,25.7417273 L35.9536364,29.7887273 L38.3603516,25.7419355 Z" id="Combined-Shape" fill="#417505" fill-rule="nonzero"></path>
            </g>
        </g>
    </g>
</svg>