<?xml version="1.0" encoding="UTF-8"?>
<svg width="375px" height="62px" viewBox="0 0 375 62" version="1.1" xmlns="http://www.w3.org/2000/svg" xmlns:xlink="http://www.w3.org/1999/xlink">
    <title>Banner</title>
    <g id="Banner" stroke="none" stroke-width="1" fill="none" fill-rule="evenodd">
        <rect id="Rectangle" fill="#FFFFFF" x="0" y="0" width="375" height="62"></rect>
        <path d="M81.375,40.2929688 L81.375,39.2265625 L73.7460938,39.2265625 L73.7460938,35.2890625 L80.1445312,35.2890625 L80.1445312,34.140625 L73.7460938,34.140625 L73.7460938,30.3671875 L78.5039062,30.3671875 C78.6132812,30.5859375 78.75,30.8320312 78.9140625,31.1054688 L78.9140625,31.1054688 L81.5390625,28.9726562 C79.4609375,26.4570312 76.453125,24.9257812 72.515625,24.3789062 C72.84375,23.6679688 73.1445312,22.984375 73.4179688,22.328125 L73.4179688,22.328125 L69.9726562,22.328125 C69.9179688,22.546875 69.78125,22.9023438 69.5625,23.3945312 C69.3984375,23.8320312 69.2617188,24.1875 69.1523438,24.4609375 C65.4882812,25.171875 63.4375,26.7304688 63,29.1367188 C63,30.3945312 63.546875,31.0234375 64.640625,31.0234375 C65.3515625,31.0234375 66.1171875,30.8046875 66.9375,30.3671875 L66.9375,30.3671875 L70.6289062,30.3671875 L70.6289062,34.140625 L64.3125,34.140625 L64.3125,35.2890625 L70.6289062,35.2890625 L70.6289062,39.2265625 L63.0820312,39.2265625 L63.0820312,40.2929688 L81.375,40.2929688 Z M64.3125,30.203125 C63.7109375,30.203125 63.4101562,29.875 63.4101562,29.21875 C63.9023438,27.0859375 65.734375,25.6640625 68.90625,24.953125 C68.3046875,26.1015625 67.703125,27.1132812 67.1015625,27.9882812 C66.0078125,29.4101562 65.078125,30.1484375 64.3125,30.203125 Z M77.6835938,29.21875 L68.7421875,29.21875 C69.34375,28.7265625 69.890625,28.2070312 70.3828125,27.6601562 C70.984375,27.0039062 71.53125,26.2109375 72.0234375,25.28125 C74.265625,26.1015625 76.1523438,27.4140625 77.6835938,29.21875 L77.6835938,29.21875 Z M99.75,25.3632812 C100.1875,25.2539062 100.679688,24.9804688 101.226562,24.5429688 C101.664062,24.1601562 101.71875,23.6953125 101.390625,23.1484375 C101.007812,22.765625 100.625,22.3828125 100.242188,22 L100.242188,22 L98.3554688,23.3125 C98.5195312,23.421875 98.8203125,23.6953125 99.2578125,24.1328125 C99.421875,24.3515625 99.53125,24.4882812 99.5859375,24.5429688 C99.75,24.7617188 99.7226562,24.9257812 99.5039062,25.0351562 L99.5039062,25.0351562 L99.75,25.3632812 Z M95.5664062,40.8671875 C96.9882812,40.8125 97.7265625,40.0742188 97.78125,38.6523438 L97.78125,38.6523438 L97.78125,26.59375 L102.210938,26.59375 L102.210938,25.4453125 L97.78125,25.4453125 L97.78125,22.4921875 L94.9101562,22.4921875 L94.9101562,25.4453125 L90.5625,25.4453125 L90.5625,26.59375 L94.9101562,26.59375 L94.9101562,32.828125 C93.1054688,33.921875 91.7929688,34.6054688 90.9726562,34.8789062 C92.3398438,33.4570312 93.40625,32.3085938 94.171875,31.4335938 C94.6640625,30.8320312 94.71875,30.2304688 94.3359375,29.6289062 C94.1171875,29.3007812 93.625,28.7265625 92.859375,27.90625 C92.75,27.7421875 92.6679688,27.6328125 92.6132812,27.578125 L92.6132812,27.578125 L90.5625,29.1367188 C91.328125,30.0117188 92.0117188,30.859375 92.6132812,31.6796875 C92.8867188,32.0625 92.859375,32.4179688 92.53125,32.7460938 C91.3828125,34.0039062 90.5898438,34.8242188 90.1523438,35.2070312 L90.1523438,35.2070312 L90.4804688,36.1914062 C89.9882812,36.3554688 89.4960938,36.4648438 89.0039062,36.5195312 L89.0039062,36.5195312 L89.0039062,30.6953125 L90.4804688,30.6953125 L90.4804688,29.546875 L89.0039062,29.546875 L89.0039062,24.0507812 L90.9726562,24.0507812 L90.9726562,22.9023438 L84,22.9023438 L84,24.0507812 L86.0507812,24.0507812 L86.0507812,29.546875 L84.328125,29.546875 L84.328125,30.6953125 L86.0507812,30.6953125 L86.0507812,37.0117188 C84.9570312,37.1210938 84.21875,37.1757812 83.8359375,37.1757812 L83.8359375,37.1757812 L84.7382812,40.4570312 C87.4726562,39.0351562 89.4414062,37.859375 90.6445312,36.9296875 L90.6445312,36.9296875 L91.1367188,38.6523438 C92.2851562,37.5585938 93.5429688,36.0273438 94.9101562,34.0585938 L94.9101562,34.0585938 L94.9101562,38.8164062 C94.7460938,39.8007812 94.1171875,39.828125 93.0234375,38.8984375 L93.0234375,38.8984375 L92.6132812,39.1445312 C93.4882812,40.2929688 94.4726562,40.8671875 95.5664062,40.8671875 Z M99.5859375,38.5703125 L102.375,37.5859375 C102.046875,35.3984375 101.636719,33.6484375 101.144531,32.3359375 C101.582031,31.1875 101.9375,29.65625 102.210938,27.7421875 L102.210938,27.7421875 L99.8320312,27.7421875 C99.7773438,28.671875 99.6953125,29.4648438 99.5859375,30.1210938 C99.53125,30.0664062 99.421875,30.0390625 99.2578125,30.0390625 C98.6015625,30.1484375 98.21875,30.9414062 98.109375,32.4179688 C98.109375,33.7304688 98.4648438,34.4140625 99.1757812,34.46875 C99.2304688,34.46875 99.3125,34.4414062 99.421875,34.3867188 L99.421875,34.3867188 L99.6679688,34.3867188 C99.6679688,35.5351562 99.640625,36.9296875 99.5859375,38.5703125 L99.5859375,38.5703125 Z M98.765625,33.484375 C98.4921875,33.375 98.3828125,33.046875 98.4375,32.5 C98.546875,31.3515625 98.7109375,30.7773438 98.9296875,30.7773438 C99.09375,30.7773438 99.2304688,31.1054688 99.3398438,31.7617188 C99.0664062,32.9101562 98.875,33.484375 98.765625,33.484375 Z M109.921875,40.7851562 C110.632812,40.3476562 111.152344,39.9648438 111.480469,39.6367188 C112.136719,39.0351562 112.109375,38.3515625 111.398438,37.5859375 C111.179688,37.2578125 110.933594,36.984375 110.660156,36.765625 C111.972656,35.5625 112.902344,34.5507812 113.449219,33.7304688 C113.941406,33.0195312 113.996094,32.4179688 113.613281,31.9257812 C113.449219,31.5976562 113.011719,31.4335938 112.300781,31.4335938 L112.300781,31.4335938 L110.742188,31.4335938 C111.234375,30.9960938 111.425781,30.6132812 111.316406,30.2851562 C111.152344,29.7382812 110.769531,28.890625 110.167969,27.7421875 L110.167969,27.7421875 L108.691406,28.3164062 C109.292969,27.2226562 109.757812,25.9648438 110.085938,24.5429688 L110.085938,24.5429688 L110.167969,24.625 C111.207031,25.9921875 111.78125,28.0703125 111.890625,30.859375 L111.890625,30.859375 L114.351562,29.4648438 C113.859375,27.2773438 113.09375,25.6367188 112.054688,24.5429688 C111.507812,24.0507812 110.90625,23.6953125 110.25,23.4765625 C110.359375,23.1484375 110.414062,22.8203125 110.414062,22.4921875 L110.414062,22.4921875 L107.460938,22.4921875 C107.460938,22.9296875 107.433594,23.3945312 107.378906,23.8867188 C105.738281,25.1445312 104.945312,26.8671875 105,29.0546875 C105.054688,30.09375 105.464844,30.6132812 106.230469,30.6132812 C106.832031,30.6132812 107.40625,30.2304688 107.953125,29.4648438 C108.226562,29.9570312 108.445312,30.4765625 108.609375,31.0234375 C108.71875,31.1328125 108.746094,31.1601562 108.691406,31.1054688 C108.746094,31.2695312 108.773438,31.3789062 108.773438,31.4335938 L108.773438,31.4335938 L105.246094,31.4335938 L105.246094,32.5 L110.578125,32.5 C110.851562,32.5 110.90625,32.6640625 110.742188,32.9921875 C110.46875,33.8671875 110.058594,34.6875 109.511719,35.453125 C109.449219,35.390625 109.380022,35.3214286 109.304129,35.2455357 L108.609375,34.5507812 C108.171875,34.1132812 107.84375,33.8125 107.625,33.6484375 L107.625,33.6484375 L105.492188,35.3710938 C106.257812,36.0820312 107.597656,37.421875 109.511719,39.390625 C109.785156,39.71875 109.757812,40.046875 109.429688,40.375 L109.429688,40.375 L109.921875,40.7851562 Z M116.730469,35.6171875 L116.730469,27.0859375 L120.421875,27.0859375 C120.914062,27.0859375 121.132812,27.359375 121.078125,27.90625 L121.078125,27.90625 L121.078125,35.6171875 L123.128906,35.6171875 L123.128906,28.0703125 C123.128906,26.703125 122.308594,26.0195312 120.667969,26.0195312 L120.667969,26.0195312 L120.011719,26.0195312 C120.066406,25.8007812 120.148438,25.4726562 120.257812,25.0351562 C120.367188,24.5976562 120.449219,24.296875 120.503906,24.1328125 L120.503906,24.1328125 L123.375,24.1328125 L123.375,22.984375 L114.433594,22.984375 L114.433594,24.1328125 L117.632812,24.1328125 C117.578125,24.734375 117.414062,25.3632812 117.140625,26.0195312 L117.140625,26.0195312 L114.679688,26.0195312 L114.679688,35.6171875 L116.730469,35.6171875 Z M105.737,29.8865356 L105.65625,29.875 C105.492188,29.765625 105.382812,29.4921875 105.328125,29.0546875 C105.328125,27.25 105.875,25.7734375 106.96875,24.625 C107.023438,24.5703125 107.105469,24.515625 107.214844,24.4609375 C107.269531,24.40625 107.324219,24.3789062 107.378906,24.3789062 C106.996094,26.8945312 106.613281,28.5898438 106.230469,29.4648438 C106.066406,29.7929688 105.875,29.9296875 105.65625,29.875 L105.737,29.8865356 Z M120.75,40.4570312 L123.457031,39.0625 C122.582031,37.53125 121.40625,36.5195312 119.929688,36.0273438 C120.148438,34.8242188 120.257812,33.1289062 120.257812,30.9414062 L120.257812,30.9414062 L120.257812,27.9882812 L117.550781,27.9882812 L117.550781,32.5 C117.605469,33.8125 117.550781,34.90625 117.386719,35.78125 C115.964844,35.9453125 114.84375,36.5742188 114.023438,37.6679688 C113.421875,38.5976562 113.421875,39.4179688 114.023438,40.1289062 C115.0625,40.6210938 116.183594,40.5117188 117.386719,39.8007812 C118.480469,39.0351562 119.191406,38.1875 119.519531,37.2578125 C120.175781,37.96875 120.585938,39.0351562 120.75,40.4570312 L120.75,40.4570312 Z M116.074219,39.1445312 C115.417969,39.8007812 114.816406,39.9375 114.269531,39.5546875 C113.832031,39.28125 113.832031,38.7890625 114.269531,38.078125 C114.871094,37.0390625 115.910156,36.4375 117.386719,36.2734375 C117.167969,37.6953125 116.730469,38.6523438 116.074219,39.1445312 Z M142.160156,40.2929688 C143.089844,40.2382812 143.746094,39.6914062 144.128906,38.6523438 C144.402344,37.8320312 144.539062,36.9570312 144.539062,36.0273438 L144.539062,36.0273438 L143.882812,36.0273438 C143.71875,37.0664062 143.335938,37.5859375 142.734375,37.5859375 L142.734375,37.5859375 L140.273438,37.5859375 C140,37.53125 139.835938,37.3671875 139.78125,37.09375 L139.78125,37.09375 L139.78125,34.8789062 C139.671875,33.7851562 138.988281,33.1289062 137.730469,32.9101562 C136.691406,32.7460938 135.625,32.6914062 134.53125,32.7460938 C134.585938,32.4179688 134.613281,32.0351562 134.613281,31.5976562 L134.613281,31.5976562 L144.539062,31.5976562 L144.539062,30.4492188 L136.910156,30.4492188 L136.910156,26.3476562 L143.0625,26.3476562 L143.0625,25.28125 L136.910156,25.28125 L136.910156,22.4101562 L133.875,22.4101562 L133.875,25.28125 L132.070312,25.28125 C132.179688,24.625 132.234375,23.96875 132.234375,23.3125 L132.234375,23.3125 L129.28125,23.3125 L129.28125,23.3125 L129.28125,25.3632812 C127.640625,25.8007812 126.65625,26.6757812 126.328125,27.9882812 C126.21875,29.1367188 126.710938,29.875 127.804688,30.203125 C129.226562,30.1484375 130.347656,29.4921875 131.167969,28.234375 C131.496094,27.7421875 131.742188,27.1132812 131.90625,26.3476562 L131.90625,26.3476562 L133.875,26.3476562 L133.875,30.4492188 L126.246094,30.4492188 L126.246094,31.5976562 L131.578125,31.5976562 C131.578125,32.1445312 131.550781,32.6914062 131.496094,33.2382812 C130.730469,33.4023438 130.046875,33.703125 129.445312,34.140625 C127.695312,35.234375 126.628906,36.6015625 126.246094,38.2421875 C126.082031,39.5 126.65625,40.1835938 127.96875,40.2929688 C129.773438,40.2382812 131.359375,39.5820312 132.726562,38.3242188 C133.710938,37.1210938 134.285156,35.4804688 134.449219,33.4023438 C135.050781,33.4023438 135.625,33.4296875 136.171875,33.484375 C136.554688,33.6484375 136.773438,33.921875 136.828125,34.3046875 L136.828125,34.3046875 L136.828125,38.40625 C137.101562,39.4453125 137.785156,40.0742188 138.878906,40.2929688 L138.878906,40.2929688 L142.160156,40.2929688 Z M128.707031,28.3984375 C128.378906,29.21875 127.914062,29.546875 127.3125,29.3828125 C126.820312,29.1640625 126.683594,28.6992188 126.902344,27.9882812 C127.175781,27.2226562 127.914062,26.703125 129.117188,26.4296875 C129.007812,27.140625 128.871094,27.796875 128.707031,28.3984375 Z M127.640945,39.3941498 L127.476562,39.390625 C126.875,39.2265625 126.628906,38.8164062 126.738281,38.1601562 C127.121094,36.6289062 128.105469,35.3710938 129.691406,34.3867188 C130.238281,34.1132812 130.839844,33.8945312 131.496094,33.7304688 C131.222656,35.7539062 130.785156,37.1210938 130.183594,37.8320312 C129.253906,38.9257812 128.351562,39.4453125 127.476562,39.390625 L127.640945,39.3941498 Z M162.667969,40.4570312 L165.457031,38.5703125 C164.691406,36.875 164.0625,35.6171875 163.570312,34.796875 C164.335938,32.5 164.746094,29.65625 164.800781,26.265625 L164.800781,26.265625 L165.457031,26.265625 L165.457031,25.1992188 L161.519531,25.1992188 C161.683594,24.4882812 161.792969,23.5585938 161.847656,22.4101562 L161.847656,22.4101562 L158.894531,22.4101562 C158.894531,23.8320312 158.867188,24.8164062 158.8125,25.3632812 C157.445312,25.8007812 156.734375,26.7578125 156.679688,28.234375 C156.734375,29.6015625 157.28125,30.3125 158.320312,30.3671875 C159.25,30.3125 159.988281,29.6835938 160.535156,28.4804688 C160.863281,27.7148438 161.109375,26.9765625 161.273438,26.265625 L161.273438,26.265625 L161.929688,26.265625 C161.875,28.5078125 161.710938,30.4492188 161.4375,32.0898438 C160.726562,31.2695312 159.960938,30.8867188 159.140625,30.9414062 C157.773438,31.3242188 157.007812,32.8554688 156.84375,35.5351562 C156.789062,38.7070312 157.5,40.3203125 158.976562,40.375 C159.960938,40.3203125 160.753906,39.8554688 161.355469,38.9804688 C161.574219,38.8710938 161.792969,38.5976562 162.011719,38.1601562 C162.011719,38.1054688 162.039062,38.0507812 162.09375,37.9960938 C162.367188,38.7617188 162.558594,39.5820312 162.667969,40.4570312 L162.667969,40.4570312 Z M155.203125,32.0898438 L156.925781,30.0390625 C156.269531,29.1640625 155.339844,28.5625 154.136719,28.234375 C154.082031,28.234375 154,28.2070312 153.890625,28.1523438 C153.726562,28.1523438 153.617188,28.125 153.5625,28.0703125 L153.5625,28.0703125 L153.5625,27.25 L156.351562,27.25 L156.351562,26.1835938 L153.5625,26.1835938 L153.5625,23.8046875 C153.671875,23.75 153.835938,23.6953125 154.054688,23.640625 C154.273438,23.53125 154.4375,23.4765625 154.546875,23.4765625 C154.65625,23.421875 154.738281,23.421875 154.792969,23.4765625 C154.847656,23.53125 154.847656,23.6132812 154.792969,23.7226562 C154.574219,24.1601562 154.246094,24.6523438 153.808594,25.1992188 L153.808594,25.1992188 L155.941406,25.8554688 C156.871094,24.7070312 157.089844,23.859375 156.597656,23.3125 C156.214844,22.765625 155.613281,22.6289062 154.792969,22.9023438 C154.410156,23.0664062 154,23.2578125 153.5625,23.4765625 L153.5625,23.4765625 L153.5625,22.4101562 L150.773438,22.4101562 L150.773438,24.5429688 C150.773438,24.5429688 150.746094,24.5703125 150.691406,24.625 C150.472656,24.6796875 150.308594,24.625 150.199219,24.4609375 C149.980469,23.96875 149.789062,23.3945312 149.625,22.7382812 L149.625,22.7382812 L147.328125,23.3125 C147.492188,24.1875 147.710938,24.8984375 147.984375,25.4453125 C148.3125,25.828125 148.667969,25.9101562 149.050781,25.6914062 C149.324219,25.6367188 149.707031,25.4726562 150.199219,25.1992188 C150.472656,25.0898438 150.664062,25.0078125 150.773438,24.953125 L150.773438,24.953125 L150.773438,26.1835938 L147.328125,26.1835938 L147.328125,27.25 L148.394531,27.25 C148.394531,27.796875 148.367188,28.2890625 148.3125,28.7265625 C147.492188,29.328125 147.054688,29.984375 147,30.6953125 C147.054688,31.4609375 147.4375,31.8710938 148.148438,31.9257812 C148.695312,31.8710938 149.160156,31.5976562 149.542969,31.1054688 C149.980469,30.5585938 150.226562,29.65625 150.28125,28.3984375 C150.445312,28.3984375 150.609375,28.3710938 150.773438,28.3164062 L150.773438,28.3164062 L150.773438,31.0234375 L153.5625,31.0234375 L153.5625,29.21875 C154.21875,29.8203125 154.765625,30.7773438 155.203125,32.0898438 L155.203125,32.0898438 Z M157.728958,29.2223958 L157.664062,29.21875 C157.226562,29.21875 157.007812,28.8632812 157.007812,28.1523438 C157.007812,27.0585938 157.582031,26.4570312 158.730469,26.3476562 C158.730469,26.5117188 158.703125,26.7304688 158.648438,27.0039062 C158.59375,27.3320312 158.539062,27.578125 158.484375,27.7421875 C158.265625,28.78125 157.992188,29.2734375 157.664062,29.21875 L157.728958,29.2223958 Z M150.28125,27.9882812 L150.28125,27.25 L150.773438,27.25 L150.773438,27.90625 L150.773438,27.90625 L150.527344,27.90625 C150.417969,27.9609375 150.335938,27.9882812 150.28125,27.9882812 L150.28125,27.9882812 Z M147.738281,31.1054688 C147.464844,31.1601562 147.328125,31.0234375 147.328125,30.6953125 C147.4375,30.09375 147.765625,29.6015625 148.3125,29.21875 C148.3125,29.765625 148.257812,30.2304688 148.148438,30.6132812 C148.039062,30.9414062 147.902344,31.1054688 147.738281,31.1054688 Z M147.738281,40.4570312 C149.925781,39.8007812 151.675781,39.1171875 152.988281,38.40625 C153.589844,38.734375 154.246094,39.3632812 154.957031,40.2929688 L154.957031,40.2929688 L156.84375,38.2421875 C156.570312,38.0234375 156.160156,37.7773438 155.613281,37.5039062 C155.230469,37.2851562 154.957031,37.1210938 154.792969,37.0117188 C155.339844,36.5195312 155.777344,36 156.105469,35.453125 C156.542969,34.8515625 156.597656,34.2226562 156.269531,33.5664062 C155.886719,33.0195312 155.257812,32.7734375 154.382812,32.828125 L154.382812,32.828125 L152.414062,32.828125 C152.578125,32.390625 152.714844,31.9257812 152.824219,31.4335938 L152.824219,31.4335938 L149.871094,31.4335938 C149.871094,31.5976562 149.84375,31.84375 149.789062,32.171875 C149.789062,32.4453125 149.761719,32.6640625 149.707031,32.828125 L149.707031,32.828125 L147.410156,32.828125 L147.410156,33.9765625 L149.542969,33.9765625 C149.542969,34.0859375 149.488281,34.25 149.378906,34.46875 C149.324219,34.7421875 149.269531,34.9335938 149.214844,35.0429688 C147.847656,34.9335938 147.136719,35.4257812 147.082031,36.5195312 C147.082031,37.2851562 147.410156,37.6953125 148.066406,37.75 C148.667969,37.75 149.433594,37.3398438 150.363281,36.5195312 C150.746094,36.6835938 151.074219,36.875 151.347656,37.09375 C151.457031,37.203125 151.566406,37.2851562 151.675781,37.3398438 C150.527344,38.2695312 149.132812,39.1171875 147.492188,39.8828125 L147.492188,39.8828125 L147.738281,40.4570312 Z M158.320312,39.1445312 C157.554688,38.9804688 157.199219,37.7773438 157.253906,35.5351562 C157.363281,33.6210938 157.855469,32.5 158.730469,32.171875 C159.496094,32.2265625 160.234375,33.0195312 160.945312,34.5507812 C160.726562,35.5898438 160.398438,36.546875 159.960938,37.421875 C159.414062,38.5703125 158.867188,39.1445312 158.320312,39.1445312 Z M152.824219,36.0273438 C152.222656,35.8085938 151.8125,35.6445312 151.59375,35.5351562 C151.375,35.4804688 151.238281,35.453125 151.183594,35.453125 C151.511719,34.90625 151.785156,34.4140625 152.003906,33.9765625 L152.003906,33.9765625 L153.644531,33.9765625 C153.808594,33.9765625 153.917969,34.0039062 153.972656,34.0585938 C154.027344,34.1679688 154,34.2773438 153.890625,34.3867188 C153.617188,34.9882812 153.261719,35.5351562 152.824219,36.0273438 Z M148.3125,36.9296875 C147.820312,37.2578125 147.519531,37.1210938 147.410156,36.5195312 C147.410156,35.8632812 147.792969,35.6171875 148.558594,35.78125 L148.558594,35.78125 L148.722656,35.78125 C148.832031,35.8359375 148.886719,35.8632812 148.886719,35.8632812 C148.722656,36.3554688 148.53125,36.7109375 148.3125,36.9296875 Z M176.121094,40.9492188 C177.816406,40.8945312 178.746094,40.1289062 178.910156,38.6523438 L178.910156,38.6523438 L178.910156,34.796875 L186.785156,34.796875 L186.785156,33.5664062 L178.910156,33.5664062 L178.910156,32.9921875 C178.910156,32.7734375 178.882812,32.5820312 178.828125,32.4179688 C180.578125,31.8164062 182.273438,30.9414062 183.914062,29.7929688 C184.40625,29.3554688 184.542969,28.8632812 184.324219,28.3164062 L184.324219,28.3164062 L186.292969,28.3164062 L186.292969,25.9375 C186.238281,24.7890625 185.582031,24.1875 184.324219,24.1328125 L184.324219,24.1328125 L179.402344,24.1328125 C179.402344,23.96875 179.347656,23.8046875 179.238281,23.640625 C179.128906,23.53125 178.910156,23.2578125 178.582031,22.8203125 C178.199219,22.3828125 177.953125,22.109375 177.84375,22 L177.84375,22 L174.5625,22.984375 C174.671875,23.09375 174.835938,23.2851562 175.054688,23.5585938 L175.159505,23.6884766 C175.326606,23.8935547 175.455729,24.0416667 175.546875,24.1328125 L175.546875,24.1328125 L168.246094,24.1328125 L168.246094,28.3164062 L170.050781,28.3164062 L170.050781,28.890625 L179.894531,28.890625 C180.113281,28.890625 180.222656,28.9453125 180.222656,29.0546875 C180.277344,29.109375 180.222656,29.21875 180.058594,29.3828125 C179.457031,29.9296875 178.773438,30.421875 178.007812,30.859375 C177.515625,30.3671875 176.804688,30.1484375 175.875,30.203125 C174.34375,30.2578125 173.523438,30.7226562 173.414062,31.5976562 C173.46875,32.5820312 174.234375,33.046875 175.710938,32.9921875 L175.710938,32.9921875 L175.875,32.9921875 L175.875,33.5664062 L167.753906,33.5664062 L167.753906,34.796875 L175.875,34.796875 L175.875,38.5703125 C175.820312,39.0625 175.492188,39.3359375 174.890625,39.390625 C174.398438,39.3359375 173.769531,39.0625 173.003906,38.5703125 L173.003906,38.5703125 L172.59375,38.8984375 C173.46875,40.1015625 174.644531,40.7851562 176.121094,40.9492188 Z M183.257812,27.7421875 L183.09375,27.7421875 C182.984375,27.6875 182.875,27.6601562 182.765625,27.6601562 L182.765625,27.6601562 L171.28125,27.6601562 L171.28125,25.3632812 L182.847656,25.3632812 C183.175781,25.3632812 183.3125,25.5546875 183.257812,25.9375 L183.257812,25.9375 L183.257812,27.7421875 L183.257812,27.7421875 Z M174.644531,32.2539062 C174.207031,32.2539062 173.933594,32.0351562 173.824219,31.5976562 C173.933594,31.1054688 174.316406,30.8320312 174.972656,30.7773438 C175.628906,30.6679688 175.929688,31.0507812 175.875,31.9257812 C175.382812,32.0898438 175.054688,32.171875 174.890625,32.171875 C174.78125,32.2265625 174.699219,32.2539062 174.644531,32.2539062 Z M190.066406,30.203125 C192.417969,28.671875 194.167969,27.359375 195.316406,26.265625 L195.316406,26.265625 L194.988281,25.6914062 C193.511719,26.2929688 191.84375,26.8398438 189.984375,27.3320312 C190.421875,27.0585938 191.105469,26.6484375 192.035156,26.1015625 C193.238281,25.390625 194.003906,24.9257812 194.332031,24.7070312 C194.878906,24.3242188 194.878906,23.9414062 194.332031,23.5585938 C194.222656,23.5039062 194.03125,23.421875 193.757812,23.3125 C192.5,22.8203125 191.515625,22.4921875 190.804688,22.328125 L190.804688,22.328125 L189.410156,24.3789062 C190.339844,24.6523438 191.214844,24.9804688 192.035156,25.3632812 C192.144531,25.4179688 192.199219,25.4726562 192.199219,25.5273438 C192.199219,25.5820312 192.144531,25.6367188 192.035156,25.6914062 C190.886719,26.3476562 189.902344,26.8671875 189.082031,27.25 L189.082031,27.25 L190.066406,30.203125 Z M204.421875,30.6132812 L207.539062,29.1367188 C205.84375,27.4414062 203.984375,26.5117188 201.960938,26.3476562 C202.004688,26.2164063 202.035313,26.1289062 202.052813,26.0851563 L202.0625,26.0624375 L202.063477,26.0605469 L202.0725,25.9965625 C202.1075,25.7603125 202.125,25.5765625 202.125,25.4453125 L202.125,25.4453125 L199.417969,25.4453125 C199.691406,25.171875 199.9375,24.8710938 200.15625,24.5429688 L200.15625,24.5429688 L202.863281,24.5429688 C203.464844,24.5429688 203.738281,24.7890625 203.683594,25.28125 L203.683594,25.28125 L203.683594,26.265625 L206.71875,26.265625 L206.71875,25.1992188 C206.71875,24.0507812 206.007812,23.4765625 204.585938,23.4765625 L204.585938,23.4765625 L200.730469,23.4765625 C200.894531,23.1484375 201.03125,22.8203125 201.140625,22.4921875 L201.140625,22.4921875 L197.941406,22.4921875 C197.941406,22.6015625 197.914062,22.765625 197.859375,22.984375 C197.859375,23.203125 197.832031,23.3671875 197.777344,23.4765625 C196.136719,23.53125 195.316406,24.078125 195.316406,25.1171875 C195.425781,25.9921875 196,26.4570312 197.039062,26.5117188 C197.859375,26.5117188 198.515625,26.265625 199.007812,25.7734375 C199.007812,26.046875 198.980469,26.265625 198.925781,26.4296875 C196.136719,26.921875 194.6875,27.7421875 194.578125,28.890625 C194.632812,29.7109375 195.34375,30.1210938 196.710938,30.1210938 C199.5,30.2304688 201.167969,29.21875 201.714844,27.0859375 C202.972656,27.578125 203.875,28.7539062 204.421875,30.6132812 L204.421875,30.6132812 Z M196.295312,25.8598437 L196.21875,25.8554688 C195.835938,25.8007812 195.671875,25.5546875 195.726562,25.1171875 L195.732971,25.0476532 C195.797058,24.7111969 196.341797,24.5429688 197.367188,24.5429688 C196.984375,25.4726562 196.601562,25.9101562 196.21875,25.8554688 L196.295312,25.8598437 Z M196.054688,29.4648438 C195.398438,29.4648438 195.015625,29.2460938 194.90625,28.8085938 C195.398438,27.8789062 196.710938,27.2226562 198.84375,26.8398438 C198.515625,28.4257812 197.585938,29.3007812 196.054688,29.4648438 Z M205.816406,36.2734375 L205.816406,32.5820312 C205.707031,31.3242188 204.941406,30.640625 203.519531,30.53125 L203.519531,30.53125 L190.476562,30.53125 L190.476562,36.1914062 L193.59375,36.1914062 L193.59375,31.5976562 L202.125,31.5976562 C202.507812,31.5976562 202.699219,31.84375 202.699219,32.3359375 L202.699219,32.3359375 L202.699219,36.2734375 L205.816406,36.2734375 Z M204.257812,40.703125 L207.375,38.8164062 C205.023438,37.0664062 202.289062,36.1640625 199.171875,36.109375 C199.226562,36 199.253906,35.8632812 199.253906,35.6992188 C199.308594,35.5351562 199.335938,35.4257812 199.335938,35.3710938 C199.554688,34.1679688 199.636719,33.1289062 199.582031,32.2539062 L199.582031,32.2539062 L196.464844,32.2539062 C196.519531,32.7460938 196.492188,33.6210938 196.382812,34.8789062 C196.328125,35.0976562 196.300781,35.2617188 196.300781,35.3710938 C196.191406,35.5898438 196.136719,35.8359375 196.136719,36.109375 L196.136719,36.109375 L196.054688,36.109375 C192.226562,36.328125 189.902344,37.2578125 189.082031,38.8984375 C189.136719,39.9375 190.148438,40.4296875 192.117188,40.375 C195.289062,40.15625 197.558594,38.9257812 198.925781,36.6835938 C200.675781,37.2851562 202.453125,38.625 204.257812,40.703125 L204.257812,40.703125 Z M191.378906,39.6367188 C190.175781,39.7460938 189.546875,39.5 189.492188,38.8984375 C190.148438,37.53125 192.308594,36.7382812 195.972656,36.5195312 C195.097656,38.1054688 193.566406,39.1445312 191.378906,39.6367188 Z M227.554688,25.4453125 L227.554688,24.3789062 L220.828125,24.3789062 C220.9375,23.9960938 220.882812,23.640625 220.664062,23.3125 C220.171875,22.875 219.761719,22.546875 219.433594,22.328125 L219.433594,22.328125 L216.5625,23.5585938 C216.945312,23.9414062 217.273438,24.2148438 217.546875,24.3789062 L217.546875,24.3789062 L210.65625,24.3789062 L210.65625,25.4453125 L227.554688,25.4453125 Z M210.328125,40.4570312 C212.734375,39.0898438 213.910156,37.0664062 213.855469,34.3867188 L213.855469,34.3867188 L213.855469,31.515625 L228.210938,31.515625 L228.210938,30.3671875 L223.535156,30.3671875 C223.589844,30.2578125 223.671875,30.09375 223.78125,29.875 C224.382812,28.890625 224.738281,28.2070312 224.847656,27.8242188 C224.902344,26.4023438 224.328125,25.828125 223.125,26.1015625 C220.664062,27.140625 218.96875,27.8789062 218.039062,28.3164062 C218.039062,28.3164062 218.011719,28.34375 217.957031,28.3984375 C217.519531,28.5625 217.191406,28.4257812 216.972656,27.9882812 C216.863281,27.7148438 216.671875,27.2226562 216.398438,26.5117188 C216.34375,26.2929688 216.289062,26.1015625 216.234375,25.9375 L216.234375,25.9375 L213.28125,26.7578125 C213.5,27.578125 213.800781,28.34375 214.183594,29.0546875 C214.511719,29.765625 215.058594,29.984375 215.824219,29.7109375 C216.808594,29.21875 218.148438,28.5898438 219.84375,27.8242188 C220.390625,27.6054688 220.773438,27.4414062 220.992188,27.3320312 C221.375,27.1679688 221.59375,27.1132812 221.648438,27.1679688 C221.703125,27.1679688 221.648438,27.3320312 221.484375,27.6601562 C221.210938,28.2070312 220.636719,29.109375 219.761719,30.3671875 L219.761719,30.3671875 L210.902344,30.3671875 L210.902344,35.2890625 C210.847656,37.09375 210.519531,38.7070312 209.917969,40.1289062 L209.917969,40.1289062 L210.328125,40.4570312 Z M231.082031,39.1445312 C231.738281,40.5664062 233.269531,40.7851562 235.675781,39.8007812 C237.589844,38.9257812 238.65625,37.203125 238.875,34.6328125 L238.875,34.6328125 L240.351562,34.6328125 C241.226562,34.6328125 241.664062,35.1523438 241.664062,36.1914062 L241.664062,36.1914062 L241.664062,38.6523438 C241.664062,39.8007812 242.375,40.375 243.796875,40.375 L243.796875,40.375 L247.160156,40.375 C248.199219,40.375 248.882812,39.71875 249.210938,38.40625 C249.320312,37.640625 249.375,36.8476562 249.375,36.0273438 L249.375,36.0273438 L248.636719,36.0273438 C248.582031,37.3945312 248.226562,38.0507812 247.570312,37.9960938 L247.570312,37.9960938 L245.355469,37.9960938 C244.863281,37.9960938 244.617188,37.75 244.617188,37.2578125 L244.617188,37.2578125 L244.617188,36.5195312 C244.507812,35.1523438 243.796875,34.4140625 242.484375,34.3046875 L242.484375,34.3046875 L238.875,34.3046875 L238.875,33.3203125 L245.929688,33.3203125 C247.1875,33.265625 247.84375,32.6640625 247.898438,31.515625 L247.898438,31.515625 L247.898438,28.6445312 C247.84375,27.2773438 247.132812,26.5664062 245.765625,26.5117188 L245.765625,26.5117188 L244.453125,26.5117188 C244.507812,26.4023438 244.589844,26.265625 244.699219,26.1015625 C245.246094,25.28125 245.601562,24.6523438 245.765625,24.2148438 C246.039062,22.6289062 245.164062,22.109375 243.140625,22.65625 C242.15625,23.0390625 240.925781,23.5585938 239.449219,24.2148438 C238.957031,24.4882812 238.519531,24.4609375 238.136719,24.1328125 C237.863281,23.859375 237.507812,23.4492188 237.070312,22.9023438 L237.070312,22.9023438 L236.496094,22.328125 L233.871094,23.3945312 C234.253906,23.9960938 234.855469,24.7070312 235.675781,25.5273438 C236.277344,26.1289062 236.851562,26.1835938 237.398438,25.6914062 C239.53125,24.5976562 241.226562,23.8046875 242.484375,23.3125 C242.703125,23.2578125 242.839844,23.2578125 242.894531,23.3125 C243.003906,23.3671875 243.03125,23.4765625 242.976562,23.640625 C242.320312,24.84375 241.664062,25.8007812 241.007812,26.5117188 L241.007812,26.5117188 L232.476562,26.5117188 L232.476562,33.3203125 L235.839844,33.3203125 L235.839844,34.46875 C232.832031,35.1796875 231.246094,36.7382812 231.082031,39.1445312 Z M244.158906,32.1780729 L244.042969,32.171875 L235.511719,32.171875 L235.511719,27.578125 L244.042969,27.578125 C244.644531,27.5234375 244.917969,27.8515625 244.863281,28.5625 L244.863281,28.5625 L244.863281,31.2695312 C244.917969,31.9257812 244.644531,32.2265625 244.042969,32.171875 L244.158906,32.1780729 Z M234.445313,38.2421875 C233.1875,39.28125 232.257813,39.609375 231.65625,39.2265625 C231.164063,38.7890625 231.519531,37.859375 232.722656,36.4375 C233.378906,35.671875 234.417969,35.1523438 235.839844,34.8789062 C235.730469,36.1914062 235.265625,37.3125 234.445313,38.2421875 Z M268.40625,40.5390625 L270.375,37.8320312 C268.351562,36.5195312 266.574219,35.78125 265.042969,35.6171875 C265.097656,35.453125 265.152344,35.2617188 265.207031,35.0429688 C265.261719,34.7695312 265.289062,34.578125 265.289062,34.46875 L265.289062,34.46875 L270.375,34.46875 L270.375,33.2382812 L269.472656,33.2382812 L269.472656,29.3828125 C269.363281,28.0703125 268.679688,27.359375 267.421875,27.25 L267.421875,27.25 L266.191406,27.25 C266.847656,26.15625 267.148438,25.4453125 267.09375,25.1171875 C266.984375,24.1328125 266.382812,23.6132812 265.289062,23.5585938 L265.289062,23.5585938 L263.402344,23.5585938 C263.511719,23.2304688 263.566406,22.875 263.566406,22.4921875 L263.566406,22.4921875 L260.53125,22.4921875 C260.53125,22.875 260.503906,23.2851562 260.449219,23.7226562 C259.246094,24.1054688 258.453125,24.84375 258.070312,25.9375 L258.070312,25.9375 L258.070312,25.28125 L256.839844,25.28125 L256.839844,22.4921875 L253.886719,22.4921875 L253.886719,25.28125 L252.082031,25.28125 L252.082031,26.4296875 L253.886719,26.4296875 L253.886719,31.3515625 C253.230469,31.5703125 252.738281,31.734375 252.410156,31.84375 C252.246094,31.8984375 252.109375,31.9257812 252,31.9257812 L252,31.9257812 L252.492188,35.2890625 C252.984375,34.9609375 253.449219,34.6328125 253.886719,34.3046875 L253.886719,34.3046875 L253.886719,38.6523438 C253.886719,38.8710938 253.75,38.9804688 253.476562,38.9804688 C253.257812,38.9804688 252.957031,38.8164062 252.574219,38.4882812 L252.574219,38.4882812 L252.082031,38.8984375 C252.957031,39.9375 253.832031,40.484375 254.707031,40.5390625 C255.964844,40.4296875 256.675781,39.8554688 256.839844,38.8164062 L256.839844,38.8164062 L256.839844,31.6796875 C256.949219,31.5703125 257.085938,31.4335938 257.25,31.2695312 C257.742188,30.8320312 258.097656,30.4765625 258.316406,30.203125 L258.316406,30.203125 L257.988281,29.6289062 C257.605469,29.7929688 257.222656,29.984375 256.839844,30.203125 L256.839844,30.203125 L256.839844,26.4296875 L257.90625,26.4296875 C257.851562,26.6484375 257.824219,26.8671875 257.824219,27.0859375 C257.878906,27.8515625 258.152344,28.3710938 258.644531,28.6445312 L258.644531,28.6445312 L258.644531,33.2382812 L257.660156,33.2382812 L257.660156,34.46875 L262.5,34.46875 C262.5,34.796875 262.445312,35.125 262.335938,35.453125 C259.4375,35.78125 257.769531,36.9296875 257.332031,38.8984375 C257.386719,39.828125 257.988281,40.3203125 259.136719,40.375 C261.324219,40.15625 263.101562,39.0078125 264.46875,36.9296875 C266.21875,38.078125 267.53125,39.28125 268.40625,40.5390625 L268.40625,40.5390625 Z M262.992188,27.25 L261.679688,27.25 C262.226562,26.5390625 262.664062,25.6914062 262.992188,24.7070312 L262.992188,24.7070312 L263.648438,24.7070312 C264.03125,24.7070312 264.140625,24.953125 263.976562,25.4453125 C263.59375,26.2109375 263.265625,26.8125 262.992188,27.25 L262.992188,27.25 Z M258.726562,27.6601562 C258.398438,27.6601562 258.234375,27.46875 258.234375,27.0859375 C258.34375,25.828125 259,25.0625 260.203125,24.7890625 C259.765625,26.5390625 259.273438,27.4960938 258.726562,27.6601562 Z M262.664062,33.2382812 L261.515625,33.2382812 L261.515625,28.3984375 L262.664062,28.3984375 L262.664062,33.2382812 Z M266.683594,33.2382812 L265.535156,33.2382812 L265.535156,28.3984375 L266.027344,28.3984375 C266.464844,28.3984375 266.683594,28.6171875 266.683594,29.0546875 L266.683594,29.0546875 L266.683594,33.2382812 Z M258.398438,39.5546875 C257.960938,39.5546875 257.742188,39.3359375 257.742188,38.8984375 C258.179688,37.1484375 259.628906,36.1640625 262.089844,35.9453125 L262.089844,35.9453125 L262.171875,35.9453125 C261.40625,38.078125 260.148438,39.28125 258.398438,39.5546875 Z M283.828125,40.5390625 L283.828125,33.7304688 L291.292969,33.7304688 L291.292969,32.5820312 L283.828125,32.5820312 L283.828125,27.4960938 C284.59375,27.0585938 285.304688,26.6757812 285.960938,26.3476562 C286.234375,26.2929688 286.425781,26.3203125 286.535156,26.4296875 C286.644531,26.5390625 286.644531,26.7304688 286.535156,27.0039062 C285.933594,28.8085938 285.414062,30.1210938 284.976562,30.9414062 L284.976562,30.9414062 L287.683594,31.9257812 C288.558594,30.0664062 289.105469,28.7265625 289.324219,27.90625 C289.707031,26.921875 289.542969,26.1835938 288.832031,25.6914062 C288.449219,25.2539062 287.683594,25.28125 286.535156,25.7734375 C285.660156,26.1015625 284.757812,26.5390625 283.828125,27.0859375 L283.828125,27.0859375 L283.828125,24.4609375 L290.390625,24.4609375 L290.390625,23.3125 L274.3125,23.3125 L274.3125,24.4609375 L280.875,24.4609375 L280.875,29.0546875 C280.601562,29.2734375 280.300781,29.5195312 279.972656,29.7929688 C279.535156,30.1210938 279.207031,29.984375 278.988281,29.3828125 C278.660156,28.1796875 278.414062,26.8125 278.25,25.28125 L278.25,25.28125 L275.214844,25.7734375 C275.542969,27.7421875 275.980469,29.4648438 276.527344,30.9414062 C277.019531,31.9804688 277.675781,32.1992188 278.496094,31.5976562 C279.097656,30.9960938 279.890625,30.3125 280.875,29.546875 L280.875,29.546875 L280.875,32.5820312 L273.492188,32.5820312 L273.492188,33.7304688 L280.875,33.7304688 L280.875,40.5390625 L283.828125,40.5390625 Z M309.996094,31.3515625 C310.980469,30.859375 311.71875,30.3398438 312.210938,29.7929688 C312.539062,29.1914062 312.511719,28.5351562 312.128906,27.8242188 C311.636719,27.0585938 310.488281,25.7734375 308.683594,23.96875 L308.683594,23.96875 L306.222656,25.6914062 C307.316406,26.7304688 308.109375,27.578125 308.601562,28.234375 C308.164062,28.78125 307.835938,29.0273438 307.617188,28.9726562 C306.960938,28.9179688 305.59375,28.34375 303.515625,27.25 C303.40625,27.1953125 303.214844,27.1132812 302.941406,27.0039062 C302.558594,26.8398438 302.285156,26.703125 302.121094,26.59375 C302.832031,25.28125 303.460938,23.8867188 304.007812,22.4101562 L304.007812,22.4101562 L300.398438,22.4101562 C300.179688,23.3945312 299.851562,24.4335938 299.414062,25.5273438 C298.976562,25.3632812 298.59375,25.3085938 298.265625,25.3632812 C295.914062,25.6914062 294.546875,26.921875 294.164062,29.0546875 C294.21875,30.3125 294.902344,30.96875 296.214844,31.0234375 C297.800781,30.96875 299.222656,30.2578125 300.480469,28.890625 C300.808594,29.0546875 301.164062,29.2460938 301.546875,29.4648438 C303.734375,30.6132812 305.15625,31.1601562 305.8125,31.1054688 C307.070312,31.1054688 308.136719,30.3671875 309.011719,28.890625 C309.339844,29.21875 309.613281,29.546875 309.832031,29.875 C310.105469,30.2578125 310.023438,30.5859375 309.585938,30.859375 L309.585938,30.859375 L309.996094,31.3515625 Z M295.640625,30.2851562 C294.929688,30.2304688 294.546875,29.8476562 294.492188,29.1367188 C294.601562,27.9882812 295.203125,27.359375 296.296875,27.25 C296.734375,27.25 297.390625,27.4414062 298.265625,27.8242188 C298.101562,28.1523438 297.9375,28.4257812 297.773438,28.6445312 C296.953125,29.7382812 296.242188,30.2851562 295.640625,30.2851562 Z M309.175781,40.375 C310.378906,40.265625 311.035156,39.6367188 311.144531,38.4882812 L311.144531,38.4882812 L311.144531,34.3867188 C311.035156,33.0742188 310.378906,32.3632812 309.175781,32.2539062 L309.175781,32.2539062 L295.96875,32.2539062 L295.96875,40.375 L309.175781,40.375 Z M307.289062,39.2265625 L299.003906,39.2265625 L299.003906,33.4023438 L307.289062,33.4023438 C307.726562,33.4570312 307.972656,33.7851562 308.027344,34.3867188 L308.027344,34.3867188 L308.027344,38.4882812 C307.972656,38.9257812 307.726562,39.171875 307.289062,39.2265625 L307.289062,39.2265625 Z" id="全球领先数字资产兑换平台" fill="#05A6F1" fill-rule="nonzero"></path>
    </g>
</svg>