<?xml version="1.0" encoding="UTF-8"?>
<svg width="15px" height="15px" viewBox="0 0 15 15" version="1.1" xmlns="http://www.w3.org/2000/svg" xmlns:xlink="http://www.w3.org/1999/xlink">
    <title>Icon/Stay</title>
    <g id="Icon/Stay" stroke="none" stroke-width="1" fill="none" fill-rule="evenodd">
        <path d="M12.5,1.5 C12.5,2.85938286 12.22266,4.06119143 11.6679686,5.10546857 C11.1132771,6.14974571 10.4192743,6.94791429 9.58593714,7.5 C10.4192743,8.05208571 11.1132771,8.85025429 11.6679686,9.89453143 C12.22266,10.9388086 12.5,12.1406183 12.5,13.5 L13.25,13.5 C13.3229171,13.5 13.3828114,13.5234371 13.4296886,13.5703126 C13.4765629,13.6171877 13.5,13.6770829 13.5,13.75 L13.5,14.25 C13.5,14.322917 13.4765629,14.3828123 13.4296886,14.4296875 C13.3828114,14.4765627 13.3229171,14.5 13.25,14.5 L1.75,14.5 C1.67708297,14.5 1.61718774,14.4765627 1.57031251,14.4296875 C1.52343727,14.3828123 1.5,14.322917 1.5,14.25 L1.5,13.75 C1.5,13.6770829 1.52343727,13.6171877 1.57031251,13.5703126 C1.61718774,13.5234371 1.67708297,13.5 1.75,13.5 L2.5,13.5 C2.5,12.1406183 2.77734086,10.9388086 3.33203114,9.89453143 C3.88672143,8.85025429 4.58072571,8.05208571 5.41406286,7.5 C4.58072571,6.94791429 3.88672143,6.14974571 3.33203114,5.10546857 C2.77734086,4.06119143 2.5,2.85938286 2.5,1.5 L1.75,1.5 C1.67708297,1.5 1.61718774,1.47656286 1.57031251,1.42968857 C1.52343727,1.38281143 1.5,1.32291714 1.5,1.25 L1.5,0.75 C1.5,0.677082857 1.52343727,0.617188571 1.57031251,0.570311429 C1.61718774,0.523437143 1.67708297,0.5 1.75,0.5 L13.25,0.5 C13.3229171,0.5 13.3828114,0.523437143 13.4296886,0.570311429 C13.4765629,0.617188571 13.5,0.677082857 13.5,0.75 L13.5,1.25 C13.5,1.32291714 13.4765629,1.38281143 13.4296886,1.42968857 C13.3828114,1.47656286 13.3229171,1.5 13.25,1.5 L12.5,1.5 Z M8.32812571,7.03125143 C8.72916857,6.88020857 9.11718571,6.63932571 9.49218857,6.30859429 C9.86718857,5.97786286 10.2044257,5.58073143 10.5039057,5.11718857 C10.8033857,4.65364286 11.0442686,4.10677429 11.2265629,3.47656286 C11.4088543,2.84635143 11.5,2.18750286 11.5,1.5 L3.5,1.5 C3.5,2.18750286 3.59114486,2.84635143 3.77343743,3.47656286 C3.95573,4.10677429 4.19661314,4.65364286 4.49609429,5.11718857 C4.79557429,5.58073143 5.13281143,5.97786286 5.50781143,6.30859429 C5.88281429,6.63932571 6.27083143,6.88020857 6.67187429,7.03125143 C6.77083429,7.06770857 6.85026,7.12890571 6.91015714,7.21484286 C6.97005143,7.30078286 7,7.39583143 7,7.5 C7,7.60416857 6.97005143,7.69921714 6.91015714,7.78515714 C6.85026,7.87109429 6.77083429,7.93229143 6.67187429,7.96874857 C5.95832857,8.23437714 5.32292,8.74478857 4.76562571,9.5 L10.2343743,9.5 C9.67708,8.74478857 9.04167143,8.23437714 8.32812571,7.96874857 C8.22916571,7.93229143 8.14974,7.87109429 8.08984286,7.78515714 C8.02994857,7.69921714 8,7.60416857 8,7.5 C8,7.39583143 8.02994857,7.30078286 8.08984286,7.21484286 C8.14974,7.12890571 8.22916571,7.06770857 8.32812571,7.03125143 Z" id="Fill-1" fill="#457CCC"></path>
    </g>
</svg>