<?xml version="1.0" encoding="UTF-8"?>
<svg width="32px" height="24px" viewBox="0 0 32 24" version="1.1" xmlns="http://www.w3.org/2000/svg" xmlns:xlink="http://www.w3.org/1999/xlink">
    <title>Icon/UnionPay</title>
    <g id="Icon/UnionPay" stroke="none" stroke-width="1" fill="none" fill-rule="evenodd">
        <g id="UP" transform="translate(1.000000, 2.000000)" fill-rule="nonzero">
            <path d="M6.02709677,0 L13.7032258,0 C14.7774194,0 15.4393548,0.870967742 15.1896774,1.95096774 L11.6129032,17.2974194 C11.3632258,18.3716129 10.2890323,19.2425806 9.21483871,19.2425806 L1.53870968,19.2425806 C0.464516129,19.2425806 -0.197419355,18.3716129 0.0522580645,17.2974194 L3.62903226,1.95096774 C3.87870968,0.870967742 4.95290323,0 6.02709677,0" id="Path" fill="#FF0033"></path>
            <path d="M13.0645161,0 L21.896129,0 C22.9703226,0 22.4825806,0.870967742 22.2329032,1.95096774 L18.656129,17.2974194 C18.4064516,18.3716129 18.4819355,19.2425806 17.4077419,19.2425806 L8.58193548,19.2425806 C7.50774194,19.2425806 6.84580645,18.3716129 7.09548387,17.2974194 L10.6722581,1.95096774 C10.9219355,0.870967742 11.996129,0 13.0645161,0" id="Path" fill="#003366"></path>
            <path d="M21.5477419,0 L29.223871,0 C30.2980645,0 30.9658065,0.870967742 30.7103226,1.95096774 L27.1335484,17.2974194 C26.883871,18.3716129 25.8096774,19.2425806 24.7354839,19.2425806 L17.0593548,19.2425806 C15.9851613,19.2425806 15.3174194,18.3716129 15.5729032,17.2974194 L19.143871,1.95096774 C19.3993548,0.870967742 20.4735484,0 21.5477419,0" id="Path" fill="#006666"></path>
            <path d="M25.8096774,11.9264516 L25.6296774,12.5245161 L24.6541935,12.5245161 L24.5032258,13.0064516 L25.5019355,13.0064516 L25.3393548,13.5406452 L24.2825806,13.5406452 L24.0967742,13.7670968 L24.5264516,13.7670968 L24.6309677,14.4348387 C24.6425806,14.5045161 24.6425806,14.5451613 24.6658065,14.5741935 C24.6890323,14.5974194 24.8167742,14.6090323 24.8922581,14.6090323 L24.8922581,14.6090323 L25.02,14.6090323 L24.8225806,15.2593548 L24.4916129,15.2593548 C24.4393548,15.2593548 24.363871,15.2535484 24.2593548,15.2477419 C24.1548387,15.236129 24.0851613,15.1780645 24.0212903,15.1490323 C23.9574194,15.12 23.8703226,15.0445161 23.8470968,14.9225806 L23.8470968,14.9225806 L23.7425806,14.2548387 L23.2606452,14.9109677 C23.1096774,15.1141935 22.9006452,15.2767742 22.5522581,15.2767742 L22.5522581,15.2767742 L21.8787097,15.2767742 L22.0529032,14.696129 L22.3083871,14.696129 C22.3780645,14.696129 22.4477419,14.6670968 22.4941935,14.643871 C22.5464516,14.6206452 22.5929032,14.5974194 22.6393548,14.5219355 L22.6393548,14.5219355 L23.336129,13.5348387 L22.4129032,13.5348387 L22.5696774,13.0006452 L23.6264516,13.0006452 L23.7774194,12.5187097 L22.7322581,12.5187097 L22.9064516,11.9264516 L25.8096774,11.9264516 Z M21.3909677,10.7012903 L21.2980645,11.0206452 C21.2980645,11.0206452 21.5419355,10.8464516 21.7683871,10.7883871 C21.96,10.736129 22.9006452,10.7129032 23.2083871,10.7070968 L23.2083871,10.7070968 L24.1780645,10.7070968 L24.1896774,11.0670968 C24.183871,11.1251613 24.236129,11.1541935 24.3464516,11.1541935 L24.3464516,11.1541935 L24.543871,11.1541935 L24.363871,11.7522581 L23.8412903,11.7522581 C23.3883871,11.7812903 23.2141935,11.5896774 23.2258065,11.3690323 L23.2258065,11.3690323 L23.2141935,11.0148387 L23.1154839,11.3341935 L22.8019355,11.3341935 L21.8670968,14.4290323 L22.1167742,14.4290323 L21.9309677,15.0735484 L21.6812903,15.0735484 L21.6232258,15.2709677 L20.7348387,15.2709677 L20.7929032,15.0735484 L18.9812903,15.0735484 L19.1612903,14.4812903 L19.3412903,14.4812903 L20.2935484,11.3341935 L20.4851613,10.7012903 L21.3909677,10.7012903 Z M15.6541935,12.0716129 L15.4741935,12.6580645 L14.4929032,12.6580645 L14.3419355,13.1574194 L15.3464516,13.1574194 L15.1664516,13.7612903 L14.1619355,13.7612903 L13.9180645,14.5741935 C13.8890323,14.6612903 14.156129,14.6729032 14.2490323,14.6729032 L14.2490323,14.6729032 L14.7483871,14.6032258 L14.5451613,15.2709677 L13.4187097,15.2709677 C13.3316129,15.2709677 13.2619355,15.2593548 13.1632258,15.236129 C13.0645161,15.2129032 13.023871,15.1664516 12.9832258,15.1025806 C12.9425806,15.0329032 12.8845161,14.9806452 12.9251613,14.8412903 L12.9251613,14.8412903 L13.2503226,13.7670968 L12.6929032,13.7670968 L12.8787097,13.1574194 L13.436129,13.1574194 L13.5812903,12.6580645 L13.023871,12.6580645 L13.203871,12.0716129 L15.6541935,12.0716129 Z M17.1348387,10.7012903 L17.0129032,11.1309677 C17.0129032,11.1309677 17.28,10.916129 17.4716129,10.8406452 C17.6632258,10.7709677 18.0870968,10.7070968 18.0870968,10.7070968 L18.0870968,10.7070968 L19.4690323,10.7012903 L18.9987097,12.2748387 C18.9232258,12.5419355 18.8303226,12.716129 18.7722581,12.7974194 C18.72,12.8787097 18.6619355,12.9483871 18.54,13.0122581 C18.423871,13.0703226 18.3193548,13.1109677 18.2206452,13.1167742 C18.1335484,13.1225806 17.9883871,13.1283871 17.7967742,13.1283871 L17.7967742,13.1283871 L16.4670968,13.1283871 L16.0896774,14.3709677 C16.0548387,14.4929032 16.0374194,14.5509677 16.0606452,14.5858065 C16.0780645,14.6148387 16.1245161,14.643871 16.1767742,14.643871 L16.1767742,14.643871 L16.7632258,14.5858065 L16.5658065,15.2651613 L15.7627016,15.2649798 C15.6255242,15.2644355 15.5177419,15.2622581 15.4393548,15.2535484 C15.3348387,15.2477419 15.2303226,15.2535484 15.1606452,15.2012903 C15.1025806,15.1490323 15.0096774,15.0735484 15.0096774,15.003871 C15.0154839,14.94 15.0445161,14.823871 15.0851613,14.6729032 L15.0851613,14.6729032 L16.2812903,10.7012903 L17.1348387,10.7012903 Z M18.783871,13.2270968 L18.7025806,13.6045161 C18.6677419,13.7206452 18.6387097,13.8135484 18.5516129,13.8890323 C18.4587097,13.9703226 18.3483871,14.0516129 18.0929032,14.0516129 L18.0929032,14.0516129 L17.6225806,14.0690323 L17.6167742,14.4929032 C17.6109677,14.6148387 17.6458065,14.6032258 17.6632258,14.6206452 C17.6864516,14.643871 17.703871,14.6554839 17.7270968,14.6612903 L17.7270968,14.6612903 L17.8780645,14.6554839 L18.3309677,14.6322581 L18.1451613,15.2535484 L17.4899395,15.2531628 C17.1914516,15.2510988 16.9729839,15.2390323 16.8967742,15.1780645 C16.8096774,15.1258065 16.7980645,15.0503226 16.7980645,14.9341935 L16.7980645,14.9341935 L16.8329032,13.2735484 L17.6632258,13.2735484 L17.6516129,13.6103226 L17.8548387,13.6103226 C17.9187097,13.6103226 17.9651613,13.6045161 17.9941935,13.5870968 C18.0174194,13.5696774 18.0406452,13.5406452 18.0522581,13.5 L18.0522581,13.5 L18.1335484,13.2270968 L18.783871,13.2270968 Z M21.1993548,13.7380645 L20.4735484,13.7380645 L20.2645161,14.4348387 L20.9903226,14.4348387 L21.1993548,13.7380645 Z M21.5709677,12.5187097 L20.8451613,12.5187097 L20.5954839,13.3432258 C20.5954839,13.3432258 20.8741935,13.1980645 21.0193548,13.1574194 C21.1645161,13.1225806 21.3909677,13.0935484 21.3909677,13.0935484 L21.3909677,13.0935484 L21.5709677,12.5187097 Z M18.1045161,12.2864516 L16.7051613,12.2864516 L16.6122581,12.5709677 L17.8258065,12.5709677 C17.9709677,12.5535484 18,12.5709677 18.0116129,12.5651613 L18.0116129,12.5651613 L18.1045161,12.2864516 Z M21.9193548,11.3283871 L21.1993548,11.3283871 L20.9612903,12.123871 C20.9612903,12.123871 21.2341935,12.0019355 21.3793548,11.9612903 C21.5303226,11.9206452 21.7509677,11.9090323 21.7451613,11.9032258 L21.7451613,11.9032258 L21.9193548,11.3283871 Z M18.4006452,11.3516129 L16.9896774,11.3516129 L16.7864516,12.0309677 C16.7864516,12.0309677 17.0593548,11.7812903 17.5296774,11.7 C17.6132903,11.6860645 18.0573677,11.6869935 18.2316542,11.6879226 L18.3019355,11.6883871 L18.4006452,11.3516129 Z M15.0329032,10.6954839 L14.8587097,11.0322581 L15.8632258,11.0322581 L15.6774194,11.6419355 L14.3070968,11.6419355 L14.156129,11.7696774 C14.0922581,11.8335484 14.0690323,11.8045161 13.9877419,11.8509677 C13.9064516,11.8916129 13.743871,11.9670968 13.5348387,11.9670968 L13.5348387,11.9670968 L13.0935484,11.9670968 L13.2735484,11.3806452 L13.4070968,11.3806452 C13.5174194,11.3806452 13.5987097,11.3690323 13.6335484,11.3458065 C13.68,11.3167742 13.7264516,11.2529032 13.7845161,11.1541935 L13.7845161,11.1541935 L14.0341935,10.6954839 L15.0329032,10.6954839 Z M28.3819355,6.79354839 L28.4167742,6.83419355 C28.4167742,6.83419355 26.5006452,10.1264516 26.2567742,10.683871 L26.2567742,10.683871 L26.216129,10.7303226 L26.2219355,10.7303226 L25.8445161,11.3748387 C25.7283871,11.5896774 25.5077419,11.7580645 25.1593548,11.7580645 L25.1593548,11.7580645 L24.5612903,11.7464516 L24.7354839,11.1658065 L24.8516129,11.1658065 C24.9096774,11.1658065 24.956129,11.16 24.9909677,11.1425806 C25.02,11.1309677 25.0432258,11.1077419 25.0664516,11.0729032 L25.0664516,11.0729032 L25.2754839,10.736129 L25.3770741,10.5773929 C25.5941129,10.2302419 25.6855645,10.0270161 25.9548387,9.57483871 C25.8967742,9 25.8735484,8.81419355 25.8270968,8.43677419 C25.803871,8.21032258 25.7690323,7.97806452 25.74,7.7516129 C25.6877419,7.28709677 25.6993548,7.35677419 25.6412903,7.06064516 L25.6412903,7.06064516 C25.6412903,7.03741935 25.6412903,7.02 25.6470968,7.00258065 L25.6470968,7.00258065 L25.6819355,6.96774194 C26.1406452,6.90967742 26.1522581,6.89225806 26.6516129,6.79935484 L26.6516129,6.79935484 L26.6922581,6.84 L26.756129,8.12322581 C26.7619355,8.14645161 26.7619355,8.16387097 26.7619355,8.19290323 C27.0290323,7.60064516 27.0174194,7.76322581 27.3425806,7.0083871 L27.3425806,7.0083871 C27.3483871,7.0083871 27.3483871,7.00258065 27.3483871,6.99677419 L27.3483871,6.99677419 L27.3832258,6.96193548 C27.8187097,6.90387097 27.9058065,6.88645161 28.3819355,6.79354839 L28.3819355,6.79354839 Z M25.1941935,6.84 L25.2116129,6.88064516 C25.1245161,7.24645161 25.0374194,7.61225806 24.9503226,7.97806452 C24.7703226,8.74451613 24.7064516,9.13354839 24.6367742,9.53419355 L24.6367742,9.53419355 L24.596129,9.56903226 C24.1316129,9.56322581 23.9980645,9.56322581 23.5683871,9.58064516 L23.5683871,9.58064516 L23.5393548,9.54580645 C23.5509677,9.48774194 23.5683871,9.43548387 23.58,9.38322581 C23.4232258,9.51677419 23.2548387,9.60387097 23.0690323,9.61548387 C22.9006452,9.62129032 22.7264516,9.59806452 22.5348387,9.51677419 C21.9367742,9.28451613 22.0354839,8.6283871 22.1167742,8.27419355 C22.1980645,7.91419355 22.3432258,7.5483871 22.6335484,7.27548387 C23.0458065,6.89806452 23.5277419,6.79354839 23.7367742,6.87483871 C23.8993548,6.93870968 24.003871,7.03741935 24.0735484,7.15354839 C24.0735484,7.11290323 24.0793548,7.07806452 24.0851613,7.04322581 L24.0851613,7.04322581 L24.12,7.01419355 C24.5845161,6.94451613 24.7122581,6.92709677 25.1941935,6.84 L25.1941935,6.84 Z M14.1329032,6.81677419 C14.5045161,6.81677419 14.8587097,6.89806452 15.0619355,7.15354839 C15.1954839,7.32193548 15.2941935,7.60064516 15.1606452,8.19290323 C15.12,8.37290323 15.003871,8.80258065 14.7367742,9.09870968 C14.4,9.45870968 13.9470968,9.58064516 13.5058065,9.58064516 C13.3316129,9.58064516 13.0645161,9.55741935 12.8787097,9.48193548 C12.2748387,9.23806452 12.3735484,8.58193548 12.4548387,8.22193548 C12.5419355,7.86193548 12.6754839,7.49032258 12.9716129,7.21741935 C13.383871,6.84 13.9122581,6.81677419 14.1329032,6.81677419 Z M6.93290323,4.90064516 C7.0083871,4.91806452 7.24064516,4.92967742 8.03032258,4.91806452 C8.02451613,4.92967742 8.02451613,4.93548387 8.01290323,4.94709677 C7.91419355,5.24903226 7.33935484,7.57741935 7.33935484,7.57741935 L7.33935484,7.57741935 L7.27548387,7.82709677 C7.13612903,8.31483871 6.97935484,8.86645161 6.38709677,9.22064516 C6.04451613,9.42967742 5.53935484,9.54580645 4.99935484,9.54580645 C4.58129032,9.54580645 3.83806452,9.48193548 3.57677419,9.02322581 C3.49548387,8.87806452 3.45483871,8.70967742 3.45483871,8.50064516 L3.45483871,8.50064516 L3.54774194,7.80387097 L3.6,7.58903226 L4.16903226,5.06322581 C4.16903226,5.06322581 4.19806452,4.92387097 4.20387097,4.90064516 C4.21548387,4.91806452 4.41290323,4.92967742 5.49870968,4.91806452 C5.49870968,4.92967742 5.49870968,4.93548387 5.49290323,4.94709677 C5.3883871,5.24322581 4.83096774,7.48451613 4.83096774,7.48451613 C4.82516129,7.48451613 4.72064516,8.15225806 4.72064516,8.15225806 L4.72064516,8.15225806 L4.72645161,8.2683871 C4.76129032,8.59935484 4.97032258,8.77354839 5.31870968,8.77354839 C5.53935484,8.77354839 5.72516129,8.70967742 5.88774194,8.57612903 C6.17225806,8.34967742 6.25354839,7.99548387 6.36967742,7.49612903 C6.36967742,7.49032258 6.90387097,5.03419355 6.93290323,4.90064516 Z M19.5154839,4.89483871 C19.6548387,4.91225806 19.9858065,4.91806452 20.8219355,4.90645161 C20.8219355,4.90645161 21.1412903,4.90064516 21.1412903,4.90064516 C21.7916129,4.90645161 22.3548387,4.91225806 22.6393548,5.30709677 C22.7496774,5.45806452 22.7903226,5.64967742 22.7903226,5.84129032 C22.7903226,5.98645161 22.7670968,6.13741935 22.7380645,6.25935484 C22.6219355,6.75870968 22.3606452,7.17677419 21.9832258,7.45548387 C21.4316129,7.86774194 20.7174194,7.86774194 20.0903226,7.86774194 L20.0264516,7.86774194 C19.98,7.89096774 19.9335484,7.95483871 19.9335484,7.95483871 C19.9277419,7.97806452 19.7825806,8.58193548 19.7825806,8.58193548 C19.7825806,8.58193548 19.6656452,9.15048387 19.6098656,9.42064516 L19.5851613,9.54 C19.4632258,9.5283871 19.1612903,9.5283871 18.4354839,9.54 C18.4703226,9.40064516 19.1845161,6.45096774 19.1845161,6.45096774 C19.1845161,6.45096774 19.4806452,5.06322581 19.4806452,5.06322581 C19.4806452,5.06322581 19.503871,4.95290323 19.5154839,4.89483871 Z M16.8387097,6.76451613 L16.8851613,6.80516129 L16.8154839,7.07225806 C16.8967742,7.02580645 16.9780645,6.97354839 17.0593548,6.93290323 C17.2858065,6.82258065 17.5412903,6.78774194 17.6806452,6.78774194 C17.8954839,6.78774194 18.1277419,6.84580645 18.2264516,7.08967742 C18.3135484,7.30451613 18.2554839,7.57741935 18.1335484,8.10580645 L18.1335484,8.10580645 L18.0696774,8.37290323 C17.9419355,8.96516129 17.9187097,9.06967742 17.8548387,9.47612903 L17.8548387,9.47612903 L17.8083871,9.51096774 C17.4193548,9.50516129 17.2858065,9.50516129 16.8329032,9.5283871 L16.8329032,9.5283871 L16.8154839,9.49935484 C16.8503226,9.32516129 16.8967742,9.15677419 16.9374194,8.98258065 L16.9374194,8.98258065 L16.9896774,8.75032258 C17.0709677,8.38451613 17.1522581,7.96064516 17.163871,7.83290323 C17.1754839,7.7516129 17.1987097,7.56 16.9780645,7.56 C16.8851613,7.56 16.7864516,7.60645161 16.6877419,7.65290323 C16.6296774,7.85032258 16.5193548,8.39612903 16.4670968,8.64580645 C16.3567742,9.1683871 16.3509677,9.22645161 16.2987097,9.48774194 L16.2987097,9.48774194 L16.263871,9.52258065 C15.8632258,9.51677419 15.7296774,9.51677419 15.2709677,9.54 L15.2709677,9.54 L15.2477419,9.50516129 C15.3232258,9.1916129 15.3987097,8.87806452 15.4741935,8.56451613 C15.6658065,7.72258065 15.7122581,7.39741935 15.7645161,6.96774194 L15.7645161,6.96774194 L15.7993548,6.93870968 C16.2464516,6.87483871 16.3567742,6.86322581 16.8387097,6.76451613 L16.8387097,6.76451613 Z M9.15677419,6.76451613 L9.19741935,6.81096774 L9.12774194,7.07806452 C9.20903226,7.0316129 9.28451613,6.97935484 9.3716129,6.93870968 C9.59806452,6.8283871 9.85354839,6.79354839 9.99290323,6.79354839 C10.2019355,6.79354839 10.4341935,6.85741935 10.5329032,7.08967742 C10.6258065,7.30451613 10.5677419,7.57741935 10.4458065,8.10580645 L10.4458065,8.10580645 L10.3819355,8.37290323 C10.2541935,8.96516129 10.2367742,9.06967742 10.1670968,9.47612903 L10.1670968,9.47612903 L10.1206452,9.51096774 C9.7316129,9.50516129 9.59806452,9.50516129 9.14516129,9.5283871 L9.14516129,9.5283871 L9.12774194,9.49935484 C9.1683871,9.32516129 9.20903226,9.15677419 9.24967742,8.98258065 L9.24967742,8.98258065 L9.30774194,8.75032258 C9.38903226,8.38451613 9.47032258,7.96064516 9.48193548,7.83290323 C9.49354839,7.7516129 9.51677419,7.56 9.29612903,7.56 C9.20322581,7.56 9.10451613,7.60645161 9.00580645,7.65290323 C8.95354839,7.85032258 8.84322581,8.39612903 8.79096774,8.64580645 C8.68064516,9.1683871 8.67483871,9.22645161 8.62258065,9.48774194 L8.62258065,9.48774194 L8.58774194,9.52258065 C8.19290323,9.51677419 8.05354839,9.51677419 7.59483871,9.54 L7.59483871,9.54 L7.5716129,9.50516129 C7.64709677,9.1916129 7.7283871,8.87806452 7.79806452,8.56451613 C7.98967742,7.72258065 8.03612903,7.39741935 8.0883871,6.96774194 L8.0883871,6.96774194 L8.11741935,6.93870968 C8.56451613,6.87483871 8.67483871,6.86322581 9.15677419,6.76451613 L9.15677419,6.76451613 Z M12.1819355,7.35096774 L12.1877419,7.36258065 L12.1935484,7.38580645 C12.1470968,7.56580645 12.1064516,7.7516129 12.06,7.93741935 L12.06,7.93741935 L11.9322581,8.48903226 C11.8509677,8.87806452 11.816129,9.02322581 11.7929032,9.12774194 C11.7754839,9.22645161 11.7696774,9.27870968 11.7348387,9.48193548 L11.7348387,9.48193548 L11.6883871,9.51677419 C11.456129,9.51677419 11.3051613,9.51096774 11.16,9.51677419 C11.0148387,9.51677419 10.8696774,9.5283871 10.6548387,9.53419355 L10.6548387,9.53419355 L10.6432258,9.51677419 L10.6316129,9.49935484 C10.6896774,9.27290323 10.7245161,9.19741935 10.7535484,9.11612903 C10.7825806,9.04064516 10.8116129,8.95935484 10.863871,8.73290323 C10.9335484,8.44258065 10.9741935,8.23354839 11.0032258,8.05354839 C11.0322581,7.87354839 11.0496774,7.7283871 11.0729032,7.55419355 L11.0729032,7.55419355 L11.0903226,7.54258065 L11.1077419,7.52516129 C11.34,7.49612903 11.4851613,7.47290323 11.636129,7.44967742 C11.7870968,7.42645161 11.943871,7.39741935 12.1819355,7.35096774 L12.1819355,7.35096774 Z M23.6612903,7.47870968 C23.3535484,7.47870968 23.2374194,7.85032258 23.1329032,8.2916129 C23.0980645,8.4483871 23.0690323,8.59354839 23.0690323,8.73290323 C23.0748387,9.0116129 23.2664516,9.0116129 23.2954839,9.0116129 C23.4058065,9.0116129 23.5916129,8.94193548 23.6729032,8.8316129 C23.7135484,8.77354839 23.7483871,8.69225806 23.7832258,8.60516129 C23.8180645,8.4716129 23.8529032,8.34387097 23.8819355,8.21032258 C23.8993548,8.11741935 23.9167742,8.03612903 23.9341935,7.96064516 C23.9574194,7.65870968 23.8529032,7.47870968 23.6612903,7.47870968 Z M13.9993548,7.42064516 C13.6916129,7.42064516 13.5696774,7.79806452 13.4709677,8.24516129 C13.436129,8.40193548 13.4070968,8.54709677 13.4070968,8.68645161 C13.4129032,8.97096774 13.6045161,8.97096774 13.6335484,8.97096774 C13.743871,8.97096774 13.8425806,8.90129032 13.923871,8.78516129 C14.0458065,8.62258065 14.1270968,8.25096774 14.1503226,8.15225806 C14.2548387,7.69935484 14.2432258,7.42064516 13.9993548,7.42064516 Z M11.3283871,6.68903226 C11.5896774,6.51483871 11.9670968,6.47419355 12.1877419,6.60193548 C12.4025806,6.72967742 12.3677419,6.97354839 12.1122581,7.15354839 C11.8567742,7.32774194 11.4735484,7.3683871 11.2587097,7.24064516 C11.043871,7.11290323 11.0729032,6.86322581 11.3283871,6.68903226 Z M20.4735484,5.58 L20.4677419,5.63225806 L20.4619355,5.70193548 C20.4619355,5.69612903 20.1425806,7.07806452 20.1425806,7.07806452 L20.1425806,7.07806452 L20.1309677,7.15354839 L20.3051613,7.15354839 C20.5722581,7.15354839 20.8277419,7.14193548 21.0425806,7.03741935 C21.2980645,6.91548387 21.4954839,6.65419355 21.5651613,6.34645161 C21.6406452,6.00967742 21.5303226,5.7483871 21.2748387,5.64967742 C21.2574194,5.64967742 20.6012903,5.5916129 20.6012903,5.5916129 L20.6012903,5.5916129 L20.4735484,5.58 Z" id="Combined-Shape" fill="#FFFFFF"></path>
        </g>
    </g>
</svg>