<?xml version="1.0" encoding="UTF-8"?>
<svg width="32px" height="32px" viewBox="0 0 32 32" version="1.1" xmlns="http://www.w3.org/2000/svg" xmlns:xlink="http://www.w3.org/1999/xlink">
    <title>Icon/FA/Times</title>
    <g id="Icon/FA/Times" stroke="none" stroke-width="1" fill="none" fill-rule="evenodd">
        <path d="M20.5681818,16 L27.3863636,22.8181818 C27.7954573,23.2272755 28,23.7272691 28,24.3181818 C28,24.9090945 27.7954573,25.4318159 27.3863636,25.8863636 L25.8863636,27.3863636 C25.4318173,27.7954566 24.9090945,28 24.3181818,28 C23.7272691,28 23.2272755,27.7954566 22.8181818,27.3863636 L16,20.5681818 L9.18181818,27.3863636 C8.77272455,27.7954566 8.27273091,28 7.68181818,28 C7.09090545,28 6.56818409,27.7954566 6.11363636,27.3863636 L4.61363636,25.8863636 C4.20454341,25.4318159 4,24.9090945 4,24.3181818 C4,23.7272691 4.20454341,23.2272755 4.61363636,22.8181818 L11.4318182,16 L4.61363636,9.18181818 C4.20454341,8.77272455 4,8.27273091 4,7.68181818 C4,7.09090545 4.20454341,6.56818273 4.61363636,6.11363636 L6.11363636,4.61363636 C6.56818409,4.20454273 7.09090545,4 7.68181818,4 C8.27273091,4 8.77272455,4.20454273 9.18181818,4.61363636 L16,11.4318182 L22.8181818,4.61363636 C23.2272755,4.20454273 23.7272691,4 24.3181818,4 C24.9090945,4 25.4318173,4.20454273 25.8863636,4.61363636 L27.3863636,6.11363636 C27.7954573,6.56818273 28,7.09090545 28,7.68181818 C28,8.27273091 27.7954573,8.77272455 27.3863636,9.18181818 L20.5681818,16 Z" id="Times" fill="#3D8DBC"></path>
    </g>
</svg>