<?xml version="1.0" encoding="UTF-8"?>
<svg width="20px" height="20px" viewBox="0 0 20 20" version="1.1" xmlns="http://www.w3.org/2000/svg" xmlns:xlink="http://www.w3.org/1999/xlink">
    <!-- Generator: Sketch 55.2 (78181) - https://sketchapp.com -->
    <title>跟牌</title>
    <desc>Created with Sketch.</desc>
    <g id="跟牌" stroke="none" stroke-width="1" fill="none" fill-rule="evenodd">
        <path d="M10,20 C4.48888889,20 0,15.5111111 0,10 C0,4.48888889 4.48888889,0 10,0 C15.5111111,0 20,4.48888889 20,10 C20,15.5111111 15.5111111,20 10,20 Z M9.24688548,13.2286304 C9.26924926,13.2126892 9.29059525,13.1946861 9.31066017,13.1746212 L15.6746212,6.81066017 C15.8698833,6.61539803 15.8698833,6.29881554 15.6746212,6.10355339 C15.4793591,5.90829124 15.1627766,5.90829124 14.9675144,6.10355339 L8.7640873,12.3069805 L6.31066017,9.85355339 C6.11539803,9.65829124 5.79881554,9.65829124 5.60355339,9.85355339 C5.40829124,10.0488155 5.40829124,10.365398 5.60355339,10.5606602 L8.43198052,13.3890873 C8.62724266,13.5843494 8.94382515,13.5843494 9.1390873,13.3890873 C9.18656336,13.3416112 9.22249609,13.2869631 9.24688548,13.2286304 Z" id="Combined-Shape" fill="#FFFFFF" fill-rule="nonzero"></path>
    </g>
</svg>