<?xml version="1.0" encoding="UTF-8"?>
<svg width="20px" height="20px" viewBox="0 0 20 20" version="1.1" xmlns="http://www.w3.org/2000/svg" xmlns:xlink="http://www.w3.org/1999/xlink">
    <!-- Generator: Sketch 55.2 (78181) - https://sketchapp.com -->
    <title>比牌</title>
    <desc>Created with Sketch.</desc>
    <g id="比牌" stroke="none" stroke-width="1" fill="none" fill-rule="evenodd">
        <path d="M10,20 C4.48888889,20 0,15.5111111 0,10 C0,4.48888889 4.48888889,0 10,0 C15.5111111,0 20,4.48888889 20,10 C20,15.5111111 15.5111111,20 10,20 Z M13.9273597,10 C13.9477825,9.850436 13.9005073,9.69340047 13.7855339,9.57842712 L7.42157288,3.21446609 C7.22631073,3.01920395 6.90972824,3.01920395 6.71446609,3.21446609 C6.51920395,3.40972824 6.51920395,3.72631073 6.71446609,3.92157288 L12.7928932,10 L6.71446609,16.0784271 C6.51920395,16.2736893 6.51920395,16.5902718 6.71446609,16.7855339 C6.90972824,16.9807961 7.22631073,16.9807961 7.42157288,16.7855339 L13.7855339,10.4215729 C13.9005073,10.3065995 13.9477825,10.149564 13.9273597,10 Z" id="Combined-Shape" fill="#FFFFFF" fill-rule="nonzero"></path>
    </g>
</svg>