<?xml version="1.0" encoding="UTF-8"?>
<svg width="24px" height="24px" viewBox="0 0 24 24" version="1.1" xmlns="http://www.w3.org/2000/svg" xmlns:xlink="http://www.w3.org/1999/xlink">
    <title>Icon/Footer/Facebook</title>
    <g id="Icon/Footer/Facebook" stroke="none" stroke-width="1" fill="none" fill-rule="evenodd">
        <path d="M13.7447921,22 L13.7447921,12.8854163 L16.8177086,12.8854163 L17.2604148,9.31770864 L13.7447921,9.31770864 L13.7447921,7.05207901 C13.7447921,6.53124938 13.8532978,6.11024198 14.0703121,5.78906667 C14.2873274,5.46788148 14.7604128,5.30728889 15.4895832,5.30728889 L17.3645827,5.30728889 L17.3645827,2.13021235 C16.9131951,2.09548642 16.4574677,2.06510617 15.9973956,2.03906173 C15.5373244,2.01301728 15.081599,2 14.6302084,2 C13.2760346,2 12.1736158,2.40364444 11.3229165,3.21093333 C10.4722183,4.0182321 10.0468751,5.18575802 10.0468751,6.71354074 L10.0468751,9.31770864 L7,9.31770864 L7,12.8854163 L10.0468751,12.8854163 L10.0468751,22 L13.7447921,22 Z" id="Fill-1" fill="#3D8DBC"></path>
    </g>
</svg>