<?xml version="1.0" encoding="UTF-8"?>
<svg width="24px" height="24px" viewBox="0 0 24 24" version="1.1" xmlns="http://www.w3.org/2000/svg" xmlns:xlink="http://www.w3.org/1999/xlink">
    <title>Icon/Footer/QQ</title>
    <g id="Icon/Footer/QQ" stroke="none" stroke-width="1" fill="none" fill-rule="evenodd">
        <path d="M20.825287,18.054687 C20.7732056,18.2890634 20.7081018,18.4127597 20.6299759,18.4257804 C20.55185,18.4388019 20.4346648,18.3736982 20.2784129,18.2304678 C20.122161,18.0872382 19.9659091,17.9179692 19.8096647,17.7226559 C19.6534128,17.5273418 19.503672,17.325521 19.3604424,17.1171869 C19.2172127,16.908852 19.0935164,16.7265624 18.989346,16.570312 L18.8721608,16.3749994 C18.8721608,17.0260439 18.7028941,17.7096314 18.3643459,18.4257804 C18.0258051,19.1419302 17.5310198,19.7734347 16.8799753,20.3203126 C17.0883087,20.3984378 17.2901309,20.4765615 17.4854421,20.5546875 C17.6807532,20.6328127 17.8955977,20.7304682 18.1299755,20.8476564 C18.3643533,20.9648438 18.53362,21.1015616 18.637783,21.257812 C18.7419534,21.4140632 18.7549756,21.557291 18.6768497,21.6874999 C18.28622,21.8958343 17.3747754,22 15.9424714,22 C14.5101749,22 13.338308,21.9479172 12.4268486,21.84375 C11.5153818,21.9479172 10.350032,22 8.930754,22 C7.51147599,22 6.59351584,21.8958343 6.17684689,21.6874999 C6.02059649,21.427082 6.15080318,21.1796883 6.56747214,20.9453127 C6.98414109,20.7109364 7.45288635,20.5026045 7.97372273,20.3203126 C7.32267744,19.7734347 6.8278907,19.1419302 6.48934694,18.4257804 C6.15080392,17.7096314 5.981535,17.0260439 5.981535,16.3749994 C5.95549278,16.4010409 5.92945129,16.4401031 5.90340981,16.4921868 C5.87736758,16.5442705 5.81877498,16.6419253 5.7276283,16.7851557 C5.63648236,16.9283854 5.53882678,17.0651024 5.43465936,17.1953121 C5.33049268,17.325521 5.21981636,17.4687484 5.10262819,17.6249996 C4.98544003,17.78125 4.87476445,17.9179678 4.77059703,18.0351559 C4.66642975,18.1523434 4.56877448,18.2499989 4.47762817,18.3281241 C4.38648186,18.4062501 4.30184725,18.4322916 4.22372183,18.4062493 C4.14559641,18.4062493 4.08049292,18.282553 4.02840935,18.0351559 C3.97632572,17.7877589 3.99585677,17.3515647 4.08700307,16.7265616 C4.17814938,16.1015586 4.35392889,15.3723992 4.61434693,14.5390613 C4.79663926,13.8880167 5.31746749,12.5078239 6.17684689,10.3984384 C6.09872169,7.95050467 6.58699806,5.93880805 7.64169083,4.36328186 C8.69638433,2.78774828 10.2914201,2 12.4268486,2 C14.5362342,2 16.1247604,2.78123716 17.1924716,4.34374853 C18.2601903,5.90625249 18.7549756,7.92446763 18.6768497,10.3984384 C19.5362276,12.5078239 20.0570573,13.8880167 20.2393462,14.5390613 C20.4997685,15.3723992 20.6755463,16.1015586 20.7666944,16.7265616 C20.8578426,17.3515647 20.8773685,17.7942685 20.825287,18.054687 Z" id="Fill-1" fill="#3D8DBC"></path>
    </g>
</svg>