<?xml version="1.0" encoding="UTF-8"?>
<svg width="282px" height="175px" viewBox="0 0 282 175" version="1.1" xmlns="http://www.w3.org/2000/svg" xmlns:xlink="http://www.w3.org/1999/xlink">
    <title>Img/CreditCard/ASide</title>
    <defs>
        <linearGradient x1="51.7918117%" y1="1.9402895%" x2="51.7918117%" y2="98.3028503%" id="linearGradient-1">
            <stop stop-color="#5D92AB" offset="0%"></stop>
            <stop stop-color="#5791A9" offset="50%"></stop>
            <stop stop-color="#3D6F81" stop-opacity="0.63545" offset="100%"></stop>
        </linearGradient>
        <linearGradient x1="-16.7360375%" y1="6.95263746%" x2="108.118435%" y2="83.6555945%" id="linearGradient-2">
            <stop stop-color="#66A1BC" stop-opacity="0" offset="0%"></stop>
            <stop stop-color="#7BCCEE" stop-opacity="0.74247" offset="40.493%"></stop>
            <stop stop-color="#84DBFF" offset="54.576%"></stop>
            <stop stop-color="#7BCCEE" stop-opacity="0.70569" offset="81.319%"></stop>
            <stop stop-color="#488297" stop-opacity="0" offset="100%"></stop>
        </linearGradient>
        <rect id="path-3" x="0" y="-1.51636939e-14" width="282" height="175" rx="10"></rect>
        <linearGradient x1="11.7482354%" y1="32.3506971%" x2="90.0484163%" y2="67.4414047%" id="linearGradient-4">
            <stop stop-color="#D6C056" stop-opacity="0" offset="0%"></stop>
            <stop stop-color="#FFFF8C" offset="50%"></stop>
            <stop stop-color="#D6C056" stop-opacity="0" offset="100%"></stop>
        </linearGradient>
        <rect id="path-5" x="0" y="0" width="50" height="30"></rect>
    </defs>
    <g id="Img/CreditCard/ASide" stroke="none" stroke-width="1" fill="none" fill-rule="evenodd">
        <g id="credit-card-1369111" transform="translate(0.000000, -0.000000)" fill-rule="nonzero">
            <rect id="Rectangle" fill="url(#linearGradient-1)" x="0" y="-1.51636939e-14" width="282" height="175" rx="10"></rect>
            <g id="Rectangle" opacity="0.85771">
                <use fill="#518197" xlink:href="#path-3"></use>
                <use fill="url(#linearGradient-2)" xlink:href="#path-3"></use>
            </g>
            <g id="Group" transform="translate(128.652310, 117.684804)" fill="#548BA2">
                <polygon id="Path" points="2.2533964 2.90237627 3.034285 1.2290283 3.05660769 1.2290283 3.30202921 3.34859528 3.94904571 3.34859528 3.56975208 0.22512623 2.87811155 0.22512623 1.98567353 2.1662184 1.96337218 2.1662184 1.07093416 0.22512623 0.379293628 0.22512623 3.03273878e-14 3.34859528 0.647016498 3.34859528 0.89243802 1.2290283 0.914739367 1.2290283 1.69562797 2.90237627"></polygon>
                <path d="M4.4493855,1.79264417 C4.45770849,2.28116104 4.61392463,2.67624701 4.9179272,2.97792341 C5.22190843,3.27957848 5.62352475,3.43483427 6.12273346,3.44366944 C6.62194218,3.43513304 7.02353716,3.27955714 7.32753973,2.97792341 C7.63152096,2.67624701 7.78769442,2.28116104 7.79608143,1.79264417 C7.78775844,1.30412729 7.6315423,0.909019979 7.32753973,0.607364916 C7.02353716,0.305688512 6.62194218,0.150454064 6.12273346,0.141618889 C5.62352475,0.15015529 5.22192977,0.305731194 4.9179272,0.607364916 C4.61394597,0.909019979 4.45775117,1.30412729 4.4493855,1.79264417 Z M7.14902225,1.79264417 C7.14240654,2.13194476 7.04398184,2.40154563 6.85340669,2.60142546 C6.66283154,2.80139065 6.41926669,2.90355002 6.12271212,2.90820236 C5.82615756,2.90393416 5.5825927,2.80128394 5.39201756,2.60142546 C5.20144241,2.40146027 5.102911,2.13194476 5.096402,1.79264417 C5.1028043,1.45332223 5.20144241,1.18372136 5.39201756,0.983862873 C5.5825927,0.783897684 5.82615756,0.681738308 6.12271212,0.677085969 C6.41926669,0.68135417 6.66283154,0.784004389 6.85340669,0.983862873 C7.04398184,1.18361465 7.14251324,1.45332223 7.14902225,1.79264417 Z" id="Shape"></path>
                <polygon id="Path" points="10.6318738 2.36885122 9.09239791 0.227068261 8.42305873 0.227068261 8.42305873 3.35053731 9.04777388 3.35053731 9.04777388 1.20875435 9.07009656 1.20875435 10.6095724 3.35053731 11.2789116 3.35053731 11.2789116 0.227068261 10.6541965 0.227068261 10.6541965 2.36885122"></polygon>
                <polygon id="Path" points="11.8056289 0.234751022 11.8056289 0.747916755 12.876563 0.747916755 12.876563 3.35834812 13.5012782 3.35834812 13.5012782 0.747916755 14.5722124 0.747916755 14.5722124 0.234751022"></polygon>
                <polygon id="Path" points="17.3286802 0.234751022 17.3286802 1.55112805 15.7222789 1.55112805 15.7222789 0.234751022 15.0975638 0.234751022 15.0975638 3.35822007 15.7222789 3.35822007 15.7222789 2.06416573 17.3286802 2.06416573 17.3286802 3.35822007 17.9533953 3.35822007 17.9533953 0.234751022"></polygon>
                <polygon id="Path" points="22.0429075 3.03273878e-14 20.3249569 3.5697094 20.9719734 3.5697094 22.689924 3.03273878e-14"></polygon>
                <polygon id="Path" points="26.3068397 1.74996216 26.2622157 1.74996216 25.3697777 0.232787649 24.7004385 0.232787649 25.9721701 2.37457061 25.9721701 3.3562567 26.5968853 3.3562567 26.5968853 2.37457061 27.8686169 0.232787649 27.1992777 0.232787649"></polygon>
                <polygon id="Path" points="28.315028 3.35053731 30.8584486 3.35053731 30.8584486 2.83737158 28.9396791 2.83737158 28.9396791 2.05648297 30.2337335 2.05648297 30.2337335 1.54333858 28.9396791 1.54333858 28.9396791 0.740127289 30.8138246 0.740127289 30.8138246 0.226961556 28.3150067 0.226961556"></polygon>
                <path d="M33.1765082,0.234751022 L32.3956196,0.234751022 L31.1015653,3.35822007 L31.7709045,3.35822007 L32.016326,2.73350492 L33.5558019,2.73350492 L33.8012234,3.35822007 L34.4705626,3.35822007 L33.1765082,0.234751022 Z M32.7749133,0.904090207 L32.7972146,0.904090207 L33.3326817,2.19814454 L32.2394249,2.19814454 L32.7749133,0.904090207 Z" id="Shape"></path>
                <path d="M34.9563478,0.234751022 L34.9563478,3.35822007 L35.581063,3.35822007 L35.581063,2.28728591 L36.4511996,2.28728591 L37.1874642,3.35822007 L37.9237501,3.35822007 L37.0982161,2.17573649 L37.0982161,2.15332844 C37.1046184,2.1547156 37.15541,2.12707901 37.2486702,2.07073876 C37.341717,2.01418511 37.4349771,1.92071152 37.5279599,1.78978447 C37.6210067,1.65896413 37.671158,1.48266611 37.678414,1.2609331 C37.6774963,0.964378538 37.5678676,0.720813682 37.3493357,0.530238535 C37.1308679,0.339663387 36.8092163,0.24111064 36.384381,0.234601635 L34.9563478,0.234751022 Z M37.0312908,1.26108249 C37.0308213,1.38976873 36.9760176,1.50603451 36.8667516,1.60968776 C36.7574857,1.71340502 36.5966812,1.7682514 36.3842743,1.77422688 L35.581063,1.77422688 L35.581063,0.747916755 L36.3842743,0.747916755 C36.5967026,0.752184955 36.757507,0.80041562 36.8667516,0.895809899 C36.9760176,0.990990767 37.0308639,1.11289057 37.0312908,1.26116785 L37.0312908,1.26108249 Z" id="Shape"></path>
            </g>
            <g id="Group" transform="translate(111.912214, 127.003011)" fill="#548BA2">
                <polygon id="Path" points="1.22710761 3.12359709 2.00799622 3.12359709 3.23510383 0.000128046012 2.5434633 0.000128046012 1.62870259 2.45434327 1.60640124 2.45434327 0.691640533 0.000128046012 0 0.000128046012"></polygon>
                <path d="M5.4675647,0.00781080672 L4.6866761,0.00781080672 L3.39262176,3.13127985 L4.06196095,3.13127985 L4.30738247,2.5065647 L5.84685833,2.5065647 L6.09227985,3.13127985 L6.76161904,3.13127985 L5.4675647,0.00781080672 Z M5.06596973,0.677149992 L5.08827108,0.677149992 L5.62373816,1.97120433 L4.53048131,1.97120433 L5.06596973,0.677149992 Z" id="Shape"></path>
                <polygon id="Path" points="7.24740427 3.12359709 9.63460875 3.12359709 9.63460875 2.61043136 7.87203405 2.61043136 7.87203405 0 7.2473189 0"></polygon>
                <polygon id="Path" points="10.7878765 0.00781080672 10.1631613 0.00781080672 10.1631613 3.13127985 10.7878765 3.13127985"></polygon>
                <path d="M11.5945664,0.00781080672 L11.5945664,3.13127985 L12.7993726,3.13127985 C13.3083342,3.12274345 13.7127248,2.97741123 14.0125446,2.69342652 C14.312343,2.40942046 14.4657421,2.03477917 14.4727206,1.56948131 C14.4656781,1.11397896 14.3123643,0.742112002 14.0125446,0.453923112 C13.7127462,0.165755562 13.3083342,0.0170087786 12.7993726,0.00770410171 L11.5945664,0.00781080672 Z M12.7993726,0.52097654 C13.10568,0.52524474 13.3520406,0.622346299 13.5384329,0.811022098 C13.7248252,0.999676555 13.8205823,1.25258877 13.8256828,1.56958801 C13.8205609,1.8866086 13.7248252,2.13945679 13.5384329,2.32817527 C13.3520406,2.51682973 13.10568,2.61356849 12.7993726,2.61822083 L12.2192815,2.61822083 L12.2192815,0.52097654 L12.7993726,0.52097654 Z" id="Shape"></path>
                <polygon id="Path" points="0.0384138035 4.83087725 0.0384138035 5.34402164 1.10934796 5.34402164 1.10934796 7.954453 1.73406311 7.954453 1.73406311 5.34402164 2.80499728 5.34402164 2.80499728 4.83087725"></polygon>
                <polygon id="Path" points="5.56146511 4.83087725 5.56146511 6.14723293 3.95506387 6.14723293 3.95506387 4.83087725 3.33034872 4.83087725 3.33034872 7.9543463 3.95506387 7.9543463 3.95506387 6.66029196 5.56146511 6.66029196 5.56146511 7.9543463 6.18618026 7.9543463 6.18618026 4.83087725"></polygon>
                <path d="M6.99558044,4.83087725 L6.99558044,7.9543463 L7.6202956,7.9543463 L7.6202956,6.88341214 L8.49043227,6.88341214 L9.22669684,7.9543463 L9.9629614,7.9543463 L9.13744877,6.77186272 L9.13744877,6.74945467 C9.14470471,6.75084183 9.19474936,6.72320524 9.28783881,6.66686499 C9.38092826,6.61031134 9.47403905,6.51683775 9.56714984,6.3859107 C9.66023929,6.25509036 9.71039065,6.07879234 9.71753988,5.85705933 C9.71660728,5.56050477 9.60690813,5.31693991 9.38846163,5.12636476 C9.16999379,4.93578962 8.84834221,4.83725821 8.42350689,4.83074921 L6.99558044,4.83087725 Z M9.07052338,5.85718738 C9.07005602,5.98587362 9.01520751,6.1021394 8.90598426,6.20579264 C8.79673967,6.30950991 8.63593522,6.36435629 8.42350689,6.37033177 L7.6202956,6.37033177 L7.6202956,5.34402164 L8.42350689,5.34402164 C8.63593522,5.34828984 8.79676101,5.39652051 8.90598426,5.49191479 C9.01520751,5.58730907 9.07005388,5.70899546 9.07052338,5.85727274 L9.07052338,5.85718738 Z" id="Shape"></path>
                <path d="M11.8762676,8.03202755 C12.3164471,8.02562525 12.6631957,7.89949992 12.9165347,7.65552959 C13.1698524,7.41149523 13.2990722,7.09078265 13.304194,6.69334918 L13.304194,4.81922506 L12.6794789,4.81922506 L12.6794789,6.69334918 C12.6767046,6.94156637 12.6041665,7.13679386 12.4619501,7.27903163 C12.3197123,7.42116271 12.1244848,7.49376479 11.8762889,7.49656047 C11.6280717,7.49442637 11.4328443,7.42122673 11.2906278,7.27903163 C11.14839,7.13668715 11.0758733,6.94156637 11.073099,6.69334918 L11.073099,4.81922506 L10.4483838,4.81922506 L10.4483838,6.69334918 C10.4535057,7.09078265 10.5827041,7.41149523 10.8360431,7.65552959 C11.0893608,7.89956395 11.4361094,8.02504904 11.8763103,8.03202755 L11.8762676,8.03202755 Z" id="Path"></path>
            </g>
            <g id="Chip" transform="translate(217.301385, 16.777762)">
                <g id="Rectangle">
                    <use fill="#D6C056" xlink:href="#path-5"></use>
                    <use fill="url(#linearGradient-4)" xlink:href="#path-5"></use>
                </g>
                <path d="M34.8468271,0.000401853426 L35.4675869,0.311095551 L25.4047478,7.54740185 L25.4047478,9.91340185 L32.9257478,9.91340185 L35.5729557,8.56224385 L35.8349764,8.50438467 L49.7421105,8.50438467 L49.7421105,8.98941454 L35.9823403,8.98895788 L33.4777478,10.2684019 L33.4777478,14.7574019 L49.7421689,14.7583583 L49.7421689,15.3499583 L33.4777478,15.3494019 L33.4777478,19.7314019 L35.9837068,21.0105822 L49.7421105,21.0105855 L49.7421105,21.4956153 L35.8349764,21.4956153 L35.5729557,21.4377562 L32.9277478,20.0864019 L25.4047478,20.0864019 L25.4047478,22.4514019 L35.4675869,29.6889044 L34.8468271,29.9995981 L25.0017478,22.9174019 L15.1560895,29.9995981 L14.5353297,29.6889044 L24.5967478,22.4514019 L24.5967478,20.0864019 L17.0747478,20.0864019 L14.429961,21.4377562 L14.1679403,21.4956153 L0.26080616,21.4956153 L0.26080616,21.0105855 L14.0168931,21.0105822 L16.5237478,19.7304019 L16.5237478,15.3494019 L0.260747756,15.3499622 L0.260747756,14.7583622 L16.5237478,14.7574019 L16.5237478,10.2684019 L14.0182596,8.98895788 L0.26080616,8.98941454 L0.26080616,8.50438467 L14.1679403,8.50438467 L14.429961,8.56224385 L17.0757478,9.91340185 L24.5967478,9.91340185 L24.5967478,7.54740185 L14.5353297,0.311095551 L15.1560895,0.000401853426 L25.0017478,7.08140185 L34.8468271,0.000401853426 Z M32.6687348,10.3991191 L17.3318651,10.3991191 L17.3318651,19.6012409 L32.6687348,19.6012409 L32.6687348,10.3991191 Z" id="Combined-Shape" fill="#505050"></path>
            </g>
        </g>
        <path d="M24.212,101 C24.608,101 24.914,100.604 24.914,100.298 L24.914,96.086 C24.914,95.69 24.608,95.384 24.212,95.384 L22.808,95.384 C22.412,95.384 22.106,95.078 22.106,94.682 L22.106,89.066 C22.106,88.67 21.8,88.364 21.404,88.364 L20,88.364 C19.604,88.364 19.298,88.67 19.298,89.066 L19.298,89.768 C19.298,90.164 19.604,90.47 20,90.47 C20.396,90.47 20.702,90.776 20.702,91.172 L20.702,94.682 C20.702,95.078 20.396,95.384 20,95.384 C19.604,95.384 19.298,95.69 19.298,96.086 L19.298,100.298 C19.298,100.604 19.604,101 20,101 L24.212,101 Z M37.712,101 C38.108,101 38.414,100.694 38.414,100.298 C38.414,99.902 38.108,99.596 37.712,99.596 L34.904,99.596 C34.508,99.596 34.202,99.29 34.202,98.894 L34.202,96.086 C34.202,95.69 34.508,95.384 34.904,95.384 L37.712,95.384 C38.108,95.384 38.414,95.078 38.414,94.682 L38.414,89.066 C38.414,88.67 38.108,88.364 37.712,88.364 L33.5,88.364 C33.104,88.364 32.798,88.67 32.798,89.066 C32.798,89.462 33.104,89.768 33.5,89.768 L36.308,89.768 C36.704,89.768 37.01,90.074 37.01,90.47 L37.01,93.278 C37.01,93.674 36.704,93.98 36.308,93.98 L33.5,93.98 C33.104,93.98 32.798,94.286 32.798,94.682 L32.798,100.298 C32.798,100.694 33.104,101 33.5,101 L37.712,101 Z M51.212,101 C51.608,101 51.914,100.694 51.914,100.298 L51.914,95.384 C51.914,94.988 51.608,94.682 51.212,94.682 C50.816,94.682 50.51,94.376 50.51,93.98 L50.51,89.066 C50.51,88.67 50.204,88.364 49.808,88.364 L45.596,88.364 C45.2,88.364 44.894,88.67 44.894,89.066 C44.894,89.462 45.2,89.768 45.596,89.768 L48.404,89.768 C48.8,89.768 49.106,90.074 49.106,90.47 L49.106,93.278 C49.106,93.674 48.8,93.98 48.404,93.98 L45.596,93.98 C45.2,93.98 44.894,94.286 44.894,94.682 C44.894,95.078 45.2,95.384 45.596,95.384 L48.404,95.384 C48.8,95.384 49.106,95.69 49.106,96.086 L49.106,98.894 C49.106,99.29 48.8,99.596 48.404,99.596 L45.596,99.596 C45.2,99.596 44.894,99.902 44.894,100.298 C44.894,100.694 45.2,101 45.596,101 L51.212,101 Z M64.712,101 C65.108,101 65.414,100.694 65.414,100.298 L65.414,96.086 C65.414,95.69 65.108,95.384 64.712,95.384 L63.308,95.384 C62.912,95.384 62.606,95.69 62.606,96.086 C62.606,96.482 62.3,96.788 61.904,96.788 L60.5,96.788 C60.104,96.788 59.798,96.482 59.798,96.086 L59.798,89.066 C59.798,88.67 59.492,88.364 59.096,88.364 L57.692,88.364 C57.296,88.364 56.99,88.67 56.99,89.066 L56.99,97.49 C56.99,97.886 57.296,98.192 57.692,98.192 L61.904,98.192 C62.3,98.192 62.606,98.498 62.606,98.894 L62.606,100.298 C62.606,100.694 62.912,101 63.308,101 L64.712,101 Z M91.712,101 C92.108,101 92.414,100.694 92.414,100.298 L92.414,94.682 C92.414,94.286 92.108,93.98 91.712,93.98 L87.5,93.98 C87.104,93.98 86.798,93.674 86.798,93.278 L86.798,90.47 C86.798,90.074 87.104,89.768 87.5,89.768 L91.712,89.768 C92.108,89.768 92.414,89.462 92.414,89.066 C92.414,88.67 92.108,88.364 91.712,88.364 L86.096,88.364 C85.7,88.364 85.394,88.67 85.394,89.066 L85.394,94.682 C85.394,95.078 85.7,95.384 86.096,95.384 L90.308,95.384 C90.704,95.384 91.01,95.69 91.01,96.086 L91.01,98.894 C91.01,99.29 90.704,99.596 90.308,99.596 L86.096,99.596 C85.7,99.596 85.394,99.902 85.394,100.298 C85.394,100.694 85.7,101 86.096,101 L91.712,101 Z M105.212,101 C105.608,101 105.914,100.694 105.914,100.298 L105.914,96.086 C105.914,95.69 105.608,95.384 105.212,95.384 L99.596,95.384 C99.2,95.384 98.894,95.078 98.894,94.682 L98.894,90.47 C98.894,90.074 99.2,89.768 99.596,89.768 L101,89.768 C101.396,89.768 101.702,90.074 101.702,90.47 L101.702,91.172 C101.702,91.568 102.008,91.874 102.404,91.874 C102.8,91.874 103.106,91.568 103.106,91.172 L103.106,89.066 C103.106,88.67 102.8,88.364 102.404,88.364 L98.192,88.364 C97.796,88.364 97.49,88.67 97.49,89.066 L97.49,100.298 C97.49,100.694 97.796,101 98.192,101 L105.212,101 Z M103.808,99.596 L99.596,99.596 C99.2,99.596 98.894,99.29 98.894,98.894 L98.894,97.49 C98.894,97.094 99.2,96.788 99.596,96.788 L103.808,96.788 C104.204,96.788 104.51,97.094 104.51,97.49 L104.51,98.894 C104.51,99.29 104.204,99.596 103.808,99.596 Z M115.904,101 C116.3,101 116.606,100.694 116.606,100.298 L116.606,95.6 C116.606,95.276 116.822,95.006 117.146,94.916 L118.874,94.178 C119.198,94.088 119.414,93.818 119.414,93.494 L119.414,89.066 C119.414,88.67 119.108,88.364 118.712,88.364 L113.096,88.364 C112.7,88.364 112.394,88.67 112.394,89.066 L112.394,91.874 C112.394,92.27 112.7,92.576 113.096,92.576 C113.492,92.576 113.798,92.27 113.798,91.874 L113.798,90.47 C113.798,90.074 114.104,89.768 114.5,89.768 L117.308,89.768 C117.704,89.768 118.01,90.074 118.01,90.47 L118.01,92.576 C118.01,92.9 117.794,93.17 117.47,93.26 L115.742,93.998 C115.418,94.088 115.202,94.358 115.202,94.682 L115.202,100.298 C115.202,100.694 115.508,101 115.904,101 Z M132.212,101 C132.608,101 132.914,100.694 132.914,100.298 L132.914,95.384 C132.914,94.988 132.608,94.682 132.212,94.682 C131.816,94.682 131.51,94.376 131.51,93.98 L131.51,89.066 C131.51,88.67 131.204,88.364 130.808,88.364 L125.192,88.364 C124.796,88.364 124.49,88.67 124.49,89.066 L124.49,93.98 C124.49,94.376 124.184,94.682 123.788,94.682 C123.392,94.682 123.086,94.988 123.086,95.384 L123.086,100.298 C123.086,100.694 123.392,101 123.788,101 L132.212,101 Z M129.404,93.98 L126.596,93.98 C126.2,93.98 125.894,93.674 125.894,93.278 L125.894,90.47 C125.894,90.074 126.2,89.768 126.596,89.768 L129.404,89.768 C129.8,89.768 130.106,90.074 130.106,90.47 L130.106,93.278 C130.106,93.674 129.8,93.98 129.404,93.98 Z M129.404,99.596 L126.596,99.596 C126.2,99.596 125.894,99.29 125.894,98.894 L125.894,96.086 C125.894,95.69 126.2,95.384 126.596,95.384 L129.404,95.384 C129.8,95.384 130.106,95.69 130.106,96.086 L130.106,98.894 C130.106,99.29 129.8,99.596 129.404,99.596 Z M159.212,101 C159.608,101 159.914,100.694 159.914,100.298 L159.914,89.066 C159.914,88.67 159.608,88.364 159.212,88.364 L152.192,88.364 C151.796,88.364 151.49,88.67 151.49,89.066 L151.49,94.682 C151.49,95.078 151.796,95.384 152.192,95.384 L156.404,95.384 C156.8,95.384 157.106,95.69 157.106,96.086 L157.106,100.298 C157.106,100.694 157.412,101 157.808,101 L159.212,101 Z M157.808,93.98 L153.596,93.98 C153.2,93.98 152.894,93.674 152.894,93.278 L152.894,90.47 C152.894,90.074 153.2,89.768 153.596,89.768 L157.808,89.768 C158.204,89.768 158.51,90.074 158.51,90.47 L158.51,93.278 C158.51,93.674 158.204,93.98 157.808,93.98 Z M172.712,101 C173.108,101 173.414,100.694 173.414,100.298 L173.414,95.384 C173.414,94.988 173.108,94.682 172.712,94.682 C172.316,94.682 172.01,94.376 172.01,93.98 L172.01,89.066 C172.01,88.67 171.704,88.364 171.308,88.364 L165.692,88.364 C165.296,88.364 164.99,88.67 164.99,89.066 L164.99,93.98 C164.99,94.376 164.684,94.682 164.288,94.682 C163.892,94.682 163.586,94.988 163.586,95.384 L163.586,100.298 C163.586,100.694 163.892,101 164.288,101 L172.712,101 Z M169.904,93.98 L167.096,93.98 C166.7,93.98 166.394,93.674 166.394,93.278 L166.394,90.47 C166.394,90.074 166.7,89.768 167.096,89.768 L169.904,89.768 C170.3,89.768 170.606,90.074 170.606,90.47 L170.606,93.278 C170.606,93.674 170.3,93.98 169.904,93.98 Z M169.904,99.596 L167.096,99.596 C166.7,99.596 166.394,99.29 166.394,98.894 L166.394,96.086 C166.394,95.69 166.7,95.384 167.096,95.384 L169.904,95.384 C170.3,95.384 170.606,95.69 170.606,96.086 L170.606,98.894 C170.606,99.29 170.3,99.596 169.904,99.596 Z M183.404,101 C183.8,101 184.106,100.694 184.106,100.298 L184.106,95.6 C184.106,95.276 184.322,95.006 184.646,94.916 L186.374,94.178 C186.698,94.088 186.914,93.818 186.914,93.494 L186.914,89.066 C186.914,88.67 186.608,88.364 186.212,88.364 L180.596,88.364 C180.2,88.364 179.894,88.67 179.894,89.066 L179.894,91.874 C179.894,92.27 180.2,92.576 180.596,92.576 C180.992,92.576 181.298,92.27 181.298,91.874 L181.298,90.47 C181.298,90.074 181.604,89.768 182,89.768 L184.808,89.768 C185.204,89.768 185.51,90.074 185.51,90.47 L185.51,92.576 C185.51,92.9 185.294,93.17 184.97,93.26 L183.242,93.998 C182.918,94.088 182.702,94.358 182.702,94.682 L182.702,100.298 C182.702,100.694 183.008,101 183.404,101 Z M199.712,101 C200.108,101 200.414,100.694 200.414,100.298 L200.414,96.086 C200.414,95.69 200.108,95.384 199.712,95.384 L194.096,95.384 C193.7,95.384 193.394,95.078 193.394,94.682 L193.394,90.47 C193.394,90.074 193.7,89.768 194.096,89.768 L195.5,89.768 C195.896,89.768 196.202,90.074 196.202,90.47 L196.202,91.172 C196.202,91.568 196.508,91.874 196.904,91.874 C197.3,91.874 197.606,91.568 197.606,91.172 L197.606,89.066 C197.606,88.67 197.3,88.364 196.904,88.364 L192.692,88.364 C192.296,88.364 191.99,88.67 191.99,89.066 L191.99,100.298 C191.99,100.694 192.296,101 192.692,101 L199.712,101 Z M198.308,99.596 L194.096,99.596 C193.7,99.596 193.394,99.29 193.394,98.894 L193.394,97.49 C193.394,97.094 193.7,96.788 194.096,96.788 L198.308,96.788 C198.704,96.788 199.01,97.094 199.01,97.49 L199.01,98.894 C199.01,99.29 198.704,99.596 198.308,99.596 Z M226.712,101 C227.108,101 227.414,100.694 227.414,100.298 L227.414,94.682 C227.414,94.286 227.108,93.98 226.712,93.98 L222.5,93.98 C222.104,93.98 221.798,93.674 221.798,93.278 L221.798,90.47 C221.798,90.074 222.104,89.768 222.5,89.768 L226.712,89.768 C227.108,89.768 227.414,89.462 227.414,89.066 C227.414,88.67 227.108,88.364 226.712,88.364 L221.096,88.364 C220.7,88.364 220.394,88.67 220.394,89.066 L220.394,94.682 C220.394,95.078 220.7,95.384 221.096,95.384 L225.308,95.384 C225.704,95.384 226.01,95.69 226.01,96.086 L226.01,98.894 C226.01,99.29 225.704,99.596 225.308,99.596 L221.096,99.596 C220.7,99.596 220.394,99.902 220.394,100.298 C220.394,100.694 220.7,101 221.096,101 L226.712,101 Z M240.212,101 C240.608,101 240.914,100.694 240.914,100.298 L240.914,96.086 C240.914,95.69 240.608,95.384 240.212,95.384 L238.808,95.384 C238.412,95.384 238.106,95.69 238.106,96.086 C238.106,96.482 237.8,96.788 237.404,96.788 L236,96.788 C235.604,96.788 235.298,96.482 235.298,96.086 L235.298,89.066 C235.298,88.67 234.992,88.364 234.596,88.364 L233.192,88.364 C232.796,88.364 232.49,88.67 232.49,89.066 L232.49,97.49 C232.49,97.886 232.796,98.192 233.192,98.192 L237.404,98.192 C237.8,98.192 238.106,98.498 238.106,98.894 L238.106,100.298 C238.106,100.694 238.412,101 238.808,101 L240.212,101 Z M253.712,101 C254.108,101 254.414,100.694 254.414,100.298 L254.414,95.384 C254.414,94.988 254.108,94.682 253.712,94.682 C253.316,94.682 253.01,94.376 253.01,93.98 L253.01,89.066 C253.01,88.67 252.704,88.364 252.308,88.364 L248.096,88.364 C247.7,88.364 247.394,88.67 247.394,89.066 C247.394,89.462 247.7,89.768 248.096,89.768 L250.904,89.768 C251.3,89.768 251.606,90.074 251.606,90.47 L251.606,93.278 C251.606,93.674 251.3,93.98 250.904,93.98 L248.096,93.98 C247.7,93.98 247.394,94.286 247.394,94.682 C247.394,95.078 247.7,95.384 248.096,95.384 L250.904,95.384 C251.3,95.384 251.606,95.69 251.606,96.086 L251.606,98.894 C251.606,99.29 251.3,99.596 250.904,99.596 L248.096,99.596 C247.7,99.596 247.394,99.902 247.394,100.298 C247.394,100.694 247.7,101 248.096,101 L253.712,101 Z M267.212,101 C267.608,101 267.914,100.694 267.914,100.298 C267.914,99.902 267.608,99.596 267.212,99.596 L264.404,99.596 C264.008,99.596 263.702,99.29 263.702,98.894 L263.702,96.086 C263.702,95.69 264.008,95.384 264.404,95.384 L267.212,95.384 C267.608,95.384 267.914,95.078 267.914,94.682 L267.914,89.066 C267.914,88.67 267.608,88.364 267.212,88.364 L263,88.364 C262.604,88.364 262.298,88.67 262.298,89.066 C262.298,89.462 262.604,89.768 263,89.768 L265.808,89.768 C266.204,89.768 266.51,90.074 266.51,90.47 L266.51,93.278 C266.51,93.674 266.204,93.98 265.808,93.98 L263,93.98 C262.604,93.98 262.298,94.286 262.298,94.682 L262.298,100.298 C262.298,100.694 262.604,101 263,101 L267.212,101 Z" id="1234567898765432" fill="#FFFFFF" fill-rule="nonzero"></path>
        <path d="M138.195695,135 C138.459695,135 138.663695,134.736 138.663695,134.532 L138.663695,131.724 C138.663695,131.46 138.459695,131.256 138.195695,131.256 L137.259695,131.256 C136.995695,131.256 136.791695,131.052 136.791695,130.788 L136.791695,127.044 C136.791695,126.78 136.587695,126.576 136.323695,126.576 L135.387695,126.576 C135.123695,126.576 134.919695,126.78 134.919695,127.044 L134.919695,127.512 C134.919695,127.776 135.123695,127.98 135.387695,127.98 C135.651695,127.98 135.855695,128.184 135.855695,128.448 L135.855695,130.788 C135.855695,131.052 135.651695,131.256 135.387695,131.256 C135.123695,131.256 134.919695,131.46 134.919695,131.724 L134.919695,134.532 C134.919695,134.736 135.123695,135 135.387695,135 L138.195695,135 Z M147.195695,135 C147.459695,135 147.663695,134.796 147.663695,134.532 C147.663695,134.268 147.459695,134.064 147.195695,134.064 L145.323695,134.064 C145.059695,134.064 144.855695,133.86 144.855695,133.596 L144.855695,131.724 C144.855695,131.46 145.059695,131.256 145.323695,131.256 L147.195695,131.256 C147.459695,131.256 147.663695,131.052 147.663695,130.788 L147.663695,127.044 C147.663695,126.78 147.459695,126.576 147.195695,126.576 L144.387695,126.576 C144.123695,126.576 143.919695,126.78 143.919695,127.044 C143.919695,127.308 144.123695,127.512 144.387695,127.512 L146.259695,127.512 C146.523695,127.512 146.727695,127.716 146.727695,127.98 L146.727695,129.852 C146.727695,130.116 146.523695,130.32 146.259695,130.32 L144.387695,130.32 C144.123695,130.32 143.919695,130.524 143.919695,130.788 L143.919695,134.532 C143.919695,134.796 144.123695,135 144.387695,135 L147.195695,135 Z M150.604492,136.113281 L155.209961,126.251953 L154.09668,126.251953 L149.485352,136.113281 L150.604492,136.113281 Z M163.420305,135 C163.684305,135 163.888305,134.796 163.888305,134.532 L163.888305,127.044 C163.888305,126.78 163.684305,126.576 163.420305,126.576 L158.740305,126.576 C158.476305,126.576 158.272305,126.78 158.272305,127.044 L158.272305,130.788 C158.272305,131.052 158.476305,131.256 158.740305,131.256 L161.548305,131.256 C161.812305,131.256 162.016305,131.46 162.016305,131.724 L162.016305,134.532 C162.016305,134.796 162.220305,135 162.484305,135 L163.420305,135 Z M162.484305,130.32 L159.676305,130.32 C159.412305,130.32 159.208305,130.116 159.208305,129.852 L159.208305,127.98 C159.208305,127.716 159.412305,127.512 159.676305,127.512 L162.484305,127.512 C162.748305,127.512 162.952305,127.716 162.952305,127.98 L162.952305,129.852 C162.952305,130.116 162.748305,130.32 162.484305,130.32 Z M172.420305,135 C172.684305,135 172.888305,134.796 172.888305,134.532 L172.888305,127.044 C172.888305,126.78 172.684305,126.576 172.420305,126.576 L167.740305,126.576 C167.476305,126.576 167.272305,126.78 167.272305,127.044 L167.272305,130.788 C167.272305,131.052 167.476305,131.256 167.740305,131.256 L170.548305,131.256 C170.812305,131.256 171.016305,131.46 171.016305,131.724 L171.016305,134.532 C171.016305,134.796 171.220305,135 171.484305,135 L172.420305,135 Z M171.484305,130.32 L168.676305,130.32 C168.412305,130.32 168.208305,130.116 168.208305,129.852 L168.208305,127.98 C168.208305,127.716 168.412305,127.512 168.676305,127.512 L171.484305,127.512 C171.748305,127.512 171.952305,127.716 171.952305,127.98 L171.952305,129.852 C171.952305,130.116 171.748305,130.32 171.484305,130.32 Z" id="12/99" fill="#FFFFFF" fill-rule="nonzero"></path>
        <path d="M23.3046875,163.226562 C23.7786458,163.226562 24.2265625,163.173177 24.6484375,163.066406 C25.0703125,162.959635 25.4817708,162.799479 25.8828125,162.585938 L25.8828125,162.585938 L25.8828125,160.96875 C25.5026042,161.286458 25.0924479,161.528646 24.6523438,161.695312 C24.2122396,161.861979 23.7630208,161.945312 23.3046875,161.945312 C22.2786458,161.945312 21.5104167,161.549479 21,160.757812 C20.4895833,159.966146 20.234375,158.773438 20.234375,157.179688 C20.234375,155.580729 20.4895833,154.385417 21,153.59375 C21.5104167,152.802083 22.2786458,152.40625 23.3046875,152.40625 C23.7526042,152.40625 24.1979167,152.489583 24.640625,152.65625 C25.0833333,152.822917 25.4973958,153.065104 25.8828125,153.382812 L25.8828125,153.382812 L25.8828125,151.765625 C25.4817708,151.552083 25.0703125,151.391927 24.6484375,151.285156 C24.2265625,151.178385 23.7786458,151.125 23.3046875,151.125 C21.8203125,151.125 20.6627604,151.657552 19.8320312,152.722656 C19.0013021,153.78776 18.5859375,155.273438 18.5859375,157.179688 C18.5859375,159.096354 18.9986979,160.583333 19.8242188,161.640625 C20.6497396,162.697917 21.8098958,163.226562 23.3046875,163.226562 Z M29.0546875,163 L29.8984375,159.960938 L33.984375,159.960938 L34.84375,163 L36.4765625,163 L32.90625,151.335938 L30.9921875,151.335938 L27.421875,163 L29.0546875,163 Z M33.609375,158.695312 L30.28125,158.695312 L31.9453125,152.726562 L33.609375,158.695312 Z M39.46875,163 L39.46875,158.070312 L40.9765625,158.070312 C41.4921875,158.070312 41.9101562,158.191406 42.2304688,158.433594 C42.5507812,158.675781 42.9114583,159.216146 43.3125,160.054688 L43.3125,160.054688 L44.703125,163 L46.3984375,163 L44.8125,159.8125 C44.3854167,158.947917 44.0286458,158.371094 43.7421875,158.082031 C43.4557292,157.792969 43.109375,157.596354 42.703125,157.492188 C43.4635417,157.382812 44.0533854,157.084635 44.4726562,156.597656 C44.8919271,156.110677 45.1015625,155.481771 45.1015625,154.710938 C45.1015625,153.617188 44.7604167,152.78125 44.078125,152.203125 C43.3958333,151.625 42.4140625,151.335938 41.1328125,151.335938 L41.1328125,151.335938 L37.8828125,151.335938 L37.8828125,163 L39.46875,163 Z M41.1953125,156.773438 L39.46875,156.773438 L39.46875,152.632812 L41.1328125,152.632812 C41.8828125,152.632812 42.4544271,152.811198 42.8476562,153.167969 C43.2408854,153.52474 43.4375,154.039062 43.4375,154.710938 C43.4375,155.408854 43.2526042,155.927083 42.8828125,156.265625 C42.5130208,156.604167 41.9505208,156.773438 41.1953125,156.773438 L41.1953125,156.773438 Z M49.8359375,163 C51.6171875,163 52.9296875,162.527344 53.7734375,161.582031 C54.6171875,160.636719 55.0390625,159.169271 55.0390625,157.179688 C55.0390625,155.179688 54.6171875,153.705729 53.7734375,152.757812 C52.9296875,151.809896 51.6171875,151.335938 49.8359375,151.335938 L49.8359375,151.335938 L47.46875,151.335938 L47.46875,163 L49.8359375,163 Z M49.8046875,161.703125 L49.0546875,161.703125 L49.0546875,152.632812 L49.8046875,152.632812 C51.1380208,152.632812 52.0664062,152.959635 52.5898438,153.613281 C53.1132812,154.266927 53.375,155.455729 53.375,157.179688 C53.375,158.888021 53.1119792,160.06901 52.5859375,160.722656 C52.0598958,161.376302 51.1328125,161.703125 49.8046875,161.703125 L49.8046875,161.703125 Z M58.6875,163 L58.6875,157.132812 L63.0078125,157.132812 L63.0078125,163 L64.59375,163 L64.59375,151.335938 L63.0078125,151.335938 L63.0078125,155.804688 L58.6875,155.804688 L58.6875,151.335938 L57.1015625,151.335938 L57.1015625,163 L58.6875,163 Z M70.4765625,163.226562 C71.7942708,163.226562 72.7747396,162.726562 73.4179688,161.726562 C74.0611979,160.726562 74.3828125,159.210938 74.3828125,157.179688 C74.3828125,155.143229 74.0611979,153.625 73.4179688,152.625 C72.7747396,151.625 71.7942708,151.125 70.4765625,151.125 C69.1640625,151.125 68.1861979,151.625 67.5429688,152.625 C66.8997396,153.625 66.578125,155.143229 66.578125,157.179688 C66.578125,159.221354 66.8984375,160.739583 67.5390625,161.734375 C68.1796875,162.729167 69.1588542,163.226562 70.4765625,163.226562 Z M70.4765625,161.945312 C69.6796875,161.945312 69.1054688,161.578125 68.7539062,160.84375 C68.4023438,160.109375 68.2265625,158.888021 68.2265625,157.179688 C68.2265625,155.466146 68.4023438,154.242188 68.7539062,153.507812 C69.1054688,152.773438 69.6796875,152.40625 70.4765625,152.40625 C71.2786458,152.40625 71.8554688,152.773438 72.2070312,153.507812 C72.5585938,154.242188 72.734375,155.466146 72.734375,157.179688 C72.734375,158.893229 72.5585938,160.115885 72.2070312,160.847656 C71.8554688,161.579427 71.2786458,161.945312 70.4765625,161.945312 Z M84.1953125,163 L84.1953125,161.671875 L78.5625,161.671875 L78.5625,151.335938 L76.9765625,151.335938 L76.9765625,163 L84.1953125,163 Z M88.3671875,163 C90.1484375,163 91.4609375,162.527344 92.3046875,161.582031 C93.1484375,160.636719 93.5703125,159.169271 93.5703125,157.179688 C93.5703125,155.179688 93.1484375,153.705729 92.3046875,152.757812 C91.4609375,151.809896 90.1484375,151.335938 88.3671875,151.335938 L88.3671875,151.335938 L86,151.335938 L86,163 L88.3671875,163 Z M88.3359375,161.703125 L87.5859375,161.703125 L87.5859375,152.632812 L88.3359375,152.632812 C89.6692708,152.632812 90.5976562,152.959635 91.1210938,153.613281 C91.6445312,154.266927 91.90625,155.455729 91.90625,157.179688 C91.90625,158.888021 91.6432292,160.06901 91.1171875,160.722656 C90.5911458,161.376302 89.6640625,161.703125 88.3359375,161.703125 L88.3359375,161.703125 Z M103.171875,163 L103.171875,161.671875 L97.6796875,161.671875 L97.6796875,157.132812 L102.789062,157.132812 L102.789062,155.804688 L97.6796875,155.804688 L97.6796875,152.664062 L103.023438,152.664062 L103.023438,151.335938 L96.1015625,151.335938 L96.1015625,163 L103.171875,163 Z M106.898438,163 L106.898438,158.070312 L108.40625,158.070312 C108.921875,158.070312 109.339844,158.191406 109.660156,158.433594 C109.980469,158.675781 110.341146,159.216146 110.742188,160.054688 L110.742188,160.054688 L112.132812,163 L113.828125,163 L112.242188,159.8125 C111.815104,158.947917 111.458333,158.371094 111.171875,158.082031 C110.885417,157.792969 110.539062,157.596354 110.132812,157.492188 C110.893229,157.382812 111.483073,157.084635 111.902344,156.597656 C112.321615,156.110677 112.53125,155.481771 112.53125,154.710938 C112.53125,153.617188 112.190104,152.78125 111.507812,152.203125 C110.825521,151.625 109.84375,151.335938 108.5625,151.335938 L108.5625,151.335938 L105.3125,151.335938 L105.3125,163 L106.898438,163 Z M108.625,156.773438 L106.898438,156.773438 L106.898438,152.632812 L108.5625,152.632812 C109.3125,152.632812 109.884115,152.811198 110.277344,153.167969 C110.670573,153.52474 110.867188,154.039062 110.867188,154.710938 C110.867188,155.408854 110.682292,155.927083 110.3125,156.265625 C109.942708,156.604167 109.380208,156.773438 108.625,156.773438 L108.625,156.773438 Z" id="CARDHOLDER" fill="#FFFFFF" fill-rule="nonzero"></path>
        <path d="M26.546875,36.3398438 C27.2109375,36.3398438 27.84375,36.2695312 28.4453125,36.1289062 C29.046875,35.9882812 29.6210938,35.7773438 30.1679688,35.4960938 L30.1679688,35.4960938 L30.1679688,31.6523438 C29.5742188,32.1992188 28.9980469,32.5996094 28.4394531,32.8535156 C27.8808594,33.1074219 27.3046875,33.234375 26.7109375,33.234375 C25.4453125,33.234375 24.4902344,32.7324219 23.8457031,31.7285156 C23.2011719,30.7246094 22.8789062,29.2382812 22.8789062,27.2695312 C22.8789062,25.2929688 23.2011719,23.8027344 23.8457031,22.7988281 C24.4902344,21.7949219 25.4453125,21.2929688 26.7109375,21.2929688 C27.3046875,21.2929688 27.8808594,21.4199219 28.4394531,21.6738281 C28.9980469,21.9277344 29.5742188,22.328125 30.1679688,22.875 L30.1679688,22.875 L30.1679688,19.03125 C29.6367188,18.75 29.0664062,18.5390625 28.4570312,18.3984375 C27.8476562,18.2578125 27.2109375,18.1875 26.546875,18.1875 C24.1875,18.1875 22.3867188,18.9648438 21.1445312,20.5195312 C19.9023438,22.0742188 19.28125,24.3242188 19.28125,27.2695312 C19.28125,30.2070312 19.9023438,32.453125 21.1445312,34.0078125 C22.3867188,35.5625 24.1875,36.3398438 26.546875,36.3398438 Z M36.9648438,36 L36.9648438,29.0859375 L38.0664062,29.0859375 C38.9023438,29.0859375 39.6289062,29.7460938 40.2460938,31.0664062 C40.3476562,31.2851562 40.4296875,31.4570312 40.4921875,31.5820312 L40.4921875,31.5820312 L42.6015625,36 L46.3984375,36 L43.234375,29.7070312 C42.8671875,28.9726562 42.5566406,28.4785156 42.3027344,28.2246094 C42.0488281,27.9707031 41.75,27.8085938 41.40625,27.7382812 C42.5078125,27.5976562 43.3515625,27.171875 43.9375,26.4609375 C44.5234375,25.75 44.8164062,24.7929688 44.8164062,23.5898438 C44.8164062,21.7929688 44.3261719,20.4960938 43.3457031,19.6992188 C42.3652344,18.9023438 40.75,18.5039062 38.5,18.5039062 L38.5,18.5039062 L33.5078125,18.5039062 L33.5078125,36 L36.9648438,36 Z M38.59375,26.1796875 L36.9648438,26.1796875 L36.9648438,21.4101562 L38.59375,21.4101562 C39.546875,21.4101562 40.2265625,21.59375 40.6328125,21.9609375 C41.0390625,22.328125 41.2421875,22.9375 41.2421875,23.7890625 C41.2421875,24.640625 41.0371094,25.2519531 40.6269531,25.6230469 C40.2167969,25.9941406 39.5390625,26.1796875 38.59375,26.1796875 L38.59375,26.1796875 Z M59.265625,36 L59.265625,32.953125 L51.8242188,32.953125 L51.8242188,28.3710938 L58.5625,28.3710938 L58.5625,25.3242188 L51.8242188,25.3242188 L51.8242188,21.5507812 L59.265625,21.5507812 L59.265625,18.5039062 L48.3671875,18.5039062 L48.3671875,36 L59.265625,36 Z M66.15625,36 C69.015625,36 71.0742188,35.3144531 72.3320312,33.9433594 C73.5898438,32.5722656 74.21875,30.3359375 74.21875,27.234375 C74.21875,24.140625 73.5898438,21.9121094 72.3320312,20.5488281 C71.0742188,19.1855469 69.015625,18.5039062 66.15625,18.5039062 L66.15625,18.5039062 L62.453125,18.5039062 L62.453125,36 L66.15625,36 Z M66.8476562,32.8828125 L65.9101562,32.8828125 L65.9101562,21.6210938 L66.8476562,21.6210938 C68.2070312,21.6210938 69.1757812,22.046875 69.7539062,22.8984375 C70.3320312,23.75 70.6210938,25.1953125 70.6210938,27.234375 C70.6210938,29.2890625 70.3320312,30.7441406 69.7539062,31.5996094 C69.1757812,32.4550781 68.2070312,32.8828125 66.8476562,32.8828125 L66.8476562,32.8828125 Z M87.7304688,36 L87.7304688,32.953125 L84.25,32.953125 L84.25,21.5507812 L87.7304688,21.5507812 L87.7304688,18.5039062 L77.3125,18.5039062 L77.3125,21.5507812 L80.7929688,21.5507812 L80.7929688,32.953125 L77.3125,32.953125 L77.3125,36 L87.7304688,36 Z M98.6992188,36 L98.6992188,21.5273438 L103.140625,21.5273438 L103.140625,18.5039062 L90.8007812,18.5039062 L90.8007812,21.5273438 L95.2421875,21.5273438 L95.2421875,36 L98.6992188,36 Z M127.691406,36.3398438 C128.355469,36.3398438 128.988281,36.2695312 129.589844,36.1289062 C130.191406,35.9882812 130.765625,35.7773438 131.3125,35.4960938 L131.3125,35.4960938 L131.3125,31.6523438 C130.71875,32.1992188 130.142578,32.5996094 129.583984,32.8535156 C129.025391,33.1074219 128.449219,33.234375 127.855469,33.234375 C126.589844,33.234375 125.634766,32.7324219 124.990234,31.7285156 C124.345703,30.7246094 124.023438,29.2382812 124.023438,27.2695312 C124.023438,25.2929688 124.345703,23.8027344 124.990234,22.7988281 C125.634766,21.7949219 126.589844,21.2929688 127.855469,21.2929688 C128.449219,21.2929688 129.025391,21.4199219 129.583984,21.6738281 C130.142578,21.9277344 130.71875,22.328125 131.3125,22.875 L131.3125,22.875 L131.3125,19.03125 C130.78125,18.75 130.210938,18.5390625 129.601562,18.3984375 C128.992188,18.2578125 128.355469,18.1875 127.691406,18.1875 C125.332031,18.1875 123.53125,18.9648438 122.289062,20.5195312 C121.046875,22.0742188 120.425781,24.3242188 120.425781,27.2695312 C120.425781,30.2070312 121.046875,32.453125 122.289062,34.0078125 C123.53125,35.5625 125.332031,36.3398438 127.691406,36.3398438 Z M136.9375,36 L137.992188,31.6757812 L142.621094,31.6757812 L143.699219,36 L147.15625,36 L142.433594,18.5039062 L138.203125,18.5039062 L133.480469,36 L136.9375,36 Z M141.953125,28.828125 L138.683594,28.828125 L140.3125,21.6679688 L141.953125,28.828125 Z M152.558594,36 L152.558594,29.0859375 L153.660156,29.0859375 C154.496094,29.0859375 155.222656,29.7460938 155.839844,31.0664062 C155.941406,31.2851562 156.023438,31.4570312 156.085938,31.5820312 L156.085938,31.5820312 L158.195312,36 L161.992188,36 L158.828125,29.7070312 C158.460938,28.9726562 158.150391,28.4785156 157.896484,28.2246094 C157.642578,27.9707031 157.34375,27.8085938 157,27.7382812 C158.101562,27.5976562 158.945312,27.171875 159.53125,26.4609375 C160.117188,25.75 160.410156,24.7929688 160.410156,23.5898438 C160.410156,21.7929688 159.919922,20.4960938 158.939453,19.6992188 C157.958984,18.9023438 156.34375,18.5039062 154.09375,18.5039062 L154.09375,18.5039062 L149.101562,18.5039062 L149.101562,36 L152.558594,36 Z M154.1875,26.1796875 L152.558594,26.1796875 L152.558594,21.4101562 L154.1875,21.4101562 C155.140625,21.4101562 155.820312,21.59375 156.226562,21.9609375 C156.632812,22.328125 156.835938,22.9375 156.835938,23.7890625 C156.835938,24.640625 156.630859,25.2519531 156.220703,25.6230469 C155.810547,25.9941406 155.132812,26.1796875 154.1875,26.1796875 L154.1875,26.1796875 Z M167.300781,36 C170.160156,36 172.21875,35.3144531 173.476562,33.9433594 C174.734375,32.5722656 175.363281,30.3359375 175.363281,27.234375 C175.363281,24.140625 174.734375,21.9121094 173.476562,20.5488281 C172.21875,19.1855469 170.160156,18.5039062 167.300781,18.5039062 L167.300781,18.5039062 L163.597656,18.5039062 L163.597656,36 L167.300781,36 Z M167.992188,32.8828125 L167.054688,32.8828125 L167.054688,21.6210938 L167.992188,21.6210938 C169.351562,21.6210938 170.320312,22.046875 170.898438,22.8984375 C171.476562,23.75 171.765625,25.1953125 171.765625,27.234375 C171.765625,29.2890625 171.476562,30.7441406 170.898438,31.5996094 C170.320312,32.4550781 169.351562,32.8828125 167.992188,32.8828125 L167.992188,32.8828125 Z" id="CREDITCARD" fill="#FFFFFF" fill-rule="nonzero"></path>
    </g>
</svg>