<?xml version="1.0" encoding="UTF-8"?>
<svg width="32px" height="32px" viewBox="0 0 32 32" version="1.1" xmlns="http://www.w3.org/2000/svg" xmlns:xlink="http://www.w3.org/1999/xlink">
    <title>Icon/FA/SignOutAlt</title>
    <g id="Icon/FA/SignOutAlt" stroke="none" stroke-width="1" fill="none" fill-rule="evenodd">
        <path d="M27.296875,16.8023908 L19.421875,24.6773908 C19.0781238,25.0211426 18.6718769,25.0992668 18.203125,24.9117658 C17.7343731,24.7242649 17.5,24.3805183 17.5,23.8805158 L17.5,19.3805158 L11.125,19.3805158 C10.8124994,19.3805158 10.5468756,19.2711415 10.328125,19.0523908 C10.1093744,18.8336402 10,18.5680165 10,18.2555158 L10,13.7555158 C10,13.4430152 10.1093744,13.1773915 10.328125,12.9586408 C10.5468756,12.7398902 10.8124994,12.6305158 11.125,12.6305158 L17.5,12.6305158 L17.5,8.13051584 C17.5,7.63051334 17.7343731,7.28676771 18.203125,7.09926584 C18.6718769,6.91176396 19.0781238,6.98988959 19.421875,7.33364084 L27.296875,15.2086408 C27.5156313,15.4273915 27.625,15.6930152 27.625,16.0055158 C27.625,16.3180165 27.5156313,16.5836402 27.296875,16.8023908 Z M13,24.4430158 C13,24.8180177 12.8125019,25.0055158 12.4375,25.0055158 L8.5,25.0055158 C7.24999375,25.0055158 6.18750437,24.5680202 5.3125,23.6930158 C4.43749563,22.8180115 4,21.7555221 4,20.5055158 L4,11.5055158 C4,10.2555096 4.43749563,9.19302021 5.3125,8.31801584 C6.18750437,7.44301146 7.24999375,7.00551584 8.5,7.00551584 L12.4375,7.00551584 C12.8125019,7.00551584 13,7.19301396 13,7.56801584 L13,9.44301584 C13,9.81801771 12.8125019,10.0055158 12.4375,10.0055158 L8.5,10.0055158 C8.0937475,10.0055158 7.74218875,10.1539521 7.4453125,10.4508283 C7.14843625,10.7477046 7,11.0992633 7,11.5055158 L7,20.5055158 C7,20.9117683 7.14843625,21.2633271 7.4453125,21.5602033 C7.74218875,21.8570796 8.0937475,22.0055158 8.5,22.0055158 L12.4375,22.0055158 C12.8125019,22.0055158 13,22.193014 13,22.5680158 L13,24.4430158 Z" id="SignOutAlt" fill="#03C0EF"></path>
    </g>
</svg>