<?xml version="1.0" encoding="UTF-8"?>
<svg width="32px" height="32px" viewBox="0 0 32 32" version="1.1" xmlns="http://www.w3.org/2000/svg" xmlns:xlink="http://www.w3.org/1999/xlink">
    <title>Icon/FA/SyncAlt</title>
    <g id="Icon/FA/SyncAlt" stroke="none" stroke-width="1" fill="none" fill-rule="evenodd">
        <path d="M21.2857143,9.95238095 C19.7301505,8.52380952 17.9047733,7.80952381 15.8095238,7.80952381 C13.9682457,7.80952381 12.3254038,8.37300952 10.8809524,9.5 C9.43650095,10.6269905 8.49206667,12.0793562 8.04761905,13.8571429 C7.98412762,14.142859 7.79365143,14.2857143 7.47619048,14.2857143 L4.76190476,14.2857143 C4.57142762,14.2857143 4.42063543,14.2142857 4.30952381,14.0714286 C4.19841219,13.9285714 4.15873,13.777779 4.19047619,13.6190476 C4.73016152,10.8571295 6.08729143,8.56350476 8.26190476,6.73809524 C10.4365181,4.91268571 12.9523676,4 15.8095238,4 C18.9523962,4 21.6666552,5.09521905 23.952381,7.28571429 L25.6666667,5.57142857 C26.0158667,5.22222857 26.4285714,5.14285714 26.9047619,5.33333333 C27.3809524,5.52380952 27.6190476,5.87300952 27.6190476,6.38095238 L27.6190476,12.7619048 C27.6190476,13.0793657 27.5079429,13.3492057 27.2857143,13.5714286 C27.0634857,13.7936514 26.7936571,13.9047619 26.4761905,13.9047619 L20.0952381,13.9047619 C19.587299,13.9047619 19.2380971,13.6666686 19.047619,13.1904762 C18.857141,12.7142838 18.9365067,12.3015886 19.2857143,11.952381 L21.2857143,9.95238095 Z M5.14285714,17.7142857 L11.5238095,17.7142857 C12.0317486,17.7142857 12.3809505,17.952379 12.5714286,18.4285714 C12.7619067,18.9047638 12.682541,19.317459 12.3333333,19.6666667 L10.3333333,21.6666667 C11.8888971,23.0952457 13.7142743,23.8095238 15.8095238,23.8095238 C17.01588,23.8095238 18.1587238,23.547621 19.2380952,23.0238095 C20.3174667,22.4999981 21.2380914,21.7857181 22,20.8809524 C22.7619086,19.9761867 23.2857143,18.9365143 23.5714286,17.7619048 C23.6349143,17.4761886 23.8253905,17.3333333 24.1428571,17.3333333 L26.8571429,17.3333333 C27.047619,17.3333333 27.198419,17.4047619 27.3095238,17.547619 C27.4206286,17.6904762 27.4603238,17.8412686 27.4285714,18 C26.8888952,20.7619181 25.5317524,23.0555467 23.3571429,24.8809524 C21.1825295,26.7063583 18.6666819,27.6190476 15.8095238,27.6190476 C12.6666514,27.6190476 9.95239238,26.5238206 7.66666667,24.3333333 L5.95238095,26.047619 C5.60317276,26.396827 5.19047867,26.4761914 4.71428571,26.2857143 C4.23809295,26.0952371 4,25.7460343 4,25.2380952 L4,18.8571429 C4,18.5396819 4.11111,18.2698419 4.33333333,18.047619 C4.55555657,17.8253962 4.82539524,17.7142857 5.14285714,17.7142857 Z" id="Fill-1" fill="#FFFFFF"></path>
    </g>
</svg>