<?xml version="1.0" encoding="UTF-8"?>
<svg width="24px" height="24px" viewBox="0 0 24 24" version="1.1" xmlns="http://www.w3.org/2000/svg" xmlns:xlink="http://www.w3.org/1999/xlink">
    <title>Flag/the United States</title>
    <g id="Flag/the-United-States" stroke="none" stroke-width="1" fill="none" fill-rule="evenodd">
        <g id="flag-66" transform="translate(2.000000, 2.000000)" fill-rule="nonzero">
            <path d="M6.19506173,1.56 L6.55308642,1.2875 L6.91358025,1.56 L6.77777778,1.1525 L7.13580247,0.8575 L6.6962963,0.8575 L6.61975309,0.6625 C6.56370187,0.667132021 6.50871381,0.680629089 6.45679012,0.7025 L6.40740741,0.8575 L6.09876543,0.8575 L6.04197531,0.8975 L6.3308642,1.1475 L6.19506173,1.56 Z" id="Path" fill="#F9F9F4"></path>
            <path d="M1.2345679,5.8725 L1.6,5.6225 L1.93580247,5.8725 L1.79259259,5.445 L2.15802469,5.195 L1.71111111,5.195 L1.64197531,4.9025 C1.54567901,5.0975 1.44938272,5.2725 1.35308642,5.45 L1.35308642,5.45 L1.2345679,5.8725 Z" id="Path" fill="#F9F9F4"></path>
            <path d="M10.3061728,6.1475 L19.2296296,6.1475 C19.0048649,5.6139833 18.7407438,5.09835912 18.4395062,4.605 L10.3061728,4.605 L10.3061728,6.1475 Z" id="Path" fill="#F9F9F4"></path>
            <path d="M10.3061728,9.21 L19.9604938,9.21 C19.9119439,8.69747575 19.8294538,8.18883129 19.7135802,7.6875 L10.3061728,7.6875 L10.3061728,9.21 Z" id="Path" fill="#F9F9F4"></path>
            <path d="M10.3061728,3.0825 L17.237037,3.0825 C16.6811668,2.48780715 16.0502035,1.97000215 15.3604938,1.5425 L10.3061728,1.5425 L10.3061728,3.0825 Z" id="Path" fill="#F9F9F4"></path>
            <polygon id="Path" fill="#F9F9F4" points="7.80246914 1.5225 7.65925926 1.95 7.19753086 1.95 7.56296296 2.225 7.44691358 2.635 7.80246914 2.3625 8.14074074 2.635 8.02469136 2.225 8.38024691 1.95 7.92839506 1.95"></polygon>
            <polygon id="Path" fill="#F9F9F4" points="9.18024691 9.5225 9.02469136 9.0725 8.91111111 9.5225 8.44938272 9.5225 8.81481481 9.755 8.6691358 10.185 9.02469136 9.9325 9.39259259 10.185 9.24691358 9.755 9.60246914 9.5225"></polygon>
            <polygon id="Path" fill="#F9F9F4" points="7.92839506 8.43 7.80246914 8 7.65925926 8.43 7.19753086 8.43 7.56296296 8.6825 7.44691358 9.1325 7.80246914 8.86 8.14074074 9.1325 8.02469136 8.6825 8.38024691 8.43"></polygon>
            <polygon id="Path" fill="#F9F9F4" points="6.6962963 9.5225 6.55308642 9.0725 6.40740741 9.5225 5.97530864 9.5225 6.3308642 9.755 6.19506173 10.185 6.55308642 9.9325 6.90864198 10.185 6.77283951 9.755 7.1308642 9.5225"></polygon>
            <polygon id="Path" fill="#F9F9F4" points="7.80246914 5.835 7.65925926 6.2625 7.19753086 6.2625 7.56296296 6.5375 7.44691358 6.9475 7.80246914 6.6725 8.14074074 6.9475 8.02469136 6.5375 8.38024691 6.2625 7.92839506 6.2625"></polygon>
            <polygon id="Path" fill="#F9F9F4" points="6.55308642 6.9275 6.40740741 7.3375 5.97530864 7.3375 6.3308642 7.61 6.19506173 8.02 6.55308642 7.785 6.90864198 8.02 6.77283951 7.61 7.1308642 7.3375 6.6962963 7.3375"></polygon>
            <polygon id="Path" fill="#F9F9F4" points="6.55308642 2.615 6.40740741 3.025 5.97530864 3.025 6.3308642 3.2975 6.19506173 3.7075 6.55308642 3.435 6.90864198 3.7075 6.77283951 3.2975 7.1308642 3.025 6.6962963 3.025"></polygon>
            <polygon id="Path" fill="#F9F9F4" points="6.55308642 4.76 6.40740741 5.19 5.97530864 5.19 6.3308642 5.445 6.19506173 5.8725 6.55308642 5.62 6.90864198 5.8725 6.77283951 5.445 7.1308642 5.19 6.6962963 5.19"></polygon>
            <polygon id="Path" fill="#F9F9F4" points="7.80246914 3.6875 7.65925926 4.1175 7.19753086 4.1175 7.56296296 4.39 7.44691358 4.8 7.80246914 4.5275 8.14074074 4.8 8.02469136 4.39 8.38024691 4.1175 7.92839506 4.1175"></polygon>
            <path d="M19.2296296,13.835 L1.01728395,13.835 C1.23016497,14.3733157 1.4948129,14.889131 1.80740741,15.375 L18.4395062,15.375 C18.7521007,14.889131 19.0167486,14.3733157 19.2296296,13.835 L19.2296296,13.835 Z" id="Path" fill="#F9F9F4"></path>
            <path d="M17.237037,16.9375 L3.01975309,16.9375 C3.57262275,17.5257669 4.20035528,18.0369205 4.88641975,18.4575 L15.3604938,18.4575 C16.0496315,18.0370671 16.6806484,17.5259434 17.237037,16.9375 L17.237037,16.9375 Z" id="Path" fill="#F9F9F4"></path>
            <path d="M19.9604938,10.77 L10.3061728,10.77 L10.3061728,10.75 L0.296296296,10.75 C0.340337731,11.2688769 0.422875226,11.7836632 0.543209877,12.29 L19.7111111,12.29 C19.8308491,11.790192 19.9142005,11.282161 19.9604938,10.77 Z" id="Path" fill="#F9F9F4"></path>
            <polygon id="Path" fill="#F9F9F4" points="9.02469136 6.9275 8.91111111 7.3375 8.44938272 7.3375 8.81481481 7.61 8.6691358 8.02 9.02469136 7.785 9.39259259 8.02 9.24691358 7.61 9.60246914 7.3375 9.18024691 7.3375"></polygon>
            <polygon id="Path" fill="#F9F9F4" points="9.02469136 4.76 8.91111111 5.19 8.44938272 5.19 8.81481481 5.445 8.6691358 5.8725 9.02469136 5.62 9.39259259 5.8725 9.24691358 5.445 9.60246914 5.19 9.18024691 5.19"></polygon>
            <polygon id="Path" fill="#F9F9F4" points="9.02469136 0.43 8.91111111 0.86 8.44938272 0.86 8.81481481 1.1525 8.6691358 1.56 9.02469136 1.2875 9.39259259 1.56 9.24691358 1.1525 9.60246914 0.86 9.18024691 0.86"></polygon>
            <polygon id="Path" fill="#F9F9F4" points="9.02469136 2.615 8.91111111 3.025 8.44938272 3.025 8.81481481 3.2975 8.6691358 3.7075 9.02469136 3.435 9.39259259 3.7075 9.24691358 3.2975 9.60246914 3.025 9.18024691 3.025"></polygon>
            <polygon id="Path" fill="#F9F9F4" points="5.44444444 8.43 5.30123457 8 5.15555556 8.43 4.72345679 8.43 5.07901235 8.6825 4.94320988 9.1325 5.30123457 8.86 5.65679012 9.1325 5.54074074 8.6825 5.87901235 8.43"></polygon>
            <polygon id="Path" fill="#F9F9F4" points="4.19259259 9.5225 4.07901235 9.0725 3.92345679 9.5225 3.47160494 9.5225 3.85679012 9.755 3.71358025 10.185 4.07901235 9.9325 4.4345679 10.185 4.28888889 9.755 4.65679012 9.5225"></polygon>
            <polygon id="Path" fill="#F9F9F4" points="5.30123457 1.5225 5.15555556 1.95 4.72345679 1.95 5.07901235 2.225 4.94320988 2.635 5.30123457 2.3625 5.65679012 2.635 5.54074074 2.225 5.87901235 1.95 5.44444444 1.95"></polygon>
            <polygon id="Path" fill="#F9F9F4" points="4.07901235 4.76 3.92345679 5.19 3.47160494 5.19 3.85679012 5.445 3.71358025 5.8725 4.07901235 5.62 4.4345679 5.8725 4.28888889 5.445 4.65679012 5.19 4.19259259 5.19"></polygon>
            <polygon id="Path" fill="#F9F9F4" points="2.82716049 3.6875 2.67160494 4.1175 2.24938272 4.1175 2.60493827 4.39 2.4617284 4.8 2.82716049 4.5275 3.18271605 4.8 3.03950617 4.39 3.40493827 4.1175 2.94320988 4.1175"></polygon>
            <polygon id="Path" fill="#F9F9F4" points="4.07901235 2.615 3.92345679 3.025 3.47160494 3.025 3.85679012 3.2975 3.71358025 3.7075 4.07901235 3.435 4.4345679 3.7075 4.28888889 3.2975 4.65679012 3.025 4.19259259 3.025"></polygon>
            <polygon id="Path" fill="#F9F9F4" points="2.82716049 5.835 2.67160494 6.2625 2.24938272 6.2625 2.60493827 6.5375 2.4617284 6.9475 2.82716049 6.6725 3.18271605 6.9475 3.03950617 6.5375 3.40493827 6.2625 2.94320988 6.2625"></polygon>
            <polygon id="Path" fill="#F9F9F4" points="1.71111111 9.5225 1.59506173 9.0725 1.44938272 9.5225 1.01728395 9.5225 1.35308642 9.755 1.22962963 10.185 1.59506173 9.9325 1.9308642 10.185 1.78765432 9.755 2.15308642 9.5225"></polygon>
            <polygon id="Path" fill="#F9F9F4" points="1.59506173 6.9275 1.44938272 7.3375 1.01728395 7.3375 1.35308642 7.61 1.22962963 8.02 1.59506173 7.785 1.9308642 8.02 1.78765432 7.61 2.15308642 7.3375 1.71111111 7.3375"></polygon>
            <polygon id="Path" fill="#F9F9F4" points="2.94320988 8.43 2.82716049 8 2.67160494 8.43 2.24938272 8.43 2.60493827 8.6825 2.4617284 9.1325 2.82716049 8.86 3.18271605 9.1325 3.03950617 8.6825 3.40493827 8.43"></polygon>
            <polygon id="Path" fill="#F9F9F4" points="4.07901235 6.9275 3.92345679 7.3375 3.47160494 7.3375 3.85679012 7.61 3.71358025 8.02 4.07901235 7.785 4.4345679 8.02 4.28888889 7.61 4.65679012 7.3375 4.19259259 7.3375"></polygon>
            <polygon id="Path" fill="#F9F9F4" points="5.30123457 3.6875 5.15555556 4.1175 4.72345679 4.1175 5.07901235 4.39 4.94320988 4.8 5.30123457 4.5275 5.65679012 4.8 5.54074074 4.39 5.87901235 4.1175 5.44444444 4.1175"></polygon>
            <path d="M0.679012346,9.1325 L0.535802469,8.6825 L0.920987654,8.4325 L0.49382716,8.4325 L0.419753086,8.235 C0.390123457,8.43 0.343209877,8.6625 0.32345679,8.86 L0.343209877,8.86 L0.679012346,9.1325 Z" id="Path" fill="#F9F9F4"></path>
            <polygon id="Path" fill="#F9F9F4" points="5.30123457 5.835 5.15555556 6.2625 4.72345679 6.2625 5.07901235 6.5375 4.94320988 6.9475 5.30123457 6.6725 5.65679012 6.9475 5.54074074 6.5375 5.87901235 6.2625 5.44444444 6.2625"></polygon>
            <path d="M10.3061728,7.6875 L19.7111111,7.6875 C19.6035697,7.15717186 19.4379365,6.6406447 19.217284,6.1475 L10.3061728,6.1475 L10.3061728,7.6875 Z" id="Path" fill="#BB133E"></path>
            <path d="M10.3061728,4.605 L18.4395062,4.605 C18.0895237,4.05839341 17.6867184,3.54838357 17.237037,3.0825 L10.3061728,3.0825 L10.3061728,4.605 Z" id="Path" fill="#BB133E"></path>
            <path d="M15.3604938,1.5425 C13.8524814,0.557376192 12.1006787,0.0227533079 10.3061728,-1.11022302e-15 L10.3061728,1.5425 L15.3604938,1.5425 Z" id="Path" fill="#BB133E"></path>
            <path d="M10.3061728,10.75 L10.3061728,10.7675 L19.9604938,10.7675 C19.9802469,10.5175 20,10.2425 20,9.9875 C20,9.7325 19.9802469,9.46 19.9604938,9.2075 L10.3061728,9.2075 L10.3061728,10.75 Z" id="Path" fill="#BB133E"></path>
            <path d="M18.4395062,15.375 L1.80740741,15.375 C2.17156103,15.9263862 2.57685983,16.4487449 3.01975309,16.9375 L17.237037,16.9375 C17.6685786,16.4416658 18.0701334,15.9198816 18.4395062,15.375 Z" id="Path" fill="#BB133E"></path>
            <path d="M4.88641975,18.4575 C8.08231471,20.5142136 12.1645989,20.5142136 15.3604938,18.4575 L4.88641975,18.4575 Z" id="Path" fill="#BB133E"></path>
            <path d="M19.7111111,12.2925 L0.535802469,12.2925 C0.656692797,12.8199768 0.8219035,13.3360228 1.02962963,13.835 L19.2296296,13.835 C19.4464535,13.3406295 19.6079524,12.8232429 19.7111111,12.2925 L19.7111111,12.2925 Z" id="Path" fill="#BB133E"></path>
            <path d="M10.3061728,9.21 L10.3061728,-3.88506812e-06 L10.1234568,-3.88506812e-06 C8.9250834,-0.00108133672 7.73696903,0.22357401 6.61975309,0.6625 L6.6962963,0.8575 L7.1308642,0.8575 L6.77283951,1.1525 L6.91358025,1.56 L6.55308642,1.2875 L6.19506173,1.56 L6.3308642,1.1525 L6.02222222,0.9025 C4.19675684,1.7574749 2.66969746,3.15197107 1.64197531,4.9025 L1.71111111,5.195 L2.15308642,5.195 L1.78765432,5.445 L1.9308642,5.8725 L1.59506173,5.6225 L1.2345679,5.8725 L1.35802469,5.445 L1.35802469,5.445 C0.901055676,6.31870919 0.584337045,7.26048871 0.419753086,8.235 L0.486419753,8.43 L0.920987654,8.43 L0.535802469,8.68 L0.679012346,9.13 L0.343209877,8.86 L0.32345679,8.86 C0.269214339,9.23746193 0.243624994,9.61857808 0.24691358,9.99999611 C0.248456543,10.2507783 0.264947432,10.5012336 0.296296296,10.75 L10.3061728,10.75 L10.3061728,9.21 Z M1.9308642,10.185 L1.59506173,9.935 L1.2345679,10.185 L1.35308642,9.75 L1.01728395,9.5175 L1.44938272,9.5175 L1.59506173,9.0675 L1.71111111,9.5175 L2.15308642,9.5175 L1.78765432,9.75 L1.9308642,10.185 Z M1.78765432,7.61 L1.9308642,8.02 L1.59506173,7.785 L1.2345679,8.02 L1.35802469,7.61 L1.01728395,7.3375 L1.44938272,7.3375 L1.59506173,6.9275 L1.71111111,7.3375 L2.15308642,7.3375 L1.78765432,7.61 Z M3.18271605,9.1325 L2.82716049,8.86 L2.4691358,9.1325 L2.61234568,8.6825 L2.25679012,8.4325 L2.67160494,8.4325 L2.82716049,8 L2.94320988,8.43 L3.40493827,8.43 L3.03950617,8.68 L3.18271605,9.1325 Z M3.03950617,6.5375 L3.18271605,6.945 L2.82716049,6.6725 L2.4691358,6.945 L2.61234568,6.5375 L2.25679012,6.2625 L2.67160494,6.2625 L2.82716049,5.835 L2.94320988,6.2625 L3.40493827,6.2625 L3.03950617,6.5375 Z M3.03950617,4.39 L3.18271605,4.8 L2.82716049,4.5275 L2.4691358,4.8 L2.61234568,4.39 L2.24938272,4.1175 L2.67160494,4.1175 L2.82716049,3.6875 L2.94320988,4.1175 L3.40493827,4.1175 L3.03950617,4.39 Z M4.44444444,10.185 L4.08888889,9.935 L3.72098765,10.185 L3.85679012,9.75 L3.47160494,9.5175 L3.92345679,9.5175 L4.07901235,9.0675 L4.19259259,9.5175 L4.65679012,9.5175 L4.28888889,9.75 L4.44444444,10.185 Z M4.29876543,7.61 L4.44444444,8.02 L4.08888889,7.785 L3.7037037,8.02 L3.84938272,7.61 L3.46419753,7.3375 L3.91604938,7.3375 L4.07160494,6.9275 L4.19753086,7.3375 L4.6617284,7.3375 L4.29876543,7.61 Z M4.29876543,5.445 L4.44444444,5.8725 L4.08888889,5.6225 L3.72098765,5.8725 L3.86666667,5.445 L3.48148148,5.195 L3.93333333,5.195 L4.07901235,4.75 L4.19753086,5.19 L4.6617284,5.19 L4.29876543,5.445 Z M4.29876543,3.2975 L4.44444444,3.7075 L4.08888889,3.435 L3.7037037,3.7075 L3.84938272,3.2975 L3.47160494,3.025 L3.92345679,3.025 L4.07901235,2.615 L4.19753086,3.025 L4.6617284,3.025 L4.29876543,3.2975 Z M5.66666667,9.1325 L5.31111111,8.86 L4.9382716,9.1325 L5.07407407,8.6825 L4.71851852,8.4325 L5.15061728,8.4325 L5.30123457,8 L5.44444444,8.43 L5.87901235,8.43 L5.54074074,8.68 L5.66666667,9.1325 Z M5.55061728,6.5375 L5.66666667,6.945 L5.31111111,6.6725 L4.9382716,6.945 L5.07407407,6.5375 L4.71851852,6.2625 L5.15061728,6.2625 L5.2962963,5.835 L5.43950617,6.2625 L5.87407407,6.2625 L5.55061728,6.5375 Z M5.55061728,4.39 L5.66666667,4.8 L5.31111111,4.5275 L4.9382716,4.8 L5.07407407,4.39 L4.71851852,4.1175 L5.15061728,4.1175 L5.2962963,3.6875 L5.43950617,4.1175 L5.87407407,4.1175 L5.55061728,4.39 Z M5.55061728,2.225 L5.66666667,2.635 L5.31111111,2.36 L4.9382716,2.635 L5.07407407,2.225 L4.72345679,1.95 L5.15555556,1.95 L5.30123457,1.5225 L5.44444444,1.95 L5.87901235,1.95 L5.55061728,2.225 Z M6.91358025,10.185 L6.55802469,9.935 L6.2,10.185 L6.3308642,9.75 L5.97530864,9.5175 L6.41975309,9.5175 L6.5654321,9.0675 L6.70864198,9.5175 L7.14320988,9.5175 L6.77283951,9.75 L6.91358025,10.185 Z M6.77777778,7.61 L6.91358025,8.02 L6.55802469,7.785 L6.2,8.02 L6.33580247,7.61 L5.97530864,7.3375 L6.41975309,7.3375 L6.5654321,6.9275 L6.70864198,7.3375 L7.14320988,7.3375 L6.77777778,7.61 Z M6.77777778,5.445 L6.91358025,5.8725 L6.55802469,5.6225 L6.2,5.8725 L6.33580247,5.445 L5.98024691,5.195 L6.41975309,5.195 L6.55308642,4.75 L6.6962963,5.18 L7.1308642,5.18 L6.77777778,5.445 Z M6.77777778,3.2975 L6.91358025,3.7075 L6.55802469,3.435 L6.2,3.7075 L6.33580247,3.2975 L5.97530864,3.025 L6.41975309,3.025 L6.5654321,2.615 L6.70864198,3.025 L7.14320988,3.025 L6.77777778,3.2975 Z M8.14814815,9.1325 L7.80246914,8.86 L7.44691358,9.1325 L7.56296296,8.6825 L7.19753086,8.4325 L7.65432099,8.4325 L7.80246914,8 L7.92839506,8.43 L8.38024691,8.43 L8.02469136,8.68 L8.14814815,9.1325 Z M8.02469136,6.5375 L8.14814815,6.945 L7.80246914,6.6725 L7.44691358,6.945 L7.56296296,6.5375 L7.19753086,6.2625 L7.65432099,6.2625 L7.79753086,5.835 L7.92345679,6.2625 L8.37530864,6.2625 L8.02469136,6.5375 Z M8.02469136,4.39 L8.14814815,4.8 L7.80246914,4.5275 L7.44691358,4.8 L7.56296296,4.39 L7.19753086,4.1175 L7.65432099,4.1175 L7.79753086,3.6875 L7.92345679,4.1175 L8.37530864,4.1175 L8.02469136,4.39 Z M8.02469136,2.225 L8.14814815,2.635 L7.80246914,2.36 L7.44691358,2.635 L7.56296296,2.225 L7.19753086,1.95 L7.65432099,1.95 L7.79753086,1.5225 L7.92345679,1.95 L8.37530864,1.95 L8.02469136,2.225 Z M9.38271605,10.185 L9.01481481,9.935 L8.65925926,10.185 L8.81481481,9.75 L8.44938272,9.5175 L8.91111111,9.5175 L9.02469136,9.0675 L9.18024691,9.5175 L9.60246914,9.5175 L9.24691358,9.75 L9.38271605,10.185 Z M9.23703704,7.61 L9.38271605,8.02 L9.01481481,7.785 L8.65925926,8.02 L8.80493827,7.61 L8.43950617,7.3375 L8.90123457,7.3375 L9.01481481,6.9275 L9.17037037,7.3375 L9.59259259,7.3375 L9.23703704,7.61 Z M9.23703704,5.445 L9.38271605,5.8725 L9.01481481,5.6225 L8.65925926,5.8725 L8.80493827,5.445 L8.43950617,5.195 L8.90123457,5.195 L9.02469136,4.75 L9.18024691,5.18 L9.60246914,5.18 L9.23703704,5.445 Z M9.23703704,3.2975 L9.38271605,3.7075 L9.01481481,3.435 L8.65925926,3.7075 L8.80493827,3.2975 L8.44938272,3.025 L8.91111111,3.025 L9.02469136,2.615 L9.18024691,3.025 L9.60246914,3.025 L9.23703704,3.2975 Z M9.23703704,1.1525 L9.38271605,1.56 L9.02469136,1.2875 L8.6691358,1.56 L8.81481481,1.1525 L8.44938272,0.8575 L8.91111111,0.8575 L9.02469136,0.43 L9.18024691,0.8575 L9.60246914,0.8575 L9.23703704,1.1525 Z" id="Shape" fill="#002664"></path>
            <path d="M6.45679012,0.7025 C6.36049383,0.7625 6.20987654,0.8 6.09876543,0.8575 L6.41975309,0.8575 L6.45679012,0.7025 Z" id="Path" fill="#002664"></path>
        </g>
    </g>
</svg>