<?xml version="1.0" encoding="UTF-8"?>
<svg width="450px" height="80px" viewBox="0 0 450 80" version="1.1" xmlns="http://www.w3.org/2000/svg" xmlns:xlink="http://www.w3.org/1999/xlink">
    <!-- Generator: Sketch 58 (84663) - https://sketch.com -->
    <title>Lose</title>
    <desc>Created with Sketch.</desc>
    <defs>
        <path d="M17.1361092,27.7727887 L12.8633077,28.7715404 L12.8633077,21.2809021 L17.6890599,21.2809021 L17.6890599,15.7877674 L12.8633077,15.7877674 L12.8633077,6.34956312 L7.13272685,6.34956312 L7.13272685,15.7877674 L1.65348729,15.7877674 L1.65348729,21.2809021 L7.13272685,21.2809021 L7.13272685,30.1697929 L5.47465995,30.5638317 C3.85586512,30.9407044 2.35724283,31.2684199 1,31.5680454 L2.55831584,37.2609305 L7.13272685,36.0624284 L7.13272685,46.3495631 C7.13272685,47.0486979 6.93165384,47.2484482 6.27816655,47.2484482 L3.99351373,47.2362564 C3.36967686,47.2289414 2.68398647,47.2172372 2.00536506,47.1985106 C2.7091206,48.6966383 3.46314439,50.9937674 3.6642174,52.491895 C6.7596835,52.491895 8.95282749,52.357437 10.5000988,51.5365356 L10.7520411,51.3932681 C12.3606251,50.5443291 12.8633077,49.1460766 12.8633077,46.3495631 L12.8633077,34.5643007 L17.890133,33.2159858 L17.1361092,27.7727887 Z M35.6348262,30.6691688 L35.6348262,25.2259716 L40.5108467,25.2259716 L40.5108467,30.6691688 L35.6348262,30.6691688 Z M25.0784931,30.6691688 L25.0784931,25.2259716 L30.0047819,25.2259716 L30.0047819,30.6691688 L25.0784931,30.6691688 Z M30.0047819,14.5393277 L30.0047819,19.8327121 L25.0784931,19.8327121 L25.0784931,14.5393277 L30.0047819,14.5393277 Z M40.5108467,19.8327121 L35.6348262,19.8327121 L35.6348262,14.5393277 L40.5108467,14.5393277 L40.5108467,19.8327121 Z M19.2473758,9.14606809 L19.2473758,38.4594326 L25.0784931,38.4594326 L25.0784931,36.0624284 L30.0047819,36.0624284 L30.0047819,52.9413333 L35.6348262,52.9413333 L35.6348262,36.0624284 L40.5108467,36.0624284 L40.5108467,38.409495 L46.5933053,38.409495 L46.5933053,9.14606809 L19.2473758,9.14606809 Z M58.1047352,18.8339603 C59.4117098,17.3358326 60.6684161,15.7378298 61.7743177,14.0898894 C64.0866573,15.5380794 66.4492652,17.2359574 68.3091906,18.8339603 L58.1047352,18.8339603 Z M64.1871938,44.1023801 L64.1871938,32.466922 L70.2193842,32.466922 L70.2193842,27.4232255 L64.1871938,27.4232255 L64.1871938,23.7777816 L68.5605318,23.7777816 L68.5605318,19.0836482 C69.0129461,19.5330865 69.4150921,19.8826496 69.8172382,20.2821504 L72.2803826,15.3882667 C70.4707254,13.6903887 67.5048985,11.5430723 64.3882669,9.79525674 C64.7401446,9.19600567 65.0417541,8.59675461 65.3433637,7.99750355 L60.9700257,6 C58.657686,10.5443206 54.7367623,14.8888908 51.0169116,17.5855206 C51.7206671,19.0337106 52.8265687,22.3795291 53.07791,23.6779064 C53.882202,23.0287177 54.7367623,22.2796539 55.5410544,21.5305901 L55.5410544,23.7777816 L59.3111733,23.7777816 L59.3111733,27.4232255 L52.6254957,27.4232255 L52.6254957,32.466922 L59.3111733,32.466922 L59.3111733,44.9513192 L53.9436298,45.8437538 C53.2493247,45.9565628 52.5903079,46.0599336 51.9720084,46.1498213 L53.07791,51.4931433 C58.0041987,50.3945163 64.4888034,49.096139 70.571262,47.6978865 L70.2696524,43.0037532 L64.1871938,44.1023801 Z M53.0276417,35.3133645 C53.7313972,38.0099943 54.485421,41.5555631 54.6362258,43.9525674 L58.5068813,42.8040028 C58.25554,40.5568114 57.5015162,36.961305 56.6469559,34.3146128 L53.0276417,35.3133645 Z M68.0075811,43.3033787 C68.7616049,41.1560624 69.6664334,37.8601816 70.6215302,34.9638014 L66.398997,33.8152369 C66.0471192,36.3620539 65.3433637,39.9575603 64.6396081,42.2047518 L68.0075811,43.3033787 Z M90.0753441,34.9638014 L90.0753441,38.2596823 L79.6698157,38.2596823 L79.6698157,34.9638014 L90.0753441,34.9638014 Z M79.6698157,46.3495716 L79.6698157,42.9538156 L90.0753441,42.9538156 L90.0753441,46.3495716 L79.6698157,46.3495716 Z M74.3916492,52.9413333 L79.6698157,52.9413333 L79.6698157,51.0936426 L90.0753441,51.0936426 L90.0753441,52.8913957 L95.6048519,52.8913957 L95.6048519,30.0699177 L74.3916492,30.1198553 L74.3916492,52.9413333 Z M81.9318871,17.285895 L87.2100537,17.285895 L87.2100537,21.9800284 L81.9318871,21.9800284 L81.9318871,17.285895 Z M92.5384885,21.9800284 L92.5384885,17.285895 L96.8615582,17.285895 L96.8615582,12.0923858 L92.5384885,12.0923858 L92.5384885,6.34956312 L87.2100537,6.34956312 L87.2100537,12.0923858 L81.9318871,12.0923858 L81.9318871,6.34956312 L76.7039888,6.34956312 L76.7039888,12.0923858 L72.3306508,12.0923858 L72.3306508,17.285895 L76.7039888,17.285895 L76.7039888,21.9800284 L71.3252857,21.9800284 L71.3252857,27.3233504 L98.1182645,27.3233504 L98.1182645,21.9800284 L92.5384885,21.9800284 Z M140.997084,9.44569362 L139.69011,9.79525674 L104.803942,9.79525674 L104.803942,15.6379546 L133.808724,15.6379546 C130.491019,18.5842723 126.16795,21.780278 122.247026,23.8277192 L122.247026,45.9500709 C122.247026,46.742414 121.896712,47.056244 120.950865,47.0945665 L117.790459,47.1063076 C116.078304,47.1035676 113.924837,47.0819896 111.942034,46.9987603 C112.897131,48.5967631 114.053301,51.2434553 114.35491,52.9912709 L115.640018,52.9997695 C119.820856,53.0077792 122.9782,52.8096797 125.263121,51.9925192 C127.726265,51.0936426 128.530557,49.4956397 128.530557,46.0998837 L128.530557,26.8239745 C134.814089,23.1285929 141.198157,17.8352085 145.822836,12.9413248 L140.997084,9.44569362 Z M172.867157,35.7628028 L178.044787,35.7628028 L179.804175,18.6841475 L180.055517,11.2434468 L170.856426,11.2434468 L171.057499,18.6841475 L172.867157,35.7628028 Z M175.430837,49.0462014 C178.396664,49.0462014 180.658736,47.0486979 180.658736,44.1523177 C180.658736,41.3058752 178.396664,39.2084965 175.430837,39.2084965 C172.46501,39.2084965 170.202939,41.3058752 170.202939,44.1523177 C170.202939,47.0486979 172.46501,49.0462014 175.430837,49.0462014 Z M228.514112,36.0624284 L228.514112,32.0174837 L237.51213,32.0174837 L237.51213,36.0624284 L228.514112,36.0624284 Z M213.835783,32.0174837 L222.53219,32.0174837 L222.53219,36.0624284 L213.835783,36.0624284 L213.835783,32.0174837 Z M222.53219,23.0786553 L222.53219,26.9737872 L213.835783,26.9737872 L213.835783,23.0786553 L222.53219,23.0786553 Z M237.51213,23.0786553 L237.51213,26.9737872 L228.514112,26.9737872 L228.514112,23.0786553 L237.51213,23.0786553 Z M249.224633,36.0624284 L243.494052,36.0624284 L243.494052,17.7353333 L228.514112,17.7353333 L228.514112,14.4394525 L247.213902,14.4394525 L247.213902,8.99625532 L204.234546,8.99625532 L204.234546,14.4394525 L222.53219,14.4394525 L222.53219,17.7353333 L207.904129,17.7353333 L207.904129,36.0624284 L202.173548,36.0624284 L202.173548,41.5555631 L207.904129,41.5555631 L207.904129,52.9912709 L213.835783,52.9912709 L213.835783,41.5555631 L237.51213,41.5555631 L237.51213,46.3995092 C237.51213,47.1918523 237.249394,47.4621811 236.478704,47.4947034 L233.723179,47.5050889 C232.427054,47.500213 230.861421,47.4764242 229.418941,47.398261 C230.273501,48.8963887 231.17833,51.3932681 231.479939,52.9912709 L233.140548,52.9863325 C236.506349,52.9609369 238.992758,52.8119496 240.729298,51.9925192 C242.840564,51.0936426 243.494052,49.4956397 243.494052,46.4993844 L243.494052,41.5555631 L249.224633,41.5555631 L249.224633,36.0624284 Z M267.472008,27.4731631 L263.601353,28.5717901 L263.601353,21.2309645 L268.075227,21.2309645 L268.075227,15.7378298 L263.601353,15.7378298 L263.601353,6.34956312 L258.122113,6.34956312 L258.122113,15.7378298 L252.843947,15.7378298 L252.843947,21.2309645 L258.122113,21.2309645 L258.122113,30.0199801 L254.518176,30.955368 C253.62838,31.183341 252.799264,31.3904895 252.039655,31.5680454 L253.346629,37.2609305 L258.122113,35.862678 L258.122113,46.299634 C258.122113,46.8947236 257.953156,47.1121602 257.460364,47.1442671 L256.8685,47.1710669 C256.070148,47.1949994 254.666171,47.179784 253.195825,47.0986355 C253.89958,48.6966383 254.603336,51.1435801 254.703872,52.5917702 C257.92104,52.6417078 260.132843,52.4419575 261.590623,51.4931433 C263.148939,50.5443291 263.601353,49.096139 263.601353,46.3495631 L263.601353,34.2646752 C265.209937,33.8651745 266.717985,33.3657986 268.2763,32.9163603 L267.472008,27.4731631 Z M287.981456,36.711617 C287.076627,38.7091206 285.920457,40.4069986 284.462678,41.8052511 C282.502216,41.0561872 280.592022,40.357061 278.732097,39.7078723 C279.385584,38.7590582 280.039072,37.7603064 280.692559,36.711617 L287.981456,36.711617 Z M288.634943,15.7378298 C287.931187,17.7353333 286.775017,20.3820255 285.819921,22.1797787 L278.179146,22.1797787 L281.79846,20.8814014 C281.346046,19.4332113 280.240145,17.3358326 279.083975,15.7378298 L288.634943,15.7378298 Z M299.492885,36.711617 L299.492885,31.7178582 L295.62223,31.7178582 C295.773035,31.0187319 295.92384,30.3196057 295.974108,29.6204794 L290.293795,28.7216028 C290.14299,29.7702922 289.941917,30.769044 289.690576,31.7178582 L283.457313,31.7178582 C284.060532,30.519356 284.613483,29.3208539 285.116165,28.1722894 L280.541754,27.2234752 L298.738862,27.2234752 L298.738862,22.1797787 L291.399697,22.1797787 L292.610531,20.0911354 C293.166267,19.1244136 293.740761,18.1134322 294.315255,17.0861447 L289.740844,15.7378298 L297.783765,15.7378298 L297.783765,10.7440709 L288.685211,10.7440709 C288.031724,9.19600567 287.126895,7.44819007 286.272335,6.04993759 L279.636926,7.19850213 C280.189876,8.24719149 280.793095,9.49563121 281.24551,10.7440709 L270.287031,10.7440709 L270.287031,15.7378298 L277.575927,15.7378298 L273.805808,17.0362071 C274.760905,18.5842723 275.816538,20.6816511 276.319221,22.1797787 L269.130861,22.1797787 L269.130861,27.2234752 L279.486121,27.2234752 C278.882902,28.6716653 278.179146,30.1697929 277.374854,31.7178582 L268.57791,31.7178582 L268.57791,36.711617 L274.459296,36.711617 C273.202589,38.659183 271.895615,40.5068738 270.739445,42.0050014 C273.403662,42.903878 276.319221,43.9525674 279.23478,45.1510695 C276.168416,46.4494468 272.398297,47.3483234 267.673081,47.8976369 C268.728715,49.1460766 269.884885,51.2434553 270.287031,52.9413333 C276.771635,51.7927688 281.748192,50.2447036 285.568579,47.8976369 L286.926804,48.533951 C290.051094,50.0168633 292.838625,51.4806589 294.817938,52.7915206 L298.688593,48.4469504 C296.426522,47.0486979 293.360159,45.5505702 290.042454,44.1023801 C291.801843,42.054939 293.159086,39.6079972 294.214719,36.711617 L299.492885,36.711617 Z M329.050618,36.0624284 L329.050618,32.0174837 L338.048635,32.0174837 L338.048635,36.0624284 L329.050618,36.0624284 Z M314.372288,32.0174837 L323.068696,32.0174837 L323.068696,36.0624284 L314.372288,36.0624284 L314.372288,32.0174837 Z M323.068696,23.0786553 L323.068696,26.9737872 L314.372288,26.9737872 L314.372288,23.0786553 L323.068696,23.0786553 Z M338.048635,23.0786553 L338.048635,26.9737872 L329.050618,26.9737872 L329.050618,23.0786553 L338.048635,23.0786553 Z M349.761138,36.0624284 L344.030557,36.0624284 L344.030557,17.7353333 L329.050618,17.7353333 L329.050618,14.4394525 L347.750408,14.4394525 L347.750408,8.99625532 L304.771052,8.99625532 L304.771052,14.4394525 L323.068696,14.4394525 L323.068696,17.7353333 L308.440634,17.7353333 L308.440634,36.0624284 L302.710054,36.0624284 L302.710054,41.5555631 L308.440634,41.5555631 L308.440634,52.9912709 L314.372288,52.9912709 L314.372288,41.5555631 L338.048635,41.5555631 L338.048635,46.3995092 C338.048635,47.1918523 337.7859,47.4621811 337.015209,47.4947034 L334.259685,47.5050889 C332.96356,47.500213 331.397927,47.4764242 329.955447,47.398261 C330.810007,48.8963887 331.714836,51.3932681 332.016445,52.9912709 L333.677054,52.9863325 C337.042855,52.9609369 339.529264,52.8119496 341.265804,51.9925192 C343.37707,51.0936426 344.030557,49.4956397 344.030557,46.4993844 L344.030557,41.5555631 L349.761138,41.5555631 L349.761138,36.0624284 Z M390.679496,48.5468255 C390.026009,46.6491972 388.769303,44.1523177 387.613133,42.2546894 L384.295428,43.2534411 C384.597038,43.752817 384.898647,44.3021305 385.09972,44.851444 L382.887917,44.9513192 L382.887917,41.9051262 L391.483788,41.9051262 L391.483788,47.9475745 C391.483788,48.4015526 391.359156,48.5253648 390.958823,48.5441242 L390.679496,48.5468255 Z M371.778633,32.9662979 L371.778633,30.9687943 L378.011896,30.9687943 L378.011896,32.9662979 L371.778633,32.9662979 Z M371.778633,26.274661 L378.011896,26.274661 L378.011896,28.1722894 L371.778633,28.1722894 L371.778633,26.274661 Z M389.473058,28.1722894 L382.887917,28.1722894 L382.887917,26.274661 L389.473058,26.274661 L389.473058,28.1722894 Z M389.473058,32.9662979 L382.887917,32.9662979 L382.887917,30.9687943 L389.473058,30.9687943 L389.473058,32.9662979 Z M397.013296,37.810244 L382.887917,37.810244 L382.887917,36.112366 L394.851761,36.112366 L394.851761,23.0786553 L366.601003,23.0786553 L366.601003,36.112366 L378.011896,36.112366 L378.011896,37.810244 L369.516562,37.810244 L369.516562,36.7615546 L364.791346,36.7615546 L364.791346,37.810244 L363.283298,37.810244 L363.283298,41.9051262 L364.791346,41.9051262 L364.791346,52.4419575 L369.516562,52.4419575 L369.516562,41.9051262 L378.011896,41.9051262 L378.011896,45.1510695 L372.999965,45.3360235 C372.236633,45.3619171 371.510536,45.3841116 370.823536,45.4007575 L371.225682,49.3957645 L378.502012,48.9775372 C381.141095,48.8214823 383.94355,48.6467007 386.758572,48.4469504 L387.053748,49.3186609 C387.194901,49.7393352 387.321577,50.1348409 387.41206,50.4943915 L388.065547,50.2946411 C388.367157,51.1435801 388.668766,52.0923943 388.769303,52.9413333 L389.773391,52.9378221 C392.040666,52.9187054 393.783561,52.804005 395.103102,52.1922695 C396.61115,51.4931433 397.013296,50.2946411 397.013296,47.9975121 L397.013296,37.810244 Z M369.918708,13.7403262 L369.918708,15.8876426 L364.037322,15.8876426 L364.037322,20.1822752 L369.918708,20.1822752 L369.918708,22.1298411 L375.247143,22.1298411 L375.247143,20.1822752 L379.821554,20.1822752 L379.821554,15.8876426 L375.247143,15.8876426 L375.247143,13.7403262 L369.918708,13.7403262 Z M390.930837,13.7403262 L385.602403,13.7403262 L385.602403,15.8876426 L381.279333,15.8876426 L381.279333,20.1822752 L385.602403,20.1822752 L385.602403,22.1298411 L390.930837,22.1298411 L390.930837,20.1822752 L397.46571,20.1822752 L397.46571,15.8876426 L390.930837,15.8876426 L390.930837,13.7403262 Z M399.074294,8.04744113 L357.050035,8.04744113 L357.050035,23.4282184 C357.050035,31.3183574 356.698157,42.4544397 352.57616,50.0449532 C354.084208,50.6442043 356.647889,52.0923943 357.804059,52.9912709 C362.227665,44.8015064 362.931421,32.0174837 362.931421,23.4282184 L362.931421,13.0911376 L399.074294,13.0911376 L399.074294,8.04744113 Z M424.208421,35.7628028 L429.386051,35.7628028 L431.14544,18.6841475 L431.396781,11.2434468 L422.197691,11.2434468 L422.398764,18.6841475 L424.208421,35.7628028 Z M426.772102,49.0462014 C423.806275,49.0462014 421.544203,47.0486979 421.544203,44.1523177 C421.544203,41.3058752 423.806275,39.2084965 426.772102,39.2084965 C429.737929,39.2084965 432,41.3058752 432,44.1523177 C432,47.0486979 429.737929,49.0462014 426.772102,49.0462014 Z" id="path-1"></path>
        <linearGradient x1="50%" y1="0%" x2="50%" y2="100%" id="linearGradient-2">
            <stop stop-color="#65B9FB" offset="0%"></stop>
            <stop stop-color="#C0D4D4" offset="100%"></stop>
        </linearGradient>
    </defs>
    <g id="Lose" stroke="none" stroke-width="1" fill="none" fill-rule="evenodd">
        <g id="Group" transform="translate(5.000000, 10.000000)" fill-rule="nonzero">
            <g id="押錯了！再接再厲！" stroke-linejoin="round">
                <path stroke="#FFFFFF" stroke-width="10" d="M21.9771898,26.2809021 L23.4484655,36.9018446 L17.8633077,38.3999176 L17.8633077,46.3495631 C17.8633077,50.8507802 16.6382072,53.9039414 13.165343,55.7728194 L12.9716914,55.8829399 L12.8434558,55.9533985 C10.4822282,57.2061427 8.11479951,57.491895 3.6642174,57.491895 L-0.709535533,57.491895 L-1.29134708,53.1570121 C-1.41039166,52.2700508 -1.98376889,50.4662998 -2.52017719,49.3244145 L-5.97192184,41.9764736 L-1.29954079,42.1054082 L-5.21026454,27.8186376 L-0.0778500595,26.6856035 C0.695201625,26.5149442 1.28213163,26.3853103 1.75322555,26.2809021 L-3.34651271,26.2809021 L-3.34651271,10.7877674 L2.13272685,10.7877674 L2.13272685,1.34956312 L17.8633077,1.34956312 L17.8633077,10.7877674 L22.6890599,10.7877674 L22.6890599,26.2809021 L21.9771898,26.2809021 Z M40.5108467,25.2259716 L35.6348262,25.2259716 L35.6348262,30.6691688 L40.5108467,30.6691688 L40.5108467,25.2259716 Z M35.6348262,25.6691688 L35.6348262,30.2259716 L40.5108467,30.2259716 L40.5108467,25.6691688 L35.6348262,25.6691688 Z M40.6348262,25.2259716 L35.5108467,25.2259716 L35.5108467,30.6691688 L40.6348262,30.6691688 L40.6348262,25.2259716 Z M30.0047819,25.2259716 L25.0784931,25.2259716 L25.0784931,30.6691688 L30.0047819,30.6691688 L30.0047819,25.2259716 Z M25.0784931,25.6691688 L25.0784931,30.2259716 L30.0047819,30.2259716 L30.0047819,25.6691688 L25.0784931,25.6691688 Z M30.0784931,25.2259716 L25.0047819,25.2259716 L25.0047819,30.6691688 L30.0784931,30.6691688 L30.0784931,25.2259716 Z M25.0784931,19.8327121 L30.0047819,19.8327121 L30.0047819,14.5393277 L25.0784931,14.5393277 L25.0784931,19.8327121 Z M30.0047819,19.5393277 L30.0047819,14.8327121 L25.0784931,14.8327121 L25.0784931,19.5393277 L30.0047819,19.5393277 Z M25.0047819,19.8327121 L30.0784931,19.8327121 L30.0784931,14.5393277 L25.0047819,14.5393277 L25.0047819,19.8327121 Z M35.5108467,19.8327121 L40.6348262,19.8327121 L40.6348262,14.5393277 L35.5108467,14.5393277 L35.5108467,19.8327121 Z M35.6348262,14.8327121 L35.6348262,19.5393277 L40.5108467,19.5393277 L40.5108467,14.8327121 L35.6348262,14.8327121 Z M40.6348262,43.409495 L40.6348262,57.9413333 L25.0047819,57.9413333 L25.0047819,43.4594326 L14.2473758,43.4594326 L14.2473758,4.14606809 L51.5933053,4.14606809 L51.5933053,43.409495 L40.6348262,43.409495 Z M41.5933053,33.409495 L41.5933053,38.409495 L45.5108467,34.4919536 L45.5108467,33.409495 L41.5933053,33.409495 Z M30.6348262,47.9413333 L30.6348262,48.5713777 L32.8198041,50.7563555 L35.0047819,48.5713777 L35.0047819,47.9413333 L30.6348262,47.9413333 Z M20.0784931,33.4594326 L20.0784931,34.29055 L24.2473758,38.4594326 L24.2473758,33.4594326 L20.0784931,33.4594326 Z M62.8997692,20.9120093 C63.6802294,21.4949826 64.4078309,22.074015 65.0507914,22.6264311 L68.3091906,18.8339603 L68.3091906,13.8339603 L58.1047352,13.8339603 L58.1047352,18.8339603 L61.8724594,22.1209429 C62.2229363,21.7192066 62.5655249,21.3161425 62.8997692,20.9120093 Z M74.9242078,37.466922 L75.833488,51.6186058 L71.6914579,52.5707872 C70.4895562,52.8470837 69.2260356,53.1301916 67.8662485,53.4286359 C65.6093318,53.9239812 56.241267,55.9105016 54.1662399,56.3732599 L49.2107065,57.4784088 L46.0000087,41.9654624 L51.252676,41.2018357 C51.8012091,41.1220906 52.4143402,41.0266616 53.1235625,40.9114633 L54.3111733,40.7140052 L54.3111733,37.466922 L47.6254957,37.466922 L47.6254957,22.727166 C47.2611354,21.6076055 46.8055255,20.3588905 46.5197967,19.7709171 L44.6867394,15.9988466 L48.0822606,13.5373329 C51.3595474,11.1615308 54.6644025,7.36691507 56.5137611,3.73246694 L58.6874671,-0.539404127 L72.1441773,5.60689109 L70.9438547,7.99174406 C72.7662275,9.24138612 74.4252236,10.5444615 75.7015083,11.7419125 L78.4264476,14.2985375 L74.3372046,22.4232255 L75.2193842,22.4232255 L75.2193842,37.466922 L74.9242078,37.466922 Z M48.1896811,36.5759559 L46.9446032,31.805103 L59.9335585,28.2207936 L61.4050846,32.7783148 C62.326163,35.6310228 63.1744031,39.5526346 63.4758974,42.2482341 L63.9410397,46.4069778 L50.0402678,50.5318434 L49.6460919,44.2665159 C49.5356971,42.5118187 48.9485999,39.4839589 48.1896811,36.5759559 Z M56.6609071,34.3651696 L55.7714234,34.5973035 L53.0706768,35.4693168 L54.357683,40.1332183 L57.9769972,39.1344665 L56.6609071,34.3651696 Z M54.4306897,43.259912 L58.5068813,42.8040028 L57.0845002,38.0105873 L53.2138447,39.1591519 L54.4306897,43.259912 Z M72.7251831,44.9599508 L71.105278,49.5731323 L58.3913863,45.4258828 L59.8681208,40.7104596 C60.4274641,38.9243969 61.0930547,35.6858061 61.4460475,33.1309188 L62.2243104,27.498016 L77.0210352,31.5228496 L75.3700191,36.529641 C75.1557977,37.1792782 74.9313992,37.8888259 74.6729723,38.7291319 C74.473525,39.3776585 73.7980525,41.6118932 73.6853031,41.9806036 C73.2966561,43.2515476 73.0043284,44.1649982 72.7251831,44.9599508 Z M64.6642006,42.1293605 L66.8522433,42.8976853 L68.0205665,43.2635704 L69.5581623,38.5498855 L66.1901894,37.4512586 L64.6642006,42.1293605 Z M67.6716954,33.9910777 L66.398997,33.8152369 L65.0866384,38.6399353 L69.3091717,39.7884999 L70.6215302,34.9638014 L67.6716954,33.9910777 Z M90.0753441,39.9638014 L90.0753441,33.2596823 L79.6698157,33.2596823 L79.6698157,39.9638014 L90.0753441,39.9638014 Z M79.6698157,41.3495716 L79.6698157,47.9538156 L90.0753441,47.9538156 L90.0753441,41.3495716 L79.6698157,41.3495716 Z M85.0753441,56.0936426 L84.6698157,56.0936426 L84.6698157,57.9413333 L69.3916492,57.9413333 L69.3916492,25.1316119 L100.604852,25.0581335 L100.604852,57.8913957 L85.0753441,57.8913957 L85.0753441,56.0936426 Z M87.2100537,21.9800284 L87.2100537,17.285895 L81.9318871,17.285895 L81.9318871,21.9800284 L87.2100537,21.9800284 Z M86.9318871,17.285895 L82.2100537,17.285895 L82.2100537,21.9800284 L86.9318871,21.9800284 L86.9318871,17.285895 Z M87.2100537,22.285895 L87.2100537,16.9800284 L81.9318871,16.9800284 L81.9318871,22.285895 L87.2100537,22.285895 Z M101.861558,16.9800284 L103.118265,16.9800284 L103.118265,32.3233504 L66.3252857,32.3233504 L66.3252857,16.9800284 L67.3306508,16.9800284 L67.3306508,7.09238582 L71.7039888,7.09238582 L71.7039888,1.34956312 L97.5384885,1.34956312 L97.5384885,7.09238582 L101.861558,7.09238582 L101.861558,16.9800284 Z M133.530557,29.6121789 L133.530557,46.0998837 C133.530557,51.4743066 131.615843,54.9967499 126.946845,56.700499 C124.148,57.7014553 120.878436,58.0098145 115.606953,57.9996602 L110.139037,57.9635002 L109.427733,53.8415228 C109.265609,52.9020159 108.415688,50.8447042 107.650186,49.5639188 L102.89913,41.6147762 L112.151727,42.0031593 C113.661025,42.066513 115.375053,42.0974818 117.247026,42.1048838 L117.247026,20.79799 L117.553499,20.6379546 L99.8039422,20.6379546 L99.8039422,4.79525674 L139.033009,4.79525674 L142.003521,4.00076429 L153.370178,12.2344322 L149.456909,16.3754934 C144.930196,21.1657085 139.189569,25.9581583 133.530557,29.6121789 Z M182.556164,40.7628028 L168.368967,40.7628028 L166.064632,19.0156181 L165.719484,6.24344681 L185.227265,6.24344681 L184.795509,19.0251382 L182.556164,40.7628028 Z M173.4769,31.3113511 L175.459761,33.095208 L177.424636,31.3223495 L177.365346,30.7628028 L173.53341,30.7628028 L173.4769,31.3113511 Z M176.050367,18.3526769 L176.029665,18.1572961 L176.055675,18.5490798 L176.050367,18.3526769 Z M175.993369,16.2434468 L175.87656,11.9209447 L175.471501,11.5019722 L175.02856,11.9570448 L174.883769,16.2434468 L175.993369,16.2434468 Z M174.812842,18.3431569 L174.807026,18.5153476 L174.830497,18.171775 L174.812842,18.3431569 Z M175.430837,54.0462014 C169.746757,54.0462014 165.202939,49.8655157 165.202939,44.1523177 C165.202939,38.4876068 169.754778,34.2084965 175.430837,34.2084965 C181.106897,34.2084965 185.658736,38.4876068 185.658736,44.1523177 C185.658736,49.8655157 181.114918,54.0462014 175.430837,54.0462014 Z M228.514112,31.0624284 L228.514112,37.0174837 L237.51213,37.0174837 L237.51213,31.0624284 L228.514112,31.0624284 Z M233.514112,32.0174837 L232.51213,32.0174837 L232.51213,36.0624284 L233.514112,36.0624284 L233.514112,32.0174837 Z M222.53219,36.0624284 L222.53219,32.0174837 L213.835783,32.0174837 L213.835783,36.0624284 L222.53219,36.0624284 Z M218.835783,32.0174837 L217.53219,32.0174837 L217.53219,36.0624284 L218.835783,36.0624284 L218.835783,32.0174837 Z M222.53219,37.0174837 L222.53219,31.0624284 L213.835783,31.0624284 L213.835783,37.0174837 L222.53219,37.0174837 Z M222.53219,28.0786553 L222.53219,21.9737872 L213.835783,21.9737872 L213.835783,28.0786553 L222.53219,28.0786553 Z M217.53219,26.9737872 L218.835783,26.9737872 L218.835783,23.0786553 L217.53219,23.0786553 L217.53219,26.9737872 Z M237.51213,28.0786553 L237.51213,21.9737872 L228.514112,21.9737872 L228.514112,28.0786553 L237.51213,28.0786553 Z M232.51213,26.9737872 L233.514112,26.9737872 L233.514112,23.0786553 L232.51213,23.0786553 L232.51213,26.9737872 Z M248.493981,46.5555631 C248.481653,51.4152348 246.866228,54.7754521 242.777075,56.5545602 C240.366566,57.6709462 237.84636,57.950968 233.155417,57.9863104 L227.337697,58.0036115 L226.566687,53.9186058 C226.361957,52.833895 225.64007,50.8648047 225.075838,49.8756492 L223.181998,46.5555631 L218.835783,46.5555631 L218.835783,57.9912709 L202.904129,57.9912709 L202.904129,46.5555631 L197.173548,46.5555631 L197.173548,31.0624284 L202.904129,31.0624284 L202.904129,19.4394525 L199.234546,19.4394525 L199.234546,3.99625532 L252.213902,3.99625532 L252.213902,19.4394525 L248.494052,19.4394525 L248.494052,31.0624284 L254.224633,31.0624284 L254.224633,46.5555631 L248.493985,46.5555631 Z M244.717767,41.0624284 L244.224633,41.0624284 L244.224633,36.5555631 L244.717767,36.5555631 L246.9712,38.8089957 L244.717767,41.0624284 Z M242.51213,41.0624284 L238.494052,41.0624284 L238.494052,36.5555631 L242.51213,36.5555631 L242.51213,41.0624284 Z M212.904129,36.5555631 L212.904129,41.0624284 L208.835783,41.0624284 L208.835783,36.5555631 L212.904129,36.5555631 Z M207.173548,41.0624284 L206.680413,41.0624284 L204.426981,38.8089957 L206.680413,36.5555631 L207.173548,36.5555631 L207.173548,41.0624284 Z M212.904129,47.9912709 L212.904129,48.9229248 L210.869956,50.9570978 L208.835783,48.9229248 L208.835783,47.9912709 L212.904129,47.9912709 Z M234.063108,52.5037197 L233.70437,52.5050536 C232.929331,52.5021379 232.18747,52.4933168 231.478411,52.4773127 L231.46507,47.991293 L233.102823,47.9864748 C233.884063,47.9805802 234.567879,47.9659384 235.165274,47.9427714 C235.713139,49.3580997 236.163049,50.8445841 236.393192,52.0639361 L234.063108,52.5037197 Z M238.445567,47.5333876 C238.49997,47.5131292 238.549877,47.4922217 238.595549,47.4706707 L238.770664,47.3921113 C238.753006,47.3996293 238.521135,47.6087591 238.399382,47.8613337 C238.38578,47.8895515 238.399679,47.8424137 238.422571,47.700276 C238.430893,47.6486042 238.438574,47.5929963 238.445567,47.5333876 Z M272.342748,26.2309645 L273.861488,36.5093218 L269.661888,37.7205405 C269.342295,37.8127152 269.069766,37.8934502 268.601353,38.0345682 L268.601353,46.3495631 C268.601353,50.7496589 267.503087,53.7172611 264.254634,55.724711 C261.825898,57.2818832 259.125966,57.6610132 254.62627,57.591168 L250.033959,57.5198851 L249.715877,52.9380477 C249.662968,52.1759109 249.137166,50.2883513 248.619919,49.1138501 L245.336053,41.6572447 L249.275779,41.8746787 L246.052051,27.832849 L250.9016,26.6992847 C251.453908,26.5701846 252.072785,26.418078 252.810161,26.2309645 L247.843947,26.2309645 L247.843947,10.7378298 L253.122113,10.7378298 L253.122113,1.34956312 L268.601353,1.34956312 L268.601353,10.7378298 L273.075227,10.7378298 L273.075227,26.2309645 L272.342748,26.2309645 Z M284.372867,41.711617 L284.462678,41.8052511 L284.498454,41.711617 L287.981456,41.711617 L287.981456,36.711617 L283.426941,34.6485142 C283.233642,35.0752417 283.028657,35.4763765 282.811348,35.8534651 C281.992121,35.5557959 281.181613,35.2670303 280.379812,34.9871695 L278.732097,39.7078723 L280.692559,41.0581229 L280.692559,41.711617 L281.641383,41.711617 L282.849919,42.5439857 C283.038511,42.2701649 283.226932,41.9927093 283.415187,41.711617 L284.372867,41.711617 Z M286.991914,20.7378298 L279.083975,20.7378298 L279.083975,17.1797787 L285.819921,17.1797787 L285.819921,22.1797787 L281.404383,19.8339252 C282.240373,18.2603643 283.296766,15.8426579 283.919069,14.0763447 L284.015372,14.1102739 C285.116617,15.851484 286.074095,17.7998674 286.570996,19.3904622 L286.991914,20.7378298 Z M297.519677,41.711617 C297.470871,41.8112389 297.421639,41.910354 297.371979,42.0089644 C298.856244,42.7595423 300.176857,43.4887868 301.317542,44.1938775 L306.384091,47.3256594 L295.669226,59.3524297 L292.057106,56.9601902 C290.594627,55.9916176 288.445441,54.8214777 285.737661,53.508732 C281.852946,55.4307017 277.133882,56.8064315 271.159066,57.8647015 L266.509849,58.6881789 L265.42164,54.0937114 C265.228329,53.2775451 264.487064,51.8734957 263.855036,51.1260313 L257.835918,44.0075494 L263.375121,43.3636087 L264.650034,41.711617 L263.57791,41.711617 L263.57791,26.7178582 L264.130861,26.7178582 L264.130861,17.1797787 L265.287031,17.1797787 L265.287031,5.74407092 L273.217554,5.74407092 L272.005379,3.44514129 L288.767028,0.54376257 L290.538645,3.4425261 C290.977241,4.16016662 291.419082,4.94300195 291.839474,5.74407092 L302.783765,5.74407092 L302.783765,17.1797787 L303.738862,17.1797787 L303.738862,26.7178582 L304.492885,26.7178582 L304.492885,41.711617 L297.519677,41.711617 Z M280.411677,36.7178582 L268.57791,36.7178582 L268.57791,31.711617 L277.560906,31.711617 L231.816796,22.2234752 L286.985196,22.2234752 L284.920732,27.1797787 L269.130861,27.1797787 L274.130861,22.1797787 L274.130861,27.2234752 L269.130861,22.2234752 L293.738862,22.2234752 L293.738862,22.1797787 L293.782558,22.2234752 L298.738862,22.2234752 L296.26071,24.701627 L298.738862,27.1797787 L293.782558,27.1797787 L293.738862,27.2234752 L293.738862,27.1797787 L284.920732,27.1797787 L284.601197,27.9469076 L285.116165,28.1722894 L284.10069,33.0680846 L282.919081,32.8229977 L280.435784,36.6714582 L280.411677,36.7178582 Z M293.738862,22.2234752 L293.782558,22.2234752 L296.26071,24.701627 L293.782558,27.1797787 L293.738862,27.1797787 L293.738862,22.2234752 Z M272.077048,15.7440709 L255.092436,10.7378298 L307.449935,10.7378298 L292.913233,15.7440709 L272.077048,15.7440709 Z M268.57791,36.711617 L268.57791,31.7178582 L273.57791,31.7178582 L273.57791,36.711617 L268.57791,36.711617 Z M329.050618,31.0624284 L329.050618,37.0174837 L338.048635,37.0174837 L338.048635,31.0624284 L329.050618,31.0624284 Z M334.050618,32.0174837 L333.048635,32.0174837 L333.048635,36.0624284 L334.050618,36.0624284 L334.050618,32.0174837 Z M323.068696,36.0624284 L323.068696,32.0174837 L314.372288,32.0174837 L314.372288,36.0624284 L323.068696,36.0624284 Z M319.372288,32.0174837 L318.068696,32.0174837 L318.068696,36.0624284 L319.372288,36.0624284 L319.372288,32.0174837 Z M323.068696,37.0174837 L323.068696,31.0624284 L314.372288,31.0624284 L314.372288,37.0174837 L323.068696,37.0174837 Z M323.068696,28.0786553 L323.068696,21.9737872 L314.372288,21.9737872 L314.372288,28.0786553 L323.068696,28.0786553 Z M318.068696,26.9737872 L319.372288,26.9737872 L319.372288,23.0786553 L318.068696,23.0786553 L318.068696,26.9737872 Z M338.048635,28.0786553 L338.048635,21.9737872 L329.050618,21.9737872 L329.050618,28.0786553 L338.048635,28.0786553 Z M333.048635,26.9737872 L334.050618,26.9737872 L334.050618,23.0786553 L333.048635,23.0786553 L333.048635,26.9737872 Z M349.030486,46.5555631 C349.018159,51.4152348 347.402734,54.7754521 343.313581,56.5545602 C340.903072,57.6709462 338.382866,57.950968 333.691923,57.9863104 L327.874203,58.0036115 L327.103193,53.9186058 C326.898463,52.833895 326.176576,50.8648047 325.612343,49.8756492 L323.718503,46.5555631 L319.372288,46.5555631 L319.372288,57.9912709 L303.440634,57.9912709 L303.440634,46.5555631 L297.710054,46.5555631 L297.710054,31.0624284 L303.440634,31.0624284 L303.440634,19.4394525 L299.771052,19.4394525 L299.771052,3.99625532 L352.750408,3.99625532 L352.750408,19.4394525 L349.030557,19.4394525 L349.030557,31.0624284 L354.761138,31.0624284 L354.761138,46.5555631 L349.030491,46.5555631 Z M345.254273,41.0624284 L344.761138,41.0624284 L344.761138,36.5555631 L345.254273,36.5555631 L347.507706,38.8089957 L345.254273,41.0624284 Z M343.048635,41.0624284 L339.030557,41.0624284 L339.030557,36.5555631 L343.048635,36.5555631 L343.048635,41.0624284 Z M313.440634,36.5555631 L313.440634,41.0624284 L309.372288,41.0624284 L309.372288,36.5555631 L313.440634,36.5555631 Z M307.710054,41.0624284 L307.216919,41.0624284 L304.963486,38.8089957 L307.216919,36.5555631 L307.710054,36.5555631 L307.710054,41.0624284 Z M313.440634,47.9912709 L313.440634,48.9229248 L311.406461,50.9570978 L309.372288,48.9229248 L309.372288,47.9912709 L313.440634,47.9912709 Z M334.599614,52.5037197 L334.240875,52.5050536 C333.465837,52.5021379 332.723976,52.4933168 332.014917,52.4773127 L332.001576,47.991293 L333.639329,47.9864748 C334.420568,47.9805802 335.104385,47.9659384 335.70178,47.9427714 C336.249644,49.3580997 336.699555,50.8445841 336.929698,52.0639361 L334.599614,52.5037197 Z M338.982073,47.5333876 C339.036476,47.5131292 339.086383,47.4922217 339.132054,47.4706707 L339.307169,47.3921113 C339.289511,47.3996293 339.05764,47.6087591 338.935888,47.8613337 C338.922286,47.8895515 338.936184,47.8424137 338.959077,47.700276 C338.967399,47.6486042 338.97508,47.5929963 338.982073,47.5333876 Z M371.778633,27.9662979 L371.778633,35.9687943 L378.011896,35.9687943 L378.011896,27.9662979 L371.778633,27.9662979 Z M376.778633,30.9687943 L373.011896,30.9687943 L373.011896,32.9662979 L376.778633,32.9662979 L376.778633,30.9687943 Z M378.011896,28.1722894 L378.011896,26.274661 L371.778633,26.274661 L371.778633,28.1722894 L378.011896,28.1722894 Z M376.778633,26.274661 L373.011896,26.274661 L373.011896,28.1722894 L376.778633,28.1722894 L376.778633,26.274661 Z M378.011896,31.274661 L378.011896,23.1722894 L371.778633,23.1722894 L371.778633,31.274661 L378.011896,31.274661 Z M382.887917,26.274661 L382.887917,28.1722894 L389.473058,28.1722894 L389.473058,26.274661 L382.887917,26.274661 Z M384.473058,28.1722894 L387.887917,28.1722894 L387.887917,26.274661 L384.473058,26.274661 L384.473058,28.1722894 Z M382.887917,23.1722894 L382.887917,31.274661 L389.473058,31.274661 L389.473058,23.1722894 L382.887917,23.1722894 Z M382.887917,30.9687943 L382.887917,32.9662979 L389.473058,32.9662979 L389.473058,30.9687943 L382.887917,30.9687943 Z M384.473058,32.9662979 L387.887917,32.9662979 L387.887917,30.9687943 L384.473058,30.9687943 L384.473058,32.9662979 Z M382.887917,27.9662979 L382.887917,35.9687943 L389.473058,35.9687943 L389.473058,27.9662979 L382.887917,27.9662979 Z M399.851761,32.810244 L402.013296,32.810244 L402.013296,47.9975121 C402.013296,52.1639285 400.763301,55.079394 397.206088,56.728507 C395.178002,57.6687217 393.201778,57.9090931 389.790876,57.9377915 L384.328336,57.9568937 L384.180727,56.710475 L383.846207,56.8127272 L383.064609,53.7068999 C381.715963,53.7932431 380.30289,53.8797777 378.788927,53.9692984 L374.516562,54.2148645 L374.516562,57.4419575 L359.791346,57.4419575 L359.791346,46.9051262 L358.283298,46.9051262 L358.283298,32.810244 L359.791346,32.810244 L359.791346,31.7615546 L361.601003,31.7615546 L361.601003,18.0786553 L399.851761,18.0786553 L399.851761,32.810244 Z M364.918708,10.8876426 L364.918708,8.74032624 L380.247143,8.74032624 L380.247143,10.8876426 L384.821554,10.8876426 L384.821554,25.1822752 L380.247143,25.1822752 L380.247143,27.1298411 L364.918708,27.1298411 L364.918708,25.1822752 L359.037322,25.1822752 L359.037322,10.8876426 L364.918708,10.8876426 Z M369.918708,18.7403262 L369.918708,17.1298411 L375.247143,17.1298411 L375.247143,18.7403262 L369.918708,18.7403262 Z M395.930837,10.8876426 L402.46571,10.8876426 L402.46571,25.1822752 L395.930837,25.1822752 L395.930837,27.1298411 L380.602403,27.1298411 L380.602403,25.1822752 L376.279333,25.1822752 L376.279333,10.8876426 L380.602403,10.8876426 L380.602403,8.74032624 L395.930837,8.74032624 L395.930837,10.8876426 Z M385.602403,18.7403262 L385.602403,17.1298411 L390.930837,17.1298411 L390.930837,18.7403262 L385.602403,18.7403262 Z M367.931421,18.0911376 L367.931421,23.4282184 C367.931421,36.6419772 366.43062,47.5411809 362.203331,55.3674869 L359.397004,60.5630578 L354.735136,56.9386385 C353.954464,56.3316973 351.801562,55.1174447 350.729752,54.6915406 L345.493169,52.610686 L348.182241,47.6588535 C351.073165,42.335317 352.050035,34.6930722 352.050035,23.4282184 L352.050035,3.04744113 L404.074294,3.04744113 L404.074294,18.0911376 L367.931421,18.0911376 Z M396.596143,10.5692894 L394.117991,8.09113759 L394.074294,8.09113759 L394.074294,13.0474411 L394.117991,13.0474411 L396.596143,10.5692894 Z M362.050035,8.09113759 L362.006339,8.09113759 L357.931421,12.1660556 L357.931421,13.0474411 L362.050035,13.0474411 L362.050035,8.09113759 Z M355.369983,45.8080059 C354.827391,47.5628764 354.191248,49.1411516 353.454709,50.5220453 L356.97008,52.4310529 C357.770951,50.9562773 358.455857,49.417806 359.038907,47.7946557 C357.873481,47.0740043 356.528433,46.3433037 355.369983,45.8080059 Z M433.897428,40.7628028 L419.710231,40.7628028 L417.405896,19.0156181 L417.060748,6.24344681 L436.568529,6.24344681 L436.136773,19.0251382 L433.897428,40.7628028 Z M424.818164,31.3113511 L426.801025,33.095208 L428.7659,31.3223495 L428.706611,30.7628028 L424.874674,30.7628028 L424.818164,31.3113511 Z M427.391632,18.3526769 L427.370929,18.1572961 L427.396939,18.5490798 L427.391632,18.3526769 Z M427.334633,16.2434468 L427.217824,11.9209447 L426.812765,11.5019722 L426.369824,11.9570448 L426.225033,16.2434468 L427.334633,16.2434468 Z M426.772102,54.0462014 C421.088021,54.0462014 416.544203,49.8655157 416.544203,44.1523177 C416.544203,38.4876068 421.096042,34.2084965 426.772102,34.2084965 C432.448161,34.2084965 437,38.4876068 437,44.1523177 C437,49.8655157 432.456182,54.0462014 426.772102,54.0462014 Z"></path>
                <path stroke="#00428E" stroke-width="5" d="M15.3633077,36.4821092 L15.3633077,46.3495631 C15.3633077,50.0553898 14.4694902,52.258162 11.9878373,53.5664702 L11.6717773,53.7449671 C9.79698318,54.739635 7.70703484,54.991895 3.6642174,54.991895 L1.47734093,54.991895 L1.18643516,52.8244536 C1.0307265,51.6643205 0.381088063,49.6206643 -0.257406066,48.2614626 L-1.98327839,44.5874921 L2.07432644,44.699462 C2.68496327,44.7163125 3.33922515,44.7284124 4.00685451,44.736292 L4.63272685,44.7396417 L4.63272685,39.3018138 L0.79988193,40.3060245 L-2.10513227,29.6933415 L0.46107497,29.1268244 C3.05502517,28.5541828 3.56336942,28.4412515 4.63272685,28.1929387 L4.63272685,23.7809021 L-0.846512713,23.7809021 L-0.846512713,13.2877674 L4.63272685,13.2877674 L4.63272685,3.84956312 L15.3633077,3.84956312 L15.3633077,13.2877674 L20.1890599,13.2877674 L20.1890599,23.7809021 L15.3633077,23.7809021 L15.3633077,25.6197861 L19.2363273,24.7144819 L20.6692992,35.0589152 L15.3633077,36.4821092 Z M38.1348262,28.1691688 L38.1348262,27.7259716 L40.5108467,27.7259716 L38.1348262,25.3499511 L38.1348262,25.2259716 L38.0728365,25.2879614 L38.0108467,25.2259716 L38.0108467,25.3499511 L35.6348262,27.7259716 L38.0108467,27.7259716 L38.0108467,28.1691688 L35.6348262,28.1691688 L38.0108467,30.5451893 L38.0108467,30.6691688 L38.0728365,30.6071791 L38.1348262,30.6691688 L38.1348262,30.5451893 L40.5108467,28.1691688 L38.1348262,28.1691688 Z M27.5784931,28.1691688 L27.5784931,27.7259716 L30.0047819,27.7259716 L27.5784931,25.2996829 L27.5784931,25.2259716 L27.5416375,25.2628272 L27.5047819,25.2259716 L27.5047819,25.2996829 L25.0784931,27.7259716 L27.5047819,27.7259716 L27.5047819,28.1691688 L25.0784931,28.1691688 L27.5047819,30.5954576 L27.5047819,30.6691688 L27.5416375,30.6323132 L27.5784931,30.6691688 L27.5784931,30.5954576 L30.0047819,28.1691688 L27.5784931,28.1691688 Z M27.5047819,17.0393277 L27.5047819,17.3327121 L25.0784931,17.3327121 L27.5047819,19.7590008 L27.5047819,19.8327121 L27.5416375,19.7958564 L27.5784931,19.8327121 L27.5784931,19.7590008 L30.0047819,17.3327121 L27.5784931,17.3327121 L27.5784931,17.0393277 L30.0047819,17.0393277 L27.5784931,14.6130389 L27.5784931,14.5393277 L27.5416375,14.5761833 L27.5047819,14.5393277 L27.5047819,14.6130389 L25.0784931,17.0393277 L27.5047819,17.0393277 Z M38.0108467,17.3327121 L35.6348262,17.3327121 L38.0108467,19.7087326 L38.0108467,19.8327121 L38.0728365,19.7707223 L38.1348262,19.8327121 L38.1348262,19.7087326 L40.5108467,17.3327121 L38.1348262,17.3327121 L38.1348262,17.0393277 L40.5108467,17.0393277 L38.1348262,14.6633071 L38.1348262,14.5393277 L38.0728365,14.6013174 L38.0108467,14.5393277 L38.0108467,14.6633071 L35.6348262,17.0393277 L38.0108467,17.0393277 L38.0108467,17.3327121 Z M38.1348262,40.909495 L38.1348262,55.4413333 L27.5047819,55.4413333 L27.5047819,40.9594326 L16.7473758,40.9594326 L16.7473758,6.64606809 L49.0933053,6.64606809 L49.0933053,40.909495 L38.1348262,40.909495 Z M63.2638844,16.3339603 C63.4644304,16.0502114 63.6599301,15.7665114 63.8502044,15.4829775 L61.7743177,14.0898894 L60.4473588,16.2086579 C60.513783,16.2502585 60.5801799,16.2920289 60.6465372,16.3339603 L58.1047352,16.3339603 L58.1047352,18.8339603 L59.9885973,20.4774516 C60.8515241,19.4883165 61.662916,18.4927228 62.4149946,17.4957578 C63.9851765,18.5672788 65.4661835,19.6873217 66.679991,20.7301957 L68.3091906,18.8339603 L68.3091906,16.3339603 L63.2638844,16.3339603 Z M66.6871938,41.1103715 L72.5847101,40.0451493 L73.202375,49.6582462 L71.1313599,50.1343369 C69.938025,50.408664 68.682445,50.6899927 67.3303082,50.986758 C65.0866401,51.4791954 55.7129766,53.4669031 53.6220749,53.9332016 L51.1443082,54.485776 L48.9860086,44.0576418 L51.6123422,43.6758285 C52.1762719,43.5938451 52.8025732,43.4963662 53.5335962,43.3776085 L56.8111733,42.8326622 L56.8111733,34.966922 L50.1254957,34.966922 L50.1254957,24.9232255 L50.7725689,24.9232255 L50.6234753,24.1530385 C50.4024424,23.0112279 49.3505004,19.876161 48.7683542,18.6782188 L47.8518255,16.7921836 L49.5495861,15.5614267 C53.1411297,12.9578105 56.7092088,8.86096261 58.7418934,4.86623347 L59.8287464,2.73029794 L68.7437705,6.80219732 L67.7082592,8.85959595 C70.1341,10.3786432 72.4034912,12.0756894 73.9909454,13.5650896 L75.3534151,14.8434021 L71.0605318,23.3726915 L71.0605318,24.9232255 L72.7193842,24.9232255 L72.7193842,34.966922 L66.6871938,34.966922 L66.6871938,41.1103715 Z M61.6871938,47.0856893 L61.6871938,47.0905896 L61.8111733,47.0699761 L61.8111733,47.0591795 C61.7699589,47.0679925 61.7286303,47.0768295 61.6871938,47.0856893 Z M67.9545948,45.9623571 L69.7275233,45.6421269 L70.011164,45.2614362 C69.3432118,45.4149869 68.6547818,45.5709182 67.939713,45.7307421 L67.9545948,45.9623571 Z M62.0218371,9.228838 C62.4479206,8.53434711 62.8417426,7.83421105 63.1981579,7.13376653 L62.9319344,7.22669101 C62.6226278,7.83652654 62.4509963,8.15718979 62.2324527,8.52937151 L61.8640478,9.15676842 L62.0218371,9.228838 Z M50.6086614,35.9446602 L49.9861224,33.5592338 L58.2902572,31.2677032 L59.0260203,33.5464638 C59.8959052,36.2406184 60.7086324,39.998046 60.9913893,42.5261185 L61.2239605,44.6054903 L52.3382468,47.2422054 L52.1411588,44.1095416 C52.0185496,42.1606975 51.4047233,38.9949867 50.6086614,35.9446602 Z M54.9907016,35.4725976 L54.5941427,36.1601983 C54.7065591,36.554308 54.8168871,36.9646814 54.9235448,37.3836287 L56.0321598,37.0777058 C55.9418694,36.6810807 55.8475895,36.2818348 55.7498626,35.8820388 L54.9907016,35.4725976 Z M55.7145029,41.0248594 C55.8485162,41.7729035 55.9544682,42.4747622 56.0223732,43.0818872 L57.062262,42.9655789 C56.9925967,42.2773723 56.8882014,41.5197871 56.7551632,40.7160575 L55.7145029,41.0248594 Z M70.3663821,44.1316648 L69.5564295,46.4382555 L61.5154972,43.8153173 L62.2538645,41.4576057 C62.8598228,39.5226947 63.5520419,36.154536 63.9225222,33.4730779 L64.3116537,30.6566265 L73.8212827,33.2433255 L72.9957746,35.7467212 C72.7756336,36.4143102 72.5464062,37.139127 72.2834219,37.9942517 C72.0818016,38.6498441 71.4055436,40.886677 71.2945835,41.2495359 C70.9151412,42.4903789 70.6315976,43.3763815 70.3663821,44.1316648 Z M67.6707063,40.5638457 L66.4018736,40.1499547 C66.0962579,41.1418369 65.8610718,41.8705261 65.64878,42.4750927 L66.8522433,42.8976853 L67.0253518,42.9518979 C67.2398313,42.2670343 67.4586664,41.4509327 67.6707063,40.5638457 Z M68.4241427,36.956929 C68.5386702,36.3280842 68.6443818,35.7016263 68.7382409,35.0939633 L68.4026609,34.4698493 L68.0842503,34.6802685 C67.902582,35.2421199 67.7132418,35.8451607 67.5043211,36.5244914 C67.4894607,36.5728116 67.4721441,36.6293166 67.4527626,36.6927055 L68.4241427,36.956929 Z M87.5753441,37.4638014 L87.5753441,38.2596823 L88.3712249,37.4638014 L90.0753441,37.4638014 L89.2232845,36.6117418 L90.0753441,35.7596823 L88.3712249,35.7596823 L87.5753441,34.9638014 L87.5753441,35.7596823 L82.1698157,35.7596823 L82.1698157,34.9638014 L81.3739349,35.7596823 L79.6698157,35.7596823 L80.5218753,36.6117418 L79.6698157,37.4638014 L81.3739349,37.4638014 L82.1698157,38.2596823 L82.1698157,37.4638014 L87.5753441,37.4638014 Z M82.1698157,43.8495716 L82.1698157,42.9538156 L81.2740597,43.8495716 L79.6698157,43.8495716 L80.4719377,44.6516936 L79.6698157,45.4538156 L81.2740597,45.4538156 L82.1698157,46.3495716 L82.1698157,45.4538156 L87.5753441,45.4538156 L87.5753441,46.3495716 L88.4711001,45.4538156 L90.0753441,45.4538156 L89.2732221,44.6516936 L90.0753441,43.8495716 L88.4711001,43.8495716 L87.5753441,42.9538156 L87.5753441,43.8495716 L82.1698157,43.8495716 Z M87.5753441,53.5936426 L82.1698157,53.5936426 L82.1698157,55.4413333 L71.8916492,55.4413333 L71.8916492,27.6257336 L98.1048519,27.5640256 L98.1048519,55.3913957 L87.5753441,55.3913957 L87.5753441,53.5936426 Z M84.4318871,19.785895 L84.7100537,19.785895 L84.7100537,21.9800284 L86.904187,19.785895 L87.2100537,19.785895 L87.0571203,19.6329617 L87.2100537,19.4800284 L86.904187,19.4800284 L84.7100537,17.285895 L84.7100537,19.4800284 L84.4318871,19.4800284 L84.4318871,17.285895 L82.2377538,19.4800284 L81.9318871,19.4800284 L82.0848204,19.6329617 L81.9318871,19.785895 L82.2377538,19.785895 L84.4318871,21.9800284 L84.4318871,19.785895 Z M99.3615582,19.4800284 L100.618265,19.4800284 L100.618265,29.8233504 L68.8252857,29.8233504 L68.8252857,19.4800284 L69.8306508,19.4800284 L69.8306508,9.59238582 L74.2039888,9.59238582 L74.2039888,3.84956312 L84.4318871,3.84956312 L84.4318871,9.59238582 L84.7100537,9.59238582 L84.7100537,3.84956312 L95.0384885,3.84956312 L95.0384885,9.59238582 L99.3615582,9.59238582 L99.3615582,19.4800284 Z M131.030557,28.235115 L131.030557,46.0998837 C131.030557,50.5145658 129.650988,53.052519 126.104983,54.3465091 C123.657734,55.2217234 120.608604,55.509293 115.623485,55.4997148 L112.246974,55.4773856 L111.891322,53.4163968 C111.67071,52.1379616 110.707222,49.8057505 109.79611,48.2813395 L107.420582,44.3067683 L112.046881,44.5009598 C113.735471,44.5718394 115.659981,44.6028949 117.781171,44.6063249 L119.747026,44.6001048 L119.747026,22.3128546 L121.089837,21.6116609 C122.837135,20.699251 124.749251,19.4977107 126.658389,18.1379546 L102.303942,18.1379546 L102.303942,7.29525674 L139.361559,7.29525674 L141.500302,6.72322895 L149.596507,12.5878785 L147.639873,14.6584091 C142.941908,19.629845 136.876035,24.6195679 131.030557,28.235115 Z M180.300475,38.2628028 L170.618062,38.2628028 L168.571417,18.9475732 L168.558412,18.7516814 L168.287955,8.74344681 L182.641391,8.74344681 L182.30275,18.7685475 L182.291014,18.9403338 L180.300475,38.2628028 Z M175.430837,51.5462014 C171.083117,51.5462014 167.702939,48.4361598 167.702939,44.1523177 C167.702939,39.9040305 171.10214,36.7084965 175.430837,36.7084965 C179.759535,36.7084965 183.158736,39.9040305 183.158736,44.1523177 C183.158736,48.4361598 179.778557,51.5462014 175.430837,51.5462014 Z M231.014112,33.5624284 L231.014112,32.0174837 L229.469168,33.5624284 L228.514112,33.5624284 L228.99164,34.039956 L228.514112,34.5174837 L229.469168,34.5174837 L231.014112,36.0624284 L231.014112,34.5174837 L235.01213,34.5174837 L235.01213,36.0624284 L236.557074,34.5174837 L237.51213,34.5174837 L237.034602,34.039956 L237.51213,33.5624284 L236.557074,33.5624284 L235.01213,32.0174837 L235.01213,33.5624284 L231.014112,33.5624284 Z M216.335783,34.5174837 L220.03219,34.5174837 L220.03219,36.0624284 L221.577135,34.5174837 L222.53219,34.5174837 L222.054663,34.039956 L222.53219,33.5624284 L221.577135,33.5624284 L220.03219,32.0174837 L220.03219,33.5624284 L216.335783,33.5624284 L216.335783,32.0174837 L214.790838,33.5624284 L213.835783,33.5624284 L214.31331,34.039956 L213.835783,34.5174837 L214.790838,34.5174837 L216.335783,36.0624284 L216.335783,34.5174837 Z M220.03219,25.5786553 L220.03219,26.9737872 L221.427322,25.5786553 L222.53219,25.5786553 L221.979756,25.0262213 L222.53219,24.4737872 L221.427322,24.4737872 L220.03219,23.0786553 L220.03219,24.4737872 L216.335783,24.4737872 L216.335783,23.0786553 L214.940651,24.4737872 L213.835783,24.4737872 L214.388217,25.0262213 L213.835783,25.5786553 L214.940651,25.5786553 L216.335783,26.9737872 L216.335783,25.5786553 L220.03219,25.5786553 Z M235.01213,25.5786553 L235.01213,26.9737872 L236.407262,25.5786553 L237.51213,25.5786553 L236.959696,25.0262213 L237.51213,24.4737872 L236.407262,24.4737872 L235.01213,23.0786553 L235.01213,24.4737872 L231.014112,24.4737872 L231.014112,23.0786553 L229.618981,24.4737872 L228.514112,24.4737872 L229.066546,25.0262213 L228.514112,25.5786553 L229.618981,25.5786553 L231.014112,26.9737872 L231.014112,25.5786553 L235.01213,25.5786553 Z M245.994052,44.0555631 L245.994052,46.4993844 C245.994052,50.5207001 244.812858,52.9710843 241.796173,54.2534434 C239.802274,55.1943151 237.518375,55.4533722 233.147982,55.4863215 L229.408818,55.4974412 L229.023313,53.4549383 C228.767345,52.0987529 227.949404,49.8676555 227.247389,48.6369551 L224.975327,44.6538089 L229.554209,44.9019232 C230.775018,44.9680747 232.176074,44.9992511 233.713757,45.0051067 L235.01213,45.0011131 L235.01213,44.0555631 L216.335783,44.0555631 L216.335783,55.4912709 L205.404129,55.4912709 L205.404129,44.0555631 L199.673548,44.0555631 L199.673548,33.5624284 L205.404129,33.5624284 L205.404129,16.9394525 L201.734546,16.9394525 L201.734546,6.49625532 L249.713902,6.49625532 L249.713902,16.9394525 L245.994052,16.9394525 L245.994052,33.5624284 L251.724633,33.5624284 L251.724633,44.0555631 L245.994052,44.0555631 Z M266.101353,36.1738279 L266.101353,46.3495631 C266.101353,49.9965883 265.290122,52.167572 262.954364,53.588426 C261.059852,54.821493 258.726212,55.154507 254.665071,55.0914691 L252.368915,55.0558277 L252.209875,52.7649089 C252.134988,51.6862 251.533429,49.5266819 250.907872,48.1062428 L249.265939,44.3779401 L253.33359,44.6024342 C254.118527,44.645755 254.930889,44.6713504 255.622113,44.6794234 L255.622113,39.1996332 L251.503533,40.4055455 L249.045853,29.7004472 L251.470627,29.133665 C252.152069,28.9743805 252.925049,28.7827908 253.89012,28.5355445 L255.622113,28.0860125 L255.622113,23.7309645 L250.343947,23.7309645 L250.343947,13.2378298 L255.622113,13.2378298 L255.622113,3.84956312 L266.101353,3.84956312 L266.101353,13.2378298 L270.575227,13.2378298 L270.575227,23.7309645 L266.101353,23.7309645 L266.101353,25.2634505 L269.528893,24.2905951 L271.068894,34.712841 L268.969094,35.3184504 C268.549889,35.4393546 268.213258,35.5399514 267.452673,35.769911 C266.917725,35.9316504 266.481334,36.062443 266.101353,36.1738279 Z M283.483579,39.211617 C283.243265,39.4879444 282.99288,39.7509305 282.732131,40.0010313 L284.462678,41.8052511 L285.354976,39.4699131 C285.127917,39.383157 284.901511,39.2970583 284.675758,39.211617 L287.981456,39.211617 L287.981456,36.711617 L285.704198,35.6800656 C285.155032,36.8924078 284.513281,37.9509909 283.769393,38.8708045 C283.366947,38.7204704 282.96661,38.5722587 282.56838,38.4261692 C282.650375,38.2961137 282.732355,38.1653191 282.81432,38.0337855 L280.692559,36.711617 L280.692559,37.7481794 C280.311698,37.6126185 279.93283,37.4790656 279.555954,37.3475209 L278.732097,39.7078723 L280.791008,41.125929 C281.216855,40.5076321 281.642237,39.8695317 282.067189,39.211617 L283.483579,39.211617 Z M284.94073,18.2378298 L283.432361,18.2378298 C283.665414,18.7384505 283.868283,19.2250012 284.031343,19.6797787 L284.278484,19.6797787 C284.498951,19.2190271 284.722353,18.7323096 284.94073,18.2378298 Z M284.134184,19.9784818 C284.151648,20.0314944 284.168501,20.0839881 284.184728,20.1359318 L284.624887,21.5448901 L283.612152,21.0068519 C283.780164,20.690608 283.955616,20.3445195 284.134184,19.9784818 Z M295.914954,39.211617 C295.31803,40.610875 294.644973,41.9027923 293.887655,43.0954995 C296.304833,44.2271611 298.364989,45.3078694 300.003068,46.3204139 L302.536342,47.8863049 L295.243582,56.0719751 L293.437522,54.8758554 C291.693289,53.7206827 289.124314,52.3442894 285.866203,50.7978248 L285.690621,50.7155665 C281.865769,52.8066745 277.057326,54.2810791 270.723048,55.4030174 L268.39844,55.8147561 L267.854335,53.5175224 C267.566546,52.3024641 266.64041,50.5482465 265.764059,49.5118341 L262.7545,45.9525931 L267.384397,45.4143606 C268.775535,45.2526386 270.075969,45.060169 271.292546,44.8359303 C270.847317,44.6817764 270.396657,44.5278036 269.940235,44.3738121 L266.618359,43.2530488 L268.76029,40.4776024 C269.069953,40.0763517 269.38813,39.6525821 269.71094,39.211617 L266.07791,39.211617 L266.07791,29.2178582 L266.630861,29.2178582 L266.630861,19.6797787 L272.445723,19.6797787 C272.19605,19.2187816 271.936058,18.7668934 271.678161,18.3488834 L271.609646,18.2378298 L267.787031,18.2378298 L267.787031,8.24407092 L277.36199,8.24407092 L275.821152,5.32182171 L287.519682,3.29685008 L288.40549,4.74623185 C289.057513,5.81308677 289.721234,7.04175649 290.297925,8.24407092 L300.283765,8.24407092 L300.283765,18.2378298 L296.535569,18.2378298 L296.497232,18.3063808 C296.243632,18.7598596 295.985813,19.2177391 295.723976,19.6797787 L301.238862,19.6797787 L301.238862,29.2178582 L301.992885,29.2178582 L301.992885,39.211617 L295.914954,39.211617 Z M281.05269,29.8826638 L256.179275,24.7234752 L283.235658,24.7234752 L281.793923,28.1847509 C281.560835,28.7443403 281.313753,29.3103017 281.05269,29.8826638 Z M331.550618,33.5624284 L331.550618,32.0174837 L330.005673,33.5624284 L329.050618,33.5624284 L329.528146,34.039956 L329.050618,34.5174837 L330.005673,34.5174837 L331.550618,36.0624284 L331.550618,34.5174837 L335.548635,34.5174837 L335.548635,36.0624284 L337.09358,34.5174837 L338.048635,34.5174837 L337.571108,34.039956 L338.048635,33.5624284 L337.09358,33.5624284 L335.548635,32.0174837 L335.548635,33.5624284 L331.550618,33.5624284 Z M316.872288,34.5174837 L320.568696,34.5174837 L320.568696,36.0624284 L322.113641,34.5174837 L323.068696,34.5174837 L322.591168,34.039956 L323.068696,33.5624284 L322.113641,33.5624284 L320.568696,32.0174837 L320.568696,33.5624284 L316.872288,33.5624284 L316.872288,32.0174837 L315.327344,33.5624284 L314.372288,33.5624284 L314.849816,34.039956 L314.372288,34.5174837 L315.327344,34.5174837 L316.872288,36.0624284 L316.872288,34.5174837 Z M320.568696,25.5786553 L320.568696,26.9737872 L321.963828,25.5786553 L323.068696,25.5786553 L322.516262,25.0262213 L323.068696,24.4737872 L321.963828,24.4737872 L320.568696,23.0786553 L320.568696,24.4737872 L316.872288,24.4737872 L316.872288,23.0786553 L315.477156,24.4737872 L314.372288,24.4737872 L314.924722,25.0262213 L314.372288,25.5786553 L315.477156,25.5786553 L316.872288,26.9737872 L316.872288,25.5786553 L320.568696,25.5786553 Z M335.548635,25.5786553 L335.548635,26.9737872 L336.943767,25.5786553 L338.048635,25.5786553 L337.496201,25.0262213 L338.048635,24.4737872 L336.943767,24.4737872 L335.548635,23.0786553 L335.548635,24.4737872 L331.550618,24.4737872 L331.550618,23.0786553 L330.155486,24.4737872 L329.050618,24.4737872 L329.603052,25.0262213 L329.050618,25.5786553 L330.155486,25.5786553 L331.550618,26.9737872 L331.550618,25.5786553 L335.548635,25.5786553 Z M346.530557,44.0555631 L346.530557,46.4993844 C346.530557,50.5207001 345.349364,52.9710843 342.332678,54.2534434 C340.33878,55.1943151 338.054881,55.4533722 333.684488,55.4863215 L329.945324,55.4974412 L329.559819,53.4549383 C329.30385,52.0987529 328.48591,49.8676555 327.783895,48.6369551 L325.511833,44.6538089 L330.090715,44.9019232 C331.311524,44.9680747 332.71258,44.9992511 334.250263,45.0051067 L335.548635,45.0011131 L335.548635,44.0555631 L316.872288,44.0555631 L316.872288,55.4912709 L305.940634,55.4912709 L305.940634,44.0555631 L300.210054,44.0555631 L300.210054,33.5624284 L305.940634,33.5624284 L305.940634,16.9394525 L302.271052,16.9394525 L302.271052,6.49625532 L350.250408,6.49625532 L350.250408,16.9394525 L346.530557,16.9394525 L346.530557,33.5624284 L352.261138,33.5624284 L352.261138,44.0555631 L346.530557,44.0555631 Z M371.778633,30.4662979 L371.778633,33.4687943 L378.011896,33.4687943 L378.011896,30.4662979 L371.778633,30.4662979 Z M378.011896,28.774661 L378.011896,25.6722894 L371.778633,25.6722894 L371.778633,28.774661 L378.011896,28.774661 Z M382.887917,25.6722894 L382.887917,28.774661 L389.473058,28.774661 L389.473058,25.6722894 L382.887917,25.6722894 Z M382.887917,30.4662979 L382.887917,33.4687943 L389.473058,33.4687943 L389.473058,30.4662979 L382.887917,30.4662979 Z M397.351761,35.310244 L399.513296,35.310244 L399.513296,47.9975121 C399.513296,51.2944208 398.652371,53.3024272 396.154595,54.4603883 C394.551908,55.2033894 392.836087,55.4120876 389.782134,55.4378068 L386.548819,55.4491135 L386.311479,53.4449881 L385.629133,53.6535594 L384.987651,51.1045071 C384.985265,51.0950266 384.982831,51.0854598 384.980348,51.0758016 C383.016843,51.2080102 380.94774,51.3372819 378.64547,51.4734178 L372.016562,51.8544328 L372.016562,54.9419575 L362.291346,54.9419575 L362.291346,44.4051262 L360.783298,44.4051262 L360.783298,35.310244 L362.291346,35.310244 L362.291346,34.2615546 L364.101003,34.2615546 L364.101003,20.5786553 L397.351761,20.5786553 L397.351761,35.310244 Z M373.473242,46.7624547 L371.082225,46.899884 L372.210684,47.8630361 C372.488638,47.8544181 372.779132,47.8449525 373.084721,47.8345864 L373.579328,47.8163352 L373.473242,46.7624547 Z M367.418708,13.3876426 L367.418708,11.2403262 L377.747143,11.2403262 L377.747143,13.3876426 L382.321554,13.3876426 L382.321554,22.6822752 L377.747143,22.6822752 L377.747143,24.6298411 L367.418708,24.6298411 L367.418708,22.6822752 L361.537322,22.6822752 L361.537322,13.3876426 L367.418708,13.3876426 Z M377.321554,18.3876426 L379.116186,18.3876426 L379.46887,18.0349589 L379.116186,17.6822752 L377.321554,17.6822752 L377.321554,18.3876426 Z M366.537322,17.6822752 L364.74269,17.6822752 L364.390006,18.0349589 L364.74269,18.3876426 L366.537322,18.3876426 L366.537322,17.6822752 Z M393.430837,13.3876426 L399.96571,13.3876426 L399.96571,22.6822752 L393.430837,22.6822752 L393.430837,24.6298411 L383.102403,24.6298411 L383.102403,22.6822752 L378.779333,22.6822752 L378.779333,13.3876426 L383.102403,13.3876426 L383.102403,11.2403262 L393.430837,11.2403262 L393.430837,13.3876426 Z M394.96571,18.3876426 L396.760343,18.3876426 L397.113027,18.0349589 L396.760343,17.6822752 L394.96571,17.6822752 L394.96571,18.3876426 Z M383.779333,17.6822752 L381.9847,17.6822752 L381.632017,18.0349589 L381.9847,18.3876426 L383.779333,18.3876426 L383.779333,17.6822752 Z M365.431421,15.5911376 L365.431421,23.4282184 C365.431421,36.2480227 363.974617,46.8277032 360.003695,54.1793789 L358.600531,56.7771644 L356.269597,54.9649547 C355.298535,54.2099922 352.939502,52.87948 351.652956,52.3682469 L349.034665,51.3278196 L350.379201,48.8519034 C353.535292,43.040072 354.550035,35.101533 354.550035,23.4282184 L354.550035,5.54744113 L401.574294,5.54744113 L401.574294,15.5911376 L365.431421,15.5911376 Z M431.641739,38.2628028 L421.959326,38.2628028 L419.912681,18.9475732 L419.899676,18.7516814 L419.62922,8.74344681 L433.982655,8.74344681 L433.644015,18.7685475 L433.632279,18.9403338 L431.641739,38.2628028 Z M426.772102,51.5462014 C422.424382,51.5462014 419.044203,48.4361598 419.044203,44.1523177 C419.044203,39.9040305 422.443404,36.7084965 426.772102,36.7084965 C431.100799,36.7084965 434.5,39.9040305 434.5,44.1523177 C434.5,48.4361598 431.119822,51.5462014 426.772102,51.5462014 Z"></path>
            </g>
            <path d="M17.1361092,27.7727887 L12.8633077,28.7715404 L12.8633077,21.2809021 L17.6890599,21.2809021 L17.6890599,15.7877674 L12.8633077,15.7877674 L12.8633077,6.34956312 L7.13272685,6.34956312 L7.13272685,15.7877674 L1.65348729,15.7877674 L1.65348729,21.2809021 L7.13272685,21.2809021 L7.13272685,30.1697929 L5.47465995,30.5638317 C3.85586512,30.9407044 2.35724283,31.2684199 1,31.5680454 L2.55831584,37.2609305 L7.13272685,36.0624284 L7.13272685,46.3495631 C7.13272685,47.0486979 6.93165384,47.2484482 6.27816655,47.2484482 L3.99351373,47.2362564 C3.36967686,47.2289414 2.68398647,47.2172372 2.00536506,47.1985106 C2.7091206,48.6966383 3.46314439,50.9937674 3.6642174,52.491895 C6.7596835,52.491895 8.95282749,52.357437 10.5000988,51.5365356 L10.7520411,51.3932681 C12.3606251,50.5443291 12.8633077,49.1460766 12.8633077,46.3495631 L12.8633077,34.5643007 L17.890133,33.2159858 L17.1361092,27.7727887 Z M35.6348262,30.6691688 L35.6348262,25.2259716 L40.5108467,25.2259716 L40.5108467,30.6691688 L35.6348262,30.6691688 Z M25.0784931,30.6691688 L25.0784931,25.2259716 L30.0047819,25.2259716 L30.0047819,30.6691688 L25.0784931,30.6691688 Z M30.0047819,14.5393277 L30.0047819,19.8327121 L25.0784931,19.8327121 L25.0784931,14.5393277 L30.0047819,14.5393277 Z M40.5108467,19.8327121 L35.6348262,19.8327121 L35.6348262,14.5393277 L40.5108467,14.5393277 L40.5108467,19.8327121 Z M19.2473758,9.14606809 L19.2473758,38.4594326 L25.0784931,38.4594326 L25.0784931,36.0624284 L30.0047819,36.0624284 L30.0047819,52.9413333 L35.6348262,52.9413333 L35.6348262,36.0624284 L40.5108467,36.0624284 L40.5108467,38.409495 L46.5933053,38.409495 L46.5933053,9.14606809 L19.2473758,9.14606809 Z M58.1047352,18.8339603 C59.4117098,17.3358326 60.6684161,15.7378298 61.7743177,14.0898894 C64.0866573,15.5380794 66.4492652,17.2359574 68.3091906,18.8339603 L58.1047352,18.8339603 Z M64.1871938,44.1023801 L64.1871938,32.466922 L70.2193842,32.466922 L70.2193842,27.4232255 L64.1871938,27.4232255 L64.1871938,23.7777816 L68.5605318,23.7777816 L68.5605318,19.0836482 C69.0129461,19.5330865 69.4150921,19.8826496 69.8172382,20.2821504 L72.2803826,15.3882667 C70.4707254,13.6903887 67.5048985,11.5430723 64.3882669,9.79525674 C64.7401446,9.19600567 65.0417541,8.59675461 65.3433637,7.99750355 L60.9700257,6 C58.657686,10.5443206 54.7367623,14.8888908 51.0169116,17.5855206 C51.7206671,19.0337106 52.8265687,22.3795291 53.07791,23.6779064 C53.882202,23.0287177 54.7367623,22.2796539 55.5410544,21.5305901 L55.5410544,23.7777816 L59.3111733,23.7777816 L59.3111733,27.4232255 L52.6254957,27.4232255 L52.6254957,32.466922 L59.3111733,32.466922 L59.3111733,44.9513192 L53.9436298,45.8437538 C53.2493247,45.9565628 52.5903079,46.0599336 51.9720084,46.1498213 L53.07791,51.4931433 C58.0041987,50.3945163 64.4888034,49.096139 70.571262,47.6978865 L70.2696524,43.0037532 L64.1871938,44.1023801 Z M53.0276417,35.3133645 C53.7313972,38.0099943 54.485421,41.5555631 54.6362258,43.9525674 L58.5068813,42.8040028 C58.25554,40.5568114 57.5015162,36.961305 56.6469559,34.3146128 L53.0276417,35.3133645 Z M68.0075811,43.3033787 C68.7616049,41.1560624 69.6664334,37.8601816 70.6215302,34.9638014 L66.398997,33.8152369 C66.0471192,36.3620539 65.3433637,39.9575603 64.6396081,42.2047518 L68.0075811,43.3033787 Z M90.0753441,34.9638014 L90.0753441,38.2596823 L79.6698157,38.2596823 L79.6698157,34.9638014 L90.0753441,34.9638014 Z M79.6698157,46.3495716 L79.6698157,42.9538156 L90.0753441,42.9538156 L90.0753441,46.3495716 L79.6698157,46.3495716 Z M74.3916492,52.9413333 L79.6698157,52.9413333 L79.6698157,51.0936426 L90.0753441,51.0936426 L90.0753441,52.8913957 L95.6048519,52.8913957 L95.6048519,30.0699177 L74.3916492,30.1198553 L74.3916492,52.9413333 Z M81.9318871,17.285895 L87.2100537,17.285895 L87.2100537,21.9800284 L81.9318871,21.9800284 L81.9318871,17.285895 Z M92.5384885,21.9800284 L92.5384885,17.285895 L96.8615582,17.285895 L96.8615582,12.0923858 L92.5384885,12.0923858 L92.5384885,6.34956312 L87.2100537,6.34956312 L87.2100537,12.0923858 L81.9318871,12.0923858 L81.9318871,6.34956312 L76.7039888,6.34956312 L76.7039888,12.0923858 L72.3306508,12.0923858 L72.3306508,17.285895 L76.7039888,17.285895 L76.7039888,21.9800284 L71.3252857,21.9800284 L71.3252857,27.3233504 L98.1182645,27.3233504 L98.1182645,21.9800284 L92.5384885,21.9800284 Z M140.997084,9.44569362 L139.69011,9.79525674 L104.803942,9.79525674 L104.803942,15.6379546 L133.808724,15.6379546 C130.491019,18.5842723 126.16795,21.780278 122.247026,23.8277192 L122.247026,45.9500709 C122.247026,46.742414 121.896712,47.056244 120.950865,47.0945665 L117.790459,47.1063076 C116.078304,47.1035676 113.924837,47.0819896 111.942034,46.9987603 C112.897131,48.5967631 114.053301,51.2434553 114.35491,52.9912709 L115.640018,52.9997695 C119.820856,53.0077792 122.9782,52.8096797 125.263121,51.9925192 C127.726265,51.0936426 128.530557,49.4956397 128.530557,46.0998837 L128.530557,26.8239745 C134.814089,23.1285929 141.198157,17.8352085 145.822836,12.9413248 L140.997084,9.44569362 Z M172.867157,35.7628028 L178.044787,35.7628028 L179.804175,18.6841475 L180.055517,11.2434468 L170.856426,11.2434468 L171.057499,18.6841475 L172.867157,35.7628028 Z M175.430837,49.0462014 C178.396664,49.0462014 180.658736,47.0486979 180.658736,44.1523177 C180.658736,41.3058752 178.396664,39.2084965 175.430837,39.2084965 C172.46501,39.2084965 170.202939,41.3058752 170.202939,44.1523177 C170.202939,47.0486979 172.46501,49.0462014 175.430837,49.0462014 Z M228.514112,36.0624284 L228.514112,32.0174837 L237.51213,32.0174837 L237.51213,36.0624284 L228.514112,36.0624284 Z M213.835783,32.0174837 L222.53219,32.0174837 L222.53219,36.0624284 L213.835783,36.0624284 L213.835783,32.0174837 Z M222.53219,23.0786553 L222.53219,26.9737872 L213.835783,26.9737872 L213.835783,23.0786553 L222.53219,23.0786553 Z M237.51213,23.0786553 L237.51213,26.9737872 L228.514112,26.9737872 L228.514112,23.0786553 L237.51213,23.0786553 Z M249.224633,36.0624284 L243.494052,36.0624284 L243.494052,17.7353333 L228.514112,17.7353333 L228.514112,14.4394525 L247.213902,14.4394525 L247.213902,8.99625532 L204.234546,8.99625532 L204.234546,14.4394525 L222.53219,14.4394525 L222.53219,17.7353333 L207.904129,17.7353333 L207.904129,36.0624284 L202.173548,36.0624284 L202.173548,41.5555631 L207.904129,41.5555631 L207.904129,52.9912709 L213.835783,52.9912709 L213.835783,41.5555631 L237.51213,41.5555631 L237.51213,46.3995092 C237.51213,47.1918523 237.249394,47.4621811 236.478704,47.4947034 L233.723179,47.5050889 C232.427054,47.500213 230.861421,47.4764242 229.418941,47.398261 C230.273501,48.8963887 231.17833,51.3932681 231.479939,52.9912709 L233.140548,52.9863325 C236.506349,52.9609369 238.992758,52.8119496 240.729298,51.9925192 C242.840564,51.0936426 243.494052,49.4956397 243.494052,46.4993844 L243.494052,41.5555631 L249.224633,41.5555631 L249.224633,36.0624284 Z M267.472008,27.4731631 L263.601353,28.5717901 L263.601353,21.2309645 L268.075227,21.2309645 L268.075227,15.7378298 L263.601353,15.7378298 L263.601353,6.34956312 L258.122113,6.34956312 L258.122113,15.7378298 L252.843947,15.7378298 L252.843947,21.2309645 L258.122113,21.2309645 L258.122113,30.0199801 L254.518176,30.955368 C253.62838,31.183341 252.799264,31.3904895 252.039655,31.5680454 L253.346629,37.2609305 L258.122113,35.862678 L258.122113,46.299634 C258.122113,46.8947236 257.953156,47.1121602 257.460364,47.1442671 L256.8685,47.1710669 C256.070148,47.1949994 254.666171,47.179784 253.195825,47.0986355 C253.89958,48.6966383 254.603336,51.1435801 254.703872,52.5917702 C257.92104,52.6417078 260.132843,52.4419575 261.590623,51.4931433 C263.148939,50.5443291 263.601353,49.096139 263.601353,46.3495631 L263.601353,34.2646752 C265.209937,33.8651745 266.717985,33.3657986 268.2763,32.9163603 L267.472008,27.4731631 Z M287.981456,36.711617 C287.076627,38.7091206 285.920457,40.4069986 284.462678,41.8052511 C282.502216,41.0561872 280.592022,40.357061 278.732097,39.7078723 C279.385584,38.7590582 280.039072,37.7603064 280.692559,36.711617 L287.981456,36.711617 Z M288.634943,15.7378298 C287.931187,17.7353333 286.775017,20.3820255 285.819921,22.1797787 L278.179146,22.1797787 L281.79846,20.8814014 C281.346046,19.4332113 280.240145,17.3358326 279.083975,15.7378298 L288.634943,15.7378298 Z M299.492885,36.711617 L299.492885,31.7178582 L295.62223,31.7178582 C295.773035,31.0187319 295.92384,30.3196057 295.974108,29.6204794 L290.293795,28.7216028 C290.14299,29.7702922 289.941917,30.769044 289.690576,31.7178582 L283.457313,31.7178582 C284.060532,30.519356 284.613483,29.3208539 285.116165,28.1722894 L280.541754,27.2234752 L298.738862,27.2234752 L298.738862,22.1797787 L291.399697,22.1797787 L292.610531,20.0911354 C293.166267,19.1244136 293.740761,18.1134322 294.315255,17.0861447 L289.740844,15.7378298 L297.783765,15.7378298 L297.783765,10.7440709 L288.685211,10.7440709 C288.031724,9.19600567 287.126895,7.44819007 286.272335,6.04993759 L279.636926,7.19850213 C280.189876,8.24719149 280.793095,9.49563121 281.24551,10.7440709 L270.287031,10.7440709 L270.287031,15.7378298 L277.575927,15.7378298 L273.805808,17.0362071 C274.760905,18.5842723 275.816538,20.6816511 276.319221,22.1797787 L269.130861,22.1797787 L269.130861,27.2234752 L279.486121,27.2234752 C278.882902,28.6716653 278.179146,30.1697929 277.374854,31.7178582 L268.57791,31.7178582 L268.57791,36.711617 L274.459296,36.711617 C273.202589,38.659183 271.895615,40.5068738 270.739445,42.0050014 C273.403662,42.903878 276.319221,43.9525674 279.23478,45.1510695 C276.168416,46.4494468 272.398297,47.3483234 267.673081,47.8976369 C268.728715,49.1460766 269.884885,51.2434553 270.287031,52.9413333 C276.771635,51.7927688 281.748192,50.2447036 285.568579,47.8976369 L286.926804,48.533951 C290.051094,50.0168633 292.838625,51.4806589 294.817938,52.7915206 L298.688593,48.4469504 C296.426522,47.0486979 293.360159,45.5505702 290.042454,44.1023801 C291.801843,42.054939 293.159086,39.6079972 294.214719,36.711617 L299.492885,36.711617 Z M329.050618,36.0624284 L329.050618,32.0174837 L338.048635,32.0174837 L338.048635,36.0624284 L329.050618,36.0624284 Z M314.372288,32.0174837 L323.068696,32.0174837 L323.068696,36.0624284 L314.372288,36.0624284 L314.372288,32.0174837 Z M323.068696,23.0786553 L323.068696,26.9737872 L314.372288,26.9737872 L314.372288,23.0786553 L323.068696,23.0786553 Z M338.048635,23.0786553 L338.048635,26.9737872 L329.050618,26.9737872 L329.050618,23.0786553 L338.048635,23.0786553 Z M349.761138,36.0624284 L344.030557,36.0624284 L344.030557,17.7353333 L329.050618,17.7353333 L329.050618,14.4394525 L347.750408,14.4394525 L347.750408,8.99625532 L304.771052,8.99625532 L304.771052,14.4394525 L323.068696,14.4394525 L323.068696,17.7353333 L308.440634,17.7353333 L308.440634,36.0624284 L302.710054,36.0624284 L302.710054,41.5555631 L308.440634,41.5555631 L308.440634,52.9912709 L314.372288,52.9912709 L314.372288,41.5555631 L338.048635,41.5555631 L338.048635,46.3995092 C338.048635,47.1918523 337.7859,47.4621811 337.015209,47.4947034 L334.259685,47.5050889 C332.96356,47.500213 331.397927,47.4764242 329.955447,47.398261 C330.810007,48.8963887 331.714836,51.3932681 332.016445,52.9912709 L333.677054,52.9863325 C337.042855,52.9609369 339.529264,52.8119496 341.265804,51.9925192 C343.37707,51.0936426 344.030557,49.4956397 344.030557,46.4993844 L344.030557,41.5555631 L349.761138,41.5555631 L349.761138,36.0624284 Z M390.679496,48.5468255 C390.026009,46.6491972 388.769303,44.1523177 387.613133,42.2546894 L384.295428,43.2534411 C384.597038,43.752817 384.898647,44.3021305 385.09972,44.851444 L382.887917,44.9513192 L382.887917,41.9051262 L391.483788,41.9051262 L391.483788,47.9475745 C391.483788,48.4015526 391.359156,48.5253648 390.958823,48.5441242 L390.679496,48.5468255 Z M371.778633,32.9662979 L371.778633,30.9687943 L378.011896,30.9687943 L378.011896,32.9662979 L371.778633,32.9662979 Z M371.778633,26.274661 L378.011896,26.274661 L378.011896,28.1722894 L371.778633,28.1722894 L371.778633,26.274661 Z M389.473058,28.1722894 L382.887917,28.1722894 L382.887917,26.274661 L389.473058,26.274661 L389.473058,28.1722894 Z M389.473058,32.9662979 L382.887917,32.9662979 L382.887917,30.9687943 L389.473058,30.9687943 L389.473058,32.9662979 Z M397.013296,37.810244 L382.887917,37.810244 L382.887917,36.112366 L394.851761,36.112366 L394.851761,23.0786553 L366.601003,23.0786553 L366.601003,36.112366 L378.011896,36.112366 L378.011896,37.810244 L369.516562,37.810244 L369.516562,36.7615546 L364.791346,36.7615546 L364.791346,37.810244 L363.283298,37.810244 L363.283298,41.9051262 L364.791346,41.9051262 L364.791346,52.4419575 L369.516562,52.4419575 L369.516562,41.9051262 L378.011896,41.9051262 L378.011896,45.1510695 L372.999965,45.3360235 C372.236633,45.3619171 371.510536,45.3841116 370.823536,45.4007575 L371.225682,49.3957645 L378.502012,48.9775372 C381.141095,48.8214823 383.94355,48.6467007 386.758572,48.4469504 L387.053748,49.3186609 C387.194901,49.7393352 387.321577,50.1348409 387.41206,50.4943915 L388.065547,50.2946411 C388.367157,51.1435801 388.668766,52.0923943 388.769303,52.9413333 L389.773391,52.9378221 C392.040666,52.9187054 393.783561,52.804005 395.103102,52.1922695 C396.61115,51.4931433 397.013296,50.2946411 397.013296,47.9975121 L397.013296,37.810244 Z M369.918708,13.7403262 L369.918708,15.8876426 L364.037322,15.8876426 L364.037322,20.1822752 L369.918708,20.1822752 L369.918708,22.1298411 L375.247143,22.1298411 L375.247143,20.1822752 L379.821554,20.1822752 L379.821554,15.8876426 L375.247143,15.8876426 L375.247143,13.7403262 L369.918708,13.7403262 Z M390.930837,13.7403262 L385.602403,13.7403262 L385.602403,15.8876426 L381.279333,15.8876426 L381.279333,20.1822752 L385.602403,20.1822752 L385.602403,22.1298411 L390.930837,22.1298411 L390.930837,20.1822752 L397.46571,20.1822752 L397.46571,15.8876426 L390.930837,15.8876426 L390.930837,13.7403262 Z M399.074294,8.04744113 L357.050035,8.04744113 L357.050035,23.4282184 C357.050035,31.3183574 356.698157,42.4544397 352.57616,50.0449532 C354.084208,50.6442043 356.647889,52.0923943 357.804059,52.9912709 C362.227665,44.8015064 362.931421,32.0174837 362.931421,23.4282184 L362.931421,13.0911376 L399.074294,13.0911376 L399.074294,8.04744113 Z M424.208421,35.7628028 L429.386051,35.7628028 L431.14544,18.6841475 L431.396781,11.2434468 L422.197691,11.2434468 L422.398764,18.6841475 L424.208421,35.7628028 Z M426.772102,49.0462014 C423.806275,49.0462014 421.544203,47.0486979 421.544203,44.1523177 C421.544203,41.3058752 423.806275,39.2084965 426.772102,39.2084965 C429.737929,39.2084965 432,41.3058752 432,44.1523177 C432,47.0486979 429.737929,49.0462014 426.772102,49.0462014 Z" id="押錯了！再接再厲！" fill="url(#linearGradient-2)"></path>
        </g>
    </g>
</svg>