<?xml version="1.0" encoding="UTF-8"?>
<svg width="450px" height="81px" viewBox="0 0 450 81" version="1.1" xmlns="http://www.w3.org/2000/svg" xmlns:xlink="http://www.w3.org/1999/xlink">
    <!-- Generator: Sketch 58 (84663) - https://sketch.com -->
    <title>Win</title>
    <desc>Created with Sketch.</desc>
    <defs>
        <linearGradient x1="50%" y1="0%" x2="50%" y2="100%" id="linearGradient-1">
            <stop stop-color="#FBE965" offset="0%"></stop>
            <stop stop-color="#CE890D" offset="100%"></stop>
        </linearGradient>
        <path d="M23.4635305,51.44733 L23.4635305,31.6454344 L30.5759792,31.6454344 L30.5759792,51.5726585 C30.5759792,55.0191909 30.009501,56.8991177 27.6177041,58.0270738 C25.4147332,59.1550299 22.20469,59.2176941 18.0505165,59.2176941 C17.7358063,57.1497746 16.854618,54.2672202 15.9104876,52.261965 C18.6169947,52.3872934 21.4493857,52.3872934 22.3935161,52.3872934 C23.2117624,52.3872934 23.4635305,52.1993007 23.4635305,51.44733 Z M32.1495298,39.3531343 L38.1919641,38.0998497 C39.8913987,42.2983529 41.2761233,47.7501406 41.7796595,51.44733 L35.359573,52.8886072 C35.0448629,49.2540821 33.6601384,43.6143017 32.1495298,39.3531343 Z M24.659429,14.1621152 L24.659429,20.177881 L36.9960656,20.177881 L36.9960656,14.1621152 L24.659429,14.1621152 Z M59.2146001,27.0082816 L46.1226591,27.0082816 C49.6474124,30.9561279 54.9974845,34.3399962 60.6622666,36.0945945 C59.151658,37.4732075 56.9486872,40.1677692 55.9416148,41.9850318 C53.2980498,40.9197399 50.7174268,39.6037912 48.388572,37.9118571 C51.3468471,42.1103602 54.0533541,46.8101772 55.4380786,50.3193739 L48.9550502,53.2019283 C47.5703256,48.9407609 43.7938042,42.3610172 40.3319929,37.5985359 L45.4302968,35.5306165 C42.5979058,33.0867116 40.1431668,30.141493 38.1919641,27.0082816 L24.0929507,27.0082816 C21.7011538,30.8934637 18.4911106,34.4026604 14.8404732,37.2225506 L20.4423134,39.541127 C18.4281686,44.1782797 15.6587195,49.504739 12.1339662,52.9512714 L5.90270585,49.3167463 C9.04980704,46.4968561 11.8192561,42.2356887 13.5816328,38.2251782 C11.2527779,39.9171123 8.73509693,41.3583895 6.28035799,42.6116741 C5.14740157,41.1077326 2.50383656,38.2251782 0.993227991,36.9092294 C6.65801014,34.7159815 11.8192561,31.3321133 15.2810674,27.0082816 L3.00737275,27.0082816 L3.00737275,20.177881 L17.2322701,20.177881 L17.2322701,14.1621152 L6.84683621,14.1621152 L6.84683621,7.33171451 L17.2322701,7.33171451 L17.2322701,0.689306492 L24.659429,0.689306492 L24.659429,7.33171451 L36.9960656,7.33171451 L36.9960656,0.689306492 L44.5491085,0.689306492 L44.5491085,7.33171451 L55.1233685,7.33171451 L55.1233685,14.1621152 L44.5491085,14.1621152 L44.5491085,20.177881 L59.2146001,20.177881 L59.2146001,27.0082816 Z M89.9303077,12.2821884 L89.9303077,9.71295512 L67.3341211,9.71295512 L67.3341211,4.38649586 L89.9303077,4.38649586 L89.9303077,0.626642266 L97.5462926,0.626642266 L97.5462926,4.38649586 L120.708957,4.38649586 L120.708957,9.71295512 L97.5462926,9.71295512 L97.5462926,12.2821884 L116.932436,12.2821884 L116.932436,17.420655 L71.6771208,17.420655 L71.6771208,12.2821884 L89.9303077,12.2821884 Z M107.7429,48.690104 L80.4890041,48.690104 L80.4890041,52.5126219 L107.7429,52.5126219 L107.7429,48.690104 Z M73.1247873,59.2176941 L73.1247873,43.7396301 L115.484769,43.7396301 L115.484769,59.1550299 L107.7429,59.1550299 L107.7429,57.52576 L80.4890041,57.52576 L80.4890041,59.2176941 L73.1247873,59.2176941 Z M102.015176,31.8960913 L85.6502501,31.8960913 C86.4055544,33.1493759 87.0349746,34.5906531 87.4126267,35.7812734 L100.378684,35.7812734 C101.008104,34.5279888 101.574582,33.1493759 102.015176,31.8960913 Z M81.4960765,24.1883915 L81.4960765,27.3216028 L106.609944,27.3216028 L106.609944,24.1883915 L81.4960765,24.1883915 Z M108.120553,35.7812734 L122.66016,35.7812734 L122.66016,41.4210538 L65.1940923,41.4210538 L65.1940923,35.7812734 L79.6078158,35.7812734 C79.2301636,34.6533173 78.6636854,33.462697 78.1601492,32.5227336 L80.8037142,31.8960913 L74.3836278,31.8960913 L74.3836278,19.4885745 L114.162987,19.4885745 L114.162987,31.8960913 L110.638234,31.8960913 C109.819987,33.3373685 108.938799,34.6533173 108.120553,35.7812734 Z M140.472753,0.939963398 L147.585202,3.13321133 C145.948709,7.45704296 143.934564,11.8435388 141.605709,15.9793778 L141.605709,59.0923656 L134.430319,59.0923656 L134.430319,27.0709459 C133.045594,28.9508727 131.597927,30.6428068 130.213203,32.1467482 C129.520841,30.2668214 127.443754,26.1936467 126.184913,24.3763841 C131.849696,18.7366037 137.325652,9.83828357 140.472753,0.939963398 Z M152.117027,28.5748873 L159.418302,30.0788287 C157.592983,38.0371855 154.38294,45.9328781 150.858187,51.0086804 C149.41052,49.8180601 146.263419,47.9381333 144.4381,46.9981699 C148.025796,42.6116741 150.669361,35.5306165 152.117027,28.5748873 Z M178.300909,18.799268 L169.866678,18.799268 L169.866678,50.883352 C169.866678,54.4552129 169.237258,56.5231324 166.971345,57.7764169 C164.768374,58.9670372 161.747157,59.2803583 157.718867,59.2803583 C157.404157,57.0871104 156.271201,53.7659064 155.138244,51.7606511 C157.781809,51.8233154 160.425374,51.8233154 161.306563,51.8233154 C162.124809,51.8233154 162.439519,51.5726585 162.439519,50.7580235 L162.439519,18.799268 L155.138244,18.799268 C153.375868,22.4337931 151.298781,25.7549971 149.221694,28.3868946 C147.899912,27.0709459 144.878695,24.627041 143.17926,23.499085 C147.962854,18.1726257 151.739375,9.52496244 153.879404,0.939963398 L161.180679,2.56923329 C160.362432,5.76510884 159.35536,8.83565594 158.222404,11.906203 L179.87446,11.906203 L181.070358,11.6555461 L186.357488,12.6581738 C185.602184,17.7339761 184.53217,23.5617492 183.650981,27.1962743 L177.293837,26.1309825 C177.608547,24.1883915 177.986199,21.5564939 178.300909,18.799268 Z M172.132591,30.2041572 L178.804445,27.948245 C182.077431,34.4026604 184.783938,42.7370025 185.665126,48.3767829 L178.489735,50.8206877 C177.797373,45.2435716 175.153808,36.6585725 172.132591,30.2041572 Z M198.316473,9.2116413 L198.316473,9.02364862 L190.511662,9.02364862 L190.511662,4.13583895 L216.443776,4.13583895 C216.066124,3.25853978 215.625529,2.31857638 215.247877,1.50394144 L223.11563,0.313321133 C223.807992,1.37861298 224.626239,2.88255442 225.192717,4.13583895 L249.047744,4.13583895 L249.047744,9.02364862 L204.358907,9.02364862 L204.358907,9.27430553 C204.358907,10.9662396 204.862443,11.4048892 208.324255,11.4048892 L232.493992,11.4048892 C236.081687,11.4048892 241.998237,11.2168966 244.201208,10.778247 C244.452976,12.6581738 244.704744,14.2874437 244.89357,15.478064 C242.942368,15.9167135 237.969948,16.042042 233.564006,16.042042 L208.324255,16.042042 C200.39356,16.042042 198.316473,14.2247794 198.316473,9.2116413 Z M205.554806,21.8071508 L205.554806,23.9377345 L234.193426,23.9377345 L234.193426,21.8071508 L205.554806,21.8071508 Z M198.945893,28.1362377 L198.945893,17.6713119 L241.179991,17.6713119 L241.179991,28.1362377 L198.945893,28.1362377 Z M235.011673,34.9666384 L235.011673,41.5463822 C235.011673,42.2356887 235.011673,42.9876594 234.948731,43.7396301 C236.270513,44.9929147 237.466412,46.1208707 238.3476,47.0608341 L238.3476,34.9666384 L235.011673,34.9666384 Z M221.353254,35.5932807 L221.353254,33.6506897 L216.443776,33.6506897 L216.443776,35.5932807 L221.353254,35.5932807 Z M221.353254,40.9824042 L221.353254,39.1024774 L216.443776,39.1024774 L216.443776,40.9824042 L221.353254,40.9824042 Z M221.353254,46.6221846 L221.353254,44.5542651 L216.443776,44.5542651 L216.443776,46.6221846 L221.353254,46.6221846 Z M203.981255,39.9797765 L202.344762,42.7996667 C201.463574,42.2356887 200.078849,41.483718 198.820009,40.8570757 C198.820009,42.4236814 198.757067,44.0529513 198.568241,45.8702138 C200.204733,45.6822212 201.96711,45.3062358 203.981255,44.9929147 L203.981255,39.9797765 Z M203.981255,34.5279888 L198.820009,34.5279888 L198.820009,38.9771489 L199.952965,37.2225506 C201.274748,37.6612002 202.911241,38.3505067 203.981255,39.0398131 L203.981255,34.5279888 Z M244.075324,54.2672202 L244.704744,54.2672202 C244.956512,54.2672202 245.145339,54.2672202 245.271223,54.0792275 C245.397107,53.8912348 245.522991,53.5779137 245.648875,52.8886072 C245.837701,52.0739723 245.900643,50.5073666 245.900643,48.4394471 C246.844773,49.1914178 248.355382,50.0060528 249.614222,50.4447024 C249.488338,52.5752861 249.299512,55.0818551 248.984802,56.0218185 C248.60715,57.0244462 248.103614,57.7137527 247.411251,58.1524022 C246.781831,58.5910518 245.774759,58.7790445 244.89357,58.7790445 L242.627658,58.7790445 C241.431759,58.7790445 240.235861,58.4030592 239.417614,57.5884242 C238.599368,56.5857966 238.3476,55.583169 238.3476,51.6353227 L238.3476,48.0634618 L236.522281,51.1340089 C235.955803,50.5073666 235.326383,49.7553959 234.571079,48.9407609 C234.0046,52.7006145 232.871644,56.4604681 230.668673,59.3430226 C229.787485,58.5283876 227.710398,57.0871104 226.577441,56.5857966 C229.158064,53.0765999 229.913369,48.690104 230.165137,44.7422578 C228.906296,43.5516375 227.584514,42.4863456 226.325673,41.483718 L226.325673,50.3193739 L223.807992,50.3193739 C225.129775,51.6979869 226.703326,53.389921 227.45863,54.5805413 L223.493282,57.3377673 C222.612094,55.9591543 220.849717,53.7659064 219.339109,52.261965 L222.48621,50.3193739 L214.933167,50.3193739 L218.772631,52.261965 C217.073196,54.7058698 214.051979,57.5884242 211.786066,59.0923656 C211.093704,58.4657234 209.897805,57.4630958 208.764849,56.711125 C208.450139,57.3377673 208.009544,57.7764169 207.317182,58.1524022 C205.806574,58.9670372 203.603603,59.0297014 200.582386,59.0297014 C200.39356,57.52576 199.701197,55.5205047 199.071777,54.1418917 C200.834154,54.204556 202.59653,54.204556 203.163009,54.1418917 C203.792429,54.0792275 203.981255,53.9538991 203.981255,53.389921 L203.981255,48.690104 C202.407704,49.1914178 200.960038,49.6927317 199.323545,50.1313812 L198.316473,47.6248122 C197.749995,51.6353227 196.491154,55.7711616 194.162299,58.8417087 C193.344053,57.9644096 191.141082,56.5231324 190.008126,56.0218185 C193.532879,51.3846658 193.910531,45.0555789 193.910531,40.1677692 L193.910531,29.9535003 L209.394269,29.9535003 L209.394269,53.389921 C209.394269,54.0165633 209.394269,54.5178771 209.331327,55.0191909 C211.093704,53.6405779 212.85608,51.8859796 213.926095,50.3193739 L211.660182,50.3193739 L211.660182,29.9535003 L226.325673,29.9535003 L226.325673,41.2330611 L228.276876,38.0371855 C228.843354,38.5384993 229.535717,39.1024774 230.228079,39.6664554 L230.228079,34.9666384 L227.899224,34.9666384 L227.899224,29.9535003 L243.508846,29.9535003 L243.508846,51.8233154 C243.508846,52.9512714 243.508846,53.7659064 243.63473,54.0165633 C243.697672,54.204556 243.823556,54.2672202 244.075324,54.2672202 Z M300.408435,10.8409112 L300.408435,7.70769987 L284.043509,7.70769987 L284.043509,10.8409112 L300.408435,10.8409112 Z M300.408435,18.9872606 L300.408435,15.7287209 L284.043509,15.7287209 L284.043509,18.9872606 L300.408435,18.9872606 Z M307.961478,2.50656906 L307.961478,24.1883915 L276.805177,24.1883915 L276.805177,2.50656906 L307.961478,2.50656906 Z M265.979148,0.751970719 L273.091597,3.63452514 C268.937424,9.39963398 262.517337,15.5407282 256.600787,19.363246 C255.845483,17.6713119 254.020164,14.6007648 252.887207,13.0341591 C257.796685,10.0262762 263.335583,4.9504739 265.979148,0.751970719 Z M267.615641,14.4127721 L274.161612,17.2326623 C272.651003,19.8645598 270.762742,22.4964573 268.685655,25.1283549 L268.685655,59.1550299 L261.447323,59.1550299 L261.447323,33.1493759 C259.559062,35.0293026 257.670801,36.783901 255.782541,38.2251782 C255.216062,36.5959083 253.327802,32.3347409 252.194845,30.5174783 C257.796685,26.6322963 263.965004,20.5538663 267.615641,14.4127721 Z M311.297406,36.5959083 L311.360348,42.9249952 L302.73729,42.9249952 L302.73729,51.8233154 C302.73729,55.2698478 302.10787,57.0244462 299.653131,58.089738 C297.324276,59.1550299 294.177175,59.1550299 289.897117,59.1550299 C289.582407,57.1497746 288.512393,54.3925487 287.568263,52.5126219 C290.211828,52.6379503 293.170103,52.6379503 293.988349,52.6379503 C294.869537,52.5752861 295.121305,52.3246292 295.121305,51.6353227 L295.121305,42.9249952 L281.90348,42.9249952 C284.421161,45.3062358 287.505321,48.5647756 289.078871,50.7580235 L283.477031,54.7058698 C282.092307,52.3246292 278.882263,48.6274398 276.238698,45.9955423 L280.896408,42.9249952 L272.084525,42.9249952 L272.084525,36.5959083 L295.121305,36.5959083 L295.121305,33.0240474 L273.595133,33.0240474 L273.595133,26.9456174 L310.038565,26.9456174 L310.038565,33.0240474 L302.73729,33.0240474 L302.73729,36.5959083 L311.297406,36.5959083 Z M330.305897,25.0030264 L326.96997,25.0030264 C326.96997,27.948245 326.088781,34.0893392 321.934608,37.5358717 C320.675767,36.5332441 317.96926,35.0293026 316.269825,34.3399962 C319.668695,31.7080986 320.361057,27.3216028 320.423999,25.0030264 L316.899246,25.0030264 L316.899246,19.2379176 L330.305897,19.2379176 L330.305897,15.7913851 L319.353985,15.7913851 L319.353985,2.25591216 L325.585245,2.25591216 L325.585245,10.1516047 L330.305897,10.1516047 L330.305897,0.814634945 L337.103635,0.814634945 L337.103635,36.5332441 L330.305897,36.5332441 L330.305897,25.0030264 Z M346.922591,20.4912021 L360.014532,20.4912021 L360.014532,16.60602 C356.049185,18.3606184 351.643243,19.6139029 346.922591,20.4912021 Z M363.97988,7.83302832 L355.230938,7.83302832 C356.615663,8.9609844 358.000387,10.2769332 359.196286,11.4675535 C361.021604,10.4022616 362.658097,9.2116413 363.97988,7.83302832 Z M375.057676,46.4968561 L356.489779,46.4968561 C363.224575,48.7527683 370.84056,51.5099942 375.309444,53.4525853 L371.910575,59.2803583 C366.434619,56.5857966 355.230938,52.3246292 347.363185,49.6300674 L349.314388,46.4968561 L347.426127,46.4968561 C344.467852,51.7606511 337.103635,56.8991177 320.361057,59.5936795 C319.479869,57.8390811 317.591608,55.2071836 316.206883,53.5779137 C327.536448,51.8859796 333.956534,49.3167463 337.54423,46.4968561 L316.521594,46.4968561 L316.521594,40.3557619 L341.761345,40.3557619 C341.824287,39.7917839 341.887229,39.2278058 341.887229,38.6638278 L341.887229,34.5279888 L349.314388,34.5279888 L349.314388,38.9144847 C349.314388,39.4157985 349.314388,39.8544481 349.251446,40.3557619 L360.203358,40.3557619 C358.881576,39.2278058 357.370967,38.0998497 356.049185,37.2225506 L358.315097,35.0919669 L355.923301,35.0919669 C355.671532,33.4000328 354.853286,31.3321133 354.097982,29.7028434 C356.112127,29.8281718 358.440981,29.8281718 359.133344,29.8281718 C359.825706,29.7655076 360.014532,29.5775149 360.014532,28.9508727 L360.014532,25.3163475 L349.566156,25.3163475 C351.202649,26.5696321 352.839141,27.8855808 353.72033,29.0762011 L348.810852,32.7733905 C347.614953,31.1441206 344.971388,28.76288 342.642533,27.2589386 L345.223156,25.3163475 L338.991896,25.3163475 L338.991896,20.4912021 L341.446635,20.4912021 C340.817215,19.2379176 339.810142,17.8593046 338.991896,16.9820054 C344.656678,16.4180274 350.069692,15.2900713 354.727402,13.4728087 C353.342678,11.906203 351.391475,10.0889405 349.503214,8.58499904 C347.489069,9.33696976 345.160214,10.0889405 342.705476,10.778247 C341.950171,9.46229821 340.250737,7.45704296 339.054838,6.57974379 C346.607881,5.07580235 352.272663,2.88255442 355.545648,0.438649586 L361.713967,1.69193412 C360.832778,2.44390484 359.95159,3.13321133 359.00746,3.82251782 L367.756401,3.82251782 L368.952299,3.63452514 L372.791763,5.57711616 C370.022314,10.5902543 365.616372,14.0367867 360.2663,16.4806916 L367.126981,16.4806916 L367.126981,20.4912021 L374.239429,20.4912021 L374.239429,25.3163475 L367.126981,25.3163475 L367.126981,29.2015296 C367.126981,32.1467482 366.560503,33.462697 364.483416,34.3399962 C363.602227,34.7159815 362.469271,34.9039742 361.147488,35.0293026 C363.035749,36.2825872 364.92401,37.7238644 366.056966,38.9144847 L364.6093,40.3557619 L375.057676,40.3557619 L375.057676,46.4968561 Z M350.384402,10.7155827 L350.447344,14.2247794 C347.363185,14.5381006 344.467852,14.8514217 341.635461,15.1647428 L341.006041,11.4048892 C343.649606,11.2168966 346.733765,10.9662396 350.384402,10.7155827 Z M398.660935,18.799268 L419.746513,18.799268 C415.781165,16.3553631 412.067586,13.5981372 408.857543,10.6529185 C405.836325,13.7861298 402.374514,16.4180274 398.660935,18.799268 Z M421.823599,38.8518205 L412.634064,38.8518205 L412.634064,51.0713446 L420.501817,51.0713446 L416.284701,49.3167463 C418.235904,46.4968561 420.564759,42.1103602 421.823599,38.8518205 Z M404.577485,38.8518205 L395.073239,38.8518205 C397.27621,41.9223676 399.668007,46.0582065 400.549195,48.8154325 L395.387949,51.0713446 L404.577485,51.0713446 L404.577485,38.8518205 Z M425.285411,25.6296687 L412.634064,25.6296687 L412.634064,32.1467482 L432.71257,32.1467482 L432.71257,38.8518205 L422.76773,38.8518205 L429.061932,41.1077326 C426.858961,44.6169293 424.404222,48.3767829 422.45302,51.0713446 L435.985555,51.0713446 L435.985555,57.9017453 L381.540704,57.9017453 L381.540704,51.0713446 L393.940283,51.0713446 C392.933211,48.1887902 390.793182,44.0529513 388.716095,40.9197399 L393.688515,38.8518205 L384.561921,38.8518205 L384.561921,32.1467482 L404.577485,32.1467482 L404.577485,25.6296687 L391.800254,25.6296687 L391.800254,22.5591216 C389.156689,23.8124061 386.450182,24.9403622 383.680733,25.9429898 C382.673661,23.7497419 380.596574,20.9298517 378.708313,19.0499249 C390.541414,15.6660566 401.870978,9.33696976 407.85047,0 L414.962919,3.19587555 C414.396441,4.0105105 413.829962,4.82514545 413.200542,5.70244462 C419.368861,11.2168966 429.565468,16.4180274 439.006772,19.0499249 C437.307337,20.6791948 434.978482,23.6244134 433.845526,25.5670044 C431.013135,24.5643768 428.117802,23.3110923 425.285411,21.9324793 L425.285411,25.6296687 Z" id="path-2"></path>
    </defs>
    <g id="Win" stroke="none" stroke-width="1" fill="none" fill-rule="evenodd">
        <g id="Group" transform="translate(5.000000, 11.000000)" fill-rule="nonzero">
            <g id="恭喜你贏得獎金" stroke-linejoin="round">
                <path stroke="#FFEDCA" stroke-width="10" d="M18.4635305,47.3462086 L18.4635305,26.6454344 L35.5759792,26.6454344 L35.5759792,51.5726585 C35.5759792,56.9860382 34.1218019,60.4556862 29.8254623,62.5137425 C26.9588397,63.9637484 24.3185821,64.2176941 18.0505165,64.2176941 L13.75388,64.2176941 L13.1074318,59.9699665 C12.8639717,58.370222 12.1213373,55.9519092 11.3868121,54.3918381 L7.85164391,46.8834315 L16.1417715,47.267317 C16.2990719,47.274601 16.4590844,47.2815396 16.6216792,47.2881379 C17.2135952,47.3121584 17.8295719,47.3313427 18.4635305,47.3462074 Z M34.9274107,43.8833821 L38.5438839,43.1332755 C38.1224923,41.5604878 37.6511348,39.9937324 37.1524649,38.5206094 L33.5572456,39.975852 C34.0364537,41.1597497 34.5016938,42.496938 34.9274107,43.8833821 Z M35.9526515,47.6310178 C36.3399226,49.2395469 36.643991,50.7901122 36.8253964,52.1220725 L40.2599025,51.6543123 C40.095767,50.2174406 39.8122088,48.5731204 39.4419016,46.8476986 L35.9526515,47.6310178 Z M25.5217233,35.6214143 L41.2614062,32.3567862 L42.8266826,36.2238475 C44.6004412,40.6059702 46.1441698,46.4423573 46.7339225,50.7725875 L47.3533246,55.3205164 L30.8718214,59.0205313 L30.3782124,53.3199386 C30.1131372,50.2586366 28.8667845,45.0572575 27.4368968,41.02379 L25.5217233,35.6214143 Z M26.6515461,17.1699981 L24.659429,19.1621152 L28.6436632,19.1621152 L29.659429,20.177881 L29.659429,19.1621152 L31.9960656,19.1621152 L31.9960656,20.177881 L33.0118314,19.1621152 L36.9960656,19.1621152 L35.0039485,17.1699981 L36.9960656,15.177881 L33.0118314,15.177881 L31.9960656,14.1621152 L31.9960656,15.177881 L29.659429,15.177881 L29.659429,14.1621152 L28.6436632,15.177881 L24.659429,15.177881 L26.6515461,17.1699981 Z M64.2146001,31.9605352 L70.4822475,33.9018638 L64.0327622,39.787799 C62.8547805,40.8628497 61.0173252,43.1412165 60.3149712,44.4086147 L59.1997572,46.4210189 C59.532021,47.1373578 59.8300451,47.8276606 60.0890741,48.4840971 L61.8478956,52.9413378 L45.9151002,60.0255501 L44.199829,54.7472024 C43.0697664,51.2696978 39.6801908,45.2056677 36.2875809,40.5383882 L32.5291253,35.3678077 L36.759797,33.651808 C36.3352488,33.1144735 35.9227951,32.5662694 35.5231596,32.0082816 L26.7682121,32.0082816 C25.8875115,33.2374356 24.9342877,34.4270257 23.9175056,35.5681407 L27.0551838,36.8668116 L25.0283897,41.5330867 C22.2521451,47.9248171 19.2728973,52.9638144 15.6296098,56.5262506 L12.9056634,59.1897475 L-2.54852257,50.17574 L2.38705394,45.7533262 L2.28674051,45.6201653 C1.31650186,44.3322233 -1.09750641,41.7190528 -2.29104104,40.6793192 L-8.53765946,35.2376516 L-0.812049639,32.2465078 C-0.610761661,32.1685747 -0.410722229,32.0891562 -0.21197742,32.0082816 L-1.99262725,32.0082816 L-1.99262725,15.177881 L1.84683621,15.177881 L1.84683621,2.33171451 L12.2322701,2.33171451 L12.2322701,-4.31069351 L29.659429,-4.31069351 L29.659429,2.33171451 L31.9960656,2.33171451 L31.9960656,-4.31069351 L49.5491085,-4.31069351 L49.5491085,2.33171451 L60.1233685,2.33171451 L60.1233685,15.177881 L64.2146001,15.177881 L64.2146001,31.9605352 Z M66.6771208,14.7129551 L62.3341211,14.7129551 L62.3341211,-0.613504141 L84.9303077,-0.613504141 L84.9303077,-4.37335773 L102.546293,-4.37335773 L102.546293,-0.613504141 L125.708957,-0.613504141 L125.708957,14.7129551 L121.932436,14.7129551 L121.932436,22.420655 L66.6771208,22.420655 L66.6771208,14.7129551 Z M107.7429,53.690104 L107.7429,47.5126219 L80.4890041,47.5126219 L80.4890041,53.690104 L107.7429,53.690104 Z M102.7429,62.52576 L85.4890041,62.52576 L85.4890041,64.2176941 L68.1247873,64.2176941 L68.1247873,38.7396301 L120.484769,38.7396301 L120.484769,64.1550299 L102.7429,64.1550299 L102.7429,62.52576 Z M98.8440401,30.7812734 L97.298171,30.2378206 C97.2346502,30.4185077 97.1689015,30.5999319 97.1012409,30.7812734 L90.7416945,30.7812734 C90.4864892,30.2767363 90.2152382,29.7840918 89.9326812,29.3152419 L87.5000795,30.7812734 L87.4126267,30.7812734 L87.4126267,30.8339776 L85.6502501,31.8960913 L85.6502501,36.8960913 L102.015176,36.8960913 L102.015176,31.8960913 L100.378684,31.3207797 L100.378684,30.7812734 L98.8440401,30.7812734 Z M81.4960765,22.3216028 L81.4960765,29.1883915 L106.609944,29.1883915 L106.609944,22.3216028 L81.4960765,22.3216028 Z M119.162987,30.7812734 L127.66016,30.7812734 L127.66016,46.4210538 L60.1940923,46.4210538 L60.1940923,30.7812734 L69.3836278,30.7812734 L69.3836278,14.4885745 L119.162987,14.4885745 L119.162987,30.7812734 Z M146.605709,17.270544 L146.605709,64.0923656 L129.430319,64.0923656 L129.430319,40.3787702 L128.349144,41.5530283 L125.521291,33.8747424 C124.944583,32.3088448 123.045622,28.6251367 122.074731,27.2235586 L119.692538,23.784624 L122.657208,20.8330395 C127.818903,15.6941256 132.879054,7.4154186 135.758886,-0.727207073 L137.359341,-5.25244008 L154.145967,-0.0759904881 L152.261472,4.90309585 C150.651817,9.15601957 148.741557,13.3449015 146.605709,17.270544 Z M153.218958,33.9068379 L155.825123,34.4436645 C156.055677,33.6296809 156.272962,32.8035879 156.476541,31.967501 L155.562984,30.545668 L153.86908,31.6584384 C153.664001,32.4135833 153.446879,33.1640271 153.218958,33.9068379 Z M149.232668,43.9404173 C148.43058,45.5171876 147.595822,46.9406045 146.751295,48.1567611 L148.781711,49.5667282 C149.749057,48.3086242 150.65804,46.8903184 151.502562,45.3413502 C150.779708,44.8715458 150.003557,44.3932855 149.232668,43.9404173 Z M148.238629,22.6710306 L165.434758,26.2131478 L164.29176,31.1965989 C162.323873,39.776551 158.867892,48.2403738 154.965078,53.8605997 L151.871327,58.3157395 L147.682156,54.8703934 C146.695591,54.0590024 143.972533,52.3824379 142.148995,51.4433919 L136.656371,48.6149181 L140.567771,43.8326447 C143.346788,40.4348797 145.806225,34.3582155 147.221922,27.5560898 L148.238629,22.6710306 Z M174.866678,30.7939704 L174.866678,50.883352 C174.866678,56.3170605 173.455923,59.903624 169.34866,62.1750954 C166.389921,63.7741793 162.971214,64.2803583 157.718867,64.2803583 L153.385108,64.2803583 L152.76956,59.9905367 C152.5418,58.4032564 151.607635,55.6761838 150.785013,54.2201991 L146.453306,46.553375 L155.256733,46.7620553 C155.957078,46.7786566 156.687643,46.7915102 157.439519,46.8010762 L157.439519,25.1158702 C156.095517,27.431799 154.640703,29.5912997 153.146635,31.4844481 L149.670453,35.8891536 L145.693988,31.9302392 C144.610811,30.851843 141.845473,28.6149225 140.414251,27.6649851 L135.59199,24.4643334 L139.459242,20.1582065 C143.381588,15.7907335 146.932634,8.13588227 149.027865,-0.269405672 L150.207673,-5.00235459 L167.303772,-1.18738245 L166.024439,3.80939066 C165.761044,4.83814913 165.47645,5.86689412 165.168288,6.90620305 L179.356099,6.90620305 L181.021422,6.55715606 L192.010312,8.64103983 L191.303034,13.3940952 C190.505682,18.7524645 189.408502,24.6692956 188.510204,28.3743898 L187.413811,32.8965431 L174.866678,30.7939704 Z M176.154251,34.1224244 L178.834984,33.2160051 C178.65404,32.7458543 178.470048,32.2794405 178.283381,31.8179596 L175.544689,30.699507 L175.096324,31.7498007 C175.457206,32.517992 175.810795,33.3118725 176.154251,34.1224244 Z M179.869291,45.06876 C180.168874,46.2493072 180.416714,47.3769784 180.60303,48.4207187 L181.010764,48.676067 L182.694284,45.8913661 C182.576128,45.3496805 182.448306,44.7974701 182.311515,44.2369499 L179.869291,45.06876 Z M165.2333,27.258885 L181.305292,21.8245637 L183.263859,25.6869104 C186.67237,32.408588 189.611413,41.2445518 190.60519,47.6049219 L191.253682,51.7554038 L174.284879,57.5348997 L173.527825,51.4366763 C172.903468,46.4073637 170.410483,38.3192244 167.60414,32.3238586 L165.2333,27.258885 Z M194.019279,14.0236486 L185.511662,14.0236486 L185.511662,-0.864161047 L208.638912,-0.864161047 L207.907379,-2.44215449 L225.552549,-5.11238292 L227.307988,-2.41140637 C227.612273,-1.94322177 227.930346,-1.41629063 228.24404,-0.864161047 L254.047744,-0.864161047 L254.047744,14.0236486 L249.726221,14.0236486 C249.760611,14.2440143 249.795782,14.4674465 249.831852,14.6948787 L250.566563,19.3275109 L245.990248,20.3563113 C243.757223,20.8583174 239.412167,21.042042 233.564006,21.042042 L208.324255,21.042042 C200.383763,21.042042 195.693998,18.9319017 194.019279,14.0236486 Z M205.554806,18.9377345 L205.554806,26.8071508 L234.193426,26.8071508 L234.193426,18.9377345 L205.554806,18.9377345 Z M193.945893,33.1362377 L193.945893,12.6713119 L246.179991,12.6713119 L246.179991,33.1362377 L193.945893,33.1362377 Z M240.011673,34.9666384 L233.3476,34.9666384 L233.3476,47.0608341 L238.3476,47.0608341 L241.995339,43.641185 C241.426997,43.0349351 240.9546,42.5600812 240.011635,41.6557355 C240.011661,41.6198363 240.011673,41.5833943 240.011673,41.5463822 L240.011673,34.9666384 Z M216.443776,35.5932807 L221.443776,35.5932807 L221.443776,33.6506897 L221.353254,33.6506897 L221.353254,30.5932807 L216.443776,30.5932807 L216.443776,35.5932807 Z M221.353254,38.6506897 L221.353254,33.6506897 L216.353254,33.6506897 L216.353254,35.5932807 L216.443776,35.5932807 L216.443776,38.6506897 L221.353254,38.6506897 Z M221.353254,44.1024774 L221.353254,35.9824042 L216.443776,35.9824042 L216.443776,44.1024774 L221.353254,44.1024774 Z M216.353254,40.9824042 L221.443776,40.9824042 L221.443776,39.1024774 L216.353254,39.1024774 L216.353254,40.9824042 Z M221.353254,49.5542651 L221.353254,41.6221846 L216.443776,41.6221846 L216.443776,49.5542651 L221.353254,49.5542651 Z M216.353254,46.6221846 L221.443776,46.6221846 L221.443776,44.5542651 L216.353254,44.5542651 L216.353254,46.6221846 Z M198.14754,42.207976 L198.820009,40.8570757 L203.820009,40.8570757 C203.820009,42.7399787 203.735855,44.5161615 203.541466,46.3869661 L198.568241,45.8702138 L198.14754,42.207976 Z M198.981255,40.7683731 C199.18494,40.7369647 199.403347,40.7015946 199.640725,40.6617189 C200.052325,40.5925766 201.620494,40.3163916 201.661133,40.3093406 C202.236634,40.2094884 202.725577,40.1281125 203.212697,40.0523359 L203.981255,44.9929147 L198.981255,44.9929147 L198.981255,40.7683731 Z M198.820009,38.9771489 L198.820009,34.5279888 L203.981255,34.5279888 L203.981255,39.0398131 L198.981255,39.0398131 L198.981255,34.5279888 L203.820009,34.5279888 L203.820009,38.9771489 L198.820009,38.9771489 Z M248.508846,44.1246898 L249.01569,44.5283759 C249.505116,44.9181885 250.517223,45.4644993 251.259475,45.7231409 L254.828434,46.9667632 L254.605518,50.7396096 C254.398061,54.2508145 254.201978,56.1879641 253.726112,57.6092616 L253.663886,57.7842535 C252.938852,59.7091418 251.813196,61.2535718 250.173944,62.3203609 C248.638727,63.3545882 246.76379,63.7790445 244.89357,63.7790445 L242.627658,63.7790445 C240.117731,63.7790445 237.677358,62.9113294 235.889908,61.1317688 L235.707038,60.9497058 L235.668537,60.9025288 C235.346641,61.4115819 235.004532,61.9038933 234.64135,62.3791116 L231.30684,66.7422685 L227.274506,63.0144838 C226.969239,62.7322726 226.334863,62.2672666 225.737027,61.8675417 L222.079902,64.4104517 L219.280367,60.0305986 C219.195126,59.8972397 219.098319,59.7530538 218.991894,59.6004949 C217.532292,61.0201412 215.970215,62.316348 214.551075,63.2582658 L211.312634,65.4076979 L208.691091,63.0349954 C206.708467,63.8724283 204.631041,64.0297014 200.582386,64.0297014 L196.502908,64.0297014 L194.556907,66.5954644 L190.505846,62.2520385 C190.228241,61.9543985 188.614763,60.872891 187.984926,60.5941989 L182.19837,58.0337473 L186.027529,52.9961208 C188.14117,50.2154215 188.910531,46.227896 188.910531,40.1677692 L188.910531,24.9535003 L248.508846,24.9535003 L248.508846,44.1246898 Z M300.408435,12.7076999 L300.408435,5.84091119 L284.043509,5.84091119 L284.043509,12.7076999 L300.408435,12.7076999 Z M300.408435,20.7287209 L300.408435,13.9872606 L284.043509,13.9872606 L284.043509,20.7287209 L300.408435,20.7287209 Z M312.961478,-2.49343094 L312.961478,29.1883915 L271.805177,29.1883915 L271.805177,-2.49343094 L312.961478,-2.49343094 Z M264.90926,5.71339381 L267.676739,6.8350059 C268.530232,5.8229202 269.292895,4.81645025 269.936937,3.84004658 L269.726991,3.11177948 L268.034566,2.04615315 C267.083264,3.26893247 266.030386,4.50197962 264.90926,5.71339381 Z M258.21076,12.0017148 C256.835731,13.1182688 255.452705,14.1388395 254.105047,15.0219211 L255.499291,17.297611 C256.880235,16.4515496 258.283229,15.4774825 259.659153,14.4186242 C259.198073,13.6065928 258.698411,12.7727932 258.21076,12.0017148 Z M263.978146,-5.45403243 L280.870289,1.39206567 L277.148169,6.5575756 C272.617119,12.8457087 265.736509,19.4136608 259.314121,23.5629859 L254.413449,26.7291734 L252.035074,21.4014475 C251.451968,20.0952497 249.818445,17.323125 248.835677,15.9641931 L245.672655,11.5904959 L250.275124,8.77070723 C254.698433,6.06068503 259.60813,1.48641608 261.748013,-1.9121411 L263.978146,-5.45403243 Z M273.685655,26.8415071 L273.685655,64.1550299 L256.447323,64.1550299 L256.447323,44.0078346 L253.327467,46.3891675 L251.059855,39.8672012 C250.510792,38.2880204 248.755947,34.4524324 247.951884,33.1627154 L245.43296,29.1223607 L249.345333,26.4089164 C254.774125,22.643753 260.251686,17.0154773 263.317708,11.8578212 L265.561329,8.08360762 L281.289128,14.8588698 L278.498087,19.7216336 C277.192792,21.9958182 275.613041,24.3164355 273.685655,26.8415071 Z M307.73729,47.9249952 L307.73729,51.8233154 C307.73729,57.254722 306.128176,60.7302741 301.733016,62.6366138 C298.814419,63.9716724 296.593542,64.1550299 289.897117,64.1550299 L285.620628,64.1550299 L284.95758,59.930254 C284.950714,59.8865011 284.943097,59.8415465 284.934755,59.7954542 L281.897481,61.9359459 L279.154718,57.219355 C278.141712,55.4773407 275.371277,52.1874304 272.710992,49.5388869 L271.089946,47.9249952 L267.084525,47.9249952 L267.084525,31.5959083 L268.595133,31.5959083 L268.595133,21.9456174 L315.038565,21.9456174 L315.038565,31.5959083 L316.247928,31.5959083 L316.410319,47.9249952 L307.73729,47.9249952 Z M325.305897,41.2334384 C325.246752,41.2839788 325.187177,41.3341443 325.127169,41.3839295 L321.998977,43.9792509 L318.81956,41.4469429 C317.994292,40.7896426 315.718834,39.5121528 314.390489,38.9733635 L306.337722,35.7070864 L313.208585,30.3866675 C313.358167,30.2708393 313.500476,30.1425646 313.635425,30.0030264 L311.899246,30.0030264 L311.899246,14.2379176 L314.353985,14.2379176 L314.353985,-2.74408784 L325.305897,-2.74408784 L325.305897,-4.18536505 L342.103635,-4.18536505 L342.103635,41.5332441 L325.305897,41.5332441 L325.305897,41.2334384 Z M360.014532,16.60602 L360.014532,15.4912021 L346.922591,15.4912021 L346.922591,20.4912021 L347.836163,25.4070323 C353.106359,24.4276042 357.828658,23.0408437 362.037732,21.1784004 L360.014532,16.60602 Z M359.669615,5.04294454 C359.237681,4.66261301 358.811813,4.30101777 358.388734,3.95639009 L355.230938,7.83302832 L355.230938,12.8330283 L363.97988,12.8330283 L363.97988,7.83302832 L360.370739,4.37266681 C360.155425,4.59723836 359.921819,4.82058885 359.669615,5.04294454 Z M380.057676,50.06464 L382.463629,51.1104904 L373.882788,65.8233823 L369.703008,63.7666316 C365.148234,61.5253574 355.392706,57.7086009 346.908906,54.7624154 C341.50163,59.3475018 333.0447,62.6167063 321.155537,64.5301561 L317.537535,65.1124398 L315.89289,61.8376671 C315.275674,60.6086842 313.681926,58.3277823 312.397008,56.8159455 L306.571315,49.9614227 L311.521594,49.2221582 L311.521594,35.3557619 L336.887229,35.3557619 L336.887229,30.3163475 L333.991896,30.3163475 L333.991896,27.6244527 L333.911851,27.5727605 L333.991896,27.5125054 L333.991896,18.9518247 L328.447315,13.0070909 L337.5299,12.102841 C337.018782,11.4775476 336.435675,10.8594697 336.097347,10.6112752 L326.940348,3.89379241 L338.07842,1.67600976 C344.789443,0.339729045 349.891472,-1.5795182 352.554143,-3.56770701 L354.347674,-4.90691848 L372.764423,-1.16498659 L371.937003,-0.458899256 L379.675544,3.4564449 L377.168329,7.99489839 C375.814357,10.4458009 374.128555,12.6230424 372.126981,14.5492321 L372.126981,15.4912021 L379.239429,15.4912021 L379.239429,30.3163475 L372.097461,30.3163475 C371.98818,32.3051622 371.570601,33.9764958 370.763784,35.3557619 L380.057676,35.3557619 L380.057676,50.06464 Z M341.215662,11.3697976 L341.635461,15.1647428 L346.566839,14.339203 L345.937418,10.5793494 L341.215662,11.3697976 Z M350.091377,10.7208385 L345.385207,10.8052498 L345.448149,14.3144465 L350.447344,14.2247794 L350.091377,10.7208385 Z M355.289273,5.36703671 L355.529032,18.7342638 L350.952696,19.1991759 C348.193585,19.4794752 345.476016,19.7703973 342.185211,20.1344284 L337.48488,20.6543825 L335.166836,6.80750762 L340.65137,6.41748424 C341.185253,6.37951803 347.704442,5.88781984 350.035257,5.72778791 L350.041903,5.72732711 L355.289273,5.36703671 Z M412.120525,13.799268 L408.857543,10.6529185 L405.970763,13.799268 L398.660935,13.799268 L398.660935,18.799268 L401.359861,23.0082821 C404.204339,21.1843309 406.736305,19.3323766 409.018119,17.3676605 C411.526882,19.3752624 414.249923,21.2849747 417.123152,23.0557901 L419.746513,18.799268 L419.746513,13.799268 L412.120525,13.799268 Z M417.634064,43.8518205 L413.81842,43.8518205 C414.3037,43.0153893 414.786871,42.1298369 415.242079,41.2438055 L417.634064,38.8518205 L417.634064,43.8518205 Z M417.634064,46.0713446 L417.634064,51.0713446 L412.634064,46.0713446 L417.634064,46.0713446 Z M403.89436,43.8518205 L399.577485,43.8518205 L399.577485,38.8518205 L403.191136,42.4654711 C403.43917,42.934348 403.674325,43.3976375 403.89436,43.8518205 Z M399.577485,46.0713446 L404.577485,46.0713446 L399.577485,51.0713446 L399.577485,46.0713446 Z M437.71257,28.8611128 L437.71257,43.8518205 L433.242849,43.8518205 C432.76824,44.607339 432.298382,45.3486242 431.835921,46.0713446 L440.985555,46.0713446 L440.985555,62.9017453 L376.540704,62.9017453 L376.540704,46.0713446 L386.02325,46.0713446 C385.577594,45.3005851 385.117738,44.5498785 384.660299,43.8518205 L379.561921,43.8518205 L379.561921,28.9551444 L379.136849,28.0294024 C378.419588,26.4673197 376.720722,24.1265873 375.180607,22.5932695 L369.144988,16.5842889 L377.333587,14.2426253 C389.232509,10.8399343 398.822098,4.82649372 403.639898,-2.69649417 L405.965814,-6.32840853 L422.507395,1.10431106 L420.000213,4.70981255 C425.545777,8.62606953 433.153616,12.227635 440.349401,14.2335625 L448.798689,16.5889216 L442.467013,22.6591815 C441.105542,23.9644414 439.064855,26.5424553 438.164635,28.0859918 L437.71257,28.8611128 Z" fill="url(#linearGradient-1)" fill-rule="evenodd"></path>
                <path stroke="#663333" stroke-width="5" d="M20.9635305,49.883237 L20.9635305,29.1454344 L33.0759792,29.1454344 L33.0759792,51.5726585 C33.0759792,56.1534348 31.9858104,58.7311585 28.7570778,60.252344 C26.3607638,61.4792948 23.9302843,61.7176941 18.0505165,61.7176941 L15.9021982,61.7176941 L15.5789741,59.5938303 C15.2989043,57.753528 14.4850957,55.1034436 13.6486499,53.3269015 L11.8810658,49.5726982 L16.0261296,49.764641 C16.1882557,49.7721485 16.3530221,49.7792932 16.5203102,49.7860819 C17.6336496,49.8312623 18.8249485,49.8596114 20.0588819,49.8745686 C20.3831695,49.8784995 20.6763125,49.8812908 20.9635305,49.883237 Z M28.8356266,37.4872743 L39.7266851,35.228318 L40.5093233,37.1618486 C42.2045995,41.3500782 43.6949469,46.9846465 44.256791,51.1099588 L44.566492,53.3839232 L33.1156972,55.9545692 L32.8688927,53.1042729 C32.5837137,49.8107966 31.2891672,44.408291 29.7932133,40.1884621 L28.8356266,37.4872743 Z M34.4960656,16.6621152 L36.9960656,16.6621152 L34.4960656,14.1621152 L34.4960656,16.6621152 Z M34.4960656,17.677881 L34.4960656,20.177881 L36.9960656,17.677881 L34.4960656,17.677881 Z M27.159429,17.677881 L24.659429,17.677881 L27.159429,20.177881 L27.159429,17.677881 Z M27.159429,16.6621152 L27.159429,14.1621152 L24.659429,16.6621152 L27.159429,16.6621152 Z M52.7802608,29.5082816 C55.374515,31.2947195 58.3506494,32.7614228 61.4019427,33.7065243 L65.572257,34.9982292 L62.3475144,37.9411967 C60.9749389,39.1938379 58.9666085,41.6840826 58.128293,43.1968232 L57.0570514,45.1298793 L55.4162081,44.4686597 C56.3752242,46.2402949 57.1791048,47.9205561 57.7635764,49.4017355 L58.6429871,51.6303559 L47.4350752,56.6137392 L46.5774396,53.9745654 C45.3543061,50.2106568 41.8437841,43.9302509 38.3097869,39.0684621 L36.4305591,36.4831718 L40.9231896,34.6609191 C39.433644,33.0713574 38.060316,31.3399383 36.8316898,29.5082816 L25.4586,29.5082816 C23.7874328,32.0091748 21.7937162,34.3576936 19.5602148,36.470354 L23.7487486,38.2039693 L22.7353515,40.5371068 C20.0773156,46.6566861 17.2407711,51.45432 13.881788,54.738761 L12.5198148,56.0705095 L1.67709164,49.7462432 L4.23438417,47.4548379 C4.88187958,46.874664 5.52505985,46.211581 6.15284306,45.4837652 L5.54699844,45.7930835 L4.28354925,44.1159197 C3.21063264,42.691678 0.678458861,39.950593 -0.648906526,38.7942743 L-3.77221574,36.0734405 L0.0905891762,34.5778686 C3.50033981,33.2577069 6.5915546,31.5314298 9.17345938,29.5082816 L0.507372754,29.5082816 L0.507372754,17.677881 L14.7322701,17.677881 L14.7322701,16.6621152 L4.34683621,16.6621152 L4.34683621,4.83171451 L14.7322701,4.83171451 L14.7322701,-1.81069351 L27.159429,-1.81069351 L27.159429,4.83171451 L34.4960656,4.83171451 L34.4960656,-1.81069351 L47.0491085,-1.81069351 L47.0491085,4.83171451 L57.6233685,4.83171451 L57.6233685,16.6621152 L47.0491085,16.6621152 L47.0491085,17.677881 L61.7146001,17.677881 L61.7146001,29.5082816 L52.7802608,29.5082816 Z M40.9231896,34.6609191 L44.4906284,33.2139328 L43.797109,37.4234179 C42.7995849,36.5627127 41.8394022,35.6386512 40.9231896,34.6609191 Z M69.1771208,12.2129551 L64.8341211,12.2129551 L64.8341211,1.88649586 L87.4303077,1.88649586 L87.4303077,-1.87335773 L100.046293,-1.87335773 L100.046293,1.88649586 L123.208957,1.88649586 L123.208957,12.2129551 L119.432436,12.2129551 L119.432436,19.920655 L69.1771208,19.920655 L69.1771208,12.2129551 Z M106.565418,50.0126219 L105.2429,48.690104 L105.2429,50.0126219 L82.9890041,50.0126219 L82.9890041,48.690104 L81.6664863,50.0126219 L80.4890041,50.0126219 L81.0777452,50.6013629 L80.4890041,51.190104 L81.6664863,51.190104 L82.9890041,52.5126219 L82.9890041,51.190104 L105.2429,51.190104 L105.2429,52.5126219 L106.565418,51.190104 L107.7429,51.190104 L107.154159,50.6013629 L107.7429,50.0126219 L106.565418,50.0126219 Z M105.2429,60.02576 L82.9890041,60.02576 L82.9890041,61.7176941 L70.6247873,61.7176941 L70.6247873,41.2396301 L117.984769,41.2396301 L117.984769,61.6550299 L105.2429,61.6550299 L105.2429,60.02576 Z M98.2747865,34.3960913 C98.231533,34.4848508 98.1881247,34.5726143 98.1446,34.6592796 L100.378684,35.7812734 L100.378684,34.3960913 L102.015176,34.3960913 L102.015176,31.8960913 L99.6566737,31.066956 C99.3958432,31.8088967 99.1005967,32.5617719 98.7876063,33.2812734 L89.1471558,33.2812734 C88.7572369,32.3606075 88.2927978,31.4375324 87.7914657,30.6056666 L85.6502501,31.8960913 L85.6502501,34.3960913 L87.4126267,34.3960913 L87.4126267,35.7812734 L89.7956235,35.025412 C89.7300526,34.8186872 89.6590255,34.6085078 89.5830315,34.3960913 L98.2747865,34.3960913 Z M82.4294708,25.7549971 L81.4960765,26.6883915 L83.3628652,26.6883915 L83.9960765,27.3216028 L83.9960765,26.6883915 L104.109944,26.6883915 L104.109944,27.3216028 L104.743155,26.6883915 L106.609944,26.6883915 L105.67655,25.7549971 L106.609944,24.8216028 L104.743155,24.8216028 L104.109944,24.1883915 L104.109944,24.8216028 L83.9960765,24.8216028 L83.9960765,24.1883915 L83.3628652,24.8216028 L81.4960765,24.8216028 L82.4294708,25.7549971 Z M116.662987,33.2812734 L125.16016,33.2812734 L125.16016,43.9210538 L62.6940923,43.9210538 L62.6940923,33.2812734 L71.8836278,33.2812734 L71.8836278,16.9885745 L116.662987,16.9885745 L116.662987,33.2812734 Z M144.105709,16.6298097 L144.105709,61.5923656 L131.930319,61.5923656 L131.930319,33.9726666 L129.281173,36.8498882 L127.867247,33.0107453 C127.218548,31.2493749 125.222557,27.3774439 124.129822,25.7999714 L122.938726,24.0805041 L124.42106,22.6047118 C129.85798,17.191788 135.115083,8.59085618 138.115819,0.106378163 L138.916047,-2.15623834 L150.865584,1.52861042 L149.923337,4.01815359 C148.277164,8.36756136 146.308886,12.6477388 144.105709,16.6298097 Z M150.177828,25.622959 L162.42653,28.1459883 L161.855031,30.6377138 C159.953956,38.9263647 156.616947,47.0988216 152.911632,52.4346401 L151.364757,54.66221 L149.270171,52.9395369 C148.122847,51.9959303 145.261218,50.2340496 143.293548,49.2207809 L140.547236,47.806544 L142.502936,45.4154073 C145.576233,41.65784 148.17894,35.2271916 149.669475,28.0654886 L150.177828,25.622959 Z M175.473966,21.299268 L172.366678,21.299268 L172.366678,50.883352 C172.366678,55.5030726 171.287805,58.2458927 168.160002,59.9757561 C165.664523,61.3244662 162.585451,61.7803583 157.718867,61.7803583 L155.551988,61.7803583 L155.244214,59.6354475 C154.972126,57.7392433 153.936415,54.7157294 152.961629,52.9904251 L150.795775,49.1570131 L155.197489,49.2613532 C156.364883,49.2890256 157.61217,49.3063797 158.901073,49.3155455 C159.275842,49.3182107 159.610471,49.3200188 159.939519,49.3212148 L159.939519,21.299268 L156.681709,21.299268 C155.033085,24.4862863 153.138238,27.4596449 151.184165,29.9356714 L149.446074,32.1380241 L147.457841,30.1585669 C146.255362,28.9613944 143.362084,26.6209818 141.796755,25.582035 L139.385625,23.9817092 L141.319251,21.8286457 C145.550657,17.1170389 149.267743,9.10426133 151.453635,0.335278863 L152.043538,-2.03119559 L164.242225,0.690925419 L163.602559,3.18931198 C163.080573,5.22806393 162.47157,7.27095889 161.755373,9.40620305 L179.615279,9.40620305 L181.04589,9.1063511 L189.1839,10.6496068 L188.830261,13.0261345 C188.043115,18.3159206 186.959012,24.1622277 186.080593,27.7853321 L185.532396,30.0464087 L174.428373,28.1856636 L174.826012,25.7311817 C175.04585,24.3742041 175.268614,22.8550843 175.473966,21.299268 Z M168.682946,28.7315211 L180.054869,24.8864044 L181.034152,26.8175777 C184.327173,33.3115038 187.183128,41.8976749 188.135158,47.9908524 L188.459404,50.0660934 L176.387307,54.1777937 L176.00878,51.128682 C175.349988,45.8219824 172.780267,37.484885 169.868365,31.2640079 L168.682946,28.7315211 Z M195.982096,11.5236486 L188.011662,11.5236486 L188.011662,1.63583895 L212.553448,1.63583895 L211.577628,-0.469106525 L224.33409,-2.39953089 L225.211809,-1.04904262 C225.7131,-0.277739768 226.263152,0.682183526 226.756128,1.63583895 L251.547744,1.63583895 L251.547744,11.5236486 L246.826856,11.5236486 C246.99134,12.6946559 247.163618,13.831117 247.362711,15.0864713 L247.730066,17.4027874 L245.441909,17.9171876 C243.466112,18.3613664 239.193163,18.542042 233.564006,18.542042 L208.324255,18.542042 C200.488813,18.542042 196.776936,16.5758167 195.982096,11.5236486 Z M205.554806,21.4377345 L205.554806,24.3071508 L234.193426,24.3071508 L234.193426,21.4377345 L205.554806,21.4377345 Z M196.445893,30.6362377 L196.445893,15.1713119 L243.679991,15.1713119 L243.679991,30.6362377 L196.445893,30.6362377 Z M235.8476,36.6307112 L235.011673,37.4666384 L235.8476,37.4666384 L235.8476,42.7916334 L234.948731,43.7396301 L235.8476,43.814868 L235.8476,47.0608341 L238.3476,47.0608341 L240.171469,45.3510096 C239.507692,44.6429586 238.963789,44.1067693 237.50249,42.7169008 C237.509634,42.3882852 237.511673,42.0174919 237.511673,41.5463822 L237.511673,37.4666384 L238.3476,37.4666384 L237.511673,36.6307112 L237.511673,34.9666384 L236.679636,35.7986748 L235.8476,34.9666384 L235.8476,36.6307112 Z M221.353254,36.1506897 L221.353254,33.0932807 L216.443776,33.0932807 L216.443776,36.1506897 L221.353254,36.1506897 Z M218.853254,35.5932807 L218.943776,35.5932807 L218.943776,33.6506897 L218.853254,33.6506897 L218.853254,35.5932807 Z M221.353254,41.6024774 L221.353254,38.4824042 L216.443776,38.4824042 L216.443776,41.6024774 L221.353254,41.6024774 Z M218.853254,40.9824042 L218.943776,40.9824042 L218.943776,39.1024774 L218.853254,39.1024774 L218.853254,40.9824042 Z M221.353254,47.0542651 L221.353254,44.1221846 L216.443776,44.1221846 L216.443776,47.0542651 L221.353254,47.0542651 Z M218.853254,46.6221846 L218.943776,46.6221846 L218.943776,44.5542651 L218.853254,44.5542651 L218.853254,46.6221846 Z M203.977275,44.967333 L203.962429,44.9929147 L201.481255,44.9929147 L201.481255,42.8792034 C201.815767,42.8205214 202.075739,42.7747553 202.088509,42.7725396 C202.65078,42.6749829 203.126045,42.5958835 203.596976,42.5226253 L203.977275,44.967333 Z M201.158439,45.0085876 L200.997098,44.9053262 C200.361283,44.4983917 199.347046,43.9328926 198.28296,43.3868189 L198.282929,43.3865478 C198.793384,43.3279091 199.349996,43.2455848 200.054883,43.1271749 C200.276503,43.0899463 200.815085,42.99595 201.282398,42.9140681 C201.256009,43.6130737 201.215222,44.3069661 201.158439,45.0085876 Z M201.320009,37.0279888 L198.820009,37.0279888 L200.933314,34.9146837 C201.061954,34.9585247 201.190951,35.0036298 201.320009,35.0498936 L201.320009,37.0279888 Z M201.481255,35.1082876 C201.799021,35.2245303 202.116403,35.34753 202.428971,35.475705 L203.981255,37.0279888 L201.481255,37.0279888 L201.481255,35.1082876 Z M248.098355,53.3910412 C248.101655,53.3733771 248.104936,53.3556104 248.1082,53.3377395 L246.912388,53.1193552 C246.910508,53.1397481 246.908626,53.1600205 246.906744,53.1801715 L248.084306,53.4531212 C248.089051,53.4326469 248.093735,53.4119546 248.098355,53.3910412 Z M248.231718,52.5959206 C248.30676,51.998031 248.353117,51.2683003 248.377856,50.3716525 L247.118575,50.2972488 C247.081386,50.9266683 247.042234,51.5119339 247.001914,52.0444445 C247.411568,52.2478001 247.826299,52.4341604 248.231718,52.5959206 Z M232.666388,44.8022711 L232.65635,44.8688972 L232.661853,44.87338 L232.666388,44.8022711 Z M230.002502,55.6978338 C229.610186,56.4758513 229.170721,57.1859319 228.682334,57.824978 L228.736707,57.8665318 C229.225913,57.1816995 229.661341,56.4700625 230.047799,55.7282983 C230.032707,55.7181266 230.017608,55.7079715 230.002502,55.6978338 Z M229.498955,40.8331439 C229.026566,40.4438018 228.498947,40.0186082 227.883197,39.5281824 L227.340156,39.095667 L226.620073,39.9093514 C227.127357,40.3582801 227.58222,40.7356593 228.649181,41.6047745 L228.644984,41.6013487 L228.902078,41.8107697 L229.498955,40.8331439 Z M218.661118,47.8193739 L217.947622,47.8193739 L218.364291,48.2539581 L218.661118,47.8193739 Z M220.800101,50.7944962 L222.003422,52.0495547 C222.324877,52.3848313 222.624804,52.7013652 222.903403,52.9997702 L223.211811,52.809401 C222.512766,51.9749606 221.778586,51.1629347 221.102962,50.4902926 L220.800101,50.7944962 Z M223.854468,54.0416648 C224.552859,54.8284875 225.048578,55.448415 225.34758,55.9197464 L225.493449,55.8272105 C225.110042,55.2424315 224.621905,54.5723352 224.082212,53.8833075 L223.854468,54.0416648 Z M214.871206,53.0897975 L214.927369,53.1182135 C215.171603,52.8284549 215.401401,52.5400022 215.614314,52.2550838 C215.378451,52.5318614 215.129548,52.8112368 214.871206,53.0897975 Z M211.886821,55.9034108 C211.373185,56.32323 210.871336,56.6989419 210.403561,57.0094156 L210.55431,57.2365415 L210.871655,56.9882995 C211.266921,56.6791046 211.657514,56.3566817 212.039046,56.0250275 C211.988444,55.9843514 211.937691,55.9438017 211.886821,55.9034108 Z M202.593206,56.5055632 C202.015601,56.5222138 201.350958,56.5297014 200.582386,56.5297014 L200.582386,56.6813342 C201.369328,56.6933837 202.086458,56.6914097 202.639946,56.6742196 C202.62466,56.6181437 202.609077,56.5619172 202.593206,56.5055632 Z M193.518022,55.1618601 C193.418297,55.3570172 193.315896,55.5481189 193.210833,55.7350234 C193.321206,55.548731 193.428164,55.3607703 193.531789,55.1710572 C193.527201,55.1679899 193.522612,55.1649242 193.518022,55.1618601 Z M246.008846,45.3295722 L247.458167,46.4839115 C248.174209,47.0542175 249.435316,47.7349323 250.436849,48.0839216 L252.221328,48.7057328 L252.10987,50.592156 C251.920451,53.7980607 251.727492,55.7043625 251.324344,56.903036 C250.772434,58.3682989 249.957031,59.4841361 248.792986,60.2362335 C247.731053,60.9568484 246.315908,61.2790445 244.89357,61.2790445 L242.627658,61.2790445 C240.740127,61.2790445 238.937377,60.6380469 237.653761,59.3600965 L237.562326,59.269065 L237.480748,59.1691043 C236.470967,57.9317824 236.054528,56.7345969 235.911458,54.352112 C235.136171,56.8314034 234.068823,59.0111162 232.655012,60.8610671 L230.987756,63.0426455 L228.971589,61.1787532 C228.245159,60.5071877 226.464533,59.2909125 225.626362,58.8995316 L222.786592,60.8741095 L221.386824,58.684183 C220.878726,57.8892662 220.048579,56.8041548 219.175996,55.7800096 C217.383628,57.8315198 215.106223,59.8892484 213.16857,61.1753157 L211.54935,62.2500318 L210.10846,60.945913 C209.780822,60.6493749 209.415848,60.3363764 209.040605,60.0309381 C208.870372,60.1437469 208.691545,60.2508905 208.503821,60.3528315 C206.675829,61.3386234 204.858938,61.5297014 200.582386,61.5297014 L198.376643,61.5297014 L198.10186,59.3411416 C198.048079,58.9127869 197.930279,58.3865427 197.769454,57.8232176 C197.284557,58.7258447 196.746571,59.571419 196.154192,60.3524585 L194.359603,62.7185866 L192.334073,60.5468736 C191.808147,59.9829918 189.916732,58.7151841 188.996526,58.3080087 L186.103248,57.0277829 L188.017827,54.5089697 C190.554415,51.1718435 191.410531,46.7346753 191.410531,40.1677692 L191.410531,27.4535003 L246.008846,27.4535003 L246.008846,45.3295722 Z M209.040605,60.0309381 C208.480748,59.5752289 207.898031,59.1363489 207.382344,58.7940751 L208.764849,56.711125 L210.998932,57.8331188 C210.53882,58.7492832 209.898965,59.4621268 209.040605,60.0309381 Z M299.475041,9.27430553 L300.408435,8.34091119 L298.541647,8.34091119 L297.908435,7.70769987 L297.908435,8.34091119 L286.543509,8.34091119 L286.543509,7.70769987 L285.910298,8.34091119 L284.043509,8.34091119 L284.976904,9.27430553 L284.043509,10.2076999 L285.910298,10.2076999 L286.543509,10.8409112 L286.543509,10.2076999 L297.908435,10.2076999 L297.908435,10.8409112 L298.541647,10.2076999 L300.408435,10.2076999 L299.475041,9.27430553 Z M299.537705,17.3579908 L300.408435,16.4872606 L298.666975,16.4872606 L297.908435,15.7287209 L297.908435,16.4872606 L286.543509,16.4872606 L286.543509,15.7287209 L285.784969,16.4872606 L284.043509,16.4872606 L284.914239,17.3579908 L284.043509,18.2287209 L285.784969,18.2287209 L286.543509,18.9872606 L286.543509,18.2287209 L297.908435,18.2287209 L297.908435,18.9872606 L298.666975,18.2287209 L300.408435,18.2287209 L299.537705,17.3579908 Z M310.461478,0.00656906239 L310.461478,26.6883915 L274.305177,26.6883915 L274.305177,0.00656906239 L310.461478,0.00656906239 Z M264.978647,-2.35103086 L276.980943,2.5132954 L275.119883,5.09605037 C270.76992,11.1328736 264.116599,17.4838646 257.957454,21.463116 L255.507118,23.0462097 L254.31793,20.3823467 C253.661183,18.911186 251.940831,15.9917104 250.861442,14.4991761 L249.279931,12.3123275 L251.581166,10.9024332 C256.313921,8.00282258 261.504103,3.16723124 263.863581,-0.580085188 L264.978647,-2.35103086 Z M271.185655,25.9905677 L271.185655,61.6550299 L258.947323,61.6550299 L258.947323,38.8848064 C258.388448,39.3577931 257.841722,39.7984767 257.299381,40.2124365 L254.555004,42.3071728 L253.421198,39.0461897 C252.814917,37.3024413 250.984298,33.301234 250.073365,31.8400969 L248.813903,29.8199195 L250.770089,28.4631974 C256.479746,24.5032384 262.20748,18.6179065 265.466675,13.1352967 L266.588485,11.2481899 L277.72537,16.045766 L276.329849,18.477148 C274.972186,20.842572 273.287673,23.2835258 271.185655,25.9905677 Z M305.23729,45.4249952 L305.23729,51.8233154 C305.23729,56.3610607 304.060793,58.9021965 300.693074,60.3631759 C298.242625,61.4840884 296.172134,61.6550299 289.897117,61.6550299 L287.758873,61.6550299 L287.427349,59.542642 C287.270443,58.5428792 286.840762,57.1572241 286.292786,55.7799432 L282.687256,58.3209079 L281.315874,55.9626124 C280.170923,53.9936972 277.276258,50.5562627 274.474845,47.7672146 L272.297434,45.5994135 L272.562009,45.4249952 L269.584525,45.4249952 L269.584525,34.0959083 L271.095133,34.0959083 L271.095133,24.4456174 L312.538565,24.4456174 L312.538565,34.0959083 L313.772667,34.0959083 L313.885333,45.4249952 L305.23729,45.4249952 Z M327.805897,33.5287893 C326.837361,35.8185715 325.427965,37.8859811 323.530889,39.4599006 L321.966793,40.7575613 L320.377084,39.4914073 C319.351567,38.6746148 316.868994,37.2808465 315.330157,36.6566798 L311.303774,35.0235413 L314.739205,32.3633318 C316.218394,31.2179297 317.153962,29.4695694 317.606245,27.5030264 L314.399246,27.5030264 L314.399246,16.7379176 L316.853985,16.7379176 L316.853985,-0.244087844 L327.805897,-0.244087844 L327.805897,-1.68536505 L339.603635,-1.68536505 L339.603635,39.0332441 L327.805897,39.0332441 L327.805897,33.5287893 Z M357.832946,20.1727877 C358.931807,19.7745454 359.996022,19.3480163 361.026132,18.8922102 L359.867705,18.1380287 L360.014532,17.9912021 L359.642179,17.9912021 L357.514532,16.60602 L357.514532,17.9912021 L346.922591,17.9912021 L347.379377,22.9491172 C351.038789,22.2690418 354.41319,21.3889733 357.514532,20.28705 L357.514532,20.4912021 L357.832946,20.1727877 Z M358.534155,10.3330283 L359.196286,11.4675535 L360.325804,10.3330283 L363.97988,10.3330283 L363.97988,7.83302832 L362.175309,6.10284756 C361.445446,6.86409094 360.565813,7.59395031 359.529356,8.30377005 C358.581571,7.40538274 357.684886,6.60749873 356.809836,5.8947092 L355.230938,7.83302832 L355.230938,10.3330283 L358.534155,10.3330283 Z M364.311764,40.5751634 L362.445339,38.9824312 L362.411225,39.0163951 C363.165592,39.610891 363.797882,40.1670443 364.245887,40.6378506 L364.311764,40.5751634 Z M359.976708,36.9611745 C359.129587,36.3120868 358.259009,35.6887125 357.431689,35.1396005 L357.236337,35.4339281 L359.764984,37.1122527 C359.774962,37.1188757 359.784934,37.1254997 359.794899,37.1321249 L359.976708,36.9611745 Z M355.923301,33.0134356 L355.923301,34.5624341 L356.57501,34.9949893 L358.396073,34.7240062 C358.306529,34.1222479 358.162451,33.485136 357.970982,32.819279 L355.923301,33.0134356 Z M343.746522,7.87249907 C343.183238,8.04177529 342.610006,8.20836006 342.029601,8.37134157 L342.062862,8.48979012 C342.680125,8.34678668 343.285286,8.19866982 343.877895,8.04560392 C343.834647,7.98797623 343.790842,7.9302567 343.746522,7.87249907 Z M356.098421,3.10204366 C356.427984,2.88517749 356.742443,2.66505718 357.041401,2.44182788 L356.489418,2.56553071 L355.829426,3.04738897 L356.098421,3.10204366 Z M371.739429,22.9912021 L374.064575,22.9912021 L374.152002,22.9037748 L374.064575,22.8163475 L371.739429,22.8163475 L371.739429,22.9912021 Z M370.95002,48.9968561 C373.020444,49.7900348 374.846754,50.5254741 376.306086,51.1598347 L378.886537,52.2815379 L372.896681,62.5518703 L370.806791,61.523495 C365.925301,59.121453 355.383606,55.019468 346.553169,51.9952046 L346.328928,51.918406 C341.43142,56.6465327 333.10315,60.0751289 320.758297,62.0619178 L318.949296,62.3530596 L318.126973,60.7156733 C317.409242,59.2865469 315.706003,56.8489464 314.301946,55.1969296 L311.389099,51.7696682 L315.837633,51.1053332 C319.795154,50.514325 323.200709,49.8073302 326.093935,48.9968561 L314.021594,48.9968561 L314.021594,37.8557619 L339.387229,37.8557619 L339.387229,32.0279888 L344.7012,32.0279888 C343.646434,31.0642226 342.411656,30.0858278 341.28629,29.3590825 L338.897364,27.8163475 L336.491896,27.8163475 L336.491896,17.9912021 L336.514548,17.9912021 L333.719606,14.9945482 L338.744224,14.494304 C342.875756,14.0829742 346.703633,13.3796273 350.118379,12.3910459 C349.757369,12.063386 349.387256,11.7380434 349.013559,11.4201641 C347.27211,12.0302054 345.363573,12.6285314 343.38135,13.1851524 L341.506582,13.7115992 L340.537238,12.0227326 C339.918882,10.9453863 338.437036,9.2270893 337.576093,8.5955095 L332.997593,5.2367681 L338.566629,4.12787677 C345.610684,2.72528365 351.040026,0.682910019 354.049895,-1.56452871 L354.946661,-2.23413445 L367.239195,0.263473761 L365.998166,1.32251782 L367.561103,1.32251782 L369.361064,1.03956782 L376.233653,4.51678053 L374.980046,6.78600728 C373.456393,9.5440579 371.463797,11.9289944 369.019972,13.9806916 L369.626981,13.9806916 L369.626981,17.9912021 L376.739429,17.9912021 L376.739429,27.8163475 L369.626981,27.8163475 L369.626981,29.2015296 C369.626981,32.5896287 368.821189,34.6879775 366.648665,36.0342967 C367.107611,36.435007 367.517775,36.82302 367.868046,37.1911188 L368.500499,37.8557619 L377.557676,37.8557619 L377.557676,48.9968561 L370.95002,48.9968561 Z M347.906561,11.9733915 L347.932112,13.3979297 C348.223016,13.3766259 348.50574,13.3560003 348.775886,13.3363923 L349.637439,12.3655172 L349.076682,11.8519634 C348.687934,11.8920163 348.298455,11.9324353 347.906561,11.9733915 Z M343.711058,12.4217492 C343.22455,12.47475 342.727462,12.5292018 342.217327,12.5853551 L341.850972,13.0506686 L342.812381,13.7775664 C343.149949,13.7523756 343.524978,13.7243905 343.924146,13.6946395 L343.711058,12.4217492 Z M352.836838,8.04130972 L352.988188,16.4795216 L350.70002,16.7119777 C347.932593,16.9931218 345.207967,17.2847994 341.910336,17.6495856 L339.56017,17.9095626 L338.086439,9.10619843 L340.828705,8.91118674 C341.371018,8.87262106 347.886047,8.38123666 350.20983,8.22168532 L350.213153,8.22145493 L352.836838,8.04130972 Z M408.94984,14.0700747 C409.537409,13.5197887 410.106049,12.9597912 410.65718,12.3882295 L407.167396,12.4950379 C407.745181,13.0251567 408.339712,13.55042 408.94984,14.0700747 Z M411.707057,16.299268 C413.817162,17.9204698 416.072666,19.4716891 418.434833,20.927529 L419.746513,16.299268 L411.707057,16.299268 Z M406.403426,16.299268 L398.660935,16.299268 L400.010398,20.903775 C402.355556,19.4000002 404.473718,17.8818894 406.403426,16.299268 Z M419.990922,48.1510223 C419.434396,49.0871168 418.87602,49.9653742 418.340533,50.7392641 L417.245058,47.0085621 L419.990922,48.1510223 Z M417.984769,41.3518205 L415.134064,41.3518205 L415.134064,46.5137057 C416.105852,44.9595519 417.116616,43.1250571 417.984769,41.3518205 Z M415.134064,48.5713446 L415.134064,51.0713446 L413.299737,49.2370174 L413.760344,48.5713446 L415.134064,48.5713446 Z M402.077485,41.3518205 L399.694384,41.3518205 C400.624679,42.9112446 401.449588,44.4666325 402.077485,45.8691832 L402.077485,41.3518205 Z M403.095757,48.5713446 L403.454617,49.6942123 L402.424843,50.723987 L402.077485,50.8758124 L402.077485,48.5713446 L403.095757,48.5713446 Z M415.134064,28.1296687 L415.134064,29.6467482 L435.21257,29.6467482 L435.21257,41.3518205 L431.860497,41.3518205 L431.179287,42.436946 C429.79572,44.6408838 428.452634,46.7232506 427.219325,48.5713446 L438.485555,48.5713446 L438.485555,60.4017453 L379.040704,60.4017453 L379.040704,48.5713446 L390.172746,48.5713446 C389.169562,46.4810694 387.891129,44.1998688 386.632379,42.3010894 L386.003084,41.3518205 L382.061921,41.3518205 L382.061921,29.6467482 L402.077485,29.6467482 L402.077485,28.1296687 L389.300254,28.1296687 L389.300254,26.4210586 C387.731345,27.0865745 386.14183,27.7107858 384.531758,28.2936827 L382.368719,29.0767707 L381.408791,26.9861961 C380.559737,25.1370887 378.686094,22.555544 376.94446,20.8215972 L373.926651,17.8171069 L378.02095,16.6462751 C390.455289,13.0904729 400.554009,6.75776664 405.745184,-1.34824709 L406.908142,-3.16420427 L418.735157,2.15009331 L417.015447,4.62315582 C416.850521,4.86032994 416.702774,5.07262697 416.567892,5.26614606 C422.466748,9.9313791 431.325206,14.3132595 439.678087,16.6417437 L443.902731,17.8194232 L440.736892,20.8545532 C439.209033,22.3193319 437.023419,25.0804335 436.005081,26.8264981 L434.962364,28.6143613 L433.011286,27.9237062 C431.320999,27.3253678 429.57582,26.62953 427.785411,25.8446875 L427.785411,28.1296687 L415.134064,28.1296687 Z"></path>
            </g>
            <path d="M23.4635305,51.44733 L23.4635305,31.6454344 L30.5759792,31.6454344 L30.5759792,51.5726585 C30.5759792,55.0191909 30.009501,56.8991177 27.6177041,58.0270738 C25.4147332,59.1550299 22.20469,59.2176941 18.0505165,59.2176941 C17.7358063,57.1497746 16.854618,54.2672202 15.9104876,52.261965 C18.6169947,52.3872934 21.4493857,52.3872934 22.3935161,52.3872934 C23.2117624,52.3872934 23.4635305,52.1993007 23.4635305,51.44733 Z M32.1495298,39.3531343 L38.1919641,38.0998497 C39.8913987,42.2983529 41.2761233,47.7501406 41.7796595,51.44733 L35.359573,52.8886072 C35.0448629,49.2540821 33.6601384,43.6143017 32.1495298,39.3531343 Z M24.659429,14.1621152 L24.659429,20.177881 L36.9960656,20.177881 L36.9960656,14.1621152 L24.659429,14.1621152 Z M59.2146001,27.0082816 L46.1226591,27.0082816 C49.6474124,30.9561279 54.9974845,34.3399962 60.6622666,36.0945945 C59.151658,37.4732075 56.9486872,40.1677692 55.9416148,41.9850318 C53.2980498,40.9197399 50.7174268,39.6037912 48.388572,37.9118571 C51.3468471,42.1103602 54.0533541,46.8101772 55.4380786,50.3193739 L48.9550502,53.2019283 C47.5703256,48.9407609 43.7938042,42.3610172 40.3319929,37.5985359 L45.4302968,35.5306165 C42.5979058,33.0867116 40.1431668,30.141493 38.1919641,27.0082816 L24.0929507,27.0082816 C21.7011538,30.8934637 18.4911106,34.4026604 14.8404732,37.2225506 L20.4423134,39.541127 C18.4281686,44.1782797 15.6587195,49.504739 12.1339662,52.9512714 L5.90270585,49.3167463 C9.04980704,46.4968561 11.8192561,42.2356887 13.5816328,38.2251782 C11.2527779,39.9171123 8.73509693,41.3583895 6.28035799,42.6116741 C5.14740157,41.1077326 2.50383656,38.2251782 0.993227991,36.9092294 C6.65801014,34.7159815 11.8192561,31.3321133 15.2810674,27.0082816 L3.00737275,27.0082816 L3.00737275,20.177881 L17.2322701,20.177881 L17.2322701,14.1621152 L6.84683621,14.1621152 L6.84683621,7.33171451 L17.2322701,7.33171451 L17.2322701,0.689306492 L24.659429,0.689306492 L24.659429,7.33171451 L36.9960656,7.33171451 L36.9960656,0.689306492 L44.5491085,0.689306492 L44.5491085,7.33171451 L55.1233685,7.33171451 L55.1233685,14.1621152 L44.5491085,14.1621152 L44.5491085,20.177881 L59.2146001,20.177881 L59.2146001,27.0082816 Z M89.9303077,12.2821884 L89.9303077,9.71295512 L67.3341211,9.71295512 L67.3341211,4.38649586 L89.9303077,4.38649586 L89.9303077,0.626642266 L97.5462926,0.626642266 L97.5462926,4.38649586 L120.708957,4.38649586 L120.708957,9.71295512 L97.5462926,9.71295512 L97.5462926,12.2821884 L116.932436,12.2821884 L116.932436,17.420655 L71.6771208,17.420655 L71.6771208,12.2821884 L89.9303077,12.2821884 Z M107.7429,48.690104 L80.4890041,48.690104 L80.4890041,52.5126219 L107.7429,52.5126219 L107.7429,48.690104 Z M73.1247873,59.2176941 L73.1247873,43.7396301 L115.484769,43.7396301 L115.484769,59.1550299 L107.7429,59.1550299 L107.7429,57.52576 L80.4890041,57.52576 L80.4890041,59.2176941 L73.1247873,59.2176941 Z M102.015176,31.8960913 L85.6502501,31.8960913 C86.4055544,33.1493759 87.0349746,34.5906531 87.4126267,35.7812734 L100.378684,35.7812734 C101.008104,34.5279888 101.574582,33.1493759 102.015176,31.8960913 Z M81.4960765,24.1883915 L81.4960765,27.3216028 L106.609944,27.3216028 L106.609944,24.1883915 L81.4960765,24.1883915 Z M108.120553,35.7812734 L122.66016,35.7812734 L122.66016,41.4210538 L65.1940923,41.4210538 L65.1940923,35.7812734 L79.6078158,35.7812734 C79.2301636,34.6533173 78.6636854,33.462697 78.1601492,32.5227336 L80.8037142,31.8960913 L74.3836278,31.8960913 L74.3836278,19.4885745 L114.162987,19.4885745 L114.162987,31.8960913 L110.638234,31.8960913 C109.819987,33.3373685 108.938799,34.6533173 108.120553,35.7812734 Z M140.472753,0.939963398 L147.585202,3.13321133 C145.948709,7.45704296 143.934564,11.8435388 141.605709,15.9793778 L141.605709,59.0923656 L134.430319,59.0923656 L134.430319,27.0709459 C133.045594,28.9508727 131.597927,30.6428068 130.213203,32.1467482 C129.520841,30.2668214 127.443754,26.1936467 126.184913,24.3763841 C131.849696,18.7366037 137.325652,9.83828357 140.472753,0.939963398 Z M152.117027,28.5748873 L159.418302,30.0788287 C157.592983,38.0371855 154.38294,45.9328781 150.858187,51.0086804 C149.41052,49.8180601 146.263419,47.9381333 144.4381,46.9981699 C148.025796,42.6116741 150.669361,35.5306165 152.117027,28.5748873 Z M178.300909,18.799268 L169.866678,18.799268 L169.866678,50.883352 C169.866678,54.4552129 169.237258,56.5231324 166.971345,57.7764169 C164.768374,58.9670372 161.747157,59.2803583 157.718867,59.2803583 C157.404157,57.0871104 156.271201,53.7659064 155.138244,51.7606511 C157.781809,51.8233154 160.425374,51.8233154 161.306563,51.8233154 C162.124809,51.8233154 162.439519,51.5726585 162.439519,50.7580235 L162.439519,18.799268 L155.138244,18.799268 C153.375868,22.4337931 151.298781,25.7549971 149.221694,28.3868946 C147.899912,27.0709459 144.878695,24.627041 143.17926,23.499085 C147.962854,18.1726257 151.739375,9.52496244 153.879404,0.939963398 L161.180679,2.56923329 C160.362432,5.76510884 159.35536,8.83565594 158.222404,11.906203 L179.87446,11.906203 L181.070358,11.6555461 L186.357488,12.6581738 C185.602184,17.7339761 184.53217,23.5617492 183.650981,27.1962743 L177.293837,26.1309825 C177.608547,24.1883915 177.986199,21.5564939 178.300909,18.799268 Z M172.132591,30.2041572 L178.804445,27.948245 C182.077431,34.4026604 184.783938,42.7370025 185.665126,48.3767829 L178.489735,50.8206877 C177.797373,45.2435716 175.153808,36.6585725 172.132591,30.2041572 Z M198.316473,9.2116413 L198.316473,9.02364862 L190.511662,9.02364862 L190.511662,4.13583895 L216.443776,4.13583895 C216.066124,3.25853978 215.625529,2.31857638 215.247877,1.50394144 L223.11563,0.313321133 C223.807992,1.37861298 224.626239,2.88255442 225.192717,4.13583895 L249.047744,4.13583895 L249.047744,9.02364862 L204.358907,9.02364862 L204.358907,9.27430553 C204.358907,10.9662396 204.862443,11.4048892 208.324255,11.4048892 L232.493992,11.4048892 C236.081687,11.4048892 241.998237,11.2168966 244.201208,10.778247 C244.452976,12.6581738 244.704744,14.2874437 244.89357,15.478064 C242.942368,15.9167135 237.969948,16.042042 233.564006,16.042042 L208.324255,16.042042 C200.39356,16.042042 198.316473,14.2247794 198.316473,9.2116413 Z M205.554806,21.8071508 L205.554806,23.9377345 L234.193426,23.9377345 L234.193426,21.8071508 L205.554806,21.8071508 Z M198.945893,28.1362377 L198.945893,17.6713119 L241.179991,17.6713119 L241.179991,28.1362377 L198.945893,28.1362377 Z M235.011673,34.9666384 L235.011673,41.5463822 C235.011673,42.2356887 235.011673,42.9876594 234.948731,43.7396301 C236.270513,44.9929147 237.466412,46.1208707 238.3476,47.0608341 L238.3476,34.9666384 L235.011673,34.9666384 Z M221.353254,35.5932807 L221.353254,33.6506897 L216.443776,33.6506897 L216.443776,35.5932807 L221.353254,35.5932807 Z M221.353254,40.9824042 L221.353254,39.1024774 L216.443776,39.1024774 L216.443776,40.9824042 L221.353254,40.9824042 Z M221.353254,46.6221846 L221.353254,44.5542651 L216.443776,44.5542651 L216.443776,46.6221846 L221.353254,46.6221846 Z M203.981255,39.9797765 L202.344762,42.7996667 C201.463574,42.2356887 200.078849,41.483718 198.820009,40.8570757 C198.820009,42.4236814 198.757067,44.0529513 198.568241,45.8702138 C200.204733,45.6822212 201.96711,45.3062358 203.981255,44.9929147 L203.981255,39.9797765 Z M203.981255,34.5279888 L198.820009,34.5279888 L198.820009,38.9771489 L199.952965,37.2225506 C201.274748,37.6612002 202.911241,38.3505067 203.981255,39.0398131 L203.981255,34.5279888 Z M244.075324,54.2672202 L244.704744,54.2672202 C244.956512,54.2672202 245.145339,54.2672202 245.271223,54.0792275 C245.397107,53.8912348 245.522991,53.5779137 245.648875,52.8886072 C245.837701,52.0739723 245.900643,50.5073666 245.900643,48.4394471 C246.844773,49.1914178 248.355382,50.0060528 249.614222,50.4447024 C249.488338,52.5752861 249.299512,55.0818551 248.984802,56.0218185 C248.60715,57.0244462 248.103614,57.7137527 247.411251,58.1524022 C246.781831,58.5910518 245.774759,58.7790445 244.89357,58.7790445 L242.627658,58.7790445 C241.431759,58.7790445 240.235861,58.4030592 239.417614,57.5884242 C238.599368,56.5857966 238.3476,55.583169 238.3476,51.6353227 L238.3476,48.0634618 L236.522281,51.1340089 C235.955803,50.5073666 235.326383,49.7553959 234.571079,48.9407609 C234.0046,52.7006145 232.871644,56.4604681 230.668673,59.3430226 C229.787485,58.5283876 227.710398,57.0871104 226.577441,56.5857966 C229.158064,53.0765999 229.913369,48.690104 230.165137,44.7422578 C228.906296,43.5516375 227.584514,42.4863456 226.325673,41.483718 L226.325673,50.3193739 L223.807992,50.3193739 C225.129775,51.6979869 226.703326,53.389921 227.45863,54.5805413 L223.493282,57.3377673 C222.612094,55.9591543 220.849717,53.7659064 219.339109,52.261965 L222.48621,50.3193739 L214.933167,50.3193739 L218.772631,52.261965 C217.073196,54.7058698 214.051979,57.5884242 211.786066,59.0923656 C211.093704,58.4657234 209.897805,57.4630958 208.764849,56.711125 C208.450139,57.3377673 208.009544,57.7764169 207.317182,58.1524022 C205.806574,58.9670372 203.603603,59.0297014 200.582386,59.0297014 C200.39356,57.52576 199.701197,55.5205047 199.071777,54.1418917 C200.834154,54.204556 202.59653,54.204556 203.163009,54.1418917 C203.792429,54.0792275 203.981255,53.9538991 203.981255,53.389921 L203.981255,48.690104 C202.407704,49.1914178 200.960038,49.6927317 199.323545,50.1313812 L198.316473,47.6248122 C197.749995,51.6353227 196.491154,55.7711616 194.162299,58.8417087 C193.344053,57.9644096 191.141082,56.5231324 190.008126,56.0218185 C193.532879,51.3846658 193.910531,45.0555789 193.910531,40.1677692 L193.910531,29.9535003 L209.394269,29.9535003 L209.394269,53.389921 C209.394269,54.0165633 209.394269,54.5178771 209.331327,55.0191909 C211.093704,53.6405779 212.85608,51.8859796 213.926095,50.3193739 L211.660182,50.3193739 L211.660182,29.9535003 L226.325673,29.9535003 L226.325673,41.2330611 L228.276876,38.0371855 C228.843354,38.5384993 229.535717,39.1024774 230.228079,39.6664554 L230.228079,34.9666384 L227.899224,34.9666384 L227.899224,29.9535003 L243.508846,29.9535003 L243.508846,51.8233154 C243.508846,52.9512714 243.508846,53.7659064 243.63473,54.0165633 C243.697672,54.204556 243.823556,54.2672202 244.075324,54.2672202 Z M300.408435,10.8409112 L300.408435,7.70769987 L284.043509,7.70769987 L284.043509,10.8409112 L300.408435,10.8409112 Z M300.408435,18.9872606 L300.408435,15.7287209 L284.043509,15.7287209 L284.043509,18.9872606 L300.408435,18.9872606 Z M307.961478,2.50656906 L307.961478,24.1883915 L276.805177,24.1883915 L276.805177,2.50656906 L307.961478,2.50656906 Z M265.979148,0.751970719 L273.091597,3.63452514 C268.937424,9.39963398 262.517337,15.5407282 256.600787,19.363246 C255.845483,17.6713119 254.020164,14.6007648 252.887207,13.0341591 C257.796685,10.0262762 263.335583,4.9504739 265.979148,0.751970719 Z M267.615641,14.4127721 L274.161612,17.2326623 C272.651003,19.8645598 270.762742,22.4964573 268.685655,25.1283549 L268.685655,59.1550299 L261.447323,59.1550299 L261.447323,33.1493759 C259.559062,35.0293026 257.670801,36.783901 255.782541,38.2251782 C255.216062,36.5959083 253.327802,32.3347409 252.194845,30.5174783 C257.796685,26.6322963 263.965004,20.5538663 267.615641,14.4127721 Z M311.297406,36.5959083 L311.360348,42.9249952 L302.73729,42.9249952 L302.73729,51.8233154 C302.73729,55.2698478 302.10787,57.0244462 299.653131,58.089738 C297.324276,59.1550299 294.177175,59.1550299 289.897117,59.1550299 C289.582407,57.1497746 288.512393,54.3925487 287.568263,52.5126219 C290.211828,52.6379503 293.170103,52.6379503 293.988349,52.6379503 C294.869537,52.5752861 295.121305,52.3246292 295.121305,51.6353227 L295.121305,42.9249952 L281.90348,42.9249952 C284.421161,45.3062358 287.505321,48.5647756 289.078871,50.7580235 L283.477031,54.7058698 C282.092307,52.3246292 278.882263,48.6274398 276.238698,45.9955423 L280.896408,42.9249952 L272.084525,42.9249952 L272.084525,36.5959083 L295.121305,36.5959083 L295.121305,33.0240474 L273.595133,33.0240474 L273.595133,26.9456174 L310.038565,26.9456174 L310.038565,33.0240474 L302.73729,33.0240474 L302.73729,36.5959083 L311.297406,36.5959083 Z M330.305897,25.0030264 L326.96997,25.0030264 C326.96997,27.948245 326.088781,34.0893392 321.934608,37.5358717 C320.675767,36.5332441 317.96926,35.0293026 316.269825,34.3399962 C319.668695,31.7080986 320.361057,27.3216028 320.423999,25.0030264 L316.899246,25.0030264 L316.899246,19.2379176 L330.305897,19.2379176 L330.305897,15.7913851 L319.353985,15.7913851 L319.353985,2.25591216 L325.585245,2.25591216 L325.585245,10.1516047 L330.305897,10.1516047 L330.305897,0.814634945 L337.103635,0.814634945 L337.103635,36.5332441 L330.305897,36.5332441 L330.305897,25.0030264 Z M346.922591,20.4912021 L360.014532,20.4912021 L360.014532,16.60602 C356.049185,18.3606184 351.643243,19.6139029 346.922591,20.4912021 Z M363.97988,7.83302832 L355.230938,7.83302832 C356.615663,8.9609844 358.000387,10.2769332 359.196286,11.4675535 C361.021604,10.4022616 362.658097,9.2116413 363.97988,7.83302832 Z M375.057676,46.4968561 L356.489779,46.4968561 C363.224575,48.7527683 370.84056,51.5099942 375.309444,53.4525853 L371.910575,59.2803583 C366.434619,56.5857966 355.230938,52.3246292 347.363185,49.6300674 L349.314388,46.4968561 L347.426127,46.4968561 C344.467852,51.7606511 337.103635,56.8991177 320.361057,59.5936795 C319.479869,57.8390811 317.591608,55.2071836 316.206883,53.5779137 C327.536448,51.8859796 333.956534,49.3167463 337.54423,46.4968561 L316.521594,46.4968561 L316.521594,40.3557619 L341.761345,40.3557619 C341.824287,39.7917839 341.887229,39.2278058 341.887229,38.6638278 L341.887229,34.5279888 L349.314388,34.5279888 L349.314388,38.9144847 C349.314388,39.4157985 349.314388,39.8544481 349.251446,40.3557619 L360.203358,40.3557619 C358.881576,39.2278058 357.370967,38.0998497 356.049185,37.2225506 L358.315097,35.0919669 L355.923301,35.0919669 C355.671532,33.4000328 354.853286,31.3321133 354.097982,29.7028434 C356.112127,29.8281718 358.440981,29.8281718 359.133344,29.8281718 C359.825706,29.7655076 360.014532,29.5775149 360.014532,28.9508727 L360.014532,25.3163475 L349.566156,25.3163475 C351.202649,26.5696321 352.839141,27.8855808 353.72033,29.0762011 L348.810852,32.7733905 C347.614953,31.1441206 344.971388,28.76288 342.642533,27.2589386 L345.223156,25.3163475 L338.991896,25.3163475 L338.991896,20.4912021 L341.446635,20.4912021 C340.817215,19.2379176 339.810142,17.8593046 338.991896,16.9820054 C344.656678,16.4180274 350.069692,15.2900713 354.727402,13.4728087 C353.342678,11.906203 351.391475,10.0889405 349.503214,8.58499904 C347.489069,9.33696976 345.160214,10.0889405 342.705476,10.778247 C341.950171,9.46229821 340.250737,7.45704296 339.054838,6.57974379 C346.607881,5.07580235 352.272663,2.88255442 355.545648,0.438649586 L361.713967,1.69193412 C360.832778,2.44390484 359.95159,3.13321133 359.00746,3.82251782 L367.756401,3.82251782 L368.952299,3.63452514 L372.791763,5.57711616 C370.022314,10.5902543 365.616372,14.0367867 360.2663,16.4806916 L367.126981,16.4806916 L367.126981,20.4912021 L374.239429,20.4912021 L374.239429,25.3163475 L367.126981,25.3163475 L367.126981,29.2015296 C367.126981,32.1467482 366.560503,33.462697 364.483416,34.3399962 C363.602227,34.7159815 362.469271,34.9039742 361.147488,35.0293026 C363.035749,36.2825872 364.92401,37.7238644 366.056966,38.9144847 L364.6093,40.3557619 L375.057676,40.3557619 L375.057676,46.4968561 Z M350.384402,10.7155827 L350.447344,14.2247794 C347.363185,14.5381006 344.467852,14.8514217 341.635461,15.1647428 L341.006041,11.4048892 C343.649606,11.2168966 346.733765,10.9662396 350.384402,10.7155827 Z M398.660935,18.799268 L419.746513,18.799268 C415.781165,16.3553631 412.067586,13.5981372 408.857543,10.6529185 C405.836325,13.7861298 402.374514,16.4180274 398.660935,18.799268 Z M421.823599,38.8518205 L412.634064,38.8518205 L412.634064,51.0713446 L420.501817,51.0713446 L416.284701,49.3167463 C418.235904,46.4968561 420.564759,42.1103602 421.823599,38.8518205 Z M404.577485,38.8518205 L395.073239,38.8518205 C397.27621,41.9223676 399.668007,46.0582065 400.549195,48.8154325 L395.387949,51.0713446 L404.577485,51.0713446 L404.577485,38.8518205 Z M425.285411,25.6296687 L412.634064,25.6296687 L412.634064,32.1467482 L432.71257,32.1467482 L432.71257,38.8518205 L422.76773,38.8518205 L429.061932,41.1077326 C426.858961,44.6169293 424.404222,48.3767829 422.45302,51.0713446 L435.985555,51.0713446 L435.985555,57.9017453 L381.540704,57.9017453 L381.540704,51.0713446 L393.940283,51.0713446 C392.933211,48.1887902 390.793182,44.0529513 388.716095,40.9197399 L393.688515,38.8518205 L384.561921,38.8518205 L384.561921,32.1467482 L404.577485,32.1467482 L404.577485,25.6296687 L391.800254,25.6296687 L391.800254,22.5591216 C389.156689,23.8124061 386.450182,24.9403622 383.680733,25.9429898 C382.673661,23.7497419 380.596574,20.9298517 378.708313,19.0499249 C390.541414,15.6660566 401.870978,9.33696976 407.85047,0 L414.962919,3.19587555 C414.396441,4.0105105 413.829962,4.82514545 413.200542,5.70244462 C419.368861,11.2168966 429.565468,16.4180274 439.006772,19.0499249 C437.307337,20.6791948 434.978482,23.6244134 433.845526,25.5670044 C431.013135,24.5643768 428.117802,23.3110923 425.285411,21.9324793 L425.285411,25.6296687 Z" id="恭喜你贏得獎金" fill="url(#linearGradient-1)"></path>
        </g>
    </g>
</svg>